<?xml version="1.0" encoding="utf-8"?>
<!-- Generator: Adobe Illustrator 27.2.0, SVG Export Plug-In . SVG Version: 6.00 Build 0)  -->
<svg version="1.1" id="Layer_1" xmlns="http://www.w3.org/2000/svg" xmlns:xlink="http://www.w3.org/1999/xlink" x="0px" y="0px"
	 viewBox="0 0 852.8 631.2" style="enable-background:new 0 0 852.8 631.2;" xml:space="preserve">
<style type="text/css">
	.st0{fill:#FFFFFF;}
	.st1{fill:none;stroke:#000000;stroke-width:0.57;stroke-miterlimit:10;}
</style>
<rect class="st0" width="852.8" height="631.2"/>
<line class="st1" x1="467.8" y1="133.6" x2="459.5" y2="144.7"/>
<line class="st1" x1="459.5" y1="144.7" x2="459.5" y2="144.7"/>
<line class="st1" x1="459.5" y1="144.7" x2="456.8" y2="149.6"/>
<line class="st1" x1="456.8" y1="149.6" x2="455.9" y2="155.2"/>
<line class="st1" x1="455.9" y1="155.2" x2="456.7" y2="160.8"/>
<line class="st1" x1="456.7" y1="160.8" x2="459.1" y2="165.8"/>
<line class="st1" x1="459.1" y1="165.8" x2="463.1" y2="169.9"/>
<line class="st1" x1="463.1" y1="169.9" x2="468" y2="172.5"/>
<line class="st1" x1="468" y1="172.5" x2="473.6" y2="173.5"/>
<line class="st1" x1="473.6" y1="173.5" x2="479.2" y2="172.7"/>
<line class="st1" x1="479.2" y1="172.7" x2="484.2" y2="170.2"/>
<line class="st1" x1="484.2" y1="170.2" x2="488.3" y2="166.3"/>
<line class="st1" x1="488.3" y1="166.3" x2="496.6" y2="155.2"/>
<line class="st1" x1="496.6" y1="155.2" x2="496.6" y2="155.2"/>
<line class="st1" x1="496.6" y1="155.2" x2="499.2" y2="150.2"/>
<line class="st1" x1="499.2" y1="150.2" x2="500.2" y2="144.7"/>
<line class="st1" x1="500.2" y1="144.7" x2="499.4" y2="139.1"/>
<line class="st1" x1="499.4" y1="139.1" x2="496.9" y2="134.1"/>
<line class="st1" x1="496.9" y1="134.1" x2="493" y2="130"/>
<line class="st1" x1="493" y1="130" x2="488" y2="127.4"/>
<line class="st1" x1="488" y1="127.4" x2="482.5" y2="126.4"/>
<line class="st1" x1="482.5" y1="126.4" x2="476.9" y2="127.2"/>
<line class="st1" x1="476.9" y1="127.2" x2="471.9" y2="129.7"/>
<line class="st1" x1="471.9" y1="129.7" x2="467.8" y2="133.6"/>
<path class="st1" d="M487.9,144.4c0-3.1-2.5-5.7-5.7-5.7c-3.1,0-5.7,2.5-5.7,5.7c0,3.1,2.5,5.7,5.7,5.7
	C485.3,150,487.9,147.5,487.9,144.4L487.9,144.4"/>
<path class="st1" d="M479.5,155.5c0-3.1-2.5-5.7-5.7-5.7c-3.1,0-5.7,2.5-5.7,5.7c0,3.1,2.5,5.7,5.7,5.7
	C477,161.2,479.5,158.6,479.5,155.5L479.5,155.5"/>
<line class="st1" x1="427.4" y1="39.4" x2="456.4" y2="159.7"/>
<line class="st1" x1="456.4" y1="159.7" x2="456.4" y2="159.7"/>
<line class="st1" x1="456.4" y1="159.7" x2="458.5" y2="164.9"/>
<line class="st1" x1="458.5" y1="164.9" x2="462.2" y2="169.2"/>
<line class="st1" x1="462.2" y1="169.2" x2="467" y2="172.1"/>
<line class="st1" x1="467" y1="172.1" x2="472.5" y2="173.4"/>
<line class="st1" x1="472.5" y1="173.4" x2="478.1" y2="173"/>
<line class="st1" x1="478.1" y1="173" x2="483.3" y2="170.8"/>
<line class="st1" x1="483.3" y1="170.8" x2="487.6" y2="167.2"/>
<line class="st1" x1="487.6" y1="167.2" x2="490.5" y2="162.4"/>
<line class="st1" x1="490.5" y1="162.4" x2="491.8" y2="156.9"/>
<line class="st1" x1="491.8" y1="156.9" x2="491.4" y2="151.3"/>
<line class="st1" x1="491.4" y1="151.3" x2="462.4" y2="30.9"/>
<line class="st1" x1="462.4" y1="30.9" x2="462.4" y2="30.9"/>
<line class="st1" x1="462.4" y1="30.9" x2="460.2" y2="25.7"/>
<line class="st1" x1="460.2" y1="25.7" x2="456.6" y2="21.5"/>
<line class="st1" x1="456.6" y1="21.5" x2="451.7" y2="18.5"/>
<line class="st1" x1="451.7" y1="18.5" x2="446.3" y2="17.2"/>
<line class="st1" x1="446.3" y1="17.2" x2="440.7" y2="17.7"/>
<line class="st1" x1="440.7" y1="17.7" x2="435.5" y2="19.8"/>
<line class="st1" x1="435.5" y1="19.8" x2="431.2" y2="23.5"/>
<line class="st1" x1="431.2" y1="23.5" x2="428.2" y2="28.3"/>
<line class="st1" x1="428.2" y1="28.3" x2="426.9" y2="33.8"/>
<line class="st1" x1="426.9" y1="33.8" x2="427.4" y2="39.4"/>
<path class="st1" d="M479.5,155.5c0-3.1-2.5-5.7-5.7-5.7c-3.1,0-5.7,2.5-5.7,5.7c0,3.1,2.5,5.7,5.7,5.7
	C477,161.2,479.5,158.6,479.5,155.5L479.5,155.5"/>
<path class="st1" d="M450.5,35.2c0-3.1-2.5-5.7-5.7-5.7c-3.1,0-5.7,2.5-5.7,5.7s2.5,5.7,5.7,5.7c0,0,0,0,0,0
	C448,40.8,450.5,38.3,450.5,35.2"/>
<line class="st1" x1="347.7" y1="139.8" x2="321.5" y2="299.4"/>
<line class="st1" x1="321.5" y1="299.4" x2="321.5" y2="299.4"/>
<line class="st1" x1="321.5" y1="299.4" x2="321.5" y2="305"/>
<line class="st1" x1="321.5" y1="305" x2="323.2" y2="310.4"/>
<line class="st1" x1="323.2" y1="310.4" x2="326.5" y2="314.9"/>
<line class="st1" x1="326.5" y1="314.9" x2="331" y2="318.3"/>
<line class="st1" x1="331" y1="318.3" x2="336.4" y2="320.1"/>
<line class="st1" x1="336.4" y1="320.1" x2="342" y2="320.1"/>
<line class="st1" x1="342" y1="320.1" x2="347.4" y2="318.4"/>
<line class="st1" x1="347.4" y1="318.4" x2="351.9" y2="315.1"/>
<line class="st1" x1="351.9" y1="315.1" x2="355.3" y2="310.6"/>
<line class="st1" x1="355.3" y1="310.6" x2="357" y2="305.2"/>
<line class="st1" x1="357" y1="305.2" x2="383.2" y2="145.6"/>
<line class="st1" x1="383.2" y1="145.6" x2="383.2" y2="145.6"/>
<line class="st1" x1="383.2" y1="145.6" x2="383.3" y2="140"/>
<line class="st1" x1="383.3" y1="140" x2="381.6" y2="134.6"/>
<line class="st1" x1="381.6" y1="134.6" x2="378.3" y2="130"/>
<line class="st1" x1="378.3" y1="130" x2="373.7" y2="126.7"/>
<line class="st1" x1="373.7" y1="126.7" x2="368.4" y2="124.9"/>
<line class="st1" x1="368.4" y1="124.9" x2="362.8" y2="124.9"/>
<line class="st1" x1="362.8" y1="124.9" x2="357.4" y2="126.6"/>
<line class="st1" x1="357.4" y1="126.6" x2="352.8" y2="129.9"/>
<line class="st1" x1="352.8" y1="129.9" x2="349.5" y2="134.4"/>
<line class="st1" x1="349.5" y1="134.4" x2="347.7" y2="139.8"/>
<path class="st1" d="M371.1,142.7c0-3.1-2.5-5.7-5.7-5.7c-3.1,0-5.7,2.5-5.7,5.7c0,3.1,2.5,5.7,5.7,5.7
	C368.6,148.4,371.1,145.8,371.1,142.7L371.1,142.7"/>
<path class="st1" d="M345,302.3c0-3.1-2.5-5.7-5.7-5.7s-5.7,2.5-5.7,5.7c0,3.1,2.5,5.7,5.7,5.7C342.4,308,345,305.4,345,302.3
	L345,302.3"/>
<line class="st1" x1="465.5" y1="139.6" x2="398.9" y2="174.6"/>
<line class="st1" x1="398.9" y1="174.6" x2="398.9" y2="174.6"/>
<line class="st1" x1="398.9" y1="174.6" x2="394.4" y2="177.9"/>
<line class="st1" x1="394.4" y1="177.9" x2="391.2" y2="182.5"/>
<line class="st1" x1="391.2" y1="182.5" x2="389.5" y2="187.9"/>
<line class="st1" x1="389.5" y1="187.9" x2="389.6" y2="193.5"/>
<line class="st1" x1="389.6" y1="193.5" x2="391.4" y2="198.9"/>
<line class="st1" x1="391.4" y1="198.9" x2="394.8" y2="203.4"/>
<line class="st1" x1="394.8" y1="203.4" x2="399.4" y2="206.6"/>
<line class="st1" x1="399.4" y1="206.6" x2="404.7" y2="208.3"/>
<line class="st1" x1="404.7" y1="208.3" x2="410.4" y2="208.2"/>
<line class="st1" x1="410.4" y1="208.2" x2="415.7" y2="206.4"/>
<line class="st1" x1="415.7" y1="206.4" x2="482.3" y2="171.4"/>
<line class="st1" x1="482.3" y1="171.4" x2="482.3" y2="171.4"/>
<line class="st1" x1="482.3" y1="171.4" x2="486.8" y2="168"/>
<line class="st1" x1="486.8" y1="168" x2="490" y2="163.4"/>
<line class="st1" x1="490" y1="163.4" x2="491.7" y2="158.1"/>
<line class="st1" x1="491.7" y1="158.1" x2="491.6" y2="152.4"/>
<line class="st1" x1="491.6" y1="152.4" x2="489.8" y2="147.1"/>
<line class="st1" x1="489.8" y1="147.1" x2="486.4" y2="142.6"/>
<line class="st1" x1="486.4" y1="142.6" x2="481.8" y2="139.3"/>
<line class="st1" x1="481.8" y1="139.3" x2="476.5" y2="137.7"/>
<line class="st1" x1="476.5" y1="137.7" x2="470.8" y2="137.7"/>
<line class="st1" x1="470.8" y1="137.7" x2="465.5" y2="139.6"/>
<path class="st1" d="M479.5,155.5c0-3.1-2.5-5.7-5.7-5.7c-3.1,0-5.7,2.5-5.7,5.7c0,3.1,2.5,5.7,5.7,5.7
	C477,161.2,479.5,158.6,479.5,155.5L479.5,155.5"/>
<path class="st1" d="M413,190.5c0-3.1-2.5-5.7-5.7-5.7c-3.1,0-5.7,2.5-5.7,5.7c0,3.1,2.5,5.7,5.7,5.7
	C410.5,196.2,413,193.6,413,190.5L413,190.5"/>
<line class="st1" x1="434.7" y1="507.3" x2="409.9" y2="510.7"/>
<line class="st1" x1="409.9" y1="510.7" x2="409.9" y2="510.7"/>
<line class="st1" x1="409.9" y1="510.7" x2="409.5" y2="510.8"/>
<line class="st1" x1="409.5" y1="510.8" x2="409" y2="510.9"/>
<line class="st1" x1="409" y1="510.9" x2="408.5" y2="511"/>
<line class="st1" x1="408.5" y1="511" x2="408" y2="511.1"/>
<line class="st1" x1="408" y1="511.1" x2="407.6" y2="511.2"/>
<line class="st1" x1="407.6" y1="511.2" x2="407.1" y2="511.3"/>
<line class="st1" x1="407.1" y1="511.3" x2="406.6" y2="511.5"/>
<line class="st1" x1="406.6" y1="511.5" x2="406.2" y2="511.6"/>
<line class="st1" x1="406.2" y1="511.6" x2="405.7" y2="511.8"/>
<line class="st1" x1="405.7" y1="511.8" x2="405.3" y2="512"/>
<line class="st1" x1="405.3" y1="512" x2="284.9" y2="564.1"/>
<line class="st1" x1="284.9" y1="564.1" x2="284.9" y2="564.1"/>
<line class="st1" x1="284.9" y1="564.1" x2="280.9" y2="566.5"/>
<line class="st1" x1="280.9" y1="566.5" x2="277.6" y2="569.8"/>
<line class="st1" x1="277.6" y1="569.8" x2="275.4" y2="573.9"/>
<line class="st1" x1="275.4" y1="573.9" x2="274.2" y2="578.4"/>
<line class="st1" x1="274.2" y1="578.4" x2="274.2" y2="583.1"/>
<line class="st1" x1="274.2" y1="583.1" x2="275.5" y2="587.6"/>
<line class="st1" x1="275.5" y1="587.6" x2="277.8" y2="591.6"/>
<line class="st1" x1="277.8" y1="591.6" x2="281.2" y2="594.9"/>
<line class="st1" x1="281.2" y1="594.9" x2="285.2" y2="597.2"/>
<line class="st1" x1="285.2" y1="597.2" x2="289.7" y2="598.4"/>
<line class="st1" x1="289.7" y1="598.4" x2="407.5" y2="613.8"/>
<line class="st1" x1="407.5" y1="613.8" x2="407.5" y2="613.8"/>
<line class="st1" x1="407.5" y1="613.8" x2="409.9" y2="614"/>
<line class="st1" x1="409.9" y1="614" x2="412.3" y2="613.8"/>
<line class="st1" x1="412.3" y1="613.8" x2="414.7" y2="613.3"/>
<line class="st1" x1="414.7" y1="613.3" x2="416.9" y2="612.5"/>
<line class="st1" x1="416.9" y1="612.5" x2="419.1" y2="611.4"/>
<line class="st1" x1="419.1" y1="611.4" x2="421" y2="610.1"/>
<line class="st1" x1="421" y1="610.1" x2="422.8" y2="608.5"/>
<line class="st1" x1="422.8" y1="608.5" x2="424.4" y2="606.6"/>
<line class="st1" x1="424.4" y1="606.6" x2="425.7" y2="604.6"/>
<line class="st1" x1="425.7" y1="604.6" x2="426.7" y2="602.4"/>
<line class="st1" x1="426.7" y1="602.4" x2="454" y2="531.6"/>
<line class="st1" x1="454" y1="531.6" x2="454" y2="531.6"/>
<line class="st1" x1="454" y1="531.6" x2="455" y2="528"/>
<line class="st1" x1="455" y1="528" x2="455.2" y2="524.2"/>
<line class="st1" x1="455.2" y1="524.2" x2="454.6" y2="520.6"/>
<line class="st1" x1="454.6" y1="520.6" x2="453.3" y2="517.1"/>
<line class="st1" x1="453.3" y1="517.1" x2="451.3" y2="513.9"/>
<line class="st1" x1="451.3" y1="513.9" x2="448.7" y2="511.2"/>
<line class="st1" x1="448.7" y1="511.2" x2="445.6" y2="509.2"/>
<line class="st1" x1="445.6" y1="509.2" x2="442.1" y2="507.8"/>
<line class="st1" x1="442.1" y1="507.8" x2="438.5" y2="507.1"/>
<line class="st1" x1="438.5" y1="507.1" x2="434.7" y2="507.3"/>
<path class="st1" d="M442.9,525.1c0-3.1-2.5-5.7-5.7-5.7s-5.7,2.5-5.7,5.7c0,3.1,2.5,5.7,5.7,5.7l0,0
	C440.3,530.8,442.9,528.2,442.9,525.1C442.9,525.1,442.9,525.1,442.9,525.1"/>
<path class="st1" d="M418.1,528.5c0-3.1-2.5-5.7-5.7-5.7s-5.7,2.5-5.7,5.7c0,3.1,2.5,5.7,5.7,5.7l0,0
	C415.5,534.2,418.1,531.7,418.1,528.5C418.1,528.5,418.1,528.5,418.1,528.5"/>
<path class="st1" d="M415.5,596c0-3.1-2.5-5.7-5.7-5.7c-3.1,0-5.7,2.5-5.7,5.7c0,3.1,2.5,5.7,5.7,5.7l0,0
	C413,601.6,415.5,599.1,415.5,596"/>
<path class="st1" d="M297.7,580.6c0-3.1-2.5-5.7-5.7-5.7c-3.1,0-5.7,2.5-5.7,5.7c0,3.1,2.5,5.7,5.7,5.7l0,0
	C295.2,586.3,297.7,583.7,297.7,580.6"/>
<line class="st1" x1="363" y1="276.4" x2="394.6" y2="530.7"/>
<line class="st1" x1="394.6" y1="530.7" x2="394.6" y2="530.7"/>
<line class="st1" x1="394.6" y1="530.7" x2="396.1" y2="536.2"/>
<line class="st1" x1="396.1" y1="536.2" x2="399.3" y2="540.8"/>
<line class="st1" x1="399.3" y1="540.8" x2="403.7" y2="544.3"/>
<line class="st1" x1="403.7" y1="544.3" x2="409" y2="546.2"/>
<line class="st1" x1="409" y1="546.2" x2="414.6" y2="546.4"/>
<line class="st1" x1="414.6" y1="546.4" x2="420" y2="544.8"/>
<line class="st1" x1="420" y1="544.8" x2="424.7" y2="541.7"/>
<line class="st1" x1="424.7" y1="541.7" x2="428.2" y2="537.2"/>
<line class="st1" x1="428.2" y1="537.2" x2="430.1" y2="531.9"/>
<line class="st1" x1="430.1" y1="531.9" x2="430.3" y2="526.3"/>
<line class="st1" x1="430.3" y1="526.3" x2="398.7" y2="271.9"/>
<line class="st1" x1="398.7" y1="271.9" x2="398.7" y2="271.9"/>
<line class="st1" x1="398.7" y1="271.9" x2="397.1" y2="266.5"/>
<line class="st1" x1="397.1" y1="266.5" x2="394" y2="261.9"/>
<line class="st1" x1="394" y1="261.9" x2="389.5" y2="258.4"/>
<line class="st1" x1="389.5" y1="258.4" x2="384.3" y2="256.5"/>
<line class="st1" x1="384.3" y1="256.5" x2="378.6" y2="256.3"/>
<line class="st1" x1="378.6" y1="256.3" x2="373.2" y2="257.8"/>
<line class="st1" x1="373.2" y1="257.8" x2="368.5" y2="261"/>
<line class="st1" x1="368.5" y1="261" x2="365.1" y2="265.4"/>
<line class="st1" x1="365.1" y1="265.4" x2="363.2" y2="270.7"/>
<line class="st1" x1="363.2" y1="270.7" x2="363" y2="276.4"/>
<path class="st1" d="M418.1,528.5c0-3.1-2.5-5.7-5.7-5.7s-5.7,2.5-5.7,5.7c0,3.1,2.5,5.7,5.7,5.7l0,0
	C415.5,534.2,418.1,531.7,418.1,528.5C418.1,528.5,418.1,528.5,418.1,528.5"/>
<path class="st1" d="M386.5,274.1c0-3.1-2.5-5.7-5.7-5.7s-5.7,2.5-5.7,5.7c0,3.1,2.5,5.7,5.7,5.7C384,279.8,386.5,277.3,386.5,274.1
	L386.5,274.1"/>
<line class="st1" x1="430.4" y1="24.5" x2="351" y2="132"/>
<line class="st1" x1="351" y1="132" x2="351" y2="132"/>
<line class="st1" x1="351" y1="132" x2="349" y2="135.5"/>
<line class="st1" x1="349" y1="135.5" x2="347.8" y2="139.3"/>
<line class="st1" x1="347.8" y1="139.3" x2="347.5" y2="143.2"/>
<line class="st1" x1="347.5" y1="143.2" x2="348" y2="147.2"/>
<line class="st1" x1="348" y1="147.2" x2="349.5" y2="150.9"/>
<line class="st1" x1="349.5" y1="150.9" x2="351.7" y2="154.2"/>
<line class="st1" x1="351.7" y1="154.2" x2="354.5" y2="157"/>
<line class="st1" x1="354.5" y1="157" x2="358" y2="159.1"/>
<line class="st1" x1="358" y1="159.1" x2="361.7" y2="160.3"/>
<line class="st1" x1="361.7" y1="160.3" x2="365.7" y2="160.7"/>
<line class="st1" x1="365.7" y1="160.7" x2="435.6" y2="159.8"/>
<line class="st1" x1="435.6" y1="159.8" x2="435.6" y2="159.8"/>
<line class="st1" x1="435.6" y1="159.8" x2="438.3" y2="159.5"/>
<line class="st1" x1="438.3" y1="159.5" x2="440.8" y2="158.9"/>
<line class="st1" x1="440.8" y1="158.9" x2="443.3" y2="157.9"/>
<line class="st1" x1="443.3" y1="157.9" x2="445.6" y2="156.6"/>
<line class="st1" x1="445.6" y1="156.6" x2="447.6" y2="155"/>
<line class="st1" x1="447.6" y1="155" x2="449.4" y2="153"/>
<line class="st1" x1="449.4" y1="153" x2="450.9" y2="150.9"/>
<line class="st1" x1="450.9" y1="150.9" x2="452.1" y2="148.5"/>
<line class="st1" x1="452.1" y1="148.5" x2="452.9" y2="146"/>
<line class="st1" x1="452.9" y1="146" x2="453.3" y2="143.4"/>
<line class="st1" x1="453.3" y1="143.4" x2="462.8" y2="36.7"/>
<line class="st1" x1="462.8" y1="36.7" x2="462.8" y2="36.7"/>
<line class="st1" x1="462.8" y1="36.7" x2="462.6" y2="32.1"/>
<line class="st1" x1="462.6" y1="32.1" x2="461.2" y2="27.6"/>
<line class="st1" x1="461.2" y1="27.6" x2="458.8" y2="23.7"/>
<line class="st1" x1="458.8" y1="23.7" x2="455.4" y2="20.5"/>
<line class="st1" x1="455.4" y1="20.5" x2="451.3" y2="18.3"/>
<line class="st1" x1="451.3" y1="18.3" x2="446.7" y2="17.3"/>
<line class="st1" x1="446.7" y1="17.3" x2="442.1" y2="17.4"/>
<line class="st1" x1="442.1" y1="17.4" x2="437.6" y2="18.7"/>
<line class="st1" x1="437.6" y1="18.7" x2="433.6" y2="21.1"/>
<line class="st1" x1="433.6" y1="21.1" x2="430.4" y2="24.5"/>
<path class="st1" d="M371.1,142.7c0-3.1-2.5-5.7-5.7-5.7c-3.1,0-5.7,2.5-5.7,5.7c0,3.1,2.5,5.7,5.7,5.7
	C368.6,148.4,371.1,145.8,371.1,142.7L371.1,142.7"/>
<path class="st1" d="M441.1,141.8c0-3.1-2.5-5.7-5.7-5.7c-3.1,0-5.7,2.5-5.7,5.7c0,3.1,2.5,5.7,5.7,5.7
	C438.5,147.4,441.1,144.9,441.1,141.8L441.1,141.8"/>
<path class="st1" d="M450.5,35.2c0-3.1-2.5-5.7-5.7-5.7c-3.1,0-5.7,2.5-5.7,5.7s2.5,5.7,5.7,5.7c0,0,0,0,0,0
	C448,40.8,450.5,38.3,450.5,35.2"/>
<line class="st1" x1="381.3" y1="283.5" x2="338.9" y2="284.3"/>
<line class="st1" x1="338.9" y1="284.3" x2="338.9" y2="284.3"/>
<line class="st1" x1="338.9" y1="284.3" x2="335.4" y2="284.7"/>
<line class="st1" x1="335.4" y1="284.7" x2="332.1" y2="285.8"/>
<line class="st1" x1="332.1" y1="285.8" x2="329" y2="287.5"/>
<line class="st1" x1="329" y1="287.5" x2="326.3" y2="289.8"/>
<line class="st1" x1="326.3" y1="289.8" x2="324.1" y2="292.6"/>
<line class="st1" x1="324.1" y1="292.6" x2="322.5" y2="295.7"/>
<line class="st1" x1="322.5" y1="295.7" x2="321.6" y2="299.1"/>
<line class="st1" x1="321.6" y1="299.1" x2="321.3" y2="302.7"/>
<line class="st1" x1="321.3" y1="302.7" x2="321.7" y2="306.2"/>
<line class="st1" x1="321.7" y1="306.2" x2="322.8" y2="309.5"/>
<line class="st1" x1="322.8" y1="309.5" x2="420.7" y2="532.3"/>
<line class="st1" x1="420.7" y1="532.3" x2="420.7" y2="532.3"/>
<line class="st1" x1="420.7" y1="532.3" x2="423.6" y2="536.8"/>
<line class="st1" x1="423.6" y1="536.8" x2="427.6" y2="540.3"/>
<line class="st1" x1="427.6" y1="540.3" x2="432.5" y2="542.5"/>
<line class="st1" x1="432.5" y1="542.5" x2="437.8" y2="543.1"/>
<line class="st1" x1="437.8" y1="543.1" x2="443" y2="542.1"/>
<line class="st1" x1="443" y1="542.1" x2="447.7" y2="539.7"/>
<line class="st1" x1="447.7" y1="539.7" x2="451.5" y2="536"/>
<line class="st1" x1="451.5" y1="536" x2="454.1" y2="531.3"/>
<line class="st1" x1="454.1" y1="531.3" x2="455.2" y2="526.1"/>
<line class="st1" x1="455.2" y1="526.1" x2="454.7" y2="520.8"/>
<line class="st1" x1="454.7" y1="520.8" x2="399.2" y2="297.1"/>
<line class="st1" x1="399.2" y1="297.1" x2="399.2" y2="297.1"/>
<line class="st1" x1="399.2" y1="297.1" x2="398.4" y2="294.8"/>
<line class="st1" x1="398.4" y1="294.8" x2="397.4" y2="292.6"/>
<line class="st1" x1="397.4" y1="292.6" x2="396" y2="290.6"/>
<line class="st1" x1="396" y1="290.6" x2="394.5" y2="288.8"/>
<line class="st1" x1="394.5" y1="288.8" x2="392.6" y2="287.2"/>
<line class="st1" x1="392.6" y1="287.2" x2="390.6" y2="285.8"/>
<line class="st1" x1="390.6" y1="285.8" x2="388.4" y2="284.8"/>
<line class="st1" x1="388.4" y1="284.8" x2="386.1" y2="284"/>
<line class="st1" x1="386.1" y1="284" x2="383.8" y2="283.6"/>
<line class="st1" x1="383.8" y1="283.6" x2="381.3" y2="283.5"/>
<path class="st1" d="M345,302.3c0-3.1-2.5-5.7-5.7-5.7s-5.7,2.5-5.7,5.7c0,3.1,2.5,5.7,5.7,5.7C342.4,308,345,305.4,345,302.3
	L345,302.3"/>
<path class="st1" d="M442.9,525.1c0-3.1-2.5-5.7-5.7-5.7s-5.7,2.5-5.7,5.7c0,3.1,2.5,5.7,5.7,5.7l0,0
	C440.3,530.8,442.9,528.2,442.9,525.1C442.9,525.1,442.9,525.1,442.9,525.1"/>
<path class="st1" d="M387.4,301.5c0-3.1-2.5-5.7-5.7-5.7s-5.7,2.5-5.7,5.7c0,3.1,2.5,5.7,5.7,5.7
	C384.8,307.1,387.4,304.6,387.4,301.5L387.4,301.5"/>
<line class="st1" x1="420.1" y1="132.2" x2="308.4" y2="311.6"/>
<line class="st1" x1="308.4" y1="311.6" x2="308.4" y2="311.6"/>
<line class="st1" x1="308.4" y1="311.6" x2="306.5" y2="315.6"/>
<line class="st1" x1="306.5" y1="315.6" x2="305.7" y2="319.9"/>
<line class="st1" x1="305.7" y1="319.9" x2="306" y2="324.3"/>
<line class="st1" x1="306" y1="324.3" x2="307.3" y2="328.5"/>
<line class="st1" x1="307.3" y1="328.5" x2="309.6" y2="332.3"/>
<line class="st1" x1="309.6" y1="332.3" x2="312.7" y2="335.4"/>
<line class="st1" x1="312.7" y1="335.4" x2="316.5" y2="337.6"/>
<line class="st1" x1="316.5" y1="337.6" x2="320.7" y2="338.8"/>
<line class="st1" x1="320.7" y1="338.8" x2="325.1" y2="339"/>
<line class="st1" x1="325.1" y1="339" x2="329.4" y2="338.1"/>
<line class="st1" x1="329.4" y1="338.1" x2="387.5" y2="318.5"/>
<line class="st1" x1="387.5" y1="318.5" x2="387.5" y2="318.5"/>
<line class="st1" x1="387.5" y1="318.5" x2="389" y2="317.9"/>
<line class="st1" x1="389" y1="317.9" x2="390.5" y2="317.2"/>
<line class="st1" x1="390.5" y1="317.2" x2="391.9" y2="316.3"/>
<line class="st1" x1="391.9" y1="316.3" x2="393.2" y2="315.3"/>
<line class="st1" x1="393.2" y1="315.3" x2="394.4" y2="314.2"/>
<line class="st1" x1="394.4" y1="314.2" x2="395.5" y2="313"/>
<line class="st1" x1="395.5" y1="313" x2="396.5" y2="311.6"/>
<line class="st1" x1="396.5" y1="311.6" x2="397.4" y2="310.2"/>
<line class="st1" x1="397.4" y1="310.2" x2="398.2" y2="308.8"/>
<line class="st1" x1="398.2" y1="308.8" x2="398.8" y2="307.2"/>
<line class="st1" x1="398.8" y1="307.2" x2="452.5" y2="147.5"/>
<line class="st1" x1="452.5" y1="147.5" x2="452.5" y2="147.5"/>
<line class="st1" x1="452.5" y1="147.5" x2="453.4" y2="142.4"/>
<line class="st1" x1="453.4" y1="142.4" x2="452.8" y2="137.2"/>
<line class="st1" x1="452.8" y1="137.2" x2="450.8" y2="132.4"/>
<line class="st1" x1="450.8" y1="132.4" x2="447.4" y2="128.4"/>
<line class="st1" x1="447.4" y1="128.4" x2="443.1" y2="125.5"/>
<line class="st1" x1="443.1" y1="125.5" x2="438.1" y2="124"/>
<line class="st1" x1="438.1" y1="124" x2="432.9" y2="123.9"/>
<line class="st1" x1="432.9" y1="123.9" x2="427.9" y2="125.4"/>
<line class="st1" x1="427.9" y1="125.4" x2="423.5" y2="128.3"/>
<line class="st1" x1="423.5" y1="128.3" x2="420.1" y2="132.2"/>
<path class="st1" d="M441.1,141.8c0-3.1-2.5-5.7-5.7-5.7c-3.1,0-5.7,2.5-5.7,5.7c0,3.1,2.5,5.7,5.7,5.7
	C438.5,147.4,441.1,144.9,441.1,141.8L441.1,141.8"/>
<path class="st1" d="M387.4,301.5c0-3.1-2.5-5.7-5.7-5.7s-5.7,2.5-5.7,5.7c0,3.1,2.5,5.7,5.7,5.7
	C384.8,307.1,387.4,304.6,387.4,301.5L387.4,301.5"/>
<path class="st1" d="M413,190.5c0-3.1-2.5-5.7-5.7-5.7c-3.1,0-5.7,2.5-5.7,5.7c0,3.1,2.5,5.7,5.7,5.7
	C410.5,196.2,413,193.6,413,190.5L413,190.5"/>
<path class="st1" d="M386.5,274.1c0-3.1-2.5-5.7-5.7-5.7s-5.7,2.5-5.7,5.7c0,3.1,2.5,5.7,5.7,5.7C384,279.8,386.5,277.3,386.5,274.1
	L386.5,274.1"/>
<path class="st1" d="M329.3,321.1c0-3.1-2.5-5.7-5.7-5.7s-5.7,2.5-5.7,5.7c0,3.1,2.5,5.7,5.7,5.7
	C326.8,326.8,329.3,324.2,329.3,321.1L329.3,321.1"/>
<path d="M476,148.8v-0.5c0.4,0,0.7-0.1,1.1-0.2c0.3-0.2,0.4-0.5,0.5-0.8h0.5v5.6h-0.8v-4L476,148.8z"/>
<path d="M457.1,96.9c0.2-0.4,0.6-0.8,1-1l0.8-0.4c0.3-0.1,0.5-0.3,0.7-0.5c0.2-0.2,0.3-0.5,0.3-0.7c0-0.3-0.1-0.6-0.3-0.8
	c-0.2-0.2-0.5-0.3-0.8-0.3c-0.4,0-0.8,0.2-1,0.5c-0.1,0.3-0.2,0.5-0.2,0.8h-0.7c0-0.4,0.1-0.8,0.3-1.2c0.3-0.6,1-0.9,1.6-0.8
	c0.9-0.1,1.7,0.5,1.9,1.4c0,0.1,0,0.2,0,0.3c0,0.4-0.2,0.8-0.5,1.2c-0.3,0.3-0.6,0.5-1,0.7l-0.5,0.3c-0.2,0.1-0.4,0.2-0.6,0.4
	c-0.2,0.2-0.4,0.5-0.5,0.8h3v0.7h-3.8C456.8,97.8,456.9,97.3,457.1,96.9z"/>
<path d="M350.2,224.9c-0.3-0.4-0.5-0.8-0.5-1.3h0.7c0,0.3,0.1,0.5,0.2,0.8c0.2,0.3,0.6,0.5,1,0.4c0.3,0,0.6-0.1,0.9-0.3
	c0.2-0.2,0.3-0.5,0.3-0.8c0-0.3-0.1-0.6-0.4-0.8c-0.3-0.2-0.7-0.3-1-0.2h-0.3v-0.6h0.2h0.2c0.2,0,0.4,0,0.6-0.1
	c0.3-0.1,0.5-0.5,0.5-0.8c0-0.3-0.1-0.5-0.3-0.6c-0.2-0.1-0.5-0.2-0.7-0.2c-0.4-0.1-0.8,0.1-1,0.5c-0.1,0.2-0.2,0.5-0.2,0.7h-0.7
	c0-0.4,0.1-0.7,0.2-1.1c0.3-0.5,0.9-0.8,1.5-0.8c0.5,0,0.9,0.1,1.3,0.4c0.3,0.3,0.5,0.7,0.5,1.1c0,0.3-0.1,0.6-0.3,0.8
	c-0.1,0.1-0.3,0.2-0.4,0.3c0.3,0.1,0.5,0.2,0.7,0.5c0.2,0.2,0.3,0.5,0.2,0.8c0,0.5-0.2,1-0.5,1.3c-0.4,0.4-1,0.5-1.5,0.5
	C351.1,225.5,350.6,225.3,350.2,224.9z"/>
<path d="M440.4,175.8v-1.4H438v-0.7l2.6-3.6h0.6v3.6h0.8v0.6h-0.8v1.4H440.4z M440.4,173.8v-2.5l-1.8,2.5H440.4z"/>
<path d="M386,559c0,0.4,0.2,0.7,0.6,0.8c0.2,0.1,0.4,0.1,0.6,0.1c0.4,0,0.7-0.1,0.9-0.4c0.2-0.3,0.3-0.6,0.3-0.9
	c0-0.3-0.1-0.7-0.4-0.9c-0.2-0.2-0.5-0.3-0.9-0.3c-0.2,0-0.4,0-0.6,0.1c-0.2,0.1-0.3,0.2-0.4,0.4h-0.6l0.4-3h2.9v0.7h-2.4l-0.2,1.5
	c0.1-0.1,0.2-0.2,0.4-0.2c0.2-0.1,0.5-0.1,0.7-0.1c0.5,0,1,0.2,1.3,0.5c0.3,0.3,0.5,0.8,0.5,1.2c0,0.5-0.2,1-0.5,1.4
	c-0.4,0.4-1,0.7-1.6,0.6c-0.4,0-0.9-0.1-1.2-0.4c-0.4-0.3-0.6-0.7-0.6-1.2L386,559z"/>
<path d="M397.4,399c0.2,0.3,0.4,0.6,0.4,1h-0.7c0-0.2-0.1-0.4-0.2-0.5c-0.2-0.2-0.5-0.4-0.8-0.4c-0.4,0-0.7,0.2-0.9,0.5
	c-0.3,0.5-0.4,1-0.4,1.6c0.2-0.2,0.4-0.4,0.6-0.5c0.7-0.3,1.4-0.2,2,0.3c0.4,0.3,0.6,0.8,0.5,1.3c0,0.5-0.2,1-0.5,1.4
	c-0.4,0.4-0.9,0.6-1.4,0.6c-0.5,0-1-0.2-1.4-0.6c-0.4-0.6-0.6-1.3-0.6-2c0-0.6,0.1-1.2,0.3-1.8c0.2-0.8,0.9-1.4,1.8-1.4
	C396.6,398.5,397.1,398.7,397.4,399z M396.9,403.3c0.2-0.3,0.3-0.6,0.3-0.9c0-0.3-0.1-0.6-0.2-0.8c-0.2-0.3-0.5-0.4-0.9-0.4
	c-0.3,0-0.6,0.1-0.8,0.3c-0.2,0.2-0.4,0.6-0.3,0.9c0,0.3,0.1,0.6,0.3,0.9c0.2,0.2,0.5,0.4,0.9,0.4
	C396.4,403.7,396.7,403.6,396.9,403.3z"/>
<path d="M416.6,103.9v0.6c-0.3,0.3-0.5,0.6-0.7,0.9c-0.3,0.4-0.6,0.9-0.8,1.4c-0.2,0.4-0.4,0.9-0.5,1.3c-0.1,0.3-0.2,0.7-0.3,1.2
	h-0.8c0.2-1.1,0.6-2.2,1.2-3.2c0.3-0.6,0.7-1.1,1.1-1.6h-3.1v-0.7H416.6z"/>
<path d="M384,375.8c-0.2-0.2-0.3-0.5-0.3-0.8c0-0.4,0.2-0.8,0.5-1.1c0.3-0.3,0.8-0.5,1.3-0.5c0.5,0,0.9,0.1,1.3,0.4
	c0.5,0.5,0.6,1.3,0.2,1.8c-0.1,0.1-0.3,0.3-0.5,0.4c0.2,0.1,0.4,0.2,0.5,0.4c0.3,0.3,0.4,0.6,0.4,1c0,0.5-0.2,0.9-0.5,1.2
	c-0.4,0.4-0.9,0.6-1.4,0.5c-0.5,0-1-0.1-1.4-0.5c-0.6-0.5-0.7-1.4-0.3-2.1c0.2-0.3,0.4-0.4,0.7-0.5C384.3,376.1,384.1,376,384,375.8
	z M386.2,378.4c0.2-0.2,0.3-0.5,0.3-0.8c0-0.3-0.1-0.6-0.3-0.8c-0.2-0.2-0.5-0.3-0.9-0.3c-0.3,0-0.6,0.1-0.8,0.3
	c-0.2,0.2-0.3,0.5-0.3,0.8c0,0.3,0.1,0.6,0.3,0.8c0.2,0.2,0.6,0.3,0.9,0.3C385.7,378.7,386,378.6,386.2,378.4z M386.1,375.6
	c0.2-0.2,0.3-0.4,0.3-0.6c0-0.2-0.1-0.4-0.2-0.6c-0.2-0.2-0.5-0.3-0.8-0.3c-0.5-0.1-0.9,0.2-1,0.7c0,0.1,0,0.1,0,0.2
	c0,0.2,0.1,0.5,0.3,0.6c0.2,0.1,0.4,0.2,0.7,0.2C385.6,375.9,385.9,375.8,386.1,375.6L386.1,375.6z"/>
<path d="M384,247.3c0,0.3,0.2,0.6,0.5,0.8c0.2,0.1,0.3,0.1,0.5,0.1c0.3,0,0.7-0.2,0.9-0.4c0.3-0.5,0.5-1.1,0.5-1.7
	c-0.1,0.2-0.3,0.4-0.6,0.5c-0.2,0.1-0.5,0.2-0.7,0.1c-0.5,0-0.9-0.2-1.3-0.5c-0.3-0.4-0.5-0.8-0.5-1.3c0-0.5,0.2-1,0.5-1.3
	c0.7-0.7,1.9-0.8,2.7,0c0.2,0.2,0.3,0.4,0.4,0.6c0.2,0.5,0.3,1,0.3,1.5c0,0.6-0.1,1.2-0.3,1.8c-0.2,0.8-0.9,1.3-1.7,1.3
	c-0.5,0-0.9-0.1-1.3-0.4c-0.3-0.3-0.4-0.7-0.4-1.1L384,247.3z M385.8,245.9c0.3-0.3,0.4-0.6,0.4-1c0-0.3-0.1-0.7-0.3-0.9
	c-0.2-0.2-0.5-0.3-0.8-0.3c-0.3,0-0.6,0.1-0.8,0.3c-0.4,0.5-0.4,1.3,0,1.8c0.2,0.2,0.5,0.4,0.9,0.3
	C385.4,246.1,385.6,246,385.8,245.9L385.8,245.9z"/>
<path class="st1" d="M209,149.2c0-0.8-0.6-1.4-1.4-1.4s-1.4,0.6-1.4,1.4s0.6,1.4,1.4,1.4l0,0C208.3,150.6,209,149.9,209,149.2"/>
<path d="M213.3,139c-0.4,0.7-0.7,1.4-1,2.2c-0.2,0.8-0.4,1.6-0.4,2.5c0,0.9,0.1,1.8,0.4,2.6c0.3,0.7,0.6,1.4,1,2.1h-0.6
	c-0.5-0.8-0.8-1.2-0.9-1.4s-0.2-0.5-0.4-0.8c-0.2-0.5-0.3-1-0.4-1.5c0-0.3,0-0.5-0.1-0.8c0-0.9,0.1-1.8,0.4-2.6
	c0.3-0.7,0.7-1.5,1.2-2.1L213.3,139z"/>
<path d="M214.5,145.8c-0.4-0.5-0.6-1.1-0.6-1.7h0.9c0,0.3,0.1,0.7,0.3,1c0.3,0.4,0.7,0.6,1.2,0.6c0.4,0,0.8-0.1,1.1-0.4
	c0.3-0.2,0.4-0.6,0.4-1c0-0.4-0.1-0.8-0.4-1c-0.4-0.2-0.8-0.3-1.2-0.3h-0.4v-0.8h0.2h0.2c0.3,0,0.6,0,0.8-0.2c0.4-0.2,0.6-0.6,0.6-1
	c0-0.3-0.1-0.6-0.4-0.8c-0.2-0.2-0.6-0.3-0.9-0.3c-0.5,0-1,0.2-1.2,0.6c-0.1,0.3-0.2,0.6-0.2,0.9h-0.9c0-0.5,0.1-0.9,0.3-1.3
	c0.4-0.7,1.1-1.1,1.9-1c0.6,0,1.2,0.1,1.7,0.5c0.4,0.3,0.6,0.9,0.6,1.4c0,0.4-0.1,0.7-0.3,1c-0.2,0.2-0.3,0.3-0.6,0.4
	c0.3,0.1,0.7,0.3,0.9,0.6c0.2,0.3,0.3,0.7,0.3,1.1c0,0.6-0.2,1.2-0.7,1.6c-0.5,0.4-1.2,0.7-1.9,0.6
	C215.7,146.5,215,146.3,214.5,145.8z"/>
<path d="M222.6,146.4v-1.7h-3.1v-0.9l3.2-4.4h0.8v4.5h1v0.8h-1v1.7H222.6z M222.6,143.9v-3.2l-2.2,3.2H222.6z"/>
<path d="M225.7,145.3h1v1.1h-1V145.3z"/>
<path d="M232.2,139.9c0.3,0.4,0.5,0.8,0.5,1.2h-0.9c0-0.2-0.1-0.4-0.2-0.6c-0.2-0.3-0.6-0.5-1-0.4c-0.5,0-0.9,0.3-1.2,0.7
	c-0.3,0.6-0.5,1.3-0.5,2c0.2-0.3,0.5-0.5,0.8-0.7c0.3-0.1,0.6-0.2,0.9-0.2c0.6,0,1.1,0.2,1.5,0.6c0.5,0.4,0.7,1,0.7,1.7
	c0,0.6-0.2,1.2-0.6,1.7c-0.4,0.5-1.1,0.8-1.8,0.7c-0.6,0-1.3-0.3-1.7-0.8c-0.6-0.7-0.8-1.6-0.7-2.5c0-0.7,0.1-1.5,0.3-2.2
	c0.2-1,1.2-1.8,2.2-1.7C231.1,139.3,231.7,139.5,232.2,139.9z M231.5,145.3c0.2-0.3,0.4-0.7,0.4-1.1c0-0.4-0.1-0.7-0.3-1
	c-0.3-0.3-0.7-0.5-1.1-0.5c-0.4,0-0.7,0.1-1,0.4c-0.3,0.3-0.5,0.7-0.4,1.1c0,0.4,0.1,0.8,0.4,1.1c0.3,0.3,0.7,0.5,1.1,0.5
	C230.9,145.8,231.3,145.6,231.5,145.3z"/>
<path d="M234,145.8c-0.4-0.5-0.6-1.1-0.6-1.7h0.9c0,0.3,0.1,0.7,0.2,1c0.3,0.4,0.7,0.6,1.2,0.6c0.4,0,0.8-0.1,1.1-0.4
	c0.3-0.2,0.4-0.6,0.4-1c0-0.4-0.1-0.8-0.4-1c-0.4-0.2-0.8-0.3-1.2-0.3h-0.4v-0.8h0.2h0.2c0.3,0,0.6,0,0.8-0.2c0.4-0.2,0.6-0.6,0.6-1
	c0-0.3-0.1-0.6-0.4-0.8c-0.2-0.2-0.5-0.3-0.9-0.3c-0.5,0-1,0.2-1.2,0.6c-0.1,0.3-0.2,0.6-0.2,0.9h-0.9c0-0.5,0.1-0.9,0.3-1.3
	c0.4-0.7,1.1-1.1,1.9-1c0.6,0,1.2,0.1,1.7,0.5c0.4,0.3,0.6,0.9,0.6,1.4c0,0.4-0.1,0.7-0.4,1c-0.2,0.2-0.3,0.3-0.6,0.4
	c0.3,0.1,0.7,0.3,0.9,0.6c0.2,0.3,0.3,0.7,0.3,1.1c0,0.6-0.2,1.2-0.6,1.6c-0.5,0.4-1.2,0.7-1.9,0.6
	C235.1,146.5,234.5,146.3,234,145.8z"/>
<path d="M242.3,147.4c0.2-0.1,0.4-0.2,0.5-0.5c0-0.1,0.1-0.3,0.1-0.4v-0.1c0,0,0,0,0-0.1h-0.5v-1.1h1v1c0,0.3-0.1,0.7-0.2,1
	c-0.2,0.3-0.5,0.5-0.8,0.5L242.3,147.4z"/>
<path d="M251.6,139.9c0.3,0.4,0.4,0.8,0.5,1.2h-0.9c0-0.2-0.1-0.4-0.2-0.6c-0.2-0.3-0.6-0.5-1-0.4c-0.5,0-0.9,0.3-1.2,0.7
	c-0.3,0.6-0.5,1.3-0.5,2c0.2-0.3,0.5-0.5,0.8-0.7c0.3-0.1,0.6-0.2,0.9-0.2c0.6,0,1.1,0.2,1.5,0.6c0.5,0.4,0.7,1,0.7,1.7
	c0,0.6-0.2,1.2-0.6,1.7c-0.4,0.5-1.1,0.8-1.8,0.7c-0.6,0-1.3-0.3-1.7-0.8c-0.5-0.7-0.8-1.6-0.7-2.5c0-0.7,0.1-1.5,0.3-2.2
	c0.2-1,1.2-1.8,2.2-1.7C250.6,139.3,251.2,139.5,251.6,139.9z M251,145.3c0.2-0.3,0.4-0.7,0.4-1.1c0-0.4-0.1-0.7-0.3-1
	c-0.3-0.3-0.7-0.5-1.1-0.5c-0.8,0-1.4,0.6-1.4,1.4c0,0.1,0,0.1,0,0.2c0,0.4,0.1,0.8,0.4,1.1c0.3,0.3,0.7,0.5,1.1,0.5
	C250.3,145.8,250.7,145.6,251,145.3L251,145.3z"/>
<path d="M257.3,140.4c0.4,0.7,0.5,1.6,0.5,2.4c0,0.8-0.1,1.6-0.4,2.4c-0.3,0.8-1.1,1.4-2,1.3c-0.8,0-1.5-0.4-1.9-1.1
	c-0.4-0.8-0.6-1.6-0.5-2.4c0-0.7,0.1-1.4,0.3-2c0.2-1,1.1-1.6,2.1-1.6C256.2,139.3,256.9,139.7,257.3,140.4z M256.4,145.1
	c0.3-0.7,0.5-1.5,0.4-2.3c0-0.7-0.1-1.4-0.3-2c-0.2-0.5-0.6-0.8-1.1-0.8c-0.5,0-0.9,0.3-1.1,0.7c-0.3,0.7-0.4,1.4-0.4,2.1
	c0,0.6,0.1,1.2,0.2,1.7c0.1,0.6,0.6,1,1.2,1C255.8,145.7,256.2,145.5,256.4,145.1L256.4,145.1z"/>
<path d="M259,145.3h1v1.1h-1V145.3z"/>
<path d="M261.8,145.8c-0.4-0.5-0.6-1.1-0.6-1.7h0.9c0,0.3,0.1,0.7,0.3,1c0.3,0.4,0.7,0.6,1.2,0.6c0.4,0,0.8-0.1,1.1-0.4
	c0.3-0.2,0.4-0.6,0.4-1c0-0.4-0.1-0.8-0.4-1c-0.4-0.2-0.8-0.3-1.2-0.3h-0.4v-0.8h0.2h0.2c0.3,0,0.6,0,0.8-0.2c0.4-0.2,0.6-0.6,0.6-1
	c0-0.3-0.1-0.6-0.4-0.8c-0.2-0.2-0.5-0.3-0.9-0.3c-0.5-0.1-1,0.2-1.2,0.6c-0.1,0.3-0.2,0.6-0.2,0.9h-0.9c0-0.5,0.1-0.9,0.3-1.3
	c0.4-0.7,1.1-1.1,1.9-1c0.6,0,1.2,0.1,1.7,0.5c0.4,0.3,0.6,0.9,0.6,1.4c0,0.4-0.1,0.7-0.3,1c-0.2,0.2-0.3,0.3-0.6,0.4
	c0.3,0.1,0.7,0.3,0.9,0.6c0.2,0.3,0.3,0.7,0.3,1.1c0,0.6-0.2,1.2-0.7,1.6c-0.5,0.4-1.2,0.7-1.9,0.6
	C262.9,146.5,262.2,146.3,261.8,145.8z"/>
<path d="M271.2,140.4c0.3,0.7,0.5,1.6,0.5,2.4c0,0.8-0.1,1.6-0.4,2.4c-0.3,0.8-1.1,1.4-2,1.3c-0.8,0-1.5-0.4-1.9-1.1
	c-0.4-0.8-0.6-1.6-0.5-2.4c0-0.7,0.1-1.4,0.3-2c0.4-1.2,1.6-1.8,2.8-1.4C270.5,139.7,270.9,140,271.2,140.4L271.2,140.4z
	 M270.3,145.1c0.3-0.7,0.5-1.5,0.4-2.3c0-0.7-0.1-1.4-0.3-2c-0.2-0.5-0.6-0.8-1.1-0.8c-0.5,0-0.9,0.3-1.1,0.7
	c-0.4,1.2-0.5,2.6-0.1,3.9c0.1,0.6,0.6,1,1.2,1C269.7,145.7,270.1,145.5,270.3,145.1L270.3,145.1z"/>
<path d="M272.4,148.4c0.4-0.7,0.7-1.5,1-2.2c0.2-0.8,0.4-1.6,0.3-2.5c0-0.9-0.1-1.7-0.4-2.6c-0.3-0.7-0.6-1.4-1-2.1h0.6
	c0.5,0.8,0.8,1.3,0.9,1.5c0.1,0.2,0.3,0.5,0.4,0.8c0.1,0.4,0.3,0.8,0.3,1.2c0.1,0.4,0.1,0.8,0.1,1.1c0,0.9-0.1,1.8-0.5,2.6
	c-0.3,0.7-0.7,1.5-1.2,2.1L272.4,148.4z"/>
<path class="st1" d="M200.6,160.2c0-0.8-0.6-1.4-1.4-1.4c-0.8,0-1.4,0.6-1.4,1.4c0,0.8,0.6,1.4,1.4,1.4c0,0,0,0,0,0
	C200,161.7,200.6,161,200.6,160.2L200.6,160.2"/>
<path d="M205,150.1c-0.4,0.7-0.7,1.4-1,2.2c-0.2,0.8-0.4,1.6-0.4,2.5c0,0.9,0.1,1.8,0.4,2.6c0.3,0.7,0.6,1.4,1,2.1h-0.6
	c-0.5-0.8-0.8-1.2-0.9-1.4s-0.2-0.5-0.4-0.8c-0.2-0.5-0.3-1-0.4-1.5c0-0.3,0-0.5-0.1-0.8c0-0.9,0.1-1.8,0.4-2.6
	c0.3-0.7,0.7-1.5,1.2-2.1L205,150.1z"/>
<path d="M206.2,156.9c-0.4-0.5-0.6-1.1-0.6-1.7h0.9c0,0.3,0.1,0.7,0.3,1c0.3,0.4,0.7,0.6,1.2,0.6c0.4,0,0.8-0.1,1.1-0.4
	c0.3-0.2,0.4-0.6,0.4-0.9c0-0.4-0.1-0.8-0.4-1c-0.4-0.2-0.8-0.3-1.2-0.3h-0.4v-0.8h0.2h0.2c0.3,0,0.6,0,0.8-0.2
	c0.4-0.2,0.6-0.6,0.6-1c0-0.3-0.1-0.6-0.4-0.8c-0.2-0.2-0.5-0.3-0.9-0.3c-0.5-0.1-1,0.2-1.2,0.6c-0.1,0.3-0.2,0.6-0.2,0.9h-0.9
	c0-0.5,0.1-0.9,0.3-1.3c0.4-0.7,1.1-1.1,1.9-1c0.6,0,1.2,0.1,1.7,0.5c0.4,0.3,0.6,0.9,0.6,1.4c0,0.4-0.1,0.7-0.3,1
	c-0.2,0.2-0.3,0.3-0.6,0.4c0.3,0.1,0.7,0.3,0.9,0.6c0.2,0.3,0.3,0.7,0.3,1.1c0,0.6-0.2,1.2-0.7,1.6c-0.5,0.4-1.2,0.7-1.9,0.6
	C207.3,157.6,206.7,157.4,206.2,156.9z"/>
<path d="M211.9,152.4v-0.7c0.5,0,0.9-0.1,1.3-0.3c0.3-0.2,0.5-0.6,0.6-1h0.7v7h-0.9v-5L211.9,152.4z"/>
<path d="M217.3,156.4h1v1h-1V156.4z"/>
<path d="M223.8,151c0.3,0.4,0.4,0.8,0.5,1.2h-0.9c0-0.2-0.1-0.4-0.2-0.6c-0.2-0.3-0.6-0.5-1-0.4c-0.5,0-0.9,0.3-1.2,0.7
	c-0.3,0.6-0.5,1.3-0.5,1.9c0.2-0.3,0.5-0.5,0.8-0.7c0.3-0.1,0.6-0.2,0.9-0.2c0.6,0,1.1,0.2,1.5,0.6c0.5,0.4,0.7,1,0.7,1.7
	c0,0.6-0.2,1.2-0.6,1.7c-0.4,0.5-1.1,0.8-1.8,0.7c-0.6,0-1.3-0.3-1.7-0.8c-0.5-0.7-0.7-1.6-0.6-2.5c0-0.7,0.1-1.5,0.3-2.2
	c0.2-1,1.1-1.8,2.2-1.8C222.8,150.3,223.4,150.5,223.8,151z M223.2,156.3c0.2-0.3,0.4-0.7,0.4-1.1c0-0.4-0.1-0.7-0.3-1
	c-0.3-0.3-0.7-0.5-1.1-0.5c-0.4,0-0.7,0.1-1,0.4c-0.3,0.3-0.5,0.7-0.4,1.1c0,0.4,0.1,0.8,0.4,1.1c0.3,0.3,0.7,0.5,1.1,0.5
	C222.5,156.9,222.9,156.7,223.2,156.3L223.2,156.3z"/>
<path d="M226.2,155.7c0,0.4,0.2,0.8,0.6,1c0.2,0.1,0.4,0.1,0.6,0.1c0.4,0,0.8-0.2,1.1-0.5c0.4-0.6,0.6-1.4,0.6-2.1
	c-0.2,0.3-0.4,0.5-0.7,0.6c-0.3,0.1-0.6,0.2-0.9,0.2c-0.6,0-1.2-0.2-1.6-0.6c-0.4-0.4-0.6-1-0.6-1.6c0-0.6,0.2-1.2,0.6-1.7
	c0.4-0.5,1.1-0.8,1.7-0.7c0.9-0.1,1.8,0.5,2.1,1.4c0.2,0.6,0.3,1.2,0.3,1.9c0,0.8-0.1,1.5-0.4,2.3c-0.3,1-1.2,1.7-2.2,1.6
	c-0.6,0-1.1-0.2-1.6-0.5c-0.4-0.4-0.5-0.8-0.5-1.4L226.2,155.7z M228.4,153.9c0.3-0.3,0.5-0.8,0.4-1.2c0-0.4-0.1-0.8-0.4-1.1
	c-0.3-0.3-0.6-0.4-1-0.4c-0.4,0-0.7,0.2-1,0.4c-0.5,0.7-0.5,1.6,0,2.2c0.3,0.3,0.7,0.4,1.1,0.4C227.9,154.3,228.2,154.1,228.4,153.9
	z"/>
<path d="M234,158.4c0.2-0.1,0.4-0.2,0.5-0.5c0-0.1,0.1-0.3,0.1-0.4v-0.1c0,0,0,0,0-0.1H234v-1h1v1c0,0.3-0.1,0.7-0.2,1
	c-0.2,0.3-0.5,0.5-0.8,0.5L234,158.4z"/>
<path d="M240,155.6c0,0.4,0.3,0.8,0.7,1c0.2,0.1,0.5,0.2,0.7,0.1c0.4,0,0.9-0.2,1.2-0.5c0.2-0.3,0.4-0.7,0.4-1.1
	c0-0.4-0.1-0.8-0.4-1.1c-0.5-0.4-1.2-0.5-1.9-0.2c-0.2,0.1-0.4,0.3-0.6,0.5h-0.8l0.5-3.8h3.6v0.9h-3l-0.3,1.9
	c0.1-0.1,0.3-0.2,0.5-0.3c0.3-0.1,0.6-0.2,0.9-0.2c0.6,0,1.2,0.2,1.6,0.6c0.4,0.4,0.7,1,0.7,1.6c0,0.6-0.2,1.3-0.6,1.8
	c-0.5,0.6-1.3,0.8-2,0.8c-0.5,0-1.1-0.2-1.5-0.5c-0.5-0.4-0.7-0.9-0.7-1.5H240z"/>
<path d="M248.8,151c0.3,0.4,0.5,0.8,0.5,1.2h-0.9c0-0.2-0.1-0.4-0.2-0.6c-0.2-0.3-0.6-0.5-1-0.4c-0.5,0-0.9,0.3-1.2,0.7
	c-0.3,0.6-0.5,1.3-0.5,1.9c0.2-0.3,0.5-0.5,0.8-0.7c0.3-0.1,0.6-0.2,0.9-0.2c0.6,0,1.1,0.2,1.5,0.6c0.5,0.4,0.7,1,0.7,1.7
	c0,0.6-0.2,1.2-0.6,1.7c-0.4,0.5-1.1,0.8-1.8,0.7c-0.6,0-1.3-0.3-1.7-0.8c-0.5-0.7-0.7-1.6-0.6-2.5c0-0.7,0.1-1.5,0.3-2.2
	c0.2-1,1.2-1.8,2.2-1.7C247.8,150.4,248.4,150.6,248.8,151z M248.2,156.3c0.2-0.3,0.4-0.7,0.4-1.1c0-0.4-0.1-0.7-0.3-1
	c-0.3-0.3-0.7-0.5-1.1-0.5c-0.4,0-0.7,0.1-1,0.4c-0.3,0.3-0.5,0.7-0.4,1.1c0,0.4,0.1,0.8,0.4,1.1c0.3,0.3,0.7,0.5,1.1,0.5
	C247.6,156.9,247.9,156.7,248.2,156.3L248.2,156.3z"/>
<path d="M250.7,156.4h1v1h-1V156.4z"/>
<path d="M253.4,156.9c-0.4-0.5-0.6-1.1-0.6-1.7h0.9c0,0.3,0.1,0.7,0.3,1c0.3,0.4,0.7,0.6,1.2,0.6c0.4,0,0.8-0.1,1.1-0.4
	c0.3-0.2,0.4-0.6,0.4-0.9c0-0.4-0.1-0.8-0.4-1c-0.4-0.2-0.8-0.3-1.2-0.3h-0.4v-0.8h0.2h0.2c0.3,0,0.6,0,0.8-0.2
	c0.4-0.2,0.6-0.6,0.6-1c0-0.3-0.1-0.6-0.4-0.8c-0.2-0.2-0.5-0.3-0.9-0.3c-0.5-0.1-1,0.2-1.2,0.6c-0.1,0.3-0.2,0.6-0.2,0.9H253
	c0-0.5,0.1-0.9,0.3-1.3c0.4-0.7,1.1-1.1,1.9-1c0.6,0,1.2,0.1,1.7,0.5c0.4,0.3,0.6,0.9,0.6,1.4c0,0.4-0.1,0.7-0.3,1
	c-0.2,0.2-0.3,0.3-0.6,0.4c0.3,0.1,0.7,0.3,0.9,0.6c0.2,0.3,0.3,0.7,0.3,1.1c0,0.6-0.2,1.2-0.7,1.6c-0.5,0.4-1.2,0.7-1.9,0.6
	C254.6,157.6,253.9,157.4,253.4,156.9z"/>
<path d="M259.5,155.7c0,0.4,0.2,0.8,0.6,1c0.2,0.1,0.4,0.1,0.6,0.1c0.4,0,0.8-0.2,1.1-0.5c0.4-0.6,0.6-1.4,0.6-2.1
	c-0.2,0.3-0.4,0.5-0.7,0.6c-0.3,0.1-0.6,0.2-0.9,0.2c-0.6,0-1.2-0.2-1.6-0.6c-0.4-0.4-0.6-1-0.6-1.6c0-0.6,0.2-1.2,0.6-1.7
	c0.4-0.5,1.1-0.8,1.7-0.7c0.9-0.1,1.8,0.5,2.1,1.4c0.2,0.6,0.3,1.2,0.3,1.9c0,0.8-0.1,1.6-0.4,2.3c-0.3,1-1.1,1.7-2.2,1.6
	c-0.6,0-1.1-0.2-1.6-0.5c-0.4-0.4-0.5-0.8-0.5-1.4L259.5,155.7z M261.8,153.9c0.3-0.3,0.5-0.8,0.4-1.2c0-0.4-0.1-0.8-0.4-1.1
	c-0.3-0.3-0.6-0.4-1-0.4c-0.4,0-0.7,0.2-1,0.4c-0.5,0.7-0.5,1.6-0.1,2.2c0.3,0.3,0.7,0.4,1.1,0.4
	C261.2,154.3,261.5,154.1,261.8,153.9z"/>
<path d="M264.1,159.4c0.4-0.7,0.7-1.5,1-2.2c0.2-0.8,0.4-1.6,0.3-2.5c0-0.9-0.1-1.7-0.4-2.6c-0.3-0.7-0.6-1.4-1-2.1h0.6
	c0.5,0.8,0.8,1.3,0.9,1.5c0.1,0.2,0.3,0.5,0.4,0.8c0.1,0.4,0.3,0.8,0.3,1.2c0.1,0.4,0.1,0.8,0.1,1.1c0,0.9-0.1,1.8-0.5,2.6
	c-0.3,0.7-0.7,1.5-1.2,2.1L264.1,159.4z"/>
<line class="st1" x1="207.5" y1="149.2" x2="199.2" y2="160.2"/>
<path class="st1" d="M200.6,160.2c0-0.8-0.6-1.4-1.4-1.4c-0.8,0-1.4,0.6-1.4,1.4c0,0.8,0.6,1.4,1.4,1.4c0,0,0,0,0,0
	C200,161.7,200.6,161,200.6,160.2L200.6,160.2"/>
<path class="st1" d="M171.6,39.9c0-0.8-0.7-1.4-1.5-1.4c-0.8,0-1.4,0.7-1.4,1.5c0,0.8,0.7,1.4,1.4,1.4
	C171,41.4,171.6,40.7,171.6,39.9"/>
<path d="M176,29.8c-0.4,0.7-0.7,1.4-1,2.2c-0.2,0.8-0.4,1.6-0.4,2.5c0,0.9,0.1,1.8,0.4,2.6c0.3,0.7,0.6,1.4,1,2.1h-0.6
	c-0.5-0.8-0.8-1.2-0.9-1.4s-0.2-0.5-0.4-0.8c-0.2-0.5-0.3-1-0.4-1.5c0-0.3,0-0.5-0.1-0.8c0-0.9,0.1-1.8,0.4-2.6
	c0.3-0.7,0.7-1.5,1.2-2.1H176z"/>
<path d="M177.1,35.5c0.3-0.5,0.7-0.9,1.3-1.2l0.9-0.5c0.3-0.2,0.6-0.4,0.9-0.6c0.5-0.5,0.5-1.4,0-1.9c-0.3-0.3-0.6-0.4-1-0.4
	c-0.5,0-1,0.2-1.2,0.7c-0.1,0.3-0.2,0.7-0.2,1h-0.9c0-0.5,0.1-1,0.3-1.5c0.4-0.7,1.2-1.1,2-1c0.7-0.1,1.3,0.2,1.8,0.6
	c0.4,0.4,0.6,0.9,0.6,1.4c0,0.5-0.2,1.1-0.6,1.4c-0.4,0.3-0.8,0.6-1.2,0.8l-0.7,0.4c-0.3,0.1-0.5,0.3-0.8,0.5
	c-0.3,0.2-0.5,0.6-0.6,1h3.8v0.8h-4.7C176.7,36.5,176.8,36,177.1,35.5z"/>
<path d="M182.9,32.1v-0.7c0.5,0,0.9-0.1,1.3-0.3c0.3-0.2,0.5-0.6,0.6-1h0.7v7h-0.9v-5L182.9,32.1z"/>
<path d="M188.3,36h1v1.1h-1V36z"/>
<path d="M193.6,37.1v-1.7h-3.1v-0.9l3.2-4.5h0.8v4.5h1v0.8h-1v1.7H193.6z M193.6,34.6v-3.2l-2.2,3.2L193.6,34.6z"/>
<path d="M200.4,30.7c0.3,0.4,0.4,0.8,0.5,1.2H200c0-0.2-0.1-0.4-0.2-0.6c-0.2-0.3-0.6-0.5-1-0.4c-0.5,0-0.9,0.3-1.2,0.7
	c-0.3,0.6-0.5,1.3-0.5,2c0.2-0.3,0.5-0.5,0.8-0.7c0.3-0.1,0.6-0.2,0.9-0.2c0.6,0,1.1,0.2,1.5,0.6c0.5,0.4,0.7,1,0.7,1.7
	c0,0.6-0.2,1.2-0.6,1.7c-0.4,0.5-1.1,0.8-1.8,0.7c-0.6,0-1.3-0.3-1.7-0.8c-0.6-0.7-0.8-1.6-0.7-2.5c0-0.7,0.1-1.5,0.3-2.2
	c0.2-1,1.2-1.8,2.2-1.7C199.3,30,200,30.2,200.4,30.7z M199.7,36c0.2-0.3,0.4-0.7,0.3-1.1c0-0.4-0.1-0.7-0.3-1
	c-0.2-0.3-0.6-0.5-1-0.5c-0.4,0-0.7,0.1-1,0.4c-0.3,0.3-0.5,0.7-0.4,1.1c0,0.4,0.1,0.8,0.4,1.1c0.3,0.3,0.7,0.5,1.1,0.5
	C199.1,36.5,199.5,36.3,199.7,36z"/>
<path d="M205,38.1c0.2-0.1,0.4-0.2,0.5-0.5c0-0.1,0.1-0.3,0.1-0.4v-0.1c0,0,0,0,0-0.1H205V36h1v1c0,0.3-0.1,0.7-0.2,1
	c-0.2,0.3-0.5,0.5-0.8,0.5L205,38.1z"/>
<path d="M211.1,35.4c0,0.4,0.2,0.8,0.6,1c0.2,0.1,0.4,0.1,0.6,0.1c0.4,0,0.8-0.2,1.1-0.5c0.4-0.6,0.6-1.4,0.6-2.1
	c-0.2,0.3-0.4,0.5-0.7,0.6c-0.3,0.1-0.6,0.2-0.9,0.2c-0.6,0-1.2-0.2-1.6-0.6c-0.4-0.4-0.6-1-0.6-1.6c0-0.6,0.2-1.2,0.6-1.7
	c0.4-0.5,1.1-0.8,1.7-0.7c0.9-0.1,1.8,0.5,2.1,1.4c0.2,0.6,0.3,1.2,0.3,1.9c0,0.8-0.1,1.6-0.4,2.3c-0.3,1-1.2,1.7-2.2,1.7
	c-0.6,0-1.1-0.2-1.6-0.5c-0.4-0.4-0.6-0.8-0.5-1.4L211.1,35.4z M213.3,33.6c0.3-0.3,0.5-0.8,0.4-1.2c0-0.4-0.1-0.8-0.4-1.1
	c-0.3-0.3-0.6-0.4-1-0.4c-0.4,0-0.7,0.2-1,0.4c-0.3,0.3-0.4,0.7-0.4,1.1c0,0.4,0.1,0.8,0.3,1.1c0.3,0.3,0.7,0.4,1.1,0.4
	C212.8,33.9,213.1,33.8,213.3,33.6z"/>
<path d="M216.2,33c-0.3-0.3-0.4-0.6-0.4-1c0-0.5,0.2-1,0.6-1.3c0.4-0.4,1-0.6,1.6-0.6c0.6,0,1.1,0.2,1.6,0.5
	c0.4,0.3,0.6,0.8,0.6,1.2c0,0.4-0.1,0.8-0.3,1.1c-0.2,0.2-0.4,0.3-0.6,0.5c0.3,0.1,0.5,0.3,0.7,0.5c0.3,0.3,0.5,0.8,0.5,1.3
	c0,0.6-0.2,1.1-0.6,1.6c-0.5,0.5-1.1,0.7-1.8,0.7c-0.6,0-1.2-0.2-1.7-0.6c-0.5-0.4-0.7-1-0.7-1.6c0-0.8,0.5-1.5,1.2-1.8
	C216.6,33.3,216.4,33.1,216.2,33z M219.1,36.1c0.3-0.2,0.4-0.6,0.4-1c0-0.4-0.1-0.7-0.4-1c-0.3-0.2-0.7-0.4-1.1-0.4
	c-0.4,0-0.7,0.1-1,0.4c-0.3,0.3-0.4,0.6-0.4,1c0,0.4,0.1,0.7,0.4,1c0.3,0.3,0.7,0.4,1.1,0.4C218.5,36.5,218.8,36.4,219.1,36.1z
	 M218.9,32.7c0.2-0.2,0.3-0.5,0.3-0.8c0-0.3-0.1-0.5-0.3-0.7c-0.3-0.2-0.6-0.4-0.9-0.3c-0.5-0.1-1.1,0.2-1.2,0.8c0,0.1,0,0.2,0,0.3
	c0,0.3,0.1,0.6,0.4,0.8c0.2,0.2,0.6,0.3,0.9,0.3C218.3,33,218.7,32.9,218.9,32.7z"/>
<path d="M221.7,36h1v1.1h-1V36z"/>
<path d="M224.6,33c-0.3-0.3-0.4-0.6-0.4-1c0-0.5,0.2-1,0.6-1.3c0.4-0.4,1-0.6,1.6-0.6c0.6,0,1.1,0.2,1.6,0.5
	c0.4,0.3,0.6,0.8,0.6,1.2c0,0.4-0.1,0.8-0.3,1.1c-0.2,0.2-0.4,0.3-0.6,0.5c0.3,0.1,0.5,0.3,0.7,0.5c0.3,0.3,0.5,0.8,0.5,1.3
	c0,0.6-0.2,1.1-0.6,1.6c-0.5,0.5-1.1,0.7-1.8,0.7c-0.6,0-1.2-0.2-1.7-0.6c-0.5-0.4-0.7-1-0.7-1.6c0-0.8,0.5-1.5,1.2-1.8
	C224.9,33.3,224.8,33.1,224.6,33z M227.4,36.1c0.3-0.2,0.4-0.6,0.4-1c0-0.4-0.1-0.7-0.4-1c-0.3-0.2-0.7-0.4-1.1-0.4
	c-0.4,0-0.7,0.1-1,0.4c-0.3,0.3-0.4,0.6-0.4,1c0,0.4,0.1,0.7,0.4,1c0.3,0.3,0.7,0.4,1.1,0.4C226.8,36.5,227.1,36.4,227.4,36.1z
	 M227.3,32.7c0.2-0.2,0.3-0.5,0.3-0.8c0-0.3-0.1-0.5-0.3-0.7c-0.3-0.2-0.6-0.4-0.9-0.3c-0.5-0.1-1.1,0.2-1.2,0.8c0,0.1,0,0.2,0,0.3
	c0,0.3,0.1,0.6,0.4,0.8c0.2,0.2,0.6,0.3,0.9,0.3C226.7,33,227,32.9,227.3,32.7z"/>
<path d="M232.5,37.1v-1.7h-3.1v-0.9l3.2-4.5h0.8v4.5h1v0.8h-1v1.7H232.5z M232.5,34.6v-3.2l-2.2,3.2L232.5,34.6z"/>
<path d="M235.1,39.1c0.4-0.7,0.7-1.5,1-2.2c0.2-0.8,0.4-1.6,0.3-2.5c0-0.9-0.1-1.7-0.4-2.6c-0.3-0.7-0.6-1.4-1-2.1h0.6
	c0.5,0.8,0.8,1.3,0.9,1.5c0.1,0.2,0.3,0.5,0.4,0.8c0.1,0.4,0.3,0.8,0.3,1.2c0.1,0.4,0.1,0.8,0.1,1.1c0,0.9-0.1,1.8-0.5,2.6
	c-0.3,0.8-0.8,1.5-1.2,2.2H235.1z"/>
<line class="st1" x1="199.2" y1="160.2" x2="170.2" y2="39.9"/>
<path class="st1" d="M92.2,147.5c0-0.8-0.6-1.4-1.4-1.4c-0.8,0-1.4,0.6-1.4,1.4c0,0.8,0.6,1.4,1.4,1.4c0,0,0,0,0,0
	C91.6,148.9,92.2,148.2,92.2,147.5"/>
<path d="M96.6,137.4c-0.4,0.7-0.7,1.4-1,2.2c-0.2,0.8-0.4,1.6-0.3,2.5c0,0.9,0.1,1.8,0.4,2.6c0.3,0.7,0.6,1.4,1,2.1h-0.6
	c-0.5-0.7-0.8-1.2-0.9-1.4s-0.2-0.5-0.4-0.8c-0.2-0.5-0.3-1-0.4-1.5c0-0.3,0-0.5,0-0.8c0-0.9,0.1-1.8,0.4-2.6
	c0.3-0.8,0.7-1.5,1.2-2.2L96.6,137.4z"/>
<path d="M97.4,141.4h2.4v0.9h-2.4V141.4z"/>
<path d="M104.9,138.2c0.3,0.4,0.5,0.8,0.5,1.3h-0.9c0-0.2-0.1-0.5-0.2-0.7c-0.2-0.3-0.6-0.5-1-0.4c-0.5,0-0.9,0.3-1.2,0.7
	c-0.3,0.6-0.5,1.3-0.5,1.9c0.2-0.3,0.5-0.5,0.8-0.7c0.3-0.1,0.6-0.2,0.9-0.2c0.6,0,1.1,0.2,1.5,0.6c0.5,0.4,0.7,1,0.7,1.7
	c0,0.6-0.2,1.2-0.6,1.7c-0.4,0.5-1.1,0.8-1.8,0.7c-0.6,0-1.3-0.3-1.7-0.8c-0.5-0.7-0.8-1.6-0.7-2.5c0-0.7,0.1-1.5,0.3-2.2
	c0.2-1,1.2-1.7,2.2-1.7C103.8,137.6,104.4,137.8,104.9,138.2z M104.2,143.6c0.4-0.6,0.4-1.5,0-2.1c-0.3-0.4-0.7-0.5-1.1-0.5
	c-0.4,0-0.7,0.1-1,0.4c-0.3,0.3-0.5,0.7-0.4,1.1c0,0.4,0.1,0.8,0.4,1.1c0.3,0.3,0.7,0.5,1.1,0.5
	C103.5,144.1,103.9,143.9,104.2,143.6L104.2,143.6z"/>
<path d="M106.7,143.6h1v1.1h-1V143.6z"/>
<path d="M109.9,142.8c0,0.4,0.3,0.8,0.7,1c0.2,0.1,0.5,0.2,0.7,0.1c0.4,0,0.9-0.2,1.2-0.5c0.2-0.3,0.4-0.7,0.4-1.1
	c0-0.4-0.1-0.8-0.4-1.1c-0.5-0.4-1.2-0.5-1.8-0.2c-0.2,0.1-0.4,0.3-0.6,0.5h-0.8l0.5-3.8h3.6v0.8h-3l-0.3,1.9
	c0.1-0.1,0.3-0.2,0.5-0.3c0.9-0.3,1.8-0.1,2.5,0.5c0.4,0.4,0.7,1,0.7,1.6c0,0.6-0.2,1.3-0.6,1.8c-0.5,0.6-1.3,0.8-2,0.8
	c-0.5,0-1.1-0.2-1.5-0.5c-0.5-0.4-0.7-0.9-0.7-1.5L109.9,142.8z"/>
<path d="M115.4,142.8c0,0.4,0.3,0.8,0.7,1c0.2,0.1,0.5,0.2,0.7,0.1c0.4,0,0.9-0.2,1.2-0.5c0.2-0.3,0.4-0.7,0.4-1.1
	c0-0.4-0.1-0.8-0.4-1.1c-0.5-0.4-1.2-0.5-1.8-0.2c-0.2,0.1-0.4,0.3-0.6,0.5h-0.8l0.5-3.8h3.6v0.8h-3l-0.3,1.9
	c0.1-0.1,0.3-0.2,0.5-0.3c0.9-0.3,1.8-0.1,2.5,0.5c0.4,0.4,0.7,1,0.7,1.6c0,0.6-0.2,1.3-0.6,1.8c-0.5,0.6-1.3,0.8-2,0.8
	c-0.5,0-1.1-0.2-1.5-0.5c-0.5-0.4-0.7-0.9-0.7-1.5L115.4,142.8z"/>
<path d="M123.4,145.6c0.2-0.1,0.4-0.2,0.5-0.5c0-0.1,0.1-0.3,0.1-0.4v-0.1c0,0,0,0,0-0.1h-0.5v-1.1h1v1c0,0.3-0.1,0.7-0.2,1
	c-0.2,0.3-0.5,0.5-0.8,0.5L123.4,145.6z"/>
<path d="M132.7,138.2c0.3,0.4,0.5,0.8,0.5,1.3h-0.9c0-0.2-0.1-0.5-0.2-0.7c-0.2-0.3-0.6-0.5-1-0.4c-0.5,0-0.9,0.3-1.2,0.7
	c-0.3,0.6-0.5,1.3-0.5,1.9c0.2-0.3,0.5-0.5,0.8-0.7c0.3-0.1,0.6-0.2,0.9-0.2c0.6,0,1.1,0.2,1.5,0.6c0.5,0.4,0.7,1.1,0.6,1.7
	c0,0.6-0.2,1.2-0.6,1.7c-0.4,0.5-1.1,0.8-1.8,0.7c-0.6,0-1.3-0.3-1.7-0.8c-0.5-0.7-0.8-1.6-0.7-2.5c0-0.8,0.1-1.5,0.3-2.2
	c0.2-1,1.2-1.8,2.2-1.7C131.7,137.5,132.3,137.7,132.7,138.2z M132,143.6c0.2-0.3,0.4-0.7,0.3-1.1c0-0.4-0.1-0.7-0.3-1
	c-0.3-0.4-0.7-0.5-1.1-0.5c-0.4,0-0.7,0.1-1,0.4c-0.3,0.3-0.5,0.7-0.4,1.1c0,0.4,0.1,0.8,0.4,1.1c0.3,0.3,0.7,0.5,1.1,0.5
	C131.4,144.1,131.8,143.9,132,143.6L132,143.6z"/>
<path d="M138.3,138.7c0.3,0.7,0.5,1.6,0.5,2.4c0,0.8-0.1,1.6-0.4,2.4c-0.3,0.8-1.1,1.4-2,1.3c-0.8,0-1.5-0.4-1.9-1.1
	c-0.4-0.8-0.6-1.6-0.5-2.4c0-0.7,0.1-1.4,0.3-2c0.2-1,1.1-1.6,2.1-1.6C137.2,137.6,137.9,138,138.3,138.7z M137.4,143.4
	c0.3-0.7,0.5-1.5,0.4-2.2c0-0.7-0.1-1.4-0.3-2c-0.2-0.5-0.6-0.8-1.1-0.8c-0.5,0-0.9,0.3-1.1,0.7c-0.3,0.7-0.4,1.4-0.4,2.1
	c0,0.6,0.1,1.2,0.2,1.7c0.1,0.7,0.8,1.1,1.5,1C137,143.9,137.3,143.7,137.4,143.4L137.4,143.4z"/>
<path d="M140.1,143.6h1v1.1h-1V143.6z"/>
<path d="M143.3,142.9c0,0.4,0.2,0.8,0.6,1c0.2,0.1,0.4,0.1,0.6,0.1c0.4,0,0.8-0.2,1.1-0.5c0.4-0.6,0.6-1.4,0.6-2.1
	c-0.2,0.3-0.4,0.5-0.7,0.6c-0.3,0.1-0.6,0.2-0.9,0.2c-0.6,0-1.2-0.2-1.6-0.6c-0.4-0.4-0.6-1-0.6-1.6c0-0.6,0.2-1.2,0.6-1.7
	c0.9-0.9,2.4-1,3.3-0.1c0.2,0.2,0.4,0.5,0.5,0.7c0.2,0.6,0.3,1.2,0.3,1.9c0,0.8-0.1,1.6-0.4,2.3c-0.3,1-1.2,1.7-2.2,1.6
	c-0.6,0-1.1-0.2-1.6-0.5c-0.4-0.4-0.6-0.8-0.5-1.4L143.3,142.9z M145.6,141.1c0.3-0.3,0.5-0.8,0.4-1.2c0-0.4-0.1-0.8-0.4-1.1
	c-0.3-0.3-0.6-0.4-1-0.4c-0.4,0-0.7,0.1-1,0.4c-0.3,0.3-0.4,0.7-0.4,1.1c0,0.4,0.1,0.8,0.3,1.1c0.3,0.3,0.7,0.4,1.1,0.4
	C145,141.5,145.4,141.4,145.6,141.1z"/>
<path d="M152.2,138.7c0.4,0.7,0.5,1.6,0.5,2.4c0,0.8-0.1,1.6-0.4,2.4c-0.3,0.8-1.1,1.4-2,1.3c-0.8,0-1.5-0.4-1.9-1.1
	c-0.4-0.8-0.6-1.6-0.5-2.4c0-0.7,0.1-1.4,0.3-2c0.2-1,1.1-1.6,2.1-1.6C151.1,137.6,151.8,138,152.2,138.7z M151.3,143.4
	c0.3-0.7,0.5-1.5,0.4-2.2c0-0.7-0.1-1.4-0.3-2c-0.2-0.5-0.6-0.8-1.1-0.8c-0.5,0-0.9,0.3-1.1,0.7c-0.3,0.7-0.4,1.4-0.4,2.1
	c0,0.6,0.1,1.2,0.2,1.7c0.1,0.7,0.8,1.1,1.5,1C150.9,143.9,151.2,143.7,151.3,143.4L151.3,143.4z"/>
<path d="M153.5,146.7c0.4-0.7,0.7-1.4,1-2.2c0.2-0.8,0.4-1.6,0.4-2.5c0-0.9-0.1-1.7-0.4-2.6c-0.3-0.7-0.6-1.4-1-2.1h0.6
	c0.5,0.8,0.8,1.3,0.9,1.5c0.1,0.2,0.2,0.5,0.3,0.8c0.2,0.4,0.3,0.8,0.3,1.2c0.1,0.4,0.1,0.8,0.1,1.1c0,0.9-0.1,1.8-0.5,2.6
	c-0.3,0.8-0.7,1.5-1.2,2.1L153.5,146.7z"/>
<path class="st1" d="M66,307c0-0.8-0.6-1.4-1.4-1.4c-0.8,0-1.4,0.6-1.4,1.4s0.6,1.4,1.4,1.4C65.4,308.5,66,307.8,66,307"/>
<path d="M70.4,296.9c-0.4,0.7-0.7,1.4-1,2.2c-0.2,0.8-0.4,1.6-0.3,2.5c0,0.9,0.1,1.8,0.4,2.6c0.3,0.7,0.6,1.4,1,2.1h-0.6
	c-0.5-0.7-0.8-1.2-0.9-1.4c-0.1-0.2-0.2-0.5-0.4-0.8c-0.2-0.5-0.3-1-0.4-1.5c0-0.3,0-0.5,0-0.8c0-0.9,0.1-1.8,0.4-2.6
	c0.3-0.7,0.7-1.5,1.2-2.1L70.4,296.9z"/>
<path d="M71.2,301h2.5v0.9h-2.5V301z"/>
<path d="M75.1,299.3v-0.7c0.5,0,0.9-0.1,1.3-0.3c0.3-0.2,0.5-0.6,0.6-1h0.7v7h-1v-5L75.1,299.3z"/>
<path d="M80.9,302.4c0,0.4,0.3,0.8,0.7,1c0.2,0.1,0.5,0.2,0.7,0.1c0.4,0,0.9-0.2,1.2-0.5c0.2-0.3,0.4-0.7,0.4-1.1
	c0-0.4-0.1-0.8-0.4-1.1c-0.3-0.3-0.7-0.4-1.1-0.4c-0.3,0-0.5,0-0.8,0.2c-0.2,0.1-0.4,0.3-0.6,0.5h-0.8l0.5-3.8h3.6v0.9h-3l-0.3,1.9
	c0.1-0.1,0.3-0.2,0.5-0.3c0.3-0.1,0.6-0.2,0.9-0.2c0.6,0,1.2,0.2,1.6,0.6c0.4,0.4,0.7,1,0.7,1.6c0,0.6-0.2,1.3-0.6,1.8
	c-0.5,0.6-1.3,0.8-2,0.8c-0.5,0-1.1-0.2-1.5-0.5c-0.5-0.4-0.7-0.9-0.7-1.5H80.9z"/>
<path d="M86.1,303.1h1v1.1h-1V303.1z"/>
<path d="M93.2,297.4v0.8c-0.3,0.4-0.6,0.7-0.9,1.1c-0.4,0.6-0.7,1.1-1,1.7c-0.3,0.5-0.5,1.1-0.6,1.7c-0.1,0.3-0.2,0.8-0.4,1.6h-1
	c0.2-1.4,0.7-2.8,1.5-4c0.4-0.7,0.9-1.4,1.4-2h-3.8v-0.9H93.2z"/>
<path d="M94.9,302.5c0,0.4,0.2,0.8,0.6,1c0.2,0.1,0.4,0.1,0.6,0.1c0.4,0,0.8-0.2,1.1-0.5c0.4-0.6,0.6-1.4,0.6-2.1
	c-0.2,0.3-0.4,0.5-0.7,0.6c-0.3,0.1-0.6,0.2-0.9,0.2c-0.6,0-1.2-0.2-1.6-0.6c-0.4-0.4-0.6-1-0.6-1.6c0-0.6,0.2-1.2,0.6-1.7
	c0.4-0.5,1.1-0.8,1.7-0.7c0.9-0.1,1.8,0.5,2.1,1.4c0.2,0.6,0.4,1.2,0.4,1.9c0,0.8-0.1,1.5-0.4,2.3c-0.3,1-1.2,1.6-2.2,1.6
	c-0.6,0-1.1-0.2-1.6-0.5c-0.4-0.4-0.5-0.8-0.5-1.4L94.9,302.5z M97.2,300.7c0.3-0.3,0.5-0.8,0.4-1.2c0-0.4-0.1-0.8-0.4-1.1
	c-0.3-0.3-0.6-0.4-1-0.4c-0.4,0-0.7,0.1-1,0.4c-0.5,0.7-0.5,1.6,0,2.2c0.3,0.3,0.7,0.4,1.1,0.4C96.6,301.1,96.9,300.9,97.2,300.7
	L97.2,300.7z"/>
<path d="M102.7,305.2c0.2-0.1,0.4-0.2,0.5-0.5c0-0.1,0.1-0.3,0.1-0.4v-0.1c0,0,0,0,0-0.1h-0.5v-1.1h1v1c0,0.3-0.1,0.7-0.2,1
	c-0.2,0.3-0.5,0.5-0.8,0.5L102.7,305.2z"/>
<path d="M110.8,304.2v-1.7h-3.1v-0.9l3.2-4.5h0.8v4.5h1v0.8h-1v1.7H110.8z M110.8,301.7v-3.2l-2.2,3.2H110.8z"/>
<path d="M113.9,303.1h1v1.1h-1V303.1z"/>
<path d="M120.4,297.8c0.3,0.4,0.5,0.8,0.5,1.3H120c0-0.2-0.1-0.5-0.3-0.7c-0.2-0.3-0.6-0.5-1-0.4c-0.5,0-0.9,0.3-1.2,0.7
	c-0.3,0.6-0.5,1.3-0.5,2c0.2-0.3,0.5-0.5,0.8-0.7c0.3-0.1,0.6-0.2,0.9-0.2c0.6,0,1.1,0.2,1.5,0.6c0.5,0.4,0.7,1,0.7,1.7
	c0,0.6-0.2,1.2-0.6,1.7c-0.4,0.5-1.1,0.8-1.8,0.7c-0.6,0-1.3-0.3-1.7-0.8c-0.5-0.7-0.8-1.6-0.7-2.5c0-0.8,0.1-1.5,0.3-2.2
	c0.2-1,1.2-1.7,2.2-1.7C119.3,297.1,119.9,297.3,120.4,297.8z M119.7,303.1c0.4-0.6,0.4-1.5,0-2.1c-0.3-0.4-0.7-0.5-1.1-0.5
	c-0.8,0-1.4,0.6-1.4,1.4c0,0.1,0,0.1,0,0.2c0,0.4,0.1,0.8,0.4,1.1c0.3,0.3,0.7,0.5,1.1,0.5C119.1,303.7,119.5,303.5,119.7,303.1
	L119.7,303.1z"/>
<path d="M126,298.4c0.4,0.7,0.5,1.6,0.5,2.4c0,0.8-0.1,1.6-0.4,2.4c-0.3,0.8-1.1,1.4-2,1.3c-0.8,0-1.5-0.4-1.9-1.1
	c-0.4-0.8-0.6-1.6-0.5-2.5c0-0.7,0.1-1.4,0.3-2c0.2-1,1.1-1.6,2.1-1.6C124.9,297.2,125.7,297.7,126,298.4z M125.2,303
	c0.3-0.7,0.5-1.5,0.4-2.3c0-0.7-0.1-1.4-0.3-2c-0.2-0.5-0.6-0.8-1.1-0.8c-0.5,0-0.9,0.3-1.1,0.7c-0.3,0.7-0.4,1.4-0.4,2.1
	c0,0.6,0.1,1.2,0.2,1.7c0.1,0.6,0.6,1,1.2,1C124.5,303.6,124.9,303.4,125.2,303L125.2,303z"/>
<path d="M127.3,306.3c0.4-0.7,0.7-1.5,1-2.2c0.2-0.8,0.4-1.6,0.3-2.5c0-0.9-0.1-1.7-0.4-2.6c-0.3-0.7-0.6-1.4-1-2.1h0.6
	c0.5,0.8,0.8,1.3,0.9,1.5c0.1,0.2,0.3,0.5,0.4,0.8c0.1,0.4,0.3,0.8,0.3,1.2c0.1,0.4,0.1,0.8,0.1,1.1c0,0.9-0.1,1.8-0.5,2.6
	c-0.3,0.8-0.7,1.5-1.2,2.1L127.3,306.3z"/>
<line class="st1" x1="90.8" y1="147.5" x2="64.6" y2="307"/>
<path class="st1" d="M200.6,160.2c0-0.8-0.6-1.4-1.4-1.4c-0.8,0-1.4,0.6-1.4,1.4c0,0.8,0.6,1.4,1.4,1.4c0,0,0,0,0,0
	C200,161.7,200.6,161,200.6,160.2L200.6,160.2"/>
<path class="st1" d="M134.1,195.2c0-0.8-0.6-1.4-1.4-1.4s-1.4,0.6-1.4,1.4s0.6,1.4,1.4,1.4l0,0C133.4,196.7,134.1,196,134.1,195.2"
	/>
<path d="M138.4,185.1c-0.4,0.7-0.7,1.4-1,2.2c-0.2,0.8-0.4,1.6-0.3,2.5c0,0.9,0.1,1.8,0.4,2.6c0.3,0.7,0.6,1.4,1,2.1h-0.6
	c-0.5-0.7-0.8-1.2-0.9-1.4c-0.1-0.2-0.2-0.5-0.4-0.8c-0.2-0.5-0.3-1-0.4-1.5c0-0.3,0-0.5,0-0.8c0-0.9,0.1-1.8,0.4-2.6
	c0.3-0.8,0.7-1.5,1.2-2.1L138.4,185.1z"/>
<path d="M139.8,188.4c-0.3-0.3-0.4-0.6-0.4-1c0-0.5,0.2-1,0.6-1.3c0.4-0.4,1-0.6,1.6-0.6c0.6,0,1.1,0.2,1.6,0.5
	c0.4,0.3,0.6,0.8,0.6,1.2c0,0.4-0.1,0.8-0.3,1.1c-0.2,0.2-0.4,0.3-0.6,0.4c0.3,0.1,0.5,0.3,0.7,0.5c0.3,0.3,0.5,0.8,0.5,1.3
	c0,0.6-0.2,1.2-0.6,1.6c-0.5,0.4-1.1,0.7-1.8,0.6c-0.6,0-1.2-0.2-1.7-0.6c-0.5-0.4-0.7-1-0.7-1.6c0-0.8,0.5-1.5,1.2-1.8
	C140.1,188.7,139.9,188.5,139.8,188.4z M142.6,191.5c0.3-0.3,0.4-0.6,0.4-1c0-0.4-0.1-0.7-0.4-1c-0.3-0.2-0.7-0.4-1.1-0.4
	c-0.4,0-0.7,0.1-1,0.4c-0.3,0.3-0.4,0.6-0.4,1c0,0.4,0.1,0.7,0.4,0.9c0.3,0.3,0.7,0.4,1.1,0.4C142,191.9,142.3,191.7,142.6,191.5
	L142.6,191.5z M142.4,188.1c0.2-0.2,0.3-0.5,0.3-0.8c0-0.3-0.1-0.5-0.3-0.7c-0.3-0.2-0.6-0.4-1-0.3c-0.6-0.1-1.1,0.3-1.2,0.9
	c0,0.1,0,0.1,0,0.2c0,0.3,0.1,0.6,0.4,0.8c0.2,0.2,0.6,0.3,0.9,0.3C141.8,188.4,142.2,188.3,142.4,188.1L142.4,188.1z"/>
<path d="M145.2,191.4h1v1h-1V191.4z"/>
<path d="M147.8,190.8c0.3-0.5,0.7-0.9,1.3-1.2l0.9-0.5c0.3-0.2,0.6-0.4,0.9-0.6c0.5-0.5,0.5-1.4,0-1.9c-0.3-0.3-0.6-0.4-1-0.4
	c-0.5,0-1,0.2-1.2,0.7c-0.1,0.3-0.2,0.7-0.2,1h-0.9c0-0.5,0.1-1,0.3-1.5c0.4-0.7,1.2-1.1,2-1c0.7-0.1,1.3,0.2,1.8,0.6
	c0.4,0.4,0.6,0.9,0.6,1.4c0,0.5-0.2,1.1-0.6,1.4c-0.4,0.3-0.8,0.6-1.2,0.8l-0.7,0.4c-0.3,0.1-0.5,0.3-0.8,0.5
	c-0.3,0.3-0.5,0.6-0.6,1h3.8v0.7h-4.8C147.4,191.8,147.6,191.3,147.8,190.8z"/>
<path d="M153.7,187.5v-0.7c0.5,0,0.9-0.1,1.3-0.3c0.3-0.2,0.5-0.6,0.6-1h0.7v7h-0.9v-4.9L153.7,187.5z"/>
<path d="M161.9,193.4c0.2-0.1,0.4-0.2,0.5-0.5c0-0.1,0.1-0.3,0.1-0.4v-0.1c0,0,0,0,0-0.1h-0.5v-1h1v1c0,0.3-0.1,0.7-0.2,1
	c-0.2,0.3-0.5,0.5-0.8,0.5L161.9,193.4z"/>
<path d="M169.9,192.4v-1.7h-3.1v-0.9l3.2-4.4h0.7v4.5h1v0.8h-1v1.7H169.9z M169.9,189.9v-3.2l-2.2,3.2L169.9,189.9z"/>
<path d="M175.5,192.4v-1.7h-3.1v-0.9l3.2-4.4h0.7v4.5h1v0.8h-1v1.7H175.5z M175.5,189.9v-3.2l-2.2,3.2H175.5z"/>
<path d="M178.6,191.4h1v1h-1V191.4z"/>
<path d="M185.2,186.5c0.3,0.7,0.5,1.6,0.5,2.4c0,0.8-0.1,1.6-0.4,2.4c-0.3,0.8-1.1,1.4-2,1.3c-0.8,0-1.5-0.4-1.9-1.1
	c-0.4-0.8-0.6-1.6-0.5-2.4c0-0.7,0.1-1.4,0.3-2c0.2-1,1.1-1.6,2.1-1.6C184,185.4,184.8,185.8,185.2,186.5z M184.3,191.2
	c0.3-0.7,0.5-1.5,0.4-2.2c0-0.7-0.1-1.4-0.3-2c-0.2-0.5-0.6-0.8-1.1-0.8c-0.5,0-0.9,0.3-1.1,0.7c-0.3,0.7-0.4,1.4-0.4,2.1
	c0,0.6,0.1,1.2,0.2,1.7c0.1,0.7,0.8,1.1,1.5,1C183.8,191.7,184.1,191.5,184.3,191.2L184.3,191.2z"/>
<path d="M189.4,192.4v-1.7h-3.1v-0.9l3.2-4.4h0.7v4.5h1v0.8h-1v1.7H189.4z M189.4,189.9v-3.2l-2.2,3.2H189.4z"/>
<path d="M192,194.5c0.4-0.7,0.7-1.4,1-2.2c0.2-0.8,0.4-1.6,0.4-2.5c0-0.9-0.1-1.7-0.4-2.6c-0.3-0.7-0.6-1.4-1-2.1h0.6
	c0.5,0.8,0.8,1.3,0.9,1.5c0.1,0.2,0.2,0.5,0.3,0.8c0.2,0.4,0.3,0.8,0.3,1.2c0.1,0.4,0.1,0.8,0.1,1.1c0,0.9-0.1,1.8-0.5,2.6
	c-0.3,0.8-0.7,1.5-1.2,2.1L192,194.5z"/>
<line class="st1" x1="199.2" y1="160.2" x2="132.6" y2="195.2"/>
<path class="st1" d="M163.9,529.8c0-0.8-0.6-1.4-1.4-1.4c-0.8,0-1.4,0.6-1.4,1.4c0,0.8,0.6,1.4,1.4,1.4c0,0,0,0,0,0
	C163.3,531.3,163.9,530.6,163.9,529.8C163.9,529.9,163.9,529.8,163.9,529.8"/>
<path d="M168.3,519.7c-0.4,0.7-0.7,1.4-1,2.2c-0.2,0.8-0.4,1.6-0.4,2.5c0,0.9,0.1,1.8,0.4,2.6c0.3,0.7,0.6,1.4,1,2.1h-0.6
	c-0.5-0.7-0.8-1.2-0.9-1.4s-0.2-0.5-0.4-0.8c-0.2-0.5-0.3-1-0.4-1.5c0-0.3,0-0.5,0-0.8c0-0.9,0.1-1.8,0.4-2.6
	c0.3-0.7,0.7-1.5,1.2-2.1L168.3,519.7z"/>
<path d="M169.7,522.1v-0.7c0.5,0,0.9-0.1,1.3-0.3c0.3-0.2,0.5-0.6,0.6-1h0.7v7h-0.9v-5L169.7,522.1z"/>
<path d="M175.2,522.9c-0.3-0.3-0.4-0.6-0.4-1c0-0.5,0.2-1,0.6-1.3c0.4-0.4,1-0.6,1.6-0.6c0.6,0,1.1,0.2,1.6,0.5
	c0.4,0.3,0.6,0.8,0.6,1.2c0,0.4-0.1,0.8-0.3,1.1c-0.2,0.2-0.4,0.3-0.6,0.5c0.3,0.1,0.5,0.3,0.7,0.5c0.3,0.3,0.5,0.8,0.5,1.3
	c0,0.6-0.2,1.2-0.6,1.6c-0.5,0.4-1.1,0.7-1.8,0.6c-0.6,0-1.2-0.2-1.7-0.6c-0.5-0.4-0.7-1-0.7-1.6c0-0.8,0.5-1.5,1.2-1.8
	C175.6,523.2,175.4,523.1,175.2,522.9z M178,526.1c0.3-0.2,0.4-0.6,0.4-1c0-0.4-0.1-0.7-0.4-1c-0.3-0.2-0.7-0.4-1.1-0.3
	c-0.4,0-0.7,0.1-1,0.4c-0.3,0.3-0.4,0.6-0.4,1c0,0.4,0.1,0.7,0.4,1c0.3,0.3,0.7,0.4,1.1,0.4C177.4,526.4,177.8,526.3,178,526.1z
	 M177.9,522.6c0.4-0.4,0.5-1,0.1-1.4c0,0-0.1-0.1-0.1-0.1c-0.3-0.2-0.6-0.3-0.9-0.3c-0.5-0.1-1.1,0.2-1.2,0.8c0,0.1,0,0.2,0,0.3
	c0,0.3,0.1,0.6,0.4,0.8c0.2,0.2,0.5,0.3,0.9,0.3C177.3,523,177.6,522.9,177.9,522.6L177.9,522.6z"/>
<path d="M180.7,525.9h1v1.1h-1V525.9z"/>
<path d="M187.8,520.1v0.8c-0.3,0.4-0.6,0.7-0.9,1.1c-0.4,0.6-0.7,1.1-1,1.7c-0.3,0.5-0.5,1.1-0.6,1.7c-0.1,0.3-0.2,0.8-0.4,1.6h-1
	c0.2-1.4,0.7-2.8,1.5-4c0.4-0.7,0.9-1.4,1.4-2h-3.9v-0.9L187.8,520.1z"/>
<path d="M189.4,525.2c0,0.4,0.3,0.8,0.7,1c0.2,0.1,0.5,0.2,0.7,0.2c0.4,0,0.9-0.2,1.2-0.5c0.2-0.3,0.4-0.7,0.4-1.1
	c0-0.4-0.1-0.8-0.4-1.1c-0.3-0.3-0.7-0.4-1.1-0.4c-0.5,0-1,0.2-1.3,0.7h-0.8l0.5-3.8h3.6v0.8h-3l-0.3,1.9c0.1-0.1,0.3-0.2,0.5-0.3
	c0.9-0.3,1.8-0.2,2.5,0.5c0.4,0.4,0.7,1,0.7,1.6c0,0.6-0.2,1.3-0.6,1.8c-0.5,0.5-1.2,0.8-1.9,0.8c-0.5,0-1.1-0.2-1.5-0.5
	c-0.5-0.4-0.7-0.9-0.7-1.5L189.4,525.2z"/>
<path d="M197.3,528c0.2-0.1,0.4-0.2,0.5-0.5c0-0.1,0.1-0.3,0.1-0.4c0,0,0,0,0-0.1c0,0,0,0,0-0.1h-0.5v-1.1h1v1c0,0.3-0.1,0.7-0.2,1
	c-0.2,0.3-0.5,0.5-0.8,0.5L197.3,528z"/>
<path d="M202.5,523.8h2.4v0.9h-2.4V523.8z"/>
<path d="M210.6,520.1v0.8c-0.3,0.4-0.6,0.7-0.9,1.1c-0.4,0.6-0.7,1.1-1,1.7c-0.3,0.5-0.5,1.1-0.6,1.7c-0.1,0.3-0.2,0.8-0.4,1.6h-1
	c0.2-1.4,0.7-2.8,1.5-4c0.4-0.7,0.9-1.4,1.4-2h-3.9v-0.9L210.6,520.1z"/>
<path d="M214.3,527v-1.7h-3.1v-0.9l3.2-4.5h0.8v4.5h1v0.8h-1v1.7H214.3z M214.3,524.5v-3.2l-2.2,3.2L214.3,524.5z"/>
<path d="M217.4,525.9h1v1.1h-1V525.9z"/>
<path d="M223.9,521.1c0.4,0.7,0.5,1.6,0.5,2.4c0,0.8-0.1,1.6-0.4,2.4c-0.3,0.8-1.1,1.4-2,1.3c-0.8,0-1.5-0.4-1.9-1.1
	c-0.4-0.8-0.6-1.6-0.5-2.5c0-0.7,0.1-1.4,0.3-2c0.2-1,1.1-1.6,2.1-1.6C222.8,520,223.6,520.4,223.9,521.1z M223.1,525.8
	c0.3-0.7,0.5-1.5,0.4-2.3c0-0.7-0.1-1.4-0.3-2c-0.2-0.5-0.6-0.8-1.1-0.8c-0.5,0-0.9,0.3-1.1,0.7c-0.4,1.2-0.5,2.6-0.1,3.9
	c0.1,0.6,0.6,1,1.2,1C222.4,526.4,222.8,526.2,223.1,525.8z"/>
<path d="M229.5,521.1c0.3,0.7,0.5,1.6,0.5,2.4c0,0.8-0.1,1.6-0.4,2.4c-0.3,0.8-1.1,1.4-2,1.3c-0.8,0-1.5-0.4-1.9-1.1
	c-0.4-0.8-0.6-1.6-0.5-2.5c0-0.7,0.1-1.4,0.3-2c0.4-1.2,1.6-1.8,2.8-1.4C228.8,520.4,229.2,520.7,229.5,521.1L229.5,521.1z
	 M228.6,525.8c0.3-0.7,0.5-1.5,0.4-2.3c0-0.7-0.1-1.4-0.3-2c-0.2-0.5-0.6-0.8-1.1-0.8c-0.5,0-0.9,0.3-1.1,0.7
	c-0.4,1.2-0.5,2.6-0.1,3.9c0.1,0.6,0.6,1,1.2,1C228,526.4,228.4,526.2,228.6,525.8L228.6,525.8z"/>
<path d="M230.8,529.1c0.4-0.7,0.7-1.5,1-2.2c0.2-0.8,0.4-1.6,0.3-2.5c0-0.9-0.1-1.7-0.4-2.6c-0.3-0.7-0.6-1.4-1-2.1h0.6
	c0.5,0.8,0.8,1.3,0.9,1.5c0.1,0.2,0.3,0.5,0.4,0.8c0.1,0.4,0.3,0.8,0.3,1.2c0.1,0.4,0.1,0.8,0.1,1.1c0,0.9-0.1,1.8-0.5,2.6
	c-0.3,0.7-0.7,1.5-1.2,2.2H230.8z"/>
<path class="st1" d="M139.2,533.3c0-0.8-0.6-1.4-1.4-1.4c-0.8,0-1.4,0.6-1.4,1.4c0,0.8,0.6,1.4,1.4,1.4c0,0,0,0,0,0
	C138.5,534.7,139.2,534.1,139.2,533.3"/>
<path d="M143.5,523.2c-0.4,0.7-0.7,1.4-1,2.2c-0.2,0.8-0.4,1.6-0.3,2.5c0,0.9,0.1,1.8,0.4,2.6c0.3,0.7,0.6,1.4,1,2.1H143
	c-0.5-0.8-0.8-1.2-0.9-1.4c-0.1-0.2-0.2-0.5-0.4-0.8c-0.2-0.5-0.3-1-0.4-1.5c0-0.3,0-0.5,0-0.8c0-0.9,0.1-1.8,0.4-2.6
	c0.3-0.7,0.7-1.5,1.2-2.1L143.5,523.2z"/>
<path d="M144.9,525.5v-0.7c0.5,0,0.9-0.1,1.3-0.3c0.3-0.2,0.5-0.6,0.6-1h0.7v7h-0.9v-5L144.9,525.5z"/>
<path d="M154.1,524.6c0.4,0.7,0.5,1.6,0.5,2.4c0,0.8-0.1,1.6-0.4,2.4c-0.3,0.8-1.1,1.4-2,1.3c-0.8,0-1.5-0.4-1.9-1.1
	c-0.4-0.8-0.6-1.6-0.5-2.5c0-0.7,0.1-1.4,0.3-2c0.2-1,1.1-1.6,2.1-1.6C153,523.4,153.8,523.9,154.1,524.6z M153.3,529.2
	c0.3-0.7,0.5-1.5,0.4-2.3c0-0.7-0.1-1.4-0.3-2c-0.2-0.5-0.6-0.8-1.1-0.8c-0.5,0-0.9,0.3-1.1,0.7c-0.4,1.2-0.5,2.6-0.1,3.9
	c0.1,0.6,0.6,1,1.2,1C152.6,529.8,153,529.6,153.3,529.2L153.3,529.2z"/>
<path d="M155.9,529.4h1v1.1h-1V529.4z"/>
<path d="M162.5,524.6c0.4,0.7,0.5,1.6,0.5,2.4c0,0.8-0.1,1.6-0.4,2.4c-0.3,0.8-1.1,1.4-2,1.3c-0.8,0-1.5-0.4-1.9-1.1
	c-0.4-0.8-0.6-1.6-0.5-2.5c0-0.7,0.1-1.4,0.3-2c0.2-1,1.1-1.6,2.1-1.6C161.3,523.4,162.1,523.9,162.5,524.6z M161.6,529.2
	c0.3-0.7,0.5-1.5,0.4-2.3c0-0.7-0.1-1.4-0.3-2c-0.2-0.5-0.6-0.8-1.1-0.8c-0.5,0-0.9,0.3-1.1,0.7c-0.4,1.2-0.5,2.6-0.1,3.9
	c0.1,0.6,0.6,1,1.2,1C161,529.8,161.4,529.6,161.6,529.2L161.6,529.2z"/>
<path d="M164.3,525.5v-0.7c0.5,0,0.9-0.1,1.3-0.3c0.3-0.2,0.5-0.6,0.6-1h0.7v7H166v-5L164.3,525.5z"/>
<path d="M172.6,531.5c0.2-0.1,0.4-0.2,0.5-0.5c0-0.1,0.1-0.3,0.1-0.4v-0.1c0,0,0,0,0-0.1h-0.5v-1.1h1v1c0,0.3-0.1,0.7-0.2,1
	c-0.2,0.3-0.5,0.5-0.8,0.5L172.6,531.5z"/>
<path d="M177.7,527.2h2.4v0.9h-2.4V527.2z"/>
<path d="M185.8,523.6v0.8c-0.3,0.4-0.6,0.7-0.9,1.1c-0.4,0.6-0.7,1.1-1,1.7c-0.3,0.5-0.5,1.1-0.6,1.7c-0.1,0.3-0.2,0.8-0.4,1.6h-1
	c0.2-1.4,0.7-2.8,1.5-4c0.4-0.7,0.9-1.4,1.4-2h-3.9v-0.9L185.8,523.6z"/>
<path d="M187.4,528.7c0,0.4,0.3,0.8,0.7,1c0.2,0.1,0.5,0.2,0.7,0.2c0.4,0,0.9-0.2,1.2-0.5c0.2-0.3,0.4-0.7,0.4-1.1
	c0-0.4-0.1-0.8-0.4-1.1c-0.5-0.4-1.2-0.5-1.9-0.2c-0.2,0.1-0.4,0.3-0.6,0.5h-0.8l0.5-3.8h3.6v0.8h-3l-0.2,2c0.1-0.1,0.3-0.2,0.5-0.3
	c0.3-0.1,0.6-0.2,0.9-0.2c0.6,0,1.2,0.2,1.6,0.6c0.4,0.4,0.7,1,0.7,1.6c0,0.6-0.2,1.3-0.6,1.8c-0.5,0.6-1.3,0.8-2,0.8
	c-0.5,0-1.1-0.2-1.5-0.5c-0.5-0.4-0.7-0.9-0.7-1.5L187.4,528.7z"/>
<path d="M192.6,529.4h1v1.1h-1V529.4z"/>
<path d="M195.2,528.9c0.3-0.5,0.7-0.9,1.3-1.2l0.9-0.5c0.3-0.2,0.6-0.4,0.9-0.6c0.5-0.5,0.5-1.4,0-1.9c-0.3-0.3-0.6-0.4-1-0.4
	c-0.5,0-1,0.2-1.2,0.7c-0.1,0.3-0.2,0.7-0.2,1h-0.9c0-0.5,0.1-1,0.3-1.5c0.4-0.7,1.2-1.1,2-1c0.7-0.1,1.3,0.2,1.8,0.7
	c0.4,0.4,0.6,0.9,0.6,1.4c0,0.5-0.2,1.1-0.6,1.4c-0.4,0.3-0.8,0.6-1.2,0.8l-0.7,0.4c-0.3,0.1-0.5,0.3-0.8,0.5
	c-0.3,0.3-0.5,0.6-0.6,1h3.8v0.8h-4.8C194.8,529.9,194.9,529.4,195.2,528.9z"/>
<path d="M201,525.5v-0.7c0.5,0,0.9-0.1,1.3-0.3c0.3-0.2,0.5-0.6,0.6-1h0.7v7h-0.9v-5L201,525.5z"/>
<path d="M206,532.5c0.4-0.7,0.7-1.5,1-2.2c0.2-0.8,0.4-1.6,0.3-2.5c0-0.9-0.1-1.7-0.4-2.6c-0.3-0.7-0.6-1.4-1-2.1h0.6
	c0.5,0.8,0.8,1.3,0.9,1.5c0.1,0.2,0.3,0.5,0.4,0.8c0.1,0.4,0.3,0.8,0.3,1.2c0.1,0.4,0.1,0.8,0.1,1.2c0,0.9-0.1,1.8-0.5,2.6
	c-0.3,0.7-0.7,1.5-1.2,2.2L206,532.5z"/>
<path class="st1" d="M136.6,600.7c0-0.8-0.6-1.4-1.4-1.4c-0.8,0-1.4,0.6-1.4,1.4c0,0.8,0.6,1.4,1.4,1.4c0,0,0,0,0,0
	C136,602.1,136.6,601.5,136.6,600.7"/>
<path d="M141,590.6c-0.4,0.7-0.7,1.4-1,2.2c-0.2,0.8-0.4,1.6-0.4,2.5c0,0.9,0.1,1.8,0.4,2.6c0.3,0.7,0.6,1.4,1,2.1h-0.6
	c-0.5-0.7-0.8-1.2-0.9-1.4c-0.1-0.2-0.2-0.5-0.4-0.8c-0.2-0.5-0.3-1-0.4-1.5c0-0.3,0-0.5,0-0.8c0-0.9,0.1-1.8,0.4-2.6
	c0.3-0.7,0.7-1.5,1.2-2.1H141z"/>
<path d="M142.7,596.2c0,0.4,0.2,0.8,0.6,1c0.2,0.1,0.4,0.1,0.6,0.1c0.4,0,0.8-0.2,1.1-0.5c0.4-0.6,0.6-1.4,0.6-2.1
	c-0.2,0.3-0.4,0.5-0.7,0.7c-0.3,0.1-0.6,0.2-0.9,0.2c-0.6,0-1.2-0.2-1.6-0.6c-0.4-0.4-0.6-1-0.6-1.6c0-0.6,0.2-1.2,0.6-1.7
	c0.4-0.5,1.1-0.8,1.7-0.7c0.9-0.1,1.8,0.5,2.1,1.4c0.2,0.6,0.3,1.2,0.3,1.9c0,0.8-0.1,1.6-0.4,2.3c-0.3,1-1.2,1.7-2.2,1.7
	c-0.6,0-1.1-0.2-1.6-0.5c-0.4-0.4-0.6-0.8-0.5-1.3L142.7,596.2z M145,594.4c0.3-0.3,0.5-0.8,0.4-1.2c0-0.4-0.1-0.8-0.4-1.2
	c-0.3-0.3-0.6-0.4-1-0.4c-0.4,0-0.7,0.1-1,0.4c-0.3,0.3-0.4,0.7-0.4,1.2c0,0.4,0.1,0.8,0.3,1.1c0.3,0.3,0.7,0.4,1.1,0.4
	C144.4,594.7,144.7,594.6,145,594.4L145,594.4z"/>
<path d="M147.8,596.8h1v1.1h-1V596.8z"/>
<path d="M150.7,592.9v-0.7c0.5,0,0.9-0.1,1.3-0.3c0.3-0.2,0.5-0.6,0.6-1h0.7v7h-0.9v-5L150.7,592.9z"/>
<path d="M156.2,592.9v-0.7c0.5,0,0.9-0.1,1.3-0.3c0.3-0.2,0.5-0.6,0.6-1h0.7v7h-0.9v-5L156.2,592.9z"/>
<path d="M164.4,598.9c0.2-0.1,0.4-0.2,0.5-0.5c0-0.1,0.1-0.3,0.1-0.4v-0.1c0,0,0,0,0-0.1h-0.5v-1.1h1v1c0,0.3-0.1,0.7-0.2,1
	c-0.2,0.3-0.5,0.5-0.8,0.5L164.4,598.9z"/>
<path d="M169.6,594.6h2.4v0.9h-2.4V594.6z"/>
<path d="M173.8,596.2c0,0.4,0.2,0.8,0.6,1c0.2,0.1,0.4,0.1,0.6,0.1c0.4,0,0.8-0.2,1.1-0.5c0.4-0.6,0.6-1.4,0.6-2.1
	c-0.2,0.3-0.4,0.5-0.7,0.7c-0.3,0.1-0.6,0.2-0.9,0.2c-0.6,0-1.2-0.2-1.6-0.6c-0.4-0.4-0.6-1-0.6-1.6c0-0.6,0.2-1.2,0.6-1.7
	c0.4-0.5,1.1-0.8,1.7-0.7c0.9-0.1,1.8,0.5,2.1,1.4c0.2,0.6,0.3,1.2,0.3,1.9c0,0.8-0.1,1.6-0.4,2.3c-0.3,1-1.2,1.7-2.2,1.7
	c-0.6,0-1.1-0.2-1.6-0.5c-0.4-0.4-0.5-0.8-0.5-1.3L173.8,596.2z M176.1,594.4c0.3-0.3,0.5-0.8,0.4-1.2c0-0.4-0.1-0.8-0.4-1.2
	c-0.3-0.3-0.6-0.4-1-0.4c-0.4,0-0.7,0.1-1,0.4c-0.3,0.3-0.4,0.7-0.4,1.2c0,0.4,0.1,0.8,0.3,1.1c0.3,0.3,0.7,0.4,1.1,0.4
	C175.5,594.7,175.9,594.6,176.1,594.4L176.1,594.4z"/>
<path d="M179.4,596.2c0,0.4,0.2,0.8,0.6,1c0.2,0.1,0.4,0.1,0.6,0.1c0.4,0,0.8-0.2,1.1-0.5c0.4-0.6,0.6-1.4,0.6-2.1
	c-0.2,0.3-0.4,0.5-0.7,0.7c-0.3,0.1-0.6,0.2-0.9,0.2c-0.6,0-1.2-0.2-1.6-0.6c-0.4-0.4-0.6-1-0.6-1.6c0-0.6,0.2-1.2,0.6-1.7
	c0.4-0.5,1.1-0.8,1.7-0.7c0.9-0.1,1.8,0.5,2.1,1.4c0.2,0.6,0.3,1.2,0.3,1.9c0,0.8-0.1,1.6-0.4,2.3c-0.3,1-1.2,1.7-2.2,1.7
	c-0.6,0-1.1-0.2-1.6-0.5c-0.4-0.4-0.6-0.8-0.5-1.3L179.4,596.2z M181.7,594.4c0.3-0.3,0.5-0.8,0.4-1.2c0-0.4-0.1-0.8-0.4-1.2
	c-0.3-0.3-0.6-0.4-1-0.4c-0.4,0-0.7,0.1-1,0.4c-0.3,0.3-0.4,0.7-0.4,1.2c0,0.4,0.1,0.8,0.3,1.1c0.3,0.3,0.7,0.4,1.1,0.4
	C181.1,594.8,181.4,594.6,181.7,594.4z"/>
<path d="M184.5,596.8h1v1.1h-1V596.8z"/>
<path d="M191.1,592c0.3,0.7,0.5,1.6,0.5,2.4c0,0.8-0.1,1.6-0.4,2.4c-0.3,0.8-1.1,1.4-2,1.3c-0.8,0-1.5-0.4-1.9-1.1
	c-0.4-0.8-0.6-1.6-0.5-2.5c0-0.7,0.1-1.4,0.3-2c0.2-1,1.1-1.6,2.1-1.6C189.9,590.9,190.7,591.3,191.1,592z M190.2,596.7
	c0.3-0.7,0.5-1.5,0.4-2.3c0-0.7-0.1-1.4-0.3-2c-0.2-0.5-0.6-0.8-1.1-0.8c-0.5,0-0.9,0.3-1.1,0.7c-0.3,0.7-0.4,1.4-0.4,2.2
	c0,0.6,0.1,1.2,0.2,1.7c0.1,0.7,0.8,1.1,1.5,1C189.7,597.1,190,596.9,190.2,596.7L190.2,596.7z"/>
<path d="M196.6,592c0.4,0.7,0.5,1.6,0.5,2.4c0,0.8-0.1,1.6-0.4,2.4c-0.3,0.8-1.1,1.4-2,1.3c-0.8,0-1.5-0.4-1.9-1.1
	c-0.4-0.8-0.6-1.6-0.5-2.5c0-0.7,0.1-1.4,0.3-2c0.2-1,1.1-1.6,2.1-1.6C195.5,590.9,196.2,591.3,196.6,592z M195.7,596.7
	c0.3-0.7,0.5-1.5,0.4-2.3c0-0.7-0.1-1.4-0.3-2c-0.2-0.5-0.6-0.8-1.1-0.8c-0.5,0-0.9,0.3-1.1,0.7c-0.4,1.2-0.5,2.6-0.1,3.9
	c0.1,0.6,0.6,1,1.2,1C195.1,597.2,195.5,597,195.7,596.7L195.7,596.7z"/>
<path d="M197.9,599.9c0.4-0.7,0.7-1.5,1-2.2c0.2-0.8,0.4-1.6,0.3-2.5c0-0.9-0.1-1.7-0.4-2.6c-0.3-0.7-0.6-1.4-1-2.1h0.6
	c0.5,0.8,0.8,1.3,0.9,1.5c0.1,0.2,0.3,0.5,0.4,0.8c0.1,0.4,0.3,0.8,0.3,1.2c0.1,0.4,0.1,0.8,0.1,1.2c0,0.9-0.1,1.8-0.5,2.6
	c-0.3,0.8-0.7,1.5-1.2,2.2H197.9z"/>
<path class="st1" d="M18.8,585.4c0-0.8-0.6-1.4-1.4-1.4c-0.8,0-1.4,0.6-1.4,1.4c0,0.8,0.6,1.4,1.4,1.4
	C18.2,586.8,18.8,586.2,18.8,585.4C18.8,585.4,18.8,585.4,18.8,585.4"/>
<path d="M23.2,575.2c-0.4,0.7-0.7,1.4-1,2.2c-0.2,0.8-0.4,1.6-0.4,2.5c0,0.9,0.1,1.8,0.4,2.6c0.3,0.7,0.6,1.4,1,2.1h-0.6
	c-0.5-0.7-0.8-1.2-0.9-1.4c-0.1-0.2-0.2-0.5-0.4-0.8c-0.2-0.5-0.3-1-0.4-1.5c0-0.3,0-0.5,0-0.8c0-0.9,0.1-1.7,0.4-2.6
	c0.3-0.7,0.7-1.5,1.2-2.1L23.2,575.2z"/>
<path d="M24,579.3h2.4v0.9H24V579.3z"/>
<path d="M27.7,582c-0.4-0.5-0.6-1.1-0.6-1.7h0.9c0,0.3,0.1,0.7,0.3,1c0.3,0.4,0.7,0.6,1.2,0.6c0.4,0,0.8-0.1,1.1-0.4
	c0.3-0.2,0.4-0.6,0.4-1c0-0.4-0.1-0.8-0.4-1c-0.4-0.2-0.8-0.3-1.2-0.3H29v-0.8h0.2h0.2c0.3,0,0.6,0,0.8-0.2c0.4-0.2,0.6-0.6,0.6-1
	c0-0.3-0.1-0.6-0.4-0.8c-0.3-0.2-0.6-0.3-0.9-0.3c-0.5-0.1-1,0.2-1.2,0.6c-0.1,0.3-0.2,0.6-0.2,0.9h-0.9c0-0.5,0.1-0.9,0.3-1.3
	c0.4-0.7,1.1-1.1,1.9-1c0.6,0,1.2,0.1,1.7,0.5c0.4,0.3,0.6,0.9,0.6,1.4c0,0.4-0.1,0.7-0.3,1c-0.2,0.2-0.3,0.3-0.6,0.4
	c0.4,0.1,0.7,0.3,0.8,0.7c0.2,0.3,0.3,0.7,0.3,1.1c0,0.6-0.2,1.2-0.7,1.6c-0.5,0.4-1.2,0.7-1.9,0.6C28.8,582.7,28.2,582.5,27.7,582z
	"/>
<path d="M33.1,580.9c0.3-0.5,0.7-0.9,1.3-1.2l0.9-0.5c0.3-0.2,0.6-0.4,0.9-0.6c0.5-0.5,0.5-1.4,0-1.9c-0.3-0.3-0.6-0.4-1-0.4
	c-0.5,0-1,0.2-1.2,0.7c-0.1,0.3-0.2,0.7-0.2,1h-0.9c0-0.5,0.1-1,0.3-1.5c0.4-0.7,1.2-1.1,2-1c0.7-0.1,1.3,0.2,1.8,0.7
	c0.4,0.4,0.6,0.9,0.5,1.4c0,0.5-0.2,1.1-0.6,1.4c-0.4,0.3-0.8,0.6-1.2,0.8l-0.7,0.4c-0.3,0.1-0.5,0.3-0.8,0.5
	c-0.3,0.2-0.5,0.6-0.6,1h3.8v0.8h-4.8C32.7,582,32.9,581.4,33.1,580.9z"/>
<path d="M38.9,581.4h1v1.1h-1V581.4z"/>
<path d="M44.1,582.5v-1.7H41v-0.9l3.2-4.5H45v4.5h1v0.8h-1v1.7H44.1z M44.1,580v-3.2l-2.2,3.2H44.1z"/>
<path d="M47.6,580.7c0,0.4,0.3,0.8,0.7,1c0.2,0.1,0.5,0.2,0.7,0.2c0.4,0,0.9-0.2,1.2-0.5c0.2-0.3,0.4-0.7,0.4-1.1
	c0-0.4-0.1-0.8-0.5-1.1c-0.3-0.3-0.7-0.4-1.1-0.4c-0.5,0-1,0.2-1.3,0.7h-0.8l0.5-3.8h3.6v0.8h-3l-0.3,1.9c0.1-0.1,0.3-0.2,0.5-0.3
	c0.9-0.3,1.8-0.2,2.5,0.5c0.4,0.4,0.7,1,0.7,1.6c0,0.6-0.2,1.3-0.6,1.8c-0.5,0.6-1.3,0.8-2,0.8c-0.5,0-1.1-0.2-1.5-0.5
	c-0.5-0.4-0.7-0.9-0.7-1.5H47.6z"/>
<path d="M55.5,583.5c0.2-0.1,0.4-0.2,0.5-0.5c0-0.1,0.1-0.3,0.1-0.4v-0.1c0,0,0,0,0-0.1h-0.5v-1.1h1v1c0,0.3-0.1,0.7-0.2,1
	c-0.2,0.3-0.5,0.5-0.8,0.5L55.5,583.5z"/>
<path d="M60.7,579.3h2.5v0.9h-2.5V579.3z"/>
<path d="M64.9,580.8c0,0.4,0.2,0.8,0.6,1c0.2,0.1,0.4,0.1,0.6,0.1c0.4,0,0.8-0.2,1.1-0.5c0.4-0.6,0.6-1.4,0.6-2.1
	c-0.2,0.3-0.4,0.5-0.7,0.7c-0.3,0.1-0.6,0.2-0.9,0.2c-0.6,0-1.2-0.2-1.6-0.6c-0.4-0.4-0.6-1-0.6-1.6c0-0.6,0.2-1.2,0.6-1.7
	c0.4-0.5,1.1-0.8,1.7-0.7c0.9-0.1,1.8,0.5,2.1,1.4c0.2,0.6,0.4,1.2,0.4,1.9c0,0.8-0.1,1.6-0.4,2.3c-0.3,1-1.2,1.7-2.2,1.7
	c-0.6,0-1.1-0.2-1.5-0.5c-0.4-0.4-0.6-0.8-0.5-1.3L64.9,580.8z M67.2,579c0.3-0.3,0.5-0.8,0.4-1.2c0-0.4-0.1-0.8-0.4-1.2
	c-0.3-0.3-0.6-0.4-1-0.4c-0.4,0-0.7,0.1-1,0.4c-0.3,0.3-0.4,0.7-0.4,1.2c0,0.4,0.1,0.8,0.3,1.1c0.3,0.3,0.7,0.4,1.1,0.4
	C66.6,579.4,66.9,579.3,67.2,579z"/>
<path d="M69.9,582c-0.4-0.5-0.6-1.1-0.6-1.7h0.9c0,0.3,0.1,0.7,0.3,1c0.3,0.4,0.7,0.6,1.2,0.6c0.4,0,0.8-0.1,1.1-0.4
	c0.3-0.2,0.4-0.6,0.4-1c0-0.4-0.1-0.8-0.5-1c-0.4-0.2-0.8-0.3-1.2-0.3h-0.4v-0.8h0.2h0.1c0.3,0,0.6,0,0.8-0.2c0.4-0.2,0.6-0.6,0.6-1
	c0-0.3-0.1-0.6-0.4-0.8c-0.2-0.2-0.6-0.3-0.9-0.3c-0.5-0.1-1,0.2-1.2,0.6c-0.1,0.3-0.2,0.6-0.2,0.9h-0.9c0-0.5,0.1-0.9,0.3-1.3
	c0.4-0.7,1.1-1.1,1.9-1c0.6,0,1.2,0.1,1.7,0.5c0.4,0.4,0.7,0.9,0.6,1.5c0,0.4-0.1,0.7-0.3,1c-0.2,0.2-0.3,0.3-0.6,0.4
	c0.3,0.1,0.7,0.3,0.9,0.6c0.2,0.3,0.3,0.7,0.3,1.1c0,0.6-0.2,1.2-0.7,1.6c-0.5,0.4-1.2,0.7-1.9,0.6C71.1,582.7,70.4,582.5,69.9,582z
	"/>
<path d="M75.6,581.4h1v1.1h-1V581.4z"/>
<path d="M78.7,580.7c0,0.4,0.3,0.8,0.7,1c0.2,0.1,0.5,0.2,0.7,0.2c0.4,0,0.9-0.2,1.2-0.5c0.2-0.3,0.4-0.7,0.4-1.1
	c0-0.4-0.1-0.8-0.4-1.1c-0.5-0.4-1.2-0.5-1.8-0.2c-0.2,0.1-0.4,0.3-0.6,0.5H78l0.5-3.8h3.6v0.8h-3l-0.3,1.9c0.1-0.1,0.3-0.2,0.5-0.3
	c0.9-0.3,1.8-0.2,2.5,0.5c0.4,0.4,0.7,1,0.7,1.6c0,0.6-0.2,1.3-0.6,1.8c-0.5,0.6-1.3,0.8-2,0.8c-0.5,0-1.1-0.2-1.5-0.5
	c-0.5-0.4-0.7-0.9-0.7-1.5L78.7,580.7z"/>
<path d="M84,578.4c-0.3-0.3-0.4-0.6-0.4-1c0-0.5,0.2-1,0.6-1.3c0.4-0.4,1-0.6,1.6-0.6c0.6,0,1.1,0.2,1.6,0.5
	c0.4,0.3,0.6,0.8,0.6,1.2c0,0.4-0.1,0.8-0.3,1.1c-0.2,0.2-0.4,0.3-0.6,0.5c0.3,0.1,0.5,0.3,0.7,0.5c0.3,0.3,0.5,0.8,0.5,1.3
	c0,0.6-0.2,1.2-0.6,1.6c-0.5,0.4-1.1,0.7-1.8,0.6c-0.6,0-1.2-0.2-1.7-0.6c-0.5-0.4-0.7-1-0.7-1.6c0-0.8,0.5-1.5,1.2-1.8
	C84.3,578.7,84.2,578.6,84,578.4z M86.8,581.5c0.3-0.2,0.4-0.6,0.4-1c0-0.4-0.1-0.7-0.4-1c-0.3-0.2-0.7-0.4-1.1-0.3
	c-0.4,0-0.7,0.1-1,0.4c-0.3,0.3-0.4,0.6-0.4,1c0,0.4,0.1,0.7,0.4,1c0.3,0.3,0.7,0.4,1.1,0.4C86.2,581.9,86.5,581.8,86.8,581.5
	L86.8,581.5z M86.7,578.1c0.4-0.4,0.5-1,0.1-1.4c0,0-0.1-0.1-0.1-0.1c-0.3-0.2-0.6-0.3-0.9-0.3c-0.5-0.1-1.1,0.2-1.2,0.8
	c0,0.1,0,0.2,0,0.3c0,0.3,0.1,0.6,0.4,0.8c0.2,0.2,0.5,0.3,0.9,0.3C86.1,578.5,86.4,578.4,86.7,578.1z"/>
<path d="M89,584.6c0.4-0.7,0.7-1.5,1-2.2c0.2-0.8,0.4-1.6,0.3-2.5c0-0.9-0.1-1.7-0.4-2.6c-0.3-0.7-0.6-1.4-1-2.1h0.6
	c0.5,0.8,0.8,1.3,0.9,1.5c0.1,0.2,0.3,0.5,0.3,0.8c0.1,0.4,0.3,0.8,0.3,1.2c0.1,0.4,0.1,0.8,0.1,1.2c0,0.9-0.1,1.8-0.5,2.6
	c-0.3,0.7-0.7,1.5-1.2,2.2H89z"/>
<line class="st1" x1="162.5" y1="529.8" x2="137.8" y2="533.3"/>
<line class="st1" x1="137.8" y1="533.3" x2="135.2" y2="600.7"/>
<line class="st1" x1="135.2" y1="600.7" x2="17.4" y2="585.3"/>
<line class="st1" x1="17.4" y1="585.3" x2="162.5" y2="529.8"/>
<path class="st1" d="M139.2,533.3c0-0.8-0.6-1.4-1.4-1.4c-0.8,0-1.4,0.6-1.4,1.4c0,0.8,0.6,1.4,1.4,1.4c0,0,0,0,0,0
	C138.5,534.7,139.2,534.1,139.2,533.3"/>
<path class="st1" d="M107.6,278.9c0-0.8-0.6-1.4-1.4-1.4s-1.4,0.6-1.4,1.4s0.6,1.4,1.4,1.4S107.6,279.7,107.6,278.9L107.6,278.9"/>
<path d="M112,268.8c-0.4,0.7-0.7,1.4-1,2.2c-0.2,0.8-0.4,1.6-0.3,2.5c0,0.9,0.1,1.8,0.4,2.6c0.3,0.7,0.6,1.4,1,2.1h-0.6
	c-0.5-0.7-0.8-1.2-0.9-1.4s-0.2-0.5-0.4-0.8c-0.2-0.5-0.3-1-0.4-1.5c0-0.3,0-0.5,0-0.8c0-0.9,0.1-1.8,0.4-2.6
	c0.3-0.7,0.7-1.5,1.2-2.1L112,268.8z"/>
<path d="M112.8,272.8h2.4v0.9h-2.4V272.8z"/>
<path d="M116.6,271.1v-0.7c0.5,0,0.9-0.1,1.3-0.3c0.3-0.2,0.5-0.6,0.6-1h0.7v7h-0.9v-5L116.6,271.1z"/>
<path d="M122.1,275h1v1.1h-1V275z"/>
<path d="M125,271.1v-0.7c0.5,0,0.9-0.1,1.3-0.3c0.3-0.2,0.5-0.6,0.6-1h0.7v7h-0.9v-5L125,271.1z"/>
<path d="M130.4,275.6c-0.4-0.5-0.6-1.1-0.6-1.7h0.9c0,0.3,0.1,0.7,0.3,1c0.3,0.4,0.7,0.6,1.2,0.6c0.4,0,0.8-0.1,1.1-0.4
	c0.3-0.2,0.4-0.6,0.4-1c0-0.4-0.1-0.8-0.4-1c-0.4-0.2-0.8-0.3-1.2-0.3h-0.4v-0.8h0.2h0.2c0.3,0,0.6,0,0.8-0.2c0.4-0.2,0.6-0.6,0.6-1
	c0-0.3-0.1-0.6-0.4-0.8c-0.2-0.2-0.5-0.3-0.9-0.3c-0.5-0.1-1,0.2-1.2,0.6c-0.1,0.3-0.2,0.6-0.2,0.9H130c0-0.5,0.1-0.9,0.3-1.3
	c0.4-0.7,1.1-1.1,1.9-1c0.6,0,1.2,0.1,1.7,0.5c0.4,0.3,0.6,0.9,0.6,1.4c0,0.4-0.1,0.7-0.3,1c-0.2,0.2-0.3,0.3-0.6,0.4
	c0.3,0.1,0.7,0.3,0.9,0.6c0.2,0.3,0.3,0.7,0.3,1.1c0,0.6-0.2,1.2-0.7,1.6c-0.5,0.4-1.2,0.7-1.9,0.6
	C131.5,276.2,130.9,276,130.4,275.6z"/>
<path d="M138.7,277.1c0.2-0.1,0.4-0.2,0.5-0.5c0-0.1,0.1-0.3,0.1-0.4v-0.1c0,0,0,0,0-0.1h-0.5V275h1v1c0,0.3-0.1,0.7-0.2,1
	c-0.2,0.3-0.5,0.5-0.8,0.5L138.7,277.1z"/>
<path d="M144.4,271.1v-0.7c0.5,0,0.9-0.1,1.3-0.3c0.3-0.2,0.5-0.6,0.6-1h0.7v7h-0.9v-5L144.4,271.1z"/>
<path d="M152.3,276.1v-1.7h-3.1v-0.9l3.2-4.5h0.7v4.5h1v0.8h-1v1.7L152.3,276.1z M152.3,273.6v-3.2l-2.2,3.2L152.3,273.6z"/>
<path d="M155.4,275h1v1.1h-1V275z"/>
<path d="M158.6,274.3c0,0.4,0.3,0.8,0.7,1c0.2,0.1,0.5,0.2,0.7,0.1c0.4,0,0.9-0.2,1.2-0.5c0.2-0.3,0.4-0.7,0.4-1.1
	c0-0.4-0.1-0.8-0.4-1.1c-0.3-0.3-0.7-0.4-1.1-0.4c-0.3,0-0.5,0-0.8,0.2c-0.2,0.1-0.4,0.3-0.6,0.5h-0.8l0.5-3.8h3.6v0.9h-3l-0.3,1.9
	c0.1-0.1,0.3-0.2,0.5-0.3c0.3-0.1,0.6-0.2,0.9-0.2c0.6,0,1.2,0.2,1.6,0.6c0.4,0.4,0.7,1,0.7,1.6c0,0.6-0.2,1.3-0.6,1.8
	c-0.5,0.6-1.3,0.8-2,0.8c-0.5,0-1.1-0.2-1.5-0.5c-0.5-0.4-0.7-0.9-0.7-1.5L158.6,274.3z"/>
<path d="M163.7,275.6c-0.4-0.5-0.6-1.1-0.6-1.7h0.9c0,0.3,0.1,0.7,0.3,1c0.3,0.4,0.7,0.6,1.2,0.6c0.4,0,0.8-0.1,1.1-0.4
	c0.3-0.2,0.4-0.6,0.4-1c0-0.4-0.1-0.8-0.4-1c-0.4-0.2-0.8-0.3-1.2-0.3H165v-0.8h0.2h0.2c0.3,0,0.6,0,0.8-0.2c0.4-0.2,0.6-0.6,0.6-1
	c0-0.3-0.1-0.6-0.4-0.8c-0.2-0.2-0.6-0.3-0.9-0.3c-0.5-0.1-1,0.2-1.2,0.6c-0.1,0.3-0.2,0.6-0.2,0.9h-0.9c0-0.5,0.1-0.9,0.3-1.3
	c0.4-0.7,1.1-1.1,1.9-1c0.6,0,1.2,0.1,1.7,0.5c0.4,0.3,0.6,0.9,0.6,1.4c0,0.4-0.1,0.7-0.3,1c-0.2,0.2-0.3,0.3-0.6,0.4
	c0.3,0.1,0.7,0.3,0.9,0.6c0.2,0.3,0.3,0.7,0.3,1.1c0,0.6-0.2,1.2-0.7,1.6c-0.5,0.4-1.2,0.7-1.9,0.6
	C164.8,276.2,164.2,276,163.7,275.6z"/>
<path d="M168.8,278.1c0.4-0.7,0.7-1.4,1-2.2c0.2-0.8,0.4-1.6,0.4-2.5c0-0.9-0.1-1.7-0.4-2.6c-0.3-0.7-0.6-1.4-1-2.1h0.6
	c0.5,0.8,0.8,1.3,0.9,1.5c0.1,0.2,0.2,0.5,0.3,0.8c0.2,0.4,0.3,0.8,0.3,1.2c0.1,0.4,0.1,0.8,0.1,1.1c0,0.9-0.1,1.8-0.5,2.6
	c-0.3,0.8-0.7,1.5-1.2,2.1L168.8,278.1z"/>
<line class="st1" x1="137.8" y1="533.3" x2="106.2" y2="278.9"/>
<path class="st1" d="M92.2,147.5c0-0.8-0.6-1.4-1.4-1.4c-0.8,0-1.4,0.6-1.4,1.4c0,0.8,0.6,1.4,1.4,1.4c0,0,0,0,0,0
	C91.6,148.9,92.2,148.2,92.2,147.5"/>
<path class="st1" d="M162.2,146.5c0-0.8-0.6-1.4-1.4-1.4s-1.4,0.6-1.4,1.4c0,0.8,0.6,1.4,1.4,1.4c0,0,0,0,0,0
	C161.5,147.9,162.2,147.3,162.2,146.5C162.2,146.5,162.2,146.5,162.2,146.5"/>
<path d="M166.5,136.4c-0.4,0.7-0.7,1.4-1,2.2c-0.2,0.8-0.4,1.6-0.4,2.5c0,0.9,0.1,1.8,0.4,2.6c0.3,0.7,0.6,1.4,1,2.1H166
	c-0.5-0.7-0.8-1.2-0.9-1.4s-0.2-0.5-0.4-0.8c-0.2-0.5-0.3-1-0.4-1.5c0-0.3,0-0.5,0-0.8c0-0.9,0.1-1.8,0.4-2.6
	c0.3-0.7,0.7-1.5,1.2-2.1L166.5,136.4z"/>
<path d="M167.9,138.7v-0.7c0.5,0,0.9-0.1,1.3-0.3c0.3-0.2,0.5-0.6,0.6-1h0.7v7h-0.9v-5L167.9,138.7z"/>
<path d="M173.4,139.6c-0.3-0.3-0.4-0.6-0.4-1c0-0.5,0.2-1,0.6-1.3c0.4-0.4,1-0.6,1.6-0.6c0.6,0,1.1,0.2,1.6,0.5
	c0.4,0.3,0.6,0.8,0.6,1.2c0,0.4-0.1,0.8-0.3,1.1c-0.2,0.2-0.4,0.3-0.6,0.4c0.3,0.1,0.5,0.3,0.7,0.5c0.3,0.3,0.5,0.8,0.5,1.3
	c0,0.6-0.2,1.1-0.6,1.6c-0.5,0.5-1.1,0.7-1.8,0.6c-0.6,0-1.2-0.2-1.7-0.6c-0.5-0.4-0.7-1-0.7-1.6c0-0.8,0.5-1.5,1.2-1.8
	C173.8,139.9,173.6,139.7,173.4,139.6z M176.3,142.8c0.3-0.2,0.4-0.6,0.4-1c0-0.4-0.1-0.7-0.4-1c-0.3-0.2-0.7-0.4-1.1-0.4
	c-0.4,0-0.7,0.1-1,0.4c-0.3,0.3-0.4,0.6-0.4,1c0,0.4,0.1,0.7,0.4,0.9c0.3,0.3,0.7,0.4,1.1,0.4C175.6,143.1,176,143,176.3,142.8z
	 M176.1,139.3c0.4-0.4,0.5-1,0.1-1.4c0,0-0.1-0.1-0.1-0.1c-0.3-0.2-0.6-0.3-0.9-0.3c-0.5-0.1-1.1,0.2-1.2,0.8c0,0.1,0,0.2,0,0.3
	c0,0.3,0.1,0.6,0.4,0.8c0.2,0.2,0.5,0.3,0.9,0.3C175.5,139.6,175.8,139.5,176.1,139.3z"/>
<path d="M178.9,142.6h1v1.1h-1V142.6z"/>
<path d="M181.8,138.7v-0.7c0.5,0,0.9-0.1,1.3-0.3c0.3-0.2,0.5-0.6,0.6-1h0.7v7h-0.9v-5L181.8,138.7z"/>
<path d="M187.1,142.1c0.3-0.5,0.7-0.9,1.3-1.2l0.9-0.5c0.3-0.2,0.6-0.4,0.9-0.6c0.3-0.2,0.4-0.6,0.4-0.9c0-0.4-0.1-0.7-0.4-1
	c-0.3-0.3-0.6-0.4-1-0.4c-0.5,0-1,0.2-1.2,0.7c-0.1,0.3-0.2,0.7-0.2,1h-0.9c0-0.5,0.1-1,0.3-1.5c0.4-0.7,1.2-1.1,2-1
	c0.7-0.1,1.3,0.2,1.8,0.7c0.4,0.4,0.6,0.9,0.6,1.4c0,0.5-0.2,1.1-0.6,1.4c-0.4,0.3-0.8,0.6-1.2,0.8l-0.7,0.4
	c-0.3,0.1-0.5,0.3-0.8,0.5c-0.3,0.2-0.5,0.6-0.6,0.9h3.8v0.8h-4.8C186.7,143.1,186.8,142.6,187.1,142.1z"/>
<path d="M195.5,144.7c0.2-0.1,0.4-0.2,0.5-0.5c0-0.1,0.1-0.3,0.1-0.4v-0.1c0,0,0,0,0-0.1h-0.5v-1.1h1v1c0,0.3-0.1,0.7-0.2,1
	c-0.2,0.3-0.5,0.5-0.8,0.5L195.5,144.7z"/>
<path d="M204.8,137.3c0.3,0.4,0.5,0.8,0.5,1.3h-0.9c0-0.2-0.1-0.5-0.2-0.7c-0.2-0.3-0.6-0.5-1-0.4c-0.5,0-0.9,0.3-1.2,0.7
	c-0.3,0.6-0.5,1.3-0.5,2c0.2-0.3,0.5-0.5,0.8-0.7c0.3-0.1,0.6-0.2,0.9-0.2c0.6,0,1.1,0.2,1.5,0.6c0.5,0.4,0.7,1,0.7,1.7
	c0,0.6-0.2,1.2-0.6,1.7c-0.4,0.5-1.1,0.8-1.8,0.7c-0.6,0-1.3-0.3-1.7-0.8c-0.5-0.7-0.8-1.6-0.7-2.5c0-0.8,0.1-1.5,0.3-2.2
	c0.2-1,1.2-1.8,2.2-1.7C203.8,136.6,204.4,136.8,204.8,137.3z M204.2,142.6c0.2-0.3,0.4-0.7,0.4-1.1c0-0.4-0.1-0.7-0.3-1
	c-0.3-0.3-0.7-0.5-1.1-0.5c-0.8,0-1.4,0.6-1.4,1.4c0,0.1,0,0.1,0,0.2c0,0.4,0.1,0.8,0.4,1.1c0.3,0.3,0.7,0.5,1.1,0.5
	C203.5,143.1,203.9,142.9,204.2,142.6z"/>
<path d="M206.8,138.7v-0.7c0.5,0,0.9-0.1,1.3-0.3c0.3-0.2,0.5-0.6,0.6-1h0.7v7h-0.9v-5L206.8,138.7z"/>
<path d="M212.2,142.6h1v1.1h-1V142.6z"/>
<path d="M214.9,142.1c0.3-0.5,0.7-0.9,1.3-1.2l0.9-0.5c0.3-0.2,0.6-0.4,0.9-0.6c0.5-0.5,0.5-1.4,0-1.9c-0.3-0.3-0.6-0.4-1-0.4
	c-0.5,0-1,0.2-1.2,0.7c-0.1,0.3-0.2,0.7-0.2,1h-0.8c0-0.5,0.1-1,0.3-1.5c0.4-0.7,1.2-1.1,2-1c0.7-0.1,1.3,0.2,1.8,0.7
	c0.4,0.4,0.6,0.9,0.6,1.4c0,0.5-0.2,1.1-0.6,1.4c-0.4,0.3-0.8,0.6-1.2,0.8l-0.7,0.4c-0.3,0.1-0.5,0.3-0.8,0.5
	c-0.3,0.2-0.5,0.6-0.6,0.9h3.8v0.8h-4.8C214.5,143.1,214.6,142.6,214.9,142.1z"/>
<path d="M220.5,143.2c-0.4-0.5-0.6-1.1-0.6-1.7h0.9c0,0.3,0.1,0.7,0.3,1c0.3,0.4,0.7,0.6,1.2,0.6c0.4,0,0.8-0.1,1.1-0.4
	c0.3-0.2,0.4-0.6,0.4-0.9c0-0.4-0.1-0.8-0.4-1c-0.4-0.2-0.8-0.3-1.2-0.3h-0.4v-0.8h0.2h0.2c0.3,0,0.6,0,0.8-0.2
	c0.4-0.2,0.6-0.6,0.6-1c0-0.3-0.1-0.6-0.4-0.8c-0.2-0.2-0.5-0.3-0.9-0.3c-0.5-0.1-1,0.2-1.2,0.6c-0.1,0.3-0.2,0.6-0.2,0.9h-0.9
	c0-0.5,0.1-0.9,0.3-1.3c0.4-0.7,1.1-1.1,1.9-1c0.6,0,1.2,0.1,1.7,0.5c0.4,0.3,0.6,0.9,0.6,1.4c0,0.4-0.1,0.7-0.4,1
	c-0.2,0.2-0.3,0.3-0.6,0.4c0.3,0.1,0.7,0.3,0.9,0.6c0.2,0.3,0.3,0.7,0.3,1.1c0,0.6-0.2,1.2-0.6,1.6c-0.5,0.4-1.2,0.7-1.9,0.6
	C221.7,143.9,221,143.7,220.5,143.2z"/>
<path d="M225.7,145.7c0.4-0.7,0.7-1.5,1-2.2c0.2-0.8,0.4-1.6,0.3-2.5c0-0.9-0.1-1.7-0.4-2.6c-0.3-0.7-0.6-1.4-1-2.1h0.6
	c0.5,0.8,0.8,1.3,0.9,1.5c0.1,0.2,0.3,0.5,0.4,0.8c0.1,0.4,0.3,0.8,0.3,1.2c0.1,0.4,0.1,0.8,0.1,1.1c0,0.9-0.1,1.8-0.5,2.6
	c-0.3,0.7-0.7,1.5-1.2,2.1L225.7,145.7z"/>
<path class="st1" d="M171.6,39.9c0-0.8-0.7-1.4-1.5-1.4c-0.8,0-1.4,0.7-1.4,1.5c0,0.8,0.7,1.4,1.4,1.4
	C171,41.4,171.6,40.7,171.6,39.9"/>
<line class="st1" x1="90.8" y1="147.5" x2="160.7" y2="146.5"/>
<line class="st1" x1="160.7" y1="146.5" x2="170.2" y2="39.9"/>
<line class="st1" x1="170.2" y1="39.9" x2="90.8" y2="147.5"/>
<path class="st1" d="M66,307c0-0.8-0.6-1.4-1.4-1.4c-0.8,0-1.4,0.6-1.4,1.4s0.6,1.4,1.4,1.4C65.4,308.5,66,307.8,66,307"/>
<path class="st1" d="M163.9,529.8c0-0.8-0.6-1.4-1.4-1.4c-0.8,0-1.4,0.6-1.4,1.4c0,0.8,0.6,1.4,1.4,1.4c0,0,0,0,0,0
	C163.3,531.3,163.9,530.6,163.9,529.8C163.9,529.9,163.9,529.8,163.9,529.8"/>
<path class="st1" d="M108.4,306.2c0-0.8-0.6-1.4-1.4-1.4s-1.4,0.6-1.4,1.4s0.6,1.4,1.4,1.4S108.4,307,108.4,306.2L108.4,306.2"/>
<path d="M112.8,296.1c-0.4,0.7-0.7,1.4-1,2.2c-0.2,0.8-0.4,1.6-0.3,2.5c0,0.9,0.1,1.8,0.4,2.6c0.3,0.7,0.6,1.4,1,2.1h-0.6
	c-0.5-0.7-0.8-1.2-0.9-1.4s-0.2-0.5-0.4-0.8c-0.2-0.5-0.3-1-0.4-1.5c0-0.3,0-0.5,0-0.8c0-0.9,0.1-1.8,0.4-2.6
	c0.3-0.7,0.7-1.5,1.2-2.1L112.8,296.1z"/>
<path d="M113.6,300.2h2.4v0.9h-2.4V300.2z"/>
<path d="M121.2,297.5c0.4,0.7,0.5,1.6,0.5,2.4c0,0.8-0.1,1.6-0.4,2.4c-0.3,0.8-1.1,1.4-2,1.3c-0.8,0-1.5-0.4-1.9-1.1
	c-0.4-0.8-0.6-1.6-0.5-2.5c0-0.7,0.1-1.4,0.3-2c0.2-1,1.1-1.6,2.1-1.6C120,296.4,120.8,296.8,121.2,297.5z M120.3,302.2
	c0.3-0.7,0.5-1.5,0.4-2.3c0-0.7-0.1-1.4-0.3-2c-0.2-0.5-0.6-0.8-1.1-0.8c-0.5,0-0.9,0.3-1.1,0.7c-0.3,0.7-0.4,1.4-0.3,2.1
	c0,0.6,0.1,1.2,0.2,1.7c0.1,0.7,0.8,1.1,1.5,1C119.8,302.7,120.1,302.4,120.3,302.2L120.3,302.2z"/>
<path d="M122.9,302.4h1v1h-1V302.4z"/>
<path d="M125.8,299.3c-0.3-0.3-0.4-0.6-0.4-1c0-0.5,0.2-1,0.6-1.3c0.4-0.4,1-0.6,1.6-0.6c0.6,0,1.1,0.2,1.6,0.5
	c0.4,0.3,0.6,0.8,0.6,1.2c0,0.4-0.1,0.8-0.3,1.1c-0.2,0.2-0.4,0.3-0.6,0.5c0.3,0.1,0.5,0.3,0.7,0.5c0.3,0.3,0.5,0.8,0.5,1.3
	c0,0.6-0.2,1.1-0.6,1.6c-0.5,0.5-1.1,0.7-1.8,0.6c-0.6,0-1.2-0.2-1.7-0.6c-0.5-0.4-0.7-1-0.7-1.6c0-0.8,0.5-1.5,1.2-1.8
	C126.2,299.6,126,299.5,125.8,299.3z M128.6,302.5c0.3-0.3,0.4-0.6,0.4-1c0-0.4-0.1-0.7-0.4-1c-0.3-0.2-0.7-0.4-1.1-0.4
	c-0.4,0-0.7,0.1-1,0.4c-0.3,0.3-0.4,0.6-0.4,1c0,0.4,0.1,0.7,0.4,1c0.3,0.3,0.7,0.4,1.1,0.4C128,302.8,128.4,302.7,128.6,302.5
	L128.6,302.5z M128.5,299c0.2-0.2,0.3-0.5,0.3-0.8c0-0.3-0.1-0.5-0.3-0.7c-0.3-0.3-0.6-0.4-1-0.3c-0.3,0-0.7,0.1-0.9,0.3
	c-0.2,0.2-0.3,0.5-0.3,0.8c0,0.3,0.1,0.6,0.4,0.8c0.2,0.2,0.5,0.3,0.9,0.3C127.9,299.4,128.2,299.2,128.5,299L128.5,299z"/>
<path d="M131.2,302.9c-0.4-0.5-0.6-1.1-0.6-1.7h0.9c0,0.3,0.1,0.7,0.3,1c0.3,0.4,0.7,0.6,1.2,0.6c0.4,0,0.8-0.1,1.1-0.4
	c0.3-0.2,0.4-0.6,0.4-1c0-0.4-0.1-0.8-0.4-1c-0.4-0.2-0.8-0.3-1.2-0.3h-0.4v-0.8h0.2h0.2c0.3,0,0.6,0,0.8-0.2c0.4-0.2,0.6-0.6,0.6-1
	c0-0.3-0.1-0.6-0.4-0.8c-0.2-0.2-0.5-0.3-0.9-0.3c-0.5-0.1-1,0.2-1.2,0.6c-0.1,0.3-0.2,0.6-0.2,0.9h-0.9c0-0.5,0.1-0.9,0.3-1.3
	c0.4-0.7,1.1-1.1,1.9-1c0.6,0,1.2,0.1,1.7,0.5c0.4,0.3,0.6,0.9,0.6,1.4c0,0.4-0.1,0.7-0.4,1c-0.2,0.2-0.3,0.3-0.6,0.4
	c0.3,0.1,0.7,0.3,0.9,0.6c0.2,0.3,0.3,0.7,0.3,1.1c0,0.6-0.2,1.2-0.7,1.6c-0.5,0.4-1.2,0.7-1.9,0.6
	C132.4,303.6,131.7,303.4,131.2,302.9z"/>
<path d="M139.6,304.4c0.2-0.1,0.4-0.2,0.5-0.5c0-0.1,0.1-0.3,0.1-0.4v-0.1c0,0,0,0,0-0.1h-0.5v-1h1v1c0,0.3-0.1,0.7-0.2,1
	c-0.2,0.3-0.5,0.5-0.8,0.5L139.6,304.4z"/>
<path d="M147.6,303.4v-1.7h-3.1v-0.9l3.2-4.5h0.7v4.5h1v0.8h-1v1.7H147.6z M147.6,300.9v-3.2l-2.2,3.2H147.6z"/>
<path d="M150.7,302.4h1v1h-1V302.4z"/>
<path d="M153.6,299.3c-0.3-0.3-0.4-0.6-0.4-1c0-0.5,0.2-1,0.6-1.3c0.4-0.4,1-0.6,1.6-0.6c0.6,0,1.1,0.2,1.6,0.5
	c0.4,0.3,0.6,0.8,0.6,1.2c0,0.4-0.1,0.8-0.3,1.1c-0.2,0.2-0.4,0.3-0.6,0.5c0.3,0.1,0.5,0.3,0.7,0.5c0.3,0.3,0.5,0.8,0.5,1.3
	c0,0.6-0.2,1.1-0.6,1.6c-0.5,0.5-1.1,0.7-1.8,0.6c-0.6,0-1.2-0.2-1.7-0.6c-0.5-0.4-0.7-1-0.7-1.6c0-0.8,0.5-1.5,1.2-1.8
	C154,299.6,153.8,299.5,153.6,299.3z M156.4,302.5c0.3-0.3,0.4-0.6,0.4-1c0-0.4-0.1-0.7-0.4-1c-0.3-0.2-0.7-0.4-1.1-0.4
	c-0.4,0-0.7,0.1-1,0.4c-0.3,0.3-0.4,0.6-0.4,1c0,0.4,0.1,0.7,0.4,1c0.3,0.3,0.7,0.4,1.1,0.4C155.8,302.8,156.2,302.7,156.4,302.5
	L156.4,302.5z M156.3,299c0.2-0.2,0.3-0.5,0.3-0.8c0-0.3-0.1-0.5-0.3-0.7c-0.3-0.2-0.6-0.4-0.9-0.3c-0.3,0-0.7,0.1-0.9,0.3
	c-0.2,0.2-0.3,0.5-0.3,0.8c0,0.3,0.1,0.6,0.4,0.8c0.2,0.2,0.5,0.3,0.9,0.3C155.7,299.3,156,299.2,156.3,299L156.3,299z"/>
<path d="M159.5,301.7c0,0.4,0.2,0.8,0.6,1c0.2,0.1,0.4,0.1,0.6,0.1c0.4,0,0.8-0.2,1.1-0.5c0.4-0.6,0.6-1.4,0.6-2.1
	c-0.2,0.3-0.4,0.5-0.7,0.6c-0.3,0.1-0.6,0.2-0.9,0.2c-0.6,0-1.2-0.2-1.6-0.6c-0.4-0.4-0.6-1-0.6-1.6c0-0.6,0.2-1.2,0.6-1.7
	c0.4-0.5,1.1-0.8,1.7-0.7c0.9-0.1,1.8,0.5,2.1,1.4c0.2,0.6,0.3,1.2,0.3,1.9c0,0.8-0.1,1.6-0.4,2.3c-0.3,1-1.2,1.7-2.2,1.6
	c-0.6,0-1.1-0.2-1.6-0.5c-0.4-0.4-0.6-0.8-0.5-1.4L159.5,301.7z M161.8,299.9c0.3-0.3,0.5-0.8,0.4-1.2c0-0.4-0.1-0.8-0.4-1.1
	c-0.3-0.3-0.6-0.4-1-0.4c-0.4,0-0.7,0.1-1,0.4c-0.3,0.3-0.4,0.7-0.4,1.1c0,0.4,0.1,0.8,0.3,1.1c0.3,0.3,0.7,0.4,1.1,0.4
	C161.2,300.3,161.6,300.1,161.8,299.9z"/>
<path d="M164.1,305.4c0.4-0.7,0.7-1.5,1-2.2c0.2-0.8,0.4-1.6,0.4-2.5c0-0.9-0.1-1.7-0.4-2.6c-0.3-0.7-0.6-1.4-1-2.1h0.6
	c0.5,0.8,0.8,1.3,0.9,1.5c0.1,0.2,0.2,0.5,0.3,0.8c0.2,0.4,0.3,0.8,0.3,1.2c0.1,0.4,0.1,0.8,0.1,1.1c0,0.9-0.1,1.8-0.5,2.6
	c-0.3,0.8-0.7,1.5-1.2,2.1L164.1,305.4z"/>
<line class="st1" x1="64.6" y1="307" x2="162.5" y2="529.8"/>
<line class="st1" x1="162.5" y1="529.8" x2="107" y2="306.2"/>
<line class="st1" x1="107" y1="306.2" x2="64.6" y2="307"/>
<path class="st1" d="M162.2,146.5c0-0.8-0.6-1.4-1.4-1.4s-1.4,0.6-1.4,1.4c0,0.8,0.6,1.4,1.4,1.4c0,0,0,0,0,0
	C161.5,147.9,162.2,147.3,162.2,146.5C162.2,146.5,162.2,146.5,162.2,146.5"/>
<path class="st1" d="M108.4,306.2c0-0.8-0.6-1.4-1.4-1.4s-1.4,0.6-1.4,1.4s0.6,1.4,1.4,1.4S108.4,307,108.4,306.2L108.4,306.2"/>
<path class="st1" d="M134.1,195.2c0-0.8-0.6-1.4-1.4-1.4s-1.4,0.6-1.4,1.4s0.6,1.4,1.4,1.4l0,0C133.4,196.7,134.1,196,134.1,195.2"
	/>
<path class="st1" d="M107.6,278.9c0-0.8-0.6-1.4-1.4-1.4s-1.4,0.6-1.4,1.4s0.6,1.4,1.4,1.4S107.6,279.7,107.6,278.9L107.6,278.9"/>
<path class="st1" d="M50.4,325.8c0-0.8-0.6-1.4-1.4-1.4c-0.8,0-1.4,0.6-1.4,1.4c0,0.8,0.6,1.4,1.4,1.4c0,0,0,0,0,0
	C49.8,327.3,50.4,326.6,50.4,325.8"/>
<path d="M54.8,315.7c-0.4,0.7-0.7,1.4-1,2.2c-0.2,0.8-0.4,1.6-0.3,2.5c0,0.9,0.1,1.8,0.4,2.6c0.3,0.7,0.6,1.4,1,2.1h-0.6
	c-0.5-0.7-0.8-1.2-0.9-1.4s-0.2-0.5-0.4-0.8c-0.2-0.5-0.3-1-0.4-1.5c0-0.3,0-0.5,0-0.8c0-0.9,0.1-1.8,0.5-2.6
	c0.3-0.7,0.7-1.5,1.2-2.1L54.8,315.7z"/>
<path d="M55.6,319.8H58v0.9h-2.5V319.8z"/>
<path d="M59.2,321.4c0.3-0.5,0.7-0.9,1.3-1.2l0.9-0.5c0.3-0.2,0.6-0.4,0.9-0.6c0.5-0.5,0.5-1.4,0-1.9c-0.3-0.3-0.6-0.4-1-0.4
	c-0.5,0-1,0.2-1.2,0.7c-0.1,0.3-0.2,0.7-0.2,1h-0.9c0-0.5,0.1-1,0.3-1.5c0.4-0.7,1.2-1.1,2-1c0.7-0.1,1.3,0.2,1.8,0.6
	c0.4,0.4,0.6,0.9,0.5,1.4c0,0.5-0.2,1.1-0.6,1.4c-0.4,0.3-0.8,0.6-1.2,0.8l-0.7,0.4c-0.3,0.1-0.5,0.3-0.8,0.5
	c-0.3,0.2-0.5,0.6-0.6,1h3.8v0.8h-4.8C58.8,322.5,58.9,321.9,59.2,321.4z"/>
<path d="M65,318.1v-0.7c0.5,0,0.9-0.1,1.3-0.3c0.3-0.2,0.5-0.6,0.6-1h0.7v7h-0.9v-5L65,318.1z"/>
<path d="M70.5,321.9h1v1.1h-1V321.9z"/>
<path d="M73.2,322.5c-0.4-0.5-0.6-1.1-0.6-1.7h0.9c0,0.3,0.1,0.7,0.3,1c0.3,0.4,0.7,0.6,1.2,0.6c0.4,0,0.8-0.1,1.1-0.4
	c0.3-0.3,0.4-0.6,0.4-1c0-0.4-0.1-0.8-0.5-1c-0.4-0.2-0.8-0.3-1.2-0.3h-0.4V319h0.2H75c0.3,0,0.6,0,0.8-0.2c0.4-0.2,0.6-0.6,0.5-1
	c0-0.3-0.1-0.6-0.4-0.8c-0.2-0.2-0.5-0.3-0.9-0.3c-0.5-0.1-1,0.2-1.2,0.6c-0.1,0.3-0.2,0.6-0.2,0.9h-0.9c0-0.5,0.1-0.9,0.3-1.3
	c0.4-0.7,1.1-1.1,1.9-1c0.6,0,1.2,0.1,1.7,0.5c0.4,0.3,0.6,0.9,0.6,1.4c0,0.4-0.1,0.7-0.3,1c-0.2,0.2-0.3,0.3-0.6,0.4
	c0.3,0.1,0.7,0.3,0.9,0.6c0.2,0.3,0.3,0.7,0.3,1.1c0,0.6-0.2,1.2-0.7,1.6c-0.5,0.4-1.2,0.7-1.9,0.6C74.3,323.2,73.7,323,73.2,322.5z
	"/>
<path d="M82.6,317.1c0.3,0.7,0.5,1.6,0.5,2.4c0,0.8-0.1,1.6-0.4,2.4c-0.3,0.8-1.1,1.4-2,1.3c-0.8,0-1.5-0.4-1.9-1.1
	c-0.4-0.8-0.6-1.6-0.5-2.5c0-0.7,0.1-1.4,0.3-2c0.3-1.2,1.6-1.9,2.7-1.5C81.9,316.3,82.4,316.7,82.6,317.1L82.6,317.1z M81.7,321.8
	c0.3-0.7,0.5-1.5,0.4-2.3c0-0.7-0.1-1.3-0.3-2c-0.2-0.5-0.6-0.8-1.1-0.8c-0.5,0-0.9,0.3-1.1,0.7c-0.3,0.7-0.4,1.4-0.4,2.1
	c0,0.6,0.1,1.2,0.2,1.7c0.1,0.6,0.6,1,1.2,1C81.1,322.4,81.5,322.2,81.7,321.8z"/>
<path d="M87.1,324c0.2-0.1,0.4-0.2,0.5-0.5c0-0.1,0.1-0.3,0.1-0.4v-0.1c0,0,0,0,0-0.1h-0.5v-1.1h1v1c0,0.3-0.1,0.7-0.2,1
	c-0.2,0.3-0.5,0.5-0.8,0.5L87.1,324z"/>
<path d="M92.3,319.8h2.4v0.9h-2.4V319.8z"/>
<path d="M95.9,321.4c0.3-0.5,0.7-0.9,1.3-1.2l0.9-0.5c0.3-0.2,0.6-0.4,0.9-0.6c0.5-0.5,0.5-1.4,0-1.9c-0.3-0.3-0.6-0.4-1-0.4
	c-0.5,0-1,0.2-1.2,0.7c-0.1,0.3-0.2,0.7-0.2,1h-0.8c0-0.5,0.1-1,0.3-1.5c0.4-0.7,1.2-1.1,2-1c0.7-0.1,1.3,0.2,1.8,0.6
	c0.4,0.4,0.6,0.9,0.6,1.4c0,0.5-0.2,1.1-0.6,1.4c-0.4,0.3-0.8,0.6-1.2,0.8l-0.7,0.4c-0.3,0.1-0.5,0.3-0.8,0.5
	c-0.3,0.2-0.5,0.6-0.6,1h3.8v0.8h-4.8C95.5,322.5,95.6,321.9,95.9,321.4z"/>
<path d="M101.6,321.9h1v1.1h-1V321.9z"/>
<path d="M108.2,317.1c0.3,0.7,0.5,1.6,0.5,2.4c0,0.8-0.1,1.6-0.4,2.4c-0.3,0.8-1.1,1.4-2,1.3c-0.8,0-1.5-0.4-1.9-1.1
	c-0.4-0.8-0.6-1.6-0.5-2.5c0-0.7,0.1-1.4,0.3-2c0.2-1,1.1-1.6,2.1-1.6C107.1,316,107.8,316.4,108.2,317.1z M107.3,321.8
	c0.3-0.7,0.5-1.5,0.4-2.3c0-0.7-0.1-1.3-0.3-2c-0.2-0.5-0.6-0.8-1.1-0.8c-0.5,0-0.9,0.3-1.1,0.7c-0.3,0.7-0.4,1.4-0.4,2.1
	c0,0.6,0.1,1.2,0.2,1.7c0.1,0.7,0.8,1.1,1.5,1C106.8,322.3,107.1,322.1,107.3,321.8z"/>
<path d="M109.9,322.5c-0.4-0.5-0.6-1.1-0.6-1.7h0.9c0,0.3,0.1,0.7,0.3,1c0.3,0.4,0.7,0.6,1.2,0.5c0.4,0,0.8-0.1,1.1-0.4
	c0.3-0.3,0.4-0.6,0.4-1c0-0.4-0.1-0.8-0.4-1c-0.4-0.2-0.8-0.3-1.2-0.3h-0.4v-0.8h0.2h0.3c0.3,0,0.6,0,0.8-0.2c0.4-0.2,0.6-0.6,0.6-1
	c0-0.3-0.1-0.6-0.4-0.8c-0.2-0.2-0.5-0.3-0.9-0.3c-0.5-0.1-1,0.2-1.2,0.6c-0.1,0.3-0.2,0.6-0.2,0.9h-0.9c0-0.5,0.1-0.9,0.3-1.3
	c0.4-0.7,1.1-1.1,1.9-1c0.6,0,1.2,0.1,1.7,0.5c0.4,0.3,0.6,0.9,0.6,1.4c0,0.4-0.1,0.7-0.3,1c-0.2,0.2-0.3,0.3-0.6,0.4
	c0.3,0.1,0.7,0.3,0.9,0.6c0.2,0.3,0.3,0.7,0.3,1.1c0,0.6-0.2,1.2-0.7,1.6c-0.5,0.4-1.2,0.7-1.9,0.6
	C111,323.1,110.4,322.9,109.9,322.5z"/>
<path d="M115,325c0.4-0.7,0.7-1.5,1-2.2c0.2-0.8,0.4-1.6,0.3-2.5c0-0.9-0.1-1.7-0.4-2.6c-0.3-0.7-0.6-1.4-1-2.1h0.6
	c0.5,0.8,0.8,1.3,0.9,1.5c0.1,0.2,0.3,0.5,0.3,0.8c0.1,0.4,0.3,0.8,0.3,1.2c0.1,0.4,0.1,0.8,0.1,1.1c0,0.9-0.1,1.8-0.5,2.6
	c-0.3,0.8-0.7,1.5-1.2,2.1L115,325z"/>
<line class="st1" x1="160.7" y1="146.5" x2="107" y2="306.2"/>
<line class="st1" x1="107" y1="306.2" x2="132.6" y2="195.2"/>
<line class="st1" x1="132.6" y1="195.2" x2="106.2" y2="278.9"/>
<line class="st1" x1="106.2" y1="278.9" x2="49" y2="325.8"/>
<line class="st1" x1="49" y1="325.8" x2="160.7" y2="146.5"/>
<path d="M530,226.8c0,0.4,0.3,0.8,0.7,1c0.2,0.1,0.5,0.2,0.7,0.1c0.4,0,0.9-0.2,1.2-0.5c0.2-0.3,0.4-0.7,0.4-1.1
	c0-0.4-0.1-0.8-0.5-1.1c-0.3-0.3-0.7-0.4-1.1-0.4c-0.5,0-1,0.2-1.3,0.7l-0.8-0.1l0.5-3.8h3.6v0.9h-3l-0.3,1.9
	c0.1-0.1,0.3-0.2,0.5-0.3c0.3-0.1,0.6-0.2,0.9-0.2c0.6,0,1.2,0.2,1.6,0.6c0.4,0.4,0.7,1,0.7,1.6c0,0.6-0.2,1.3-0.6,1.8
	c-0.5,0.5-1.2,0.8-2,0.8c-0.5,0-1.1-0.2-1.5-0.5c-0.5-0.4-0.7-0.9-0.7-1.5L530,226.8z"/>
<path d="M724.5,133"/>
<path d="M529.7,44.1v-0.7c0.5,0,0.9-0.1,1.3-0.3c0.3-0.2,0.5-0.6,0.6-1h0.7v7h-0.9v-5H529.7z"/>
<path class="st1" d="M593.5,40.7l-2.5-4.9l-3.9-3.9l-4.9-2.5l-5.5-0.9h-13.8l-5.5,0.9l-4.9,2.5l-3.9,3.9l-2.5,5l-0.9,5.5l0.8,5.4
	l0,0l2.5,5l3.9,3.9l5,2.5l5.5,0.9h13.9l5.4-0.8l0,0l5-2.5l3.9-3.9l2.5-5l0,0l0.8-5.4L593.5,40.7z M562.7,52.2c-3.3,0-6-2.7-6-6
	s2.7-6,6-6s6,2.7,6,6S566.1,52.2,562.7,52.2z M576.6,52.2c-3.3,0-6-2.7-6-6s2.7-6,6-6s6,2.7,6,6S579.9,52.2,576.6,52.2z"/>
<path d="M529.4,82.3c0.3-0.5,0.7-1,1.3-1.2l0.9-0.5c0.3-0.2,0.6-0.4,0.9-0.6c0.3-0.2,0.4-0.6,0.4-0.9c0-0.4-0.1-0.7-0.4-1
	c-0.3-0.3-0.6-0.4-1-0.4c-0.5,0-1,0.2-1.2,0.7c-0.1,0.3-0.2,0.7-0.2,1h-0.9c0-0.5,0.1-1,0.3-1.5c0.4-0.7,1.2-1.1,2-1
	c1.1-0.1,2.2,0.7,2.3,1.8c0,0.1,0,0.2,0,0.3c0,0.5-0.2,1.1-0.6,1.4c-0.4,0.3-0.8,0.6-1.2,0.8l-0.7,0.4c-0.3,0.1-0.5,0.3-0.8,0.5
	c-0.3,0.2-0.5,0.6-0.6,0.9h3.8v0.8H529C529.1,83.3,529.2,82.8,529.4,82.3z"/>
<path class="st1" d="M703.4,75.6l-2.5-5l-3.9-3.9l-4.9-2.5l-5.5-0.9H562.8l-5.5,0.9l-4.9,2.5l-3.9,3.9l-2.5,5l-0.9,5.5l0.9,5.4
	l2.5,5l3.9,3.9l4.9,2.5l5.5,0.9h123.7l5.5-0.9l4.9-2.5l3.9-3.9l0,0l2.5-5l0.9-5.4L703.4,75.6z M562.7,87c-3.3,0-6-2.7-6-6s2.7-6,6-6
	s6,2.7,6,6S566.1,87,562.7,87z M686.5,87c-3.3,0-6-2.6-6-5.9c0-3.3,2.6-6,5.9-6c3.3,0,6,2.6,6,5.9c0,0,0,0,0,0
	C692.5,84.3,689.8,87,686.5,87L686.5,87z"/>
<path d="M529.5,118.2c-0.4-0.5-0.6-1.1-0.6-1.7h0.9c0,0.3,0.1,0.7,0.3,1c0.3,0.4,0.8,0.6,1.2,0.6c0.4,0,0.8-0.1,1.1-0.4
	c0.3-0.3,0.4-0.6,0.4-1c0-0.4-0.1-0.8-0.4-1c-0.4-0.2-0.8-0.3-1.2-0.3h-0.4v-0.8h0.2h0.2c0.3,0,0.6,0,0.8-0.2c0.4-0.2,0.6-0.6,0.5-1
	c0-0.3-0.1-0.6-0.4-0.8c-0.2-0.2-0.6-0.3-0.9-0.3c-0.5,0-1,0.2-1.2,0.6c-0.1,0.3-0.2,0.6-0.2,0.9h-0.9c0-0.5,0.1-0.9,0.3-1.3
	c0.4-0.7,1.1-1.1,1.9-1c0.6,0,1.2,0.1,1.7,0.5c0.4,0.3,0.6,0.9,0.6,1.4c0,0.4-0.1,0.7-0.3,1c-0.2,0.2-0.3,0.3-0.6,0.4
	c0.3,0.1,0.7,0.3,0.9,0.6c0.2,0.3,0.3,0.7,0.3,1.1c0,0.6-0.2,1.2-0.7,1.6c-0.5,0.4-1.2,0.7-1.9,0.6
	C530.7,118.9,530,118.7,529.5,118.2z"/>
<path class="st1" d="M741.3,110.4L741.3,110.4l-2.5-5l-3.9-3.9L730,99l-5.5-0.9H562.8l-5.5,0.9l-4.9,2.5l-3.9,3.9l-2.5,5l0,0
	l-0.8,5.4l0.8,5.4l0,0l2.5,5l3.9,3.9l5,2.5l5.5,0.9h161.7l5.5-0.9l5-2.5l3.9-3.9l2.5-5l0,0l0.8-5.4L741.3,110.4z M562.7,121.8
	c-3.3,0-6-2.7-6-6s2.7-6,6-6s6,2.7,6,6S566.1,121.8,562.7,121.8z M724.5,121.8c-3.3,0-6-2.7-6-6s2.7-6,6-6s6,2.7,6,6
	C730.5,119.1,727.8,121.8,724.5,121.8L724.5,121.8z"/>
<path d="M532.1,152.9v-1.7H529v-0.8l3.2-4.4h0.8v4.5h1v0.8h-1v1.7L532.1,152.9z M532.1,150.5v-3.2l-2.2,3.2H532.1z"/>
<path class="st1" d="M654.8,144.6l-2.5-4.9l-3.9-3.9l-4.9-2.5l-5.5-0.9h-75.1l-5.5,0.9l-5,2.5l-3.9,3.9l-2.5,4.9l-0.9,5.5l0.9,5.4
	l2.5,4.9l3.9,3.9l5,2.5l5.5,0.9h75.1l5.5-0.9l4.9-2.5l0,0l3.9-3.9l2.5-4.9l0.9-5.5L654.8,144.6z M562.8,156.1c-3.3,0-6-2.7-6-6
	s2.7-6,6-6s6,2.7,6,6C568.8,153.4,566.1,156.1,562.8,156.1C562.8,156.1,562.8,156.1,562.8,156.1L562.8,156.1z M638,156.1
	c-3.3,0-6-2.6-6.1-5.9c0-3.3,2.6-6,5.9-6.1c3.3,0,6,2.6,6.1,5.9c0,0,0,0,0,0.1C643.9,153.4,641.3,156.1,638,156.1L638,156.1z"/>
<path class="st1" d="M731.2,211.7l-1.8-4.3l0,0l-2.8-3.6l0,0L723,201l-4.2-1.8l0,0l-114.6-31.4l0,0l-2.3-0.5l-2.3-0.2l0,0l-2.3,0.2
	l-2.3,0.5l0,0l-2.2,0.8l0,0l-2.1,1l0,0l-1.9,1.3l-1.7,1.6l-1.7,1.9l-1.3,2l0,0l-36.8,66.4l-1.5,3.4l-0.7,3.5l0,0l0,3.7l0,0l0.8,3.6
	l0,0l1.5,3.3l0,0l2.2,3.1l0,0l2.7,2.4l0,0l3.2,1.8l0,0l3.5,1.1l0,0l3.6,0.4h25.5h0.5l0,0h0.5l0.5,0l0,0l0.5-0.1l0,0l0.5-0.1l0,0
	l0.5-0.1l0.5-0.1l0.5-0.1l0,0l0.5-0.1l126.5-35.1l0,0l4.2-1.8l0,0l3.6-2.8l0,0l2.8-3.6l0,0l1.7-4.3l0.6-4.6L731.2,211.7z
	 M562.7,257.4c-3.3,0-6-2.7-6-6s2.7-6,6-6s6,2.7,6,6l0,0C568.7,254.7,566.1,257.4,562.7,257.4z M587.7,257.4c-3.3,0-6-2.7-6-6
	s2.7-6,6-6s6,2.7,6,6l0,0C593.7,254.7,591.1,257.4,587.7,257.4L587.7,257.4z M599.5,190.9c-3.3,0-6-2.6-6-5.9c0-3.3,2.6-6,5.9-6
	c3.3,0,6,2.6,6,5.9c0,0,0,0,0,0C605.5,188.2,602.8,190.9,599.5,190.9L599.5,190.9z M714.1,222.3c-3.3,0-6-2.7-6-6s2.7-6,6-6
	s6,2.7,6,6S717.4,222.3,714.1,222.3z"/>
<path d="M533.3,282.6c0.3,0.4,0.4,0.8,0.5,1.3h-0.9c0-0.2-0.1-0.5-0.2-0.6c-0.2-0.3-0.6-0.5-1-0.4c-0.5,0-0.9,0.3-1.2,0.7
	c-0.3,0.6-0.5,1.3-0.5,2c0.2-0.3,0.5-0.5,0.8-0.7c0.3-0.1,0.6-0.2,0.9-0.2c0.6,0,1.1,0.2,1.5,0.6c0.5,0.4,0.7,1,0.7,1.7
	c0,0.6-0.2,1.2-0.6,1.7c-0.4,0.5-1.1,0.8-1.8,0.7c-0.6,0-1.3-0.3-1.7-0.8c-0.6-0.7-0.8-1.6-0.7-2.5c0-0.8,0.1-1.5,0.3-2.2
	c0.2-1,1.2-1.7,2.2-1.7C532.2,282,532.9,282.2,533.3,282.6z M532.6,288c0.2-0.3,0.4-0.7,0.3-1.1c0-0.4-0.1-0.7-0.3-1
	c-0.3-0.4-0.7-0.5-1.1-0.5c-0.4,0-0.7,0.1-1,0.4c-0.3,0.3-0.5,0.7-0.4,1.1c0,0.4,0.1,0.8,0.4,1.1c0.3,0.3,0.7,0.5,1.1,0.5
	C532,288.5,532.4,288.3,532.6,288z"/>
<path class="st1" d="M835.9,280.7l-2.5-4.9l-3.9-3.9l-4.9-2.5l-5.5-0.9H562.8l-5.5,0.9l-5,2.5l-3.9,3.9l-2.5,4.9l-0.9,5.5l0.9,5.5
	l2.5,5l3.9,3.9l5,2.5l5.5,0.9H819l5.5-0.9l4.9-2.5l3.9-3.9l0,0l2.5-4.9l0.9-5.5L835.9,280.7z M562.7,292.2c-3.3,0-6-2.7-6-6
	s2.7-6,6-6s6,2.7,6,6S566.1,292.2,562.7,292.2z M819.1,292.2c-3.3,0-6-2.7-6-6s2.7-6,6-6s6,2.7,6,6S822.4,292.2,819.1,292.2z"/>
<path d="M534,387.9v0.8c-0.3,0.4-0.6,0.7-0.9,1.1c-0.4,0.6-0.7,1.1-1,1.8c-0.3,0.5-0.5,1.1-0.6,1.7c-0.1,0.3-0.2,0.9-0.4,1.6h-1
	c0.2-1.4,0.7-2.8,1.5-4c0.4-0.7,0.9-1.4,1.4-2h-3.8v-0.9L534,387.9z"/>
<path class="st1" d="M661.2,322.7l-0.1-4.6l0,0l-1.3-4.4l-2.4-3.9l0,0l-3.3-3.2l0,0l-4-2.2l-4.5-1.1l-4.6,0.1l-4.4,1.2l0,0l-3.9,2.3
	l-3.2,3.3l0,0l-80.8,106.4l-2,3.4l-1.2,3.7l0,0l-0.4,3.9l0.5,3.9l0,0l1.4,3.7l2.1,3.3l0,0l2.8,2.7l0,0l3.3,2l0,0l3.7,1.3l0,0
	l3.9,0.4h70l2.6-0.2l2.5-0.6l0,0l2.4-0.9l2.2-1.3l2-1.6l1.8-1.9l1.5-2.1l0,0l1.2-2.3l0.8-2.4l0,0l0.5-2.5l0,0L661.2,322.7
	L661.2,322.7z M562.7,433.4c-3.3,0-6-2.7-6-6s2.7-6,6-6s6,2.7,6,6S566.1,433.4,562.7,433.4z M632.7,433.4c-3.3,0-6-2.7-6-6
	s2.7-6,6-6s6,2.7,6,6S636,433.4,632.7,433.4z M643.6,326.9c-3.3,0-6-2.7-6-6s2.7-6,6-6s6,2.7,6,6S646.9,326.9,643.6,326.9
	C643.6,326.9,643.6,326.9,643.6,326.9L643.6,326.9z"/>
<path d="M529.7,487.1c-0.3-0.3-0.4-0.6-0.4-1c0-0.5,0.2-1,0.6-1.3c0.4-0.4,1-0.6,1.6-0.6c0.6,0,1.1,0.2,1.6,0.5
	c0.4,0.3,0.6,0.8,0.6,1.2c0,0.4-0.1,0.8-0.3,1.1c-0.2,0.2-0.4,0.3-0.6,0.5c0.3,0.1,0.5,0.3,0.7,0.5c0.3,0.3,0.5,0.8,0.5,1.3
	c0,0.6-0.2,1.1-0.6,1.6c-0.5,0.5-1.1,0.7-1.8,0.6c-0.6,0-1.2-0.2-1.7-0.6c-0.5-0.4-0.7-1-0.7-1.6c0-0.8,0.5-1.5,1.2-1.8
	C530.1,487.4,529.9,487.2,529.7,487.1z M532.5,490.2c0.3-0.2,0.4-0.6,0.4-1c0-0.4-0.1-0.7-0.4-1c-0.3-0.2-0.7-0.4-1.1-0.4
	c-0.4,0-0.7,0.1-1,0.4c-0.3,0.3-0.4,0.6-0.4,1c0,0.4,0.1,0.7,0.4,1c0.3,0.3,0.7,0.4,1.1,0.4C531.9,490.6,532.2,490.5,532.5,490.2
	L532.5,490.2z M532.4,486.8c0.4-0.4,0.5-1,0.1-1.4c0,0-0.1-0.1-0.1-0.1c-0.3-0.2-0.6-0.3-1-0.3c-0.5-0.1-1.1,0.2-1.2,0.8
	c0,0.1,0,0.2,0,0.3c0,0.3,0.1,0.6,0.4,0.8c0.2,0.2,0.5,0.3,0.9,0.3C531.8,487.1,532.1,487,532.4,486.8L532.4,486.8z"/>
<path class="st1" d="M823.4,497.7l-1.8-4.9l-3.2-4.1l-4.3-3l-5-1.6l0,0l-227-39.1l0,0l-2.4-0.2l0,0l-2.3,0.1l0,0l-2.3,0.4l0,0
	l-2.3,0.7l-2.1,1l0,0l-2,1.3l-2,1.5l-1.6,1.8l0,0l-1.3,1.9l0,0l-1,2.1l0,0l-16.3,39.1l0,0l-1,3.3v0l-0.3,3.4v0.1l0.3,3.4v0l1,3.3v0
	l1.6,3l0,0l2.2,2.7l0,0l2.6,2.2l3.1,1.6l0,0l3.3,1l0,0l3.4,0.3h243.4l5.2-0.8l4.7-2.3l3.8-3.5l0,0l2.7-4.5l1.2-5.1L823.4,497.7z
	 M562.7,507.4c-3.3,0-6-2.7-6-6s2.7-6,6-6s6,2.7,6,6S566.1,507.4,562.7,507.4z M579.1,468.2c-3.3,0-6-2.6-6-5.9c0-3.3,2.6-6,5.9-6
	c3.3,0,6,2.6,6,5.9c0,0,0,0,0,0C585,465.5,582.3,468.2,579.1,468.2L579.1,468.2z M806.1,507.4c-3.3,0-6-2.7-6-6s2.7-6,6-6s6,2.7,6,6
	S809.4,507.4,806.1,507.4z"/>
<path d="M530,551.2c0,0.4,0.2,0.8,0.6,1c0.2,0.1,0.4,0.2,0.6,0.2c0.4,0,0.8-0.2,1.1-0.5c0.4-0.6,0.6-1.4,0.6-2.1
	c-0.2,0.3-0.4,0.5-0.7,0.7c-0.3,0.1-0.6,0.2-0.9,0.2c-0.6,0-1.2-0.2-1.6-0.6c-0.4-0.4-0.6-1-0.6-1.6c0-0.6,0.2-1.2,0.6-1.7
	c0.4-0.5,1.1-0.8,1.7-0.7c0.9-0.1,1.8,0.5,2.1,1.4c0.2,0.6,0.4,1.2,0.3,1.9c0,0.8-0.1,1.5-0.4,2.3c-0.3,1-1.2,1.7-2.2,1.7
	c-0.6,0-1.1-0.2-1.5-0.5c-0.4-0.4-0.6-0.8-0.5-1.3L530,551.2z M532.3,549.5c0.3-0.3,0.5-0.8,0.4-1.2c0-0.4-0.1-0.8-0.4-1.2
	c-0.3-0.3-0.6-0.4-1-0.4c-0.4,0-0.7,0.1-1,0.4c-0.3,0.3-0.4,0.7-0.4,1.2c0,0.4,0.1,0.8,0.3,1.1c0.3,0.3,0.7,0.4,1.1,0.4
	C531.7,549.8,532.1,549.7,532.3,549.5L532.3,549.5z"/>
<path class="st1" d="M785.8,582.2l-1.2-4.2l0,0l-2.2-3.7l0,0l-37.1-48.7l0,0l-1-1.2l0,0l-1.1-1.1l-1.2-1l0,0l-1.3-0.9l0,0l-1.4-0.8
	l0,0l-1.5-0.6l0,0l-1.5-0.5l0,0l-1.6-0.4l-1.6-0.2l0,0l-1.6-0.1H562.8l-5.1,0.8l-4.6,2.2l-3.8,3.4l0,0l-2.7,4.4l-1.3,4.9l0.2,5.1
	l1.6,4.9l2.9,4.2l0,0l4,3.2l4.8,1.9l0,0l205.5,48.7l4.3,0.5l4.3-0.6l0,0l4-1.6l0,0l3.5-2.5l0,0l2.8-3.3l1.9-3.9l0,0l0.9-4.3l0,0
	L785.8,582.2z M562.7,542.2c-3.3,0-6-2.7-6-6c0-3.3,2.7-6,6-6s6,2.7,6,6c0,0,0,0,0,0C568.7,539.5,566,542.2,562.7,542.2z
	 M617.8,553.3c-3.3,0-6-2.7-6-6c0-3.3,2.7-6,6-6s6,2.7,6,6c0,0,0,0,0,0C623.8,550.6,621.1,553.3,617.8,553.3L617.8,553.3z
	 M705.6,551.7c-3.3,0-6-2.7-6-6s2.7-6,6-6s6,2.7,6,6C711.6,549,708.9,551.7,705.6,551.7L705.6,551.7z M731.2,542.2c-3.3,0-6-2.7-6-6
	c0-3.3,2.7-6,6-6s6,2.7,6,6c0,0,0,0,0,0C737.2,539.5,734.5,542.2,731.2,542.2L731.2,542.2z M768.3,590.9c-3.3,0-6-2.7-6-6
	c0-3.3,2.7-6,6-6s6,2.7,6,6c0,0,0,0,0,0C774.3,588.3,771.6,590.9,768.3,590.9L768.3,590.9z"/>
</svg>
