<svg id="Layer_1" data-name="Layer 1" xmlns="http://www.w3.org/2000/svg" viewBox="0 0 821.38 597.32"><defs><style>.cls-1,.cls-2{fill:none;stroke:#000;stroke-miterlimit:10;}.cls-1{stroke-width:0.57px;}.cls-2{stroke-width:0.57px;}</style></defs><line class="cls-1" x1="452.13" y1="116.66" x2="443.79" y2="127.74"/><line class="cls-1" x1="443.79" y1="127.74" x2="443.79" y2="127.74"/><line class="cls-1" x1="443.79" y1="127.74" x2="441.15" y2="132.72"/><line class="cls-1" x1="441.15" y1="132.72" x2="440.18" y2="138.27"/><line class="cls-1" x1="440.18" y1="138.27" x2="440.97" y2="143.84"/><line class="cls-1" x1="440.97" y1="143.84" x2="443.44" y2="148.9"/><line class="cls-1" x1="443.44" y1="148.9" x2="447.36" y2="152.95"/><line class="cls-1" x1="447.36" y1="152.95" x2="452.34" y2="155.59"/><line class="cls-1" x1="452.34" y1="155.59" x2="457.88" y2="156.56"/><line class="cls-1" x1="457.88" y1="156.56" x2="463.46" y2="155.77"/><line class="cls-1" x1="463.46" y1="155.77" x2="468.52" y2="153.29"/><line class="cls-1" x1="468.52" y1="153.29" x2="472.56" y2="149.38"/><line class="cls-1" x1="472.56" y1="149.38" x2="480.9" y2="138.29"/><line class="cls-1" x1="480.9" y1="138.29" x2="480.9" y2="138.29"/><line class="cls-1" x1="480.9" y1="138.29" x2="483.54" y2="133.32"/><line class="cls-1" x1="483.54" y1="133.32" x2="484.51" y2="127.77"/><line class="cls-1" x1="484.51" y1="127.77" x2="483.72" y2="122.2"/><line class="cls-1" x1="483.72" y1="122.2" x2="481.25" y2="117.14"/><line class="cls-1" x1="481.25" y1="117.14" x2="477.33" y2="113.09"/><line class="cls-1" x1="477.33" y1="113.09" x2="472.35" y2="110.45"/><line class="cls-1" x1="472.35" y1="110.45" x2="466.81" y2="109.48"/><line class="cls-1" x1="466.81" y1="109.48" x2="461.23" y2="110.27"/><line class="cls-1" x1="461.23" y1="110.27" x2="456.17" y2="112.74"/><line class="cls-1" x1="456.17" y1="112.74" x2="452.13" y2="116.66"/><path class="cls-1" d="M472.18,132a5.67,5.67,0,1,0-5.67,5.67,5.67,5.67,0,0,0,5.67-5.67" transform="translate(0 -4.55)"/><path class="cls-1" d="M463.85,143.12a5.67,5.67,0,1,0-5.67,5.67,5.67,5.67,0,0,0,5.67-5.67" transform="translate(0 -4.55)"/><line class="cls-1" x1="411.68" y1="22.45" x2="440.68" y2="142.78"/><line class="cls-1" x1="440.68" y1="142.78" x2="440.68" y2="142.78"/><line class="cls-1" x1="440.68" y1="142.78" x2="442.84" y2="147.98"/><line class="cls-1" x1="442.84" y1="147.98" x2="446.5" y2="152.26"/><line class="cls-1" x1="446.5" y1="152.26" x2="451.3" y2="155.2"/><line class="cls-1" x1="451.3" y1="155.2" x2="456.78" y2="156.51"/><line class="cls-1" x1="456.78" y1="156.51" x2="462.4" y2="156.06"/><line class="cls-1" x1="462.4" y1="156.06" x2="467.6" y2="153.9"/><line class="cls-1" x1="467.6" y1="153.9" x2="471.88" y2="150.24"/><line class="cls-1" x1="471.88" y1="150.24" x2="474.81" y2="145.43"/><line class="cls-1" x1="474.81" y1="145.43" x2="476.12" y2="139.96"/><line class="cls-1" x1="476.12" y1="139.96" x2="475.68" y2="134.34"/><line class="cls-1" x1="475.68" y1="134.34" x2="446.68" y2="14.01"/><line class="cls-1" x1="446.68" y1="14.01" x2="446.68" y2="14.01"/><line class="cls-1" x1="446.68" y1="14.01" x2="444.52" y2="8.81"/><line class="cls-1" x1="444.52" y1="8.81" x2="440.86" y2="4.53"/><line class="cls-1" x1="440.86" y1="4.53" x2="436.05" y2="1.59"/><line class="cls-1" x1="436.05" y1="1.59" x2="430.58" y2="0.28"/><line class="cls-1" x1="430.58" y1="0.28" x2="424.96" y2="0.73"/><line class="cls-1" x1="424.96" y1="0.73" x2="419.76" y2="2.89"/><line class="cls-1" x1="419.76" y1="2.89" x2="415.48" y2="6.55"/><line class="cls-1" x1="415.48" y1="6.55" x2="412.54" y2="11.36"/><line class="cls-1" x1="412.54" y1="11.36" x2="411.23" y2="16.83"/><line class="cls-1" x1="411.23" y1="16.83" x2="411.68" y2="22.45"/><path class="cls-1" d="M463.85,143.12a5.67,5.67,0,1,0-5.67,5.67,5.67,5.67,0,0,0,5.67-5.67" transform="translate(0 -4.55)"/><path class="cls-1" d="M434.85,22.79a5.67,5.67,0,1,0-5.67,5.66,5.67,5.67,0,0,0,5.67-5.66" transform="translate(0 -4.55)"/><line class="cls-1" x1="332.02" y1="122.86" x2="305.83" y2="282.45"/><line class="cls-1" x1="305.83" y1="282.45" x2="305.83" y2="282.45"/><line class="cls-1" x1="305.83" y1="282.45" x2="305.8" y2="288.08"/><line class="cls-1" x1="305.8" y1="288.08" x2="307.51" y2="293.45"/><line class="cls-1" x1="307.51" y1="293.45" x2="310.79" y2="298.02"/><line class="cls-1" x1="310.79" y1="298.02" x2="315.33" y2="301.36"/><line class="cls-1" x1="315.33" y1="301.36" x2="320.67" y2="303.13"/><line class="cls-1" x1="320.67" y1="303.13" x2="326.31" y2="303.16"/><line class="cls-1" x1="326.31" y1="303.16" x2="331.67" y2="301.45"/><line class="cls-1" x1="331.67" y1="301.45" x2="336.25" y2="298.17"/><line class="cls-1" x1="336.25" y1="298.17" x2="339.58" y2="293.63"/><line class="cls-1" x1="339.58" y1="293.63" x2="341.35" y2="288.28"/><line class="cls-1" x1="341.35" y1="288.28" x2="367.54" y2="128.69"/><line class="cls-1" x1="367.54" y1="128.69" x2="367.54" y2="128.69"/><line class="cls-1" x1="367.54" y1="128.69" x2="367.58" y2="123.06"/><line class="cls-1" x1="367.58" y1="123.06" x2="365.86" y2="117.69"/><line class="cls-1" x1="365.86" y1="117.69" x2="362.58" y2="113.12"/><line class="cls-1" x1="362.58" y1="113.12" x2="358.04" y2="109.78"/><line class="cls-1" x1="358.04" y1="109.78" x2="352.7" y2="108.01"/><line class="cls-1" x1="352.7" y1="108.01" x2="347.07" y2="107.98"/><line class="cls-1" x1="347.07" y1="107.98" x2="341.7" y2="109.69"/><line class="cls-1" x1="341.7" y1="109.69" x2="337.12" y2="112.98"/><line class="cls-1" x1="337.12" y1="112.98" x2="333.79" y2="117.51"/><line class="cls-1" x1="333.79" y1="117.51" x2="332.02" y2="122.86"/><path class="cls-1" d="M355.45,130.33a5.67,5.67,0,1,0-5.67,5.67,5.67,5.67,0,0,0,5.67-5.67" transform="translate(0 -4.55)"/><path class="cls-1" d="M329.26,289.92a5.67,5.67,0,1,0-5.67,5.67,5.67,5.67,0,0,0,5.67-5.67" transform="translate(0 -4.55)"/><line class="cls-1" x1="449.8" y1="122.63" x2="383.24" y2="157.64"/><line class="cls-1" x1="383.24" y1="157.64" x2="383.24" y2="157.64"/><line class="cls-1" x1="383.24" y1="157.64" x2="378.73" y2="161.01"/><line class="cls-1" x1="378.73" y1="161.01" x2="375.48" y2="165.61"/><line class="cls-1" x1="375.48" y1="165.61" x2="373.81" y2="170.98"/><line class="cls-1" x1="373.81" y1="170.98" x2="373.88" y2="176.61"/><line class="cls-1" x1="373.88" y1="176.61" x2="375.69" y2="181.95"/><line class="cls-1" x1="375.69" y1="181.95" x2="379.06" y2="186.46"/><line class="cls-1" x1="379.06" y1="186.46" x2="383.66" y2="189.71"/><line class="cls-1" x1="383.66" y1="189.71" x2="389.04" y2="191.38"/><line class="cls-1" x1="389.04" y1="191.38" x2="394.67" y2="191.31"/><line class="cls-1" x1="394.67" y1="191.31" x2="400" y2="189.5"/><line class="cls-1" x1="400" y1="189.5" x2="466.56" y2="154.49"/><line class="cls-1" x1="466.56" y1="154.49" x2="466.56" y2="154.49"/><line class="cls-1" x1="466.56" y1="154.49" x2="471.07" y2="151.12"/><line class="cls-1" x1="471.07" y1="151.12" x2="474.32" y2="146.52"/><line class="cls-1" x1="474.32" y1="146.52" x2="475.99" y2="141.15"/><line class="cls-1" x1="475.99" y1="141.15" x2="475.92" y2="135.51"/><line class="cls-1" x1="475.92" y1="135.51" x2="474.11" y2="130.18"/><line class="cls-1" x1="474.11" y1="130.18" x2="470.74" y2="125.67"/><line class="cls-1" x1="470.74" y1="125.67" x2="466.14" y2="122.42"/><line class="cls-1" x1="466.14" y1="122.42" x2="460.76" y2="120.75"/><line class="cls-1" x1="460.76" y1="120.75" x2="455.13" y2="120.82"/><line class="cls-1" x1="455.13" y1="120.82" x2="449.8" y2="122.63"/><path class="cls-1" d="M463.85,143.12a5.67,5.67,0,1,0-5.67,5.67,5.67,5.67,0,0,0,5.67-5.67" transform="translate(0 -4.55)"/><path class="cls-1" d="M397.29,178.12a5.67,5.67,0,1,0-5.67,5.67,5.67,5.67,0,0,0,5.67-5.67" transform="translate(0 -4.55)"/><line class="cls-1" x1="419.03" y1="490.34" x2="394.25" y2="493.77"/><line class="cls-1" x1="394.25" y1="493.77" x2="394.25" y2="493.77"/><line class="cls-1" x1="394.25" y1="493.77" x2="393.77" y2="493.84"/><line class="cls-1" x1="393.77" y1="493.84" x2="393.29" y2="493.93"/><line class="cls-1" x1="393.29" y1="493.93" x2="392.82" y2="494.03"/><line class="cls-1" x1="392.82" y1="494.03" x2="392.34" y2="494.14"/><line class="cls-1" x1="392.34" y1="494.14" x2="391.87" y2="494.27"/><line class="cls-1" x1="391.87" y1="494.27" x2="391.4" y2="494.4"/><line class="cls-1" x1="391.4" y1="494.4" x2="390.94" y2="494.55"/><line class="cls-1" x1="390.94" y1="494.55" x2="390.48" y2="494.72"/><line class="cls-1" x1="390.48" y1="494.72" x2="390.03" y2="494.89"/><line class="cls-1" x1="390.03" y1="494.89" x2="389.58" y2="495.08"/><line class="cls-1" x1="389.58" y1="495.08" x2="269.22" y2="547.15"/><line class="cls-1" x1="269.22" y1="547.15" x2="269.22" y2="547.15"/><line class="cls-1" x1="269.22" y1="547.15" x2="265.21" y2="549.55"/><line class="cls-1" x1="265.21" y1="549.55" x2="261.95" y2="552.9"/><line class="cls-1" x1="261.95" y1="552.9" x2="259.66" y2="556.97"/><line class="cls-1" x1="259.66" y1="556.97" x2="258.5" y2="561.5"/><line class="cls-1" x1="258.5" y1="561.5" x2="258.54" y2="566.17"/><line class="cls-1" x1="258.54" y1="566.17" x2="259.78" y2="570.68"/><line class="cls-1" x1="259.78" y1="570.68" x2="262.14" y2="574.71"/><line class="cls-1" x1="262.14" y1="574.71" x2="265.47" y2="578"/><line class="cls-1" x1="265.47" y1="578" x2="269.52" y2="580.32"/><line class="cls-1" x1="269.52" y1="580.32" x2="274.04" y2="581.52"/><line class="cls-1" x1="274.04" y1="581.52" x2="391.84" y2="596.88"/><line class="cls-1" x1="391.84" y1="596.88" x2="391.84" y2="596.88"/><line class="cls-1" x1="391.84" y1="596.88" x2="394.24" y2="597.04"/><line class="cls-1" x1="394.24" y1="597.04" x2="396.63" y2="596.87"/><line class="cls-1" x1="396.63" y1="596.87" x2="398.97" y2="596.38"/><line class="cls-1" x1="398.97" y1="596.38" x2="401.24" y2="595.59"/><line class="cls-1" x1="401.24" y1="595.59" x2="403.37" y2="594.51"/><line class="cls-1" x1="403.37" y1="594.51" x2="405.35" y2="593.15"/><line class="cls-1" x1="405.35" y1="593.15" x2="407.12" y2="591.54"/><line class="cls-1" x1="407.12" y1="591.54" x2="408.67" y2="589.71"/><line class="cls-1" x1="408.67" y1="589.71" x2="409.96" y2="587.69"/><line class="cls-1" x1="409.96" y1="587.69" x2="410.97" y2="585.51"/><line class="cls-1" x1="410.97" y1="585.51" x2="438.29" y2="514.65"/><line class="cls-1" x1="438.29" y1="514.65" x2="438.29" y2="514.65"/><line class="cls-1" x1="438.29" y1="514.65" x2="439.27" y2="511.04"/><line class="cls-1" x1="439.27" y1="511.04" x2="439.48" y2="507.32"/><line class="cls-1" x1="439.48" y1="507.32" x2="438.92" y2="503.63"/><line class="cls-1" x1="438.92" y1="503.63" x2="437.61" y2="500.14"/><line class="cls-1" x1="437.61" y1="500.14" x2="435.6" y2="496.99"/><line class="cls-1" x1="435.6" y1="496.99" x2="433" y2="494.32"/><line class="cls-1" x1="433" y1="494.32" x2="429.9" y2="492.25"/><line class="cls-1" x1="429.9" y1="492.25" x2="426.43" y2="490.86"/><line class="cls-1" x1="426.43" y1="490.86" x2="422.76" y2="490.21"/><line class="cls-1" x1="422.76" y1="490.21" x2="419.03" y2="490.34"/><path class="cls-1" d="M427.17,512.72a5.67,5.67,0,1,0-5.67,5.67,5.66,5.66,0,0,0,5.67-5.67" transform="translate(0 -4.55)"/><path class="cls-1" d="M402.39,516.15a5.67,5.67,0,1,0-5.67,5.67,5.66,5.66,0,0,0,5.67-5.67" transform="translate(0 -4.55)"/><path class="cls-1" d="M399.84,583.59a5.67,5.67,0,1,0-5.67,5.67,5.67,5.67,0,0,0,5.67-5.67" transform="translate(0 -4.55)"/><path class="cls-1" d="M282,568.23a5.67,5.67,0,1,0-5.67,5.67,5.67,5.67,0,0,0,5.67-5.67" transform="translate(0 -4.55)"/><line class="cls-1" x1="347.28" y1="259.44" x2="378.86" y2="513.82"/><line class="cls-1" x1="378.86" y1="513.82" x2="378.86" y2="513.82"/><line class="cls-1" x1="378.86" y1="513.82" x2="380.42" y2="519.23"/><line class="cls-1" x1="380.42" y1="519.23" x2="383.58" y2="523.89"/><line class="cls-1" x1="383.58" y1="523.89" x2="388.02" y2="527.35"/><line class="cls-1" x1="388.02" y1="527.35" x2="393.31" y2="529.27"/><line class="cls-1" x1="393.31" y1="529.27" x2="398.94" y2="529.46"/><line class="cls-1" x1="398.94" y1="529.46" x2="404.35" y2="527.9"/><line class="cls-1" x1="404.35" y1="527.9" x2="409.02" y2="524.75"/><line class="cls-1" x1="409.02" y1="524.75" x2="412.48" y2="520.3"/><line class="cls-1" x1="412.48" y1="520.3" x2="414.4" y2="515.01"/><line class="cls-1" x1="414.4" y1="515.01" x2="414.59" y2="509.38"/><line class="cls-1" x1="414.59" y1="509.38" x2="383.01" y2="255"/><line class="cls-1" x1="383.01" y1="255" x2="383.01" y2="255"/><line class="cls-1" x1="383.01" y1="255" x2="381.45" y2="249.59"/><line class="cls-1" x1="381.45" y1="249.59" x2="378.29" y2="244.93"/><line class="cls-1" x1="378.29" y1="244.93" x2="373.85" y2="241.46"/><line class="cls-1" x1="373.85" y1="241.46" x2="368.56" y2="239.54"/><line class="cls-1" x1="368.56" y1="239.54" x2="362.93" y2="239.36"/><line class="cls-1" x1="362.93" y1="239.36" x2="357.52" y2="240.92"/><line class="cls-1" x1="357.52" y1="240.92" x2="352.85" y2="244.07"/><line class="cls-1" x1="352.85" y1="244.07" x2="349.39" y2="248.51"/><line class="cls-1" x1="349.39" y1="248.51" x2="347.47" y2="253.81"/><line class="cls-1" x1="347.47" y1="253.81" x2="347.28" y2="259.44"/><path class="cls-1" d="M402.39,516.15a5.67,5.67,0,1,0-5.67,5.67,5.66,5.66,0,0,0,5.67-5.67" transform="translate(0 -4.55)"/><path class="cls-1" d="M370.81,261.77a5.67,5.67,0,1,0-5.67,5.67,5.67,5.67,0,0,0,5.67-5.67" transform="translate(0 -4.55)"/><line class="cls-1" x1="414.7" y1="7.54" x2="335.3" y2="115.09"/><line class="cls-1" x1="335.3" y1="115.09" x2="335.3" y2="115.09"/><line class="cls-1" x1="335.3" y1="115.09" x2="333.3" y2="118.54"/><line class="cls-1" x1="333.3" y1="118.54" x2="332.11" y2="122.34"/><line class="cls-1" x1="332.11" y1="122.34" x2="331.79" y2="126.32"/><line class="cls-1" x1="331.79" y1="126.32" x2="332.35" y2="130.27"/><line class="cls-1" x1="332.35" y1="130.27" x2="333.77" y2="133.99"/><line class="cls-1" x1="333.77" y1="133.99" x2="335.97" y2="137.32"/><line class="cls-1" x1="335.97" y1="137.32" x2="338.85" y2="140.08"/><line class="cls-1" x1="338.85" y1="140.08" x2="342.27" y2="142.13"/><line class="cls-1" x1="342.27" y1="142.13" x2="346.05" y2="143.39"/><line class="cls-1" x1="346.05" y1="143.39" x2="350.02" y2="143.77"/><line class="cls-1" x1="350.02" y1="143.77" x2="419.95" y2="142.84"/><line class="cls-1" x1="419.95" y1="142.84" x2="419.95" y2="142.84"/><line class="cls-1" x1="419.95" y1="142.84" x2="422.58" y2="142.61"/><line class="cls-1" x1="422.58" y1="142.61" x2="425.15" y2="142"/><line class="cls-1" x1="425.15" y1="142" x2="427.61" y2="141.02"/><line class="cls-1" x1="427.61" y1="141.02" x2="429.89" y2="139.69"/><line class="cls-1" x1="429.89" y1="139.69" x2="431.95" y2="138.04"/><line class="cls-1" x1="431.95" y1="138.04" x2="433.75" y2="136.1"/><line class="cls-1" x1="433.75" y1="136.1" x2="435.25" y2="133.93"/><line class="cls-1" x1="435.25" y1="133.93" x2="436.41" y2="131.56"/><line class="cls-1" x1="436.41" y1="131.56" x2="437.22" y2="129.04"/><line class="cls-1" x1="437.22" y1="129.04" x2="437.64" y2="126.43"/><line class="cls-1" x1="437.64" y1="126.43" x2="447.11" y2="19.82"/><line class="cls-1" x1="447.11" y1="19.82" x2="447.11" y2="19.82"/><line class="cls-1" x1="447.11" y1="19.82" x2="446.92" y2="15.17"/><line class="cls-1" x1="446.92" y1="15.17" x2="445.54" y2="10.72"/><line class="cls-1" x1="445.54" y1="10.72" x2="443.07" y2="6.78"/><line class="cls-1" x1="443.07" y1="6.78" x2="439.66" y2="3.6"/><line class="cls-1" x1="439.66" y1="3.6" x2="435.56" y2="1.4"/><line class="cls-1" x1="435.56" y1="1.4" x2="431.03" y2="0.33"/><line class="cls-1" x1="431.03" y1="0.33" x2="426.37" y2="0.45"/><line class="cls-1" x1="426.37" y1="0.45" x2="421.91" y2="1.77"/><line class="cls-1" x1="421.91" y1="1.77" x2="417.93" y2="4.18"/><line class="cls-1" x1="417.93" y1="4.18" x2="414.7" y2="7.54"/><path class="cls-1" d="M355.45,130.33a5.67,5.67,0,1,0-5.67,5.67,5.67,5.67,0,0,0,5.67-5.67" transform="translate(0 -4.55)"/><path class="cls-1" d="M425.38,129.4a5.67,5.67,0,1,0-5.67,5.67,5.67,5.67,0,0,0,5.67-5.67" transform="translate(0 -4.55)"/><path class="cls-1" d="M434.85,22.79a5.67,5.67,0,1,0-5.67,5.66,5.67,5.67,0,0,0,5.67-5.66" transform="translate(0 -4.55)"/><line class="cls-1" x1="365.65" y1="266.55" x2="323.24" y2="267.37"/><line class="cls-1" x1="323.24" y1="267.37" x2="323.24" y2="267.37"/><line class="cls-1" x1="323.24" y1="267.37" x2="319.73" y2="267.78"/><line class="cls-1" x1="319.73" y1="267.78" x2="316.37" y2="268.88"/><line class="cls-1" x1="316.37" y1="268.88" x2="313.29" y2="270.6"/><line class="cls-1" x1="313.29" y1="270.6" x2="310.61" y2="272.9"/><line class="cls-1" x1="310.61" y1="272.9" x2="308.42" y2="275.67"/><line class="cls-1" x1="308.42" y1="275.67" x2="306.82" y2="278.82"/><line class="cls-1" x1="306.82" y1="278.82" x2="305.87" y2="282.22"/><line class="cls-1" x1="305.87" y1="282.22" x2="305.59" y2="285.74"/><line class="cls-1" x1="305.59" y1="285.74" x2="306.01" y2="289.25"/><line class="cls-1" x1="306.01" y1="289.25" x2="307.11" y2="292.61"/><line class="cls-1" x1="307.11" y1="292.61" x2="405.02" y2="515.41"/><line class="cls-1" x1="405.02" y1="515.41" x2="405.02" y2="515.41"/><line class="cls-1" x1="405.02" y1="515.41" x2="407.86" y2="519.92"/><line class="cls-1" x1="407.86" y1="519.92" x2="411.9" y2="523.4"/><line class="cls-1" x1="411.9" y1="523.4" x2="416.77" y2="525.54"/><line class="cls-1" x1="416.77" y1="525.54" x2="422.07" y2="526.16"/><line class="cls-1" x1="422.07" y1="526.16" x2="427.31" y2="525.21"/><line class="cls-1" x1="427.31" y1="525.21" x2="432.04" y2="522.76"/><line class="cls-1" x1="432.04" y1="522.76" x2="435.85" y2="519.03"/><line class="cls-1" x1="435.85" y1="519.03" x2="438.4" y2="514.36"/><line class="cls-1" x1="438.4" y1="514.36" x2="439.47" y2="509.14"/><line class="cls-1" x1="439.47" y1="509.14" x2="438.97" y2="503.83"/><line class="cls-1" x1="438.97" y1="503.83" x2="383.47" y2="280.21"/><line class="cls-1" x1="383.47" y1="280.21" x2="383.47" y2="280.21"/><line class="cls-1" x1="383.47" y1="280.21" x2="382.73" y2="277.9"/><line class="cls-1" x1="382.73" y1="277.9" x2="381.68" y2="275.72"/><line class="cls-1" x1="381.68" y1="275.72" x2="380.35" y2="273.69"/><line class="cls-1" x1="380.35" y1="273.69" x2="378.77" y2="271.86"/><line class="cls-1" x1="378.77" y1="271.86" x2="376.95" y2="270.26"/><line class="cls-1" x1="376.95" y1="270.26" x2="374.93" y2="268.92"/><line class="cls-1" x1="374.93" y1="268.92" x2="372.75" y2="267.86"/><line class="cls-1" x1="372.75" y1="267.86" x2="370.45" y2="267.1"/><line class="cls-1" x1="370.45" y1="267.1" x2="368.07" y2="266.66"/><line class="cls-1" x1="368.07" y1="266.66" x2="365.65" y2="266.55"/><path class="cls-1" d="M329.26,289.92a5.67,5.67,0,1,0-5.67,5.67,5.67,5.67,0,0,0,5.67-5.67" transform="translate(0 -4.55)"/><path class="cls-1" d="M427.17,512.72a5.67,5.67,0,1,0-5.67,5.67,5.66,5.66,0,0,0,5.67-5.67" transform="translate(0 -4.55)"/><path class="cls-1" d="M371.66,289.1a5.67,5.67,0,1,0-5.67,5.67,5.67,5.67,0,0,0,5.67-5.67" transform="translate(0 -4.55)"/><line class="cls-1" x1="404.44" y1="115.32" x2="292.69" y2="294.64"/><line class="cls-1" x1="292.69" y1="294.64" x2="292.69" y2="294.64"/><line class="cls-1" x1="292.69" y1="294.64" x2="290.84" y2="298.64"/><line class="cls-1" x1="290.84" y1="298.64" x2="290.01" y2="302.96"/><line class="cls-1" x1="290.01" y1="302.96" x2="290.26" y2="307.36"/><line class="cls-1" x1="290.26" y1="307.36" x2="291.57" y2="311.57"/><line class="cls-1" x1="291.57" y1="311.57" x2="293.86" y2="315.33"/><line class="cls-1" x1="293.86" y1="315.33" x2="297" y2="318.43"/><line class="cls-1" x1="297" y1="318.43" x2="300.79" y2="320.67"/><line class="cls-1" x1="300.79" y1="320.67" x2="305.02" y2="321.92"/><line class="cls-1" x1="305.02" y1="321.92" x2="309.42" y2="322.1"/><line class="cls-1" x1="309.42" y1="322.1" x2="313.74" y2="321.21"/><line class="cls-1" x1="313.74" y1="321.21" x2="371.76" y2="301.6"/><line class="cls-1" x1="371.76" y1="301.6" x2="371.76" y2="301.6"/><line class="cls-1" x1="371.76" y1="301.6" x2="373.3" y2="300.99"/><line class="cls-1" x1="373.3" y1="300.99" x2="374.78" y2="300.25"/><line class="cls-1" x1="374.78" y1="300.25" x2="376.19" y2="299.38"/><line class="cls-1" x1="376.19" y1="299.38" x2="377.51" y2="298.38"/><line class="cls-1" x1="377.51" y1="298.38" x2="378.73" y2="297.26"/><line class="cls-1" x1="378.73" y1="297.26" x2="379.85" y2="296.04"/><line class="cls-1" x1="379.85" y1="296.04" x2="380.85" y2="294.72"/><line class="cls-1" x1="380.85" y1="294.72" x2="381.72" y2="293.31"/><line class="cls-1" x1="381.72" y1="293.31" x2="382.46" y2="291.83"/><line class="cls-1" x1="382.46" y1="291.83" x2="383.06" y2="290.28"/><line class="cls-1" x1="383.06" y1="290.28" x2="436.77" y2="130.58"/><line class="cls-1" x1="436.77" y1="130.58" x2="436.77" y2="130.58"/><line class="cls-1" x1="436.77" y1="130.58" x2="437.7" y2="125.45"/><line class="cls-1" x1="437.7" y1="125.45" x2="437.12" y2="120.26"/><line class="cls-1" x1="437.12" y1="120.26" x2="435.07" y2="115.46"/><line class="cls-1" x1="435.07" y1="115.46" x2="431.74" y2="111.45"/><line class="cls-1" x1="431.74" y1="111.45" x2="427.39" y2="108.56"/><line class="cls-1" x1="427.39" y1="108.56" x2="422.4" y2="107.04"/><line class="cls-1" x1="422.4" y1="107.04" x2="417.18" y2="107.02"/><line class="cls-1" x1="417.18" y1="107.02" x2="412.18" y2="108.49"/><line class="cls-1" x1="412.18" y1="108.49" x2="407.81" y2="111.34"/><line class="cls-1" x1="407.81" y1="111.34" x2="404.44" y2="115.32"/><path class="cls-1" d="M425.38,129.4a5.67,5.67,0,1,0-5.67,5.67,5.67,5.67,0,0,0,5.67-5.67" transform="translate(0 -4.55)"/><path class="cls-1" d="M371.66,289.1a5.67,5.67,0,1,0-5.67,5.67,5.67,5.67,0,0,0,5.67-5.67" transform="translate(0 -4.55)"/><path class="cls-1" d="M397.29,178.12a5.67,5.67,0,1,0-5.67,5.67,5.67,5.67,0,0,0,5.67-5.67" transform="translate(0 -4.55)"/><path class="cls-1" d="M370.81,261.77a5.67,5.67,0,1,0-5.67,5.67,5.67,5.67,0,0,0,5.67-5.67" transform="translate(0 -4.55)"/><path class="cls-1" d="M313.64,308.72a5.67,5.67,0,1,0-5.67,5.67,5.67,5.67,0,0,0,5.67-5.67" transform="translate(0 -4.55)"/><path d="M460.28,136.45v-.54a2.81,2.81,0,0,0,1.06-.25,1.24,1.24,0,0,0,.45-.82h.55v5.57h-.75v-4Z" transform="translate(0 -4.55)"/><path d="M441.39,84.53a2.37,2.37,0,0,1,1-1l.75-.44a3.06,3.06,0,0,0,.71-.5,1,1,0,0,0,.32-.74,1.06,1.06,0,0,0-.29-.78,1.08,1.08,0,0,0-.78-.28,1,1,0,0,0-1,.54,2,2,0,0,0-.17.82h-.71A2.52,2.52,0,0,1,441.5,81a1.69,1.69,0,0,1,1.61-.82A1.66,1.66,0,0,1,445,81.85a1.59,1.59,0,0,1-.47,1.15,5,5,0,0,1-1,.67L443,84a3.27,3.27,0,0,0-.6.4,1.44,1.44,0,0,0-.49.75h3.05v.67h-3.84A3.43,3.43,0,0,1,441.39,84.53Z" transform="translate(0 -4.55)"/><path d="M334.49,212.57a2,2,0,0,1-.45-1.33h.74a1.91,1.91,0,0,0,.2.79,1.07,1.07,0,0,0,1,.44,1.28,1.28,0,0,0,.89-.3,1,1,0,0,0,.34-.76.88.88,0,0,0-.36-.81,1.8,1.8,0,0,0-1-.23h-.29v-.63l.18,0h.16a1.51,1.51,0,0,0,.65-.12.8.8,0,0,0,.45-.78.77.77,0,0,0-.3-.65A1.12,1.12,0,0,0,336,208a1,1,0,0,0-1,.47,1.54,1.54,0,0,0-.17.73h-.7a2.16,2.16,0,0,1,.25-1.06,1.59,1.59,0,0,1,1.52-.78,2,2,0,0,1,1.32.38,1.34,1.34,0,0,1,.47,1.1,1.24,1.24,0,0,1-.28.84,1.2,1.2,0,0,1-.44.31,1.19,1.19,0,0,1,.68.47,1.37,1.37,0,0,1,.25.84,1.73,1.73,0,0,1-.52,1.31,2.14,2.14,0,0,1-1.5.5A1.77,1.77,0,0,1,334.49,212.57Z" transform="translate(0 -4.55)"/><path d="M424.72,163.45v-1.37h-2.46v-.69l2.57-3.55h.59v3.63h.82v.61h-.82v1.37Zm0-2v-2.54l-1.8,2.54Z" transform="translate(0 -4.55)"/><path d="M370.34,546.58a1,1,0,0,0,.56.83,1.34,1.34,0,0,0,.58.12,1.07,1.07,0,0,0,.92-.4,1.42,1.42,0,0,0,.3-.88,1.2,1.2,0,0,0-.35-.91,1.27,1.27,0,0,0-.86-.32,1.39,1.39,0,0,0-.63.14,1.49,1.49,0,0,0-.44.39l-.61,0,.43-3h2.9v.68h-2.37l-.24,1.55a1.63,1.63,0,0,1,.37-.22,1.81,1.81,0,0,1,.72-.13,1.88,1.88,0,0,1,1.31.5,1.65,1.65,0,0,1,.53,1.25,2.14,2.14,0,0,1-.49,1.4,1.88,1.88,0,0,1-1.56.61,2,2,0,0,1-1.21-.39,1.51,1.51,0,0,1-.59-1.18Z" transform="translate(0 -4.55)"/><path d="M381.75,386.67a1.65,1.65,0,0,1,.37,1h-.7a1.26,1.26,0,0,0-.2-.52.87.87,0,0,0-.77-.35,1.06,1.06,0,0,0-.93.54,3.13,3.13,0,0,0-.39,1.56,1.56,1.56,0,0,1,.61-.53,1.93,1.93,0,0,1,2,.29,1.68,1.68,0,0,1,.53,1.34,2,2,0,0,1-.5,1.35,1.72,1.72,0,0,1-1.41.59,1.83,1.83,0,0,1-1.36-.59,2.87,2.87,0,0,1-.57-2,5.42,5.42,0,0,1,.26-1.77,1.79,1.79,0,0,1,1.78-1.39A1.54,1.54,0,0,1,381.75,386.67Zm-.53,4.27a1.44,1.44,0,0,0,.28-.88,1.57,1.57,0,0,0-.25-.82,1,1,0,0,0-.89-.38,1.17,1.17,0,0,0-.8.3,1.13,1.13,0,0,0-.34.9,1.33,1.33,0,0,0,.31.9,1.07,1.07,0,0,0,.86.36A1,1,0,0,0,381.22,390.94Z" transform="translate(0 -4.55)"/><path d="M400.91,91.51v.61a7.14,7.14,0,0,0-.72.91,9,9,0,0,0-.79,1.4,9.73,9.73,0,0,0-.52,1.33c-.07.26-.17.67-.29,1.25h-.78A9.74,9.74,0,0,1,399,93.82a9.89,9.89,0,0,1,1.13-1.61H397v-.7Z" transform="translate(0 -4.55)"/><path d="M368.28,363.47a1.12,1.12,0,0,1-.31-.81,1.42,1.42,0,0,1,.46-1.07,1.74,1.74,0,0,1,1.28-.45,1.78,1.78,0,0,1,1.26.42,1.37,1.37,0,0,1,.19,1.84,1.67,1.67,0,0,1-.46.36,1.82,1.82,0,0,1,.55.37,1.4,1.4,0,0,1,.37,1,1.73,1.73,0,0,1-.49,1.25,1.84,1.84,0,0,1-1.41.52,2.16,2.16,0,0,1-1.38-.45,1.71,1.71,0,0,1-.32-2.14,1.51,1.51,0,0,1,.72-.55A1.36,1.36,0,0,1,368.28,363.47Zm2.27,2.53a.92.92,0,0,0,.32-.78,1,1,0,0,0-.33-.83,1.25,1.25,0,0,0-.85-.28,1.17,1.17,0,0,0-.82.29,1,1,0,0,0-.32.79,1.09,1.09,0,0,0,.29.76,1.16,1.16,0,0,0,.9.32A1.2,1.2,0,0,0,370.55,366Zm-.13-2.76a.87.87,0,0,0,.26-.62.82.82,0,0,0-.25-.58,1,1,0,0,0-.76-.26.85.85,0,0,0-1,.88.75.75,0,0,0,.29.62,1.19,1.19,0,0,0,.7.22A1,1,0,0,0,370.42,363.24Z" transform="translate(0 -4.55)"/><path d="M368.31,234.9a.91.91,0,0,0,.45.81,1.14,1.14,0,0,0,.49.11,1.1,1.1,0,0,0,.86-.42,3.51,3.51,0,0,0,.5-1.7,1.3,1.3,0,0,1-.58.52,1.85,1.85,0,0,1-.74.15,1.68,1.68,0,0,1-1.28-.5,1.81,1.81,0,0,1-.47-1.3,2.08,2.08,0,0,1,.46-1.34,1.88,1.88,0,0,1,3.06.53,3.86,3.86,0,0,1,.26,1.51,4.89,4.89,0,0,1-.31,1.82,1.78,1.78,0,0,1-1.73,1.32A1.66,1.66,0,0,1,368,236a1.46,1.46,0,0,1-.43-1.08Zm1.83-1.42a1.16,1.16,0,0,0,.35-1,1.22,1.22,0,0,0-.31-.92,1.09,1.09,0,0,0-.79-.3,1,1,0,0,0-.82.34,1.57,1.57,0,0,0,0,1.79,1,1,0,0,0,.85.32A1.2,1.2,0,0,0,370.14,233.48Z" transform="translate(0 -4.55)"/><path class="cls-1" d="M193.26,136.78a1.42,1.42,0,1,0-1.42,1.42,1.42,1.42,0,0,0,1.42-1.42" transform="translate(0 -4.55)"/><path d="M197.64,126.66a16.3,16.3,0,0,0-1,2.19,8,8,0,0,0-.35,2.47,7.91,7.91,0,0,0,.4,2.59,15.41,15.41,0,0,0,1,2.08h-.59c-.48-.75-.77-1.22-.89-1.42s-.23-.49-.37-.84a6.81,6.81,0,0,1-.38-1.54,8,8,0,0,1-.05-.81,6.94,6.94,0,0,1,.45-2.58,15.77,15.77,0,0,1,1.2-2.14Z" transform="translate(0 -4.55)"/><path d="M198.81,133.46a2.56,2.56,0,0,1-.56-1.66h.92a2.24,2.24,0,0,0,.26,1,1.32,1.32,0,0,0,1.23.56,1.61,1.61,0,0,0,1.11-.38,1.19,1.19,0,0,0,.42-1,1.1,1.1,0,0,0-.44-1,2.15,2.15,0,0,0-1.23-.29h-.36v-.78l.23,0h.2a1.88,1.88,0,0,0,.81-.16,1,1,0,0,0,.56-1,1,1,0,0,0-.37-.8,1.4,1.4,0,0,0-.87-.29,1.28,1.28,0,0,0-1.21.59,2.15,2.15,0,0,0-.21.92h-.87a2.62,2.62,0,0,1,.31-1.33,2,2,0,0,1,1.89-1,2.56,2.56,0,0,1,1.66.48,1.68,1.68,0,0,1,.58,1.38,1.52,1.52,0,0,1-.34,1,1.54,1.54,0,0,1-.56.4,1.47,1.47,0,0,1,.86.58,1.75,1.75,0,0,1,.31,1.06,2.16,2.16,0,0,1-.66,1.63,2.6,2.6,0,0,1-1.87.63A2.23,2.23,0,0,1,198.81,133.46Z" transform="translate(0 -4.55)"/><path d="M206.9,134v-1.71h-3.07v-.86l3.2-4.45h.75v4.54h1v.77h-1V134Zm0-2.48v-3.18l-2.24,3.18Z" transform="translate(0 -4.55)"/><path d="M210,132.88h1V134h-1Z" transform="translate(0 -4.55)"/><path d="M216.47,127.53a2.07,2.07,0,0,1,.47,1.25h-.87a1.74,1.74,0,0,0-.25-.64,1.09,1.09,0,0,0-1-.44,1.32,1.32,0,0,0-1.18.68,3.87,3.87,0,0,0-.48,2,2,2,0,0,1,.76-.67,2.19,2.19,0,0,1,.94-.19,2.27,2.27,0,0,1,1.53.56,2.06,2.06,0,0,1,.66,1.67,2.56,2.56,0,0,1-.62,1.69,2.21,2.21,0,0,1-1.77.74,2.25,2.25,0,0,1-1.69-.75,3.53,3.53,0,0,1-.72-2.51,6.83,6.83,0,0,1,.32-2.21,2.26,2.26,0,0,1,2.23-1.74A1.93,1.93,0,0,1,216.47,127.53Zm-.66,5.35a1.74,1.74,0,0,0,.35-1.1,1.88,1.88,0,0,0-.31-1,1.22,1.22,0,0,0-1.12-.48,1.41,1.41,0,0,0-1,.38,1.43,1.43,0,0,0-.43,1.13,1.64,1.64,0,0,0,.39,1.11,1.33,1.33,0,0,0,1.08.46A1.19,1.19,0,0,0,215.81,132.88Z" transform="translate(0 -4.55)"/><path d="M218.28,133.46a2.51,2.51,0,0,1-.56-1.66h.92a2.12,2.12,0,0,0,.25,1,1.33,1.33,0,0,0,1.23.56,1.62,1.62,0,0,0,1.12-.38,1.19,1.19,0,0,0,.42-1,1.12,1.12,0,0,0-.44-1,2.2,2.2,0,0,0-1.23-.29h-.36v-.78l.23,0h.2a1.91,1.91,0,0,0,.81-.16,1,1,0,0,0,.55-1,1,1,0,0,0-.37-.8,1.37,1.37,0,0,0-.86-.29,1.29,1.29,0,0,0-1.22.59,2.15,2.15,0,0,0-.21.92h-.87a2.62,2.62,0,0,1,.32-1.33,2,2,0,0,1,1.88-1,2.55,2.55,0,0,1,1.66.48,1.69,1.69,0,0,1,.59,1.38,1.52,1.52,0,0,1-.35,1,1.46,1.46,0,0,1-.56.4,1.47,1.47,0,0,1,.86.58,1.75,1.75,0,0,1,.31,1.06,2.15,2.15,0,0,1-.65,1.63,2.61,2.61,0,0,1-1.87.63A2.2,2.2,0,0,1,218.28,133.46Z" transform="translate(0 -4.55)"/><path d="M226.65,135a.62.62,0,0,0,.47-.47,1.33,1.33,0,0,0,.07-.43V134a.13.13,0,0,0,0-.06h-.53v-1.07h1v1a2.19,2.19,0,0,1-.23,1,1.09,1.09,0,0,1-.81.54Z" transform="translate(0 -4.55)"/><path d="M235.93,127.53a2.06,2.06,0,0,1,.46,1.25h-.87a1.59,1.59,0,0,0-.24-.64,1.12,1.12,0,0,0-1-.44,1.32,1.32,0,0,0-1.17.68,3.87,3.87,0,0,0-.48,2,1.88,1.88,0,0,1,.76-.67,2.19,2.19,0,0,1,.94-.19,2.31,2.31,0,0,1,1.53.56,2.06,2.06,0,0,1,.66,1.67,2.56,2.56,0,0,1-.62,1.69,2.21,2.21,0,0,1-1.77.74,2.27,2.27,0,0,1-1.7-.75,3.58,3.58,0,0,1-.71-2.51,6.83,6.83,0,0,1,.32-2.21,2.25,2.25,0,0,1,2.23-1.74A2,2,0,0,1,235.93,127.53Zm-.66,5.35a1.81,1.81,0,0,0,.35-1.1,2,2,0,0,0-.31-1,1.23,1.23,0,0,0-1.12-.48,1.39,1.39,0,0,0-1.42,1.51,1.64,1.64,0,0,0,.39,1.11,1.33,1.33,0,0,0,1.08.46A1.2,1.2,0,0,0,235.27,132.88Z" transform="translate(0 -4.55)"/><path d="M241.6,128.07a4.94,4.94,0,0,1,.47,2.37,5.76,5.76,0,0,1-.42,2.36,2.08,2.08,0,0,1-2,1.34,2,2,0,0,1-1.88-1.1,5,5,0,0,1-.51-2.45,5.88,5.88,0,0,1,.31-2,2.1,2.1,0,0,1,2.08-1.6A2.06,2.06,0,0,1,241.6,128.07Zm-.88,4.66a4.38,4.38,0,0,0,.41-2.26,5.5,5.5,0,0,0-.3-2,1.11,1.11,0,0,0-1.14-.77,1.21,1.21,0,0,0-1.14.74,5.17,5.17,0,0,0-.35,2.15,5,5,0,0,0,.23,1.71,1.24,1.24,0,0,0,1.2,1A1.26,1.26,0,0,0,240.72,132.73Z" transform="translate(0 -4.55)"/><path d="M243.35,132.88h1V134h-1Z" transform="translate(0 -4.55)"/><path d="M246.07,133.46a2.56,2.56,0,0,1-.56-1.66h.92a2.24,2.24,0,0,0,.26,1,1.32,1.32,0,0,0,1.23.56A1.63,1.63,0,0,0,249,133a1.19,1.19,0,0,0,.42-1,1.1,1.1,0,0,0-.45-1,2.14,2.14,0,0,0-1.22-.29h-.37v-.78l.23,0h.2a1.88,1.88,0,0,0,.81-.16,1,1,0,0,0,.56-1,1,1,0,0,0-.37-.8,1.39,1.39,0,0,0-.86-.29,1.28,1.28,0,0,0-1.22.59,2.15,2.15,0,0,0-.21.92h-.87a2.72,2.72,0,0,1,.31-1.33,2,2,0,0,1,1.89-1,2.55,2.55,0,0,1,1.66.48,1.68,1.68,0,0,1,.58,1.38,1.52,1.52,0,0,1-.34,1,1.54,1.54,0,0,1-.56.4,1.47,1.47,0,0,1,.86.58,1.75,1.75,0,0,1,.31,1.06,2.16,2.16,0,0,1-.66,1.63,2.6,2.6,0,0,1-1.87.63A2.23,2.23,0,0,1,246.07,133.46Z" transform="translate(0 -4.55)"/><path d="M255.51,128.07a5.07,5.07,0,0,1,.46,2.37,5.76,5.76,0,0,1-.42,2.36,2.08,2.08,0,0,1-2,1.34,2,2,0,0,1-1.88-1.1,5,5,0,0,1-.51-2.45,5.88,5.88,0,0,1,.31-2,2.21,2.21,0,0,1,4-.48Zm-.89,4.66a4.38,4.38,0,0,0,.41-2.26,5.5,5.5,0,0,0-.3-2,1.11,1.11,0,0,0-1.14-.77,1.19,1.19,0,0,0-1.13.74,6.54,6.54,0,0,0-.13,3.86,1.24,1.24,0,0,0,1.2,1A1.26,1.26,0,0,0,254.62,132.73Z" transform="translate(0 -4.55)"/><path d="M256.75,136a18.61,18.61,0,0,0,1-2.21,8.21,8.21,0,0,0,.34-2.46,7.85,7.85,0,0,0-.4-2.58,14.35,14.35,0,0,0-1-2.08h.59c.5.8.81,1.29.91,1.48a5.36,5.36,0,0,1,.35.77,7,7,0,0,1,.33,1.21,6.62,6.62,0,0,1,.1,1.15,6.69,6.69,0,0,1-.46,2.57,14.33,14.33,0,0,1-1.19,2.15Z" transform="translate(0 -4.55)"/><path class="cls-1" d="M184.92,147.87a1.42,1.42,0,1,0-1.41,1.41,1.41,1.41,0,0,0,1.41-1.41" transform="translate(0 -4.55)"/><path d="M189.3,137.74a16.3,16.3,0,0,0-1,2.19,8,8,0,0,0-.35,2.47,7.91,7.91,0,0,0,.4,2.59,15.41,15.41,0,0,0,1,2.08h-.59c-.48-.75-.77-1.22-.89-1.42s-.23-.49-.37-.84a6.81,6.81,0,0,1-.38-1.54,7.81,7.81,0,0,1-.05-.81,6.94,6.94,0,0,1,.45-2.58,15.77,15.77,0,0,1,1.2-2.14Z" transform="translate(0 -4.55)"/><path d="M190.47,144.54a2.56,2.56,0,0,1-.56-1.66h.92a2.24,2.24,0,0,0,.26,1,1.32,1.32,0,0,0,1.23.56,1.61,1.61,0,0,0,1.11-.38,1.16,1.16,0,0,0,.42-.95,1.1,1.1,0,0,0-.44-1,2.15,2.15,0,0,0-1.23-.29h-.36V141l.23,0h.2a1.88,1.88,0,0,0,.81-.16,1,1,0,0,0,.56-1,1,1,0,0,0-.37-.8,1.39,1.39,0,0,0-.86-.29,1.28,1.28,0,0,0-1.22.59,2.15,2.15,0,0,0-.21.92h-.87a2.62,2.62,0,0,1,.31-1.33,2,2,0,0,1,1.89-1,2.55,2.55,0,0,1,1.66.48,1.68,1.68,0,0,1,.58,1.38,1.52,1.52,0,0,1-.34,1,1.54,1.54,0,0,1-.56.4,1.47,1.47,0,0,1,.86.58,1.75,1.75,0,0,1,.31,1.06,2.16,2.16,0,0,1-.66,1.63,2.6,2.6,0,0,1-1.87.63A2.23,2.23,0,0,1,190.47,144.54Z" transform="translate(0 -4.55)"/><path d="M196.19,140.07v-.67a3.43,3.43,0,0,0,1.33-.31,1.51,1.51,0,0,0,.56-1h.7v7h-.94v-5Z" transform="translate(0 -4.55)"/><path d="M201.65,144h1V145h-1Z" transform="translate(0 -4.55)"/><path d="M208.14,138.61a2.12,2.12,0,0,1,.46,1.25h-.87a1.58,1.58,0,0,0-.25-.64,1.09,1.09,0,0,0-1-.44,1.32,1.32,0,0,0-1.18.68,3.87,3.87,0,0,0-.48,1.95,2,2,0,0,1,.76-.67,2.23,2.23,0,0,1,.94-.19,2.27,2.27,0,0,1,1.53.56,2.06,2.06,0,0,1,.66,1.67,2.56,2.56,0,0,1-.62,1.69,2.21,2.21,0,0,1-1.77.74,2.25,2.25,0,0,1-1.69-.75A3.53,3.53,0,0,1,204,142a6.83,6.83,0,0,1,.32-2.21A2.26,2.26,0,0,1,206.5,138,2,2,0,0,1,208.14,138.61Zm-.67,5.35a1.74,1.74,0,0,0,.35-1.1,1.88,1.88,0,0,0-.31-1,1.22,1.22,0,0,0-1.12-.48,1.41,1.41,0,0,0-1,.38,1.43,1.43,0,0,0-.43,1.13,1.64,1.64,0,0,0,.39,1.11,1.33,1.33,0,0,0,1.08.46A1.19,1.19,0,0,0,207.47,144Z" transform="translate(0 -4.55)"/><path d="M210.47,143.33a1.1,1.1,0,0,0,.56,1,1.21,1.21,0,0,0,.6.14,1.37,1.37,0,0,0,1.08-.52,4.45,4.45,0,0,0,.63-2.13,1.67,1.67,0,0,1-.73.65,2.24,2.24,0,0,1-.93.19,2.09,2.09,0,0,1-1.6-.63,2.29,2.29,0,0,1-.59-1.62,2.56,2.56,0,0,1,.59-1.67,2,2,0,0,1,1.71-.73,2.11,2.11,0,0,1,2.11,1.38,4.94,4.94,0,0,1,.32,1.89,6.41,6.41,0,0,1-.38,2.28,2.24,2.24,0,0,1-2.17,1.65,2.08,2.08,0,0,1-1.56-.54,1.86,1.86,0,0,1-.53-1.35Zm2.28-1.78a1.45,1.45,0,0,0,.44-1.2,1.54,1.54,0,0,0-.39-1.15,1.37,1.37,0,0,0-1-.38,1.28,1.28,0,0,0-1,.44,1.93,1.93,0,0,0,0,2.23,1.29,1.29,0,0,0,1.06.41A1.47,1.47,0,0,0,212.75,141.55Z" transform="translate(0 -4.55)"/><path d="M218.31,146.05a.62.62,0,0,0,.47-.47,1.33,1.33,0,0,0,.07-.43v-.06a.13.13,0,0,0,0-.06h-.53V144h1v1a2.19,2.19,0,0,1-.23,1,1.09,1.09,0,0,1-.81.54Z" transform="translate(0 -4.55)"/><path d="M224.27,143.24a1.22,1.22,0,0,0,.7,1,1.66,1.66,0,0,0,.72.15,1.37,1.37,0,0,0,1.16-.5,1.78,1.78,0,0,0,.37-1.1,1.41,1.41,0,0,0-.44-1.13,1.72,1.72,0,0,0-1.85-.23,1.74,1.74,0,0,0-.56.49l-.76,0,.53-3.77h3.64V139h-3l-.3,1.94a2.33,2.33,0,0,1,.47-.27,2.29,2.29,0,0,1,.9-.17,2.32,2.32,0,0,1,1.63.62,2.06,2.06,0,0,1,.67,1.58,2.7,2.7,0,0,1-.61,1.75,2.39,2.39,0,0,1-2,.75,2.49,2.49,0,0,1-1.51-.48,1.89,1.89,0,0,1-.73-1.48Z" transform="translate(0 -4.55)"/><path d="M233.15,138.61a2.07,2.07,0,0,1,.47,1.25h-.87a1.74,1.74,0,0,0-.25-.64,1.09,1.09,0,0,0-1-.44,1.32,1.32,0,0,0-1.18.68,3.87,3.87,0,0,0-.48,1.95,2,2,0,0,1,.76-.67,2.19,2.19,0,0,1,.94-.19,2.27,2.27,0,0,1,1.53.56,2.06,2.06,0,0,1,.66,1.67,2.56,2.56,0,0,1-.62,1.69,2.21,2.21,0,0,1-1.77.74,2.27,2.27,0,0,1-1.7-.75A3.58,3.58,0,0,1,229,142a6.83,6.83,0,0,1,.32-2.21,2.26,2.26,0,0,1,2.23-1.74A1.93,1.93,0,0,1,233.15,138.61Zm-.66,5.35a1.81,1.81,0,0,0,.35-1.1,1.88,1.88,0,0,0-.31-1,1.22,1.22,0,0,0-1.12-.48,1.41,1.41,0,0,0-1,.38,1.43,1.43,0,0,0-.43,1.13,1.64,1.64,0,0,0,.39,1.11,1.33,1.33,0,0,0,1.08.46A1.19,1.19,0,0,0,232.49,144Z" transform="translate(0 -4.55)"/><path d="M235,144h1V145h-1Z" transform="translate(0 -4.55)"/><path d="M237.73,144.54a2.56,2.56,0,0,1-.55-1.66h.91a2.24,2.24,0,0,0,.26,1,1.32,1.32,0,0,0,1.23.56,1.63,1.63,0,0,0,1.12-.38,1.19,1.19,0,0,0,.42-.95,1.1,1.1,0,0,0-.45-1,2.14,2.14,0,0,0-1.22-.29h-.37V141l.23,0h.2a1.88,1.88,0,0,0,.81-.16,1,1,0,0,0,.56-1,1,1,0,0,0-.37-.8,1.39,1.39,0,0,0-.86-.29,1.28,1.28,0,0,0-1.22.59,2.15,2.15,0,0,0-.21.92h-.87a2.72,2.72,0,0,1,.31-1.33,2,2,0,0,1,1.89-1,2.55,2.55,0,0,1,1.66.48,1.68,1.68,0,0,1,.58,1.38,1.52,1.52,0,0,1-.34,1,1.54,1.54,0,0,1-.56.4,1.47,1.47,0,0,1,.86.58,1.75,1.75,0,0,1,.31,1.06,2.16,2.16,0,0,1-.66,1.63,2.6,2.6,0,0,1-1.87.63A2.23,2.23,0,0,1,237.73,144.54Z" transform="translate(0 -4.55)"/><path d="M243.83,143.33a1.1,1.1,0,0,0,.56,1,1.21,1.21,0,0,0,.6.14,1.37,1.37,0,0,0,1.08-.52,4.45,4.45,0,0,0,.63-2.13,1.67,1.67,0,0,1-.73.65,2.24,2.24,0,0,1-.93.19,2.09,2.09,0,0,1-1.6-.63,2.29,2.29,0,0,1-.59-1.62,2.61,2.61,0,0,1,.58-1.67,2.06,2.06,0,0,1,1.72-.73,2.11,2.11,0,0,1,2.11,1.38,4.94,4.94,0,0,1,.32,1.89,6.19,6.19,0,0,1-.39,2.28,2.22,2.22,0,0,1-2.16,1.65,2.08,2.08,0,0,1-1.56-.54,1.82,1.82,0,0,1-.53-1.35Zm2.28-1.78a1.45,1.45,0,0,0,.44-1.2,1.54,1.54,0,0,0-.39-1.15,1.37,1.37,0,0,0-1-.38,1.28,1.28,0,0,0-1,.44,1.93,1.93,0,0,0-.05,2.23,1.29,1.29,0,0,0,1.06.41A1.47,1.47,0,0,0,246.11,141.55Z" transform="translate(0 -4.55)"/><path d="M248.41,147.07a18.61,18.61,0,0,0,1-2.21,8.21,8.21,0,0,0,.34-2.46,7.85,7.85,0,0,0-.4-2.58,14.35,14.35,0,0,0-1-2.08H249c.5.8.81,1.29.91,1.48a5.36,5.36,0,0,1,.35.77,7,7,0,0,1,.33,1.21,6.62,6.62,0,0,1,.1,1.15,6.69,6.69,0,0,1-.46,2.57,14.33,14.33,0,0,1-1.19,2.15Z" transform="translate(0 -4.55)"/><line class="cls-1" x1="191.84" y1="132.23" x2="183.51" y2="143.31"/><path class="cls-1" d="M184.92,147.87a1.42,1.42,0,1,0-1.41,1.41,1.41,1.41,0,0,0,1.41-1.41" transform="translate(0 -4.55)"/><path class="cls-1" d="M155.93,27.54A1.42,1.42,0,1,0,154.51,29a1.42,1.42,0,0,0,1.42-1.41" transform="translate(0 -4.55)"/><path d="M160.3,17.41a16.3,16.3,0,0,0-1,2.19,8,8,0,0,0-.35,2.47,7.91,7.91,0,0,0,.4,2.59,15.41,15.41,0,0,0,1,2.08h-.59c-.48-.75-.77-1.22-.89-1.42s-.23-.49-.37-.84a6.81,6.81,0,0,1-.38-1.54,7.81,7.81,0,0,1-.05-.81,6.94,6.94,0,0,1,.45-2.58,15.77,15.77,0,0,1,1.2-2.14Z" transform="translate(0 -4.55)"/><path d="M161.36,23.12a3,3,0,0,1,1.27-1.21l.94-.54a4.72,4.72,0,0,0,.88-.63,1.36,1.36,0,0,0,0-1.9,1.32,1.32,0,0,0-1-.36,1.27,1.27,0,0,0-1.25.69,2.27,2.27,0,0,0-.21,1h-.89a3.05,3.05,0,0,1,.34-1.48,2.1,2.1,0,0,1,2-1,2.21,2.21,0,0,1,1.76.65,2.15,2.15,0,0,1,.55,1.44,2,2,0,0,1-.59,1.44,6.13,6.13,0,0,1-1.22.84l-.67.37a5,5,0,0,0-.76.5,1.85,1.85,0,0,0-.61.95h3.82v.83H161A4,4,0,0,1,161.36,23.12Z" transform="translate(0 -4.55)"/><path d="M167.19,19.74v-.67a3.43,3.43,0,0,0,1.33-.31,1.51,1.51,0,0,0,.56-1h.7v7h-.94v-5Z" transform="translate(0 -4.55)"/><path d="M172.65,23.63h1V24.7h-1Z" transform="translate(0 -4.55)"/><path d="M177.9,24.7V23h-3.07v-.86l3.2-4.45h.75v4.54h1V23h-1V24.7Zm0-2.48V19l-2.24,3.18Z" transform="translate(0 -4.55)"/><path d="M184.7,18.28a2.12,2.12,0,0,1,.46,1.25h-.87a1.58,1.58,0,0,0-.25-.64,1.09,1.09,0,0,0-1-.44,1.32,1.32,0,0,0-1.17.68,3.87,3.87,0,0,0-.49,1.95,2,2,0,0,1,.76-.67,2.23,2.23,0,0,1,.94-.19,2.27,2.27,0,0,1,1.53.56,2.06,2.06,0,0,1,.66,1.67,2.56,2.56,0,0,1-.62,1.69,2.18,2.18,0,0,1-1.77.74,2.25,2.25,0,0,1-1.69-.75,3.53,3.53,0,0,1-.72-2.51,6.83,6.83,0,0,1,.32-2.21,2.26,2.26,0,0,1,2.23-1.74A2,2,0,0,1,184.7,18.28ZM184,23.63a1.8,1.8,0,0,0,.34-1.1,1.82,1.82,0,0,0-.31-1A1.19,1.19,0,0,0,183,21a1.49,1.49,0,0,0-1,.38,1.43,1.43,0,0,0-.43,1.13,1.64,1.64,0,0,0,.39,1.11,1.33,1.33,0,0,0,1.08.46A1.22,1.22,0,0,0,184,23.63Z" transform="translate(0 -4.55)"/><path d="M189.31,25.72a.62.62,0,0,0,.47-.47,1.33,1.33,0,0,0,.07-.43v-.06a.13.13,0,0,0,0-.06h-.53V23.63h1v1a2.19,2.19,0,0,1-.23,1,1.09,1.09,0,0,1-.81.54Z" transform="translate(0 -4.55)"/><path d="M195.36,23a1.14,1.14,0,0,0,.56,1,1.22,1.22,0,0,0,.61.14,1.34,1.34,0,0,0,1.07-.52,4.24,4.24,0,0,0,.63-2.13,1.6,1.6,0,0,1-.72.65,2.24,2.24,0,0,1-.93.19,2.07,2.07,0,0,1-1.6-.63,2.29,2.29,0,0,1-.59-1.62,2.55,2.55,0,0,1,.58-1.67,2.09,2.09,0,0,1,1.72-.73,2.12,2.12,0,0,1,2.11,1.38,4.94,4.94,0,0,1,.32,1.89,6.19,6.19,0,0,1-.39,2.28,2.24,2.24,0,0,1-2.17,1.65,2.07,2.07,0,0,1-1.55-.54,1.83,1.83,0,0,1-.54-1.35Zm2.29-1.78a1.45,1.45,0,0,0,.43-1.2,1.54,1.54,0,0,0-.39-1.15,1.35,1.35,0,0,0-1-.38,1.3,1.3,0,0,0-1,.44,1.68,1.68,0,0,0-.38,1.15,1.59,1.59,0,0,0,.34,1.08,1.29,1.29,0,0,0,1.06.41A1.51,1.51,0,0,0,197.65,21.22Z" transform="translate(0 -4.55)"/><path d="M200.55,20.6a1.36,1.36,0,0,1-.39-1,1.81,1.81,0,0,1,.57-1.34,2.16,2.16,0,0,1,1.6-.57,2.25,2.25,0,0,1,1.58.53,1.66,1.66,0,0,1,.57,1.24,1.62,1.62,0,0,1-.33,1.06,2.24,2.24,0,0,1-.58.45,2.3,2.3,0,0,1,.69.46,1.77,1.77,0,0,1,.46,1.27,2.13,2.13,0,0,1-.62,1.56,2.32,2.32,0,0,1-1.75.65,2.72,2.72,0,0,1-1.73-.56,1.91,1.91,0,0,1-.7-1.61,1.78,1.78,0,0,1,1.2-1.76A1.66,1.66,0,0,1,200.55,20.6Zm2.83,3.17a1.2,1.2,0,0,0,.41-1,1.28,1.28,0,0,0-.42-1,1.61,1.61,0,0,0-1.06-.35,1.47,1.47,0,0,0-1,.36,1.25,1.25,0,0,0-.4,1,1.37,1.37,0,0,0,.36.95,1.49,1.49,0,0,0,1.13.4A1.53,1.53,0,0,0,203.38,23.77Zm-.16-3.46a1.07,1.07,0,0,0,.33-.78,1,1,0,0,0-.32-.72,1.23,1.23,0,0,0-.95-.32,1,1,0,0,0-1.19,1.09.94.94,0,0,0,.36.78,1.4,1.4,0,0,0,.86.27A1.22,1.22,0,0,0,203.22,20.31Z" transform="translate(0 -4.55)"/><path d="M206,23.63h1V24.7h-1Z" transform="translate(0 -4.55)"/><path d="M208.89,20.6a1.36,1.36,0,0,1-.39-1,1.81,1.81,0,0,1,.57-1.34,2.16,2.16,0,0,1,1.6-.57,2.25,2.25,0,0,1,1.58.53,1.66,1.66,0,0,1,.57,1.24,1.62,1.62,0,0,1-.33,1.06,2.24,2.24,0,0,1-.58.45,2.3,2.3,0,0,1,.69.46,1.77,1.77,0,0,1,.46,1.27,2.13,2.13,0,0,1-.62,1.56,2.32,2.32,0,0,1-1.75.65,2.72,2.72,0,0,1-1.73-.56,1.91,1.91,0,0,1-.7-1.61,1.78,1.78,0,0,1,1.2-1.76A1.66,1.66,0,0,1,208.89,20.6Zm2.83,3.17a1.2,1.2,0,0,0,.41-1,1.28,1.28,0,0,0-.42-1,1.61,1.61,0,0,0-1.06-.35,1.47,1.47,0,0,0-1,.36,1.25,1.25,0,0,0-.4,1,1.37,1.37,0,0,0,.36.95,1.49,1.49,0,0,0,1.13.4A1.53,1.53,0,0,0,211.72,23.77Zm-.16-3.46a1.07,1.07,0,0,0,.33-.78,1,1,0,0,0-.32-.72,1.23,1.23,0,0,0-.95-.32,1,1,0,0,0-1.19,1.09.94.94,0,0,0,.36.78,1.4,1.4,0,0,0,.86.27A1.22,1.22,0,0,0,211.56,20.31Z" transform="translate(0 -4.55)"/><path d="M216.82,24.7V23h-3.07v-.86l3.2-4.45h.75v4.54h1V23h-1V24.7Zm0-2.48V19l-2.24,3.18Z" transform="translate(0 -4.55)"/><path d="M219.41,26.74a18.61,18.61,0,0,0,1-2.21,8.21,8.21,0,0,0,.34-2.46,7.85,7.85,0,0,0-.4-2.58,14.35,14.35,0,0,0-1-2.08H220c.5.8.81,1.29.91,1.48a5.36,5.36,0,0,1,.35.77,7,7,0,0,1,.33,1.21,6.62,6.62,0,0,1,.1,1.15,6.69,6.69,0,0,1-.46,2.57A14.33,14.33,0,0,1,220,26.74Z" transform="translate(0 -4.55)"/><line class="cls-1" x1="183.51" y1="143.31" x2="154.51" y2="22.98"/><path class="cls-1" d="M76.53,135.08a1.42,1.42,0,1,0-1.41,1.42,1.42,1.42,0,0,0,1.41-1.42" transform="translate(0 -4.55)"/><path d="M80.9,125a16.3,16.3,0,0,0-1,2.19,8,8,0,0,0-.35,2.47,7.91,7.91,0,0,0,.4,2.59,15.41,15.41,0,0,0,1,2.08h-.59c-.48-.74-.77-1.22-.89-1.42s-.23-.49-.37-.84a6.81,6.81,0,0,1-.38-1.54,7.65,7.65,0,0,1,0-.81,6.85,6.85,0,0,1,.45-2.57,14.19,14.19,0,0,1,1.2-2.15Z" transform="translate(0 -4.55)"/><path d="M81.69,129h2.45v.9H81.69Z" transform="translate(0 -4.55)"/><path d="M89.16,125.83a2.06,2.06,0,0,1,.46,1.26h-.86a1.73,1.73,0,0,0-.25-.65,1.12,1.12,0,0,0-1-.44,1.32,1.32,0,0,0-1.17.68,3.87,3.87,0,0,0-.48,1.95,1.88,1.88,0,0,1,.76-.67,2.19,2.19,0,0,1,.94-.19,2.31,2.31,0,0,1,1.53.56,2.07,2.07,0,0,1,.66,1.68,2.55,2.55,0,0,1-.62,1.68,2.21,2.21,0,0,1-1.77.74,2.27,2.27,0,0,1-1.7-.75,3.57,3.57,0,0,1-.71-2.5A6.85,6.85,0,0,1,85.3,127a2.25,2.25,0,0,1,2.23-1.73A1.94,1.94,0,0,1,89.16,125.83Zm-.66,5.35a1.87,1.87,0,0,0,0-2.12,1.21,1.21,0,0,0-1.12-.49,1.44,1.44,0,0,0-1,.38,1.4,1.4,0,0,0-.43,1.13,1.64,1.64,0,0,0,.39,1.11,1.33,1.33,0,0,0,1.08.46A1.2,1.2,0,0,0,88.5,131.18Z" transform="translate(0 -4.55)"/><path d="M91,131.18h1v1.07H91Z" transform="translate(0 -4.55)"/><path d="M94.18,130.46a1.2,1.2,0,0,0,.7,1,1.66,1.66,0,0,0,.72.15,1.34,1.34,0,0,0,1.16-.5,1.78,1.78,0,0,0,.37-1.1,1.41,1.41,0,0,0-.44-1.13,1.72,1.72,0,0,0-1.85-.23,1.74,1.74,0,0,0-.56.49l-.76,0,.53-3.77h3.64v.85h-3l-.3,1.94a2.33,2.33,0,0,1,.47-.27,2.5,2.5,0,0,1,2.53.46,2,2,0,0,1,.67,1.57,2.7,2.7,0,0,1-.61,1.75,2.39,2.39,0,0,1-2,.75,2.49,2.49,0,0,1-1.51-.48,1.89,1.89,0,0,1-.73-1.48Z" transform="translate(0 -4.55)"/><path d="M99.74,130.46a1.2,1.2,0,0,0,.7,1,1.66,1.66,0,0,0,.72.15,1.34,1.34,0,0,0,1.16-.5,1.79,1.79,0,0,0,.38-1.1,1.42,1.42,0,0,0-.45-1.13,1.72,1.72,0,0,0-1.85-.23,1.74,1.74,0,0,0-.56.49l-.76,0,.53-3.77h3.64v.85h-3l-.29,1.94a2,2,0,0,1,.46-.27,2.5,2.5,0,0,1,2.53.46,2,2,0,0,1,.67,1.57,2.7,2.7,0,0,1-.61,1.75,2.39,2.39,0,0,1-2,.75,2.52,2.52,0,0,1-1.51-.48,1.92,1.92,0,0,1-.73-1.48Z" transform="translate(0 -4.55)"/><path d="M107.68,133.27a.62.62,0,0,0,.47-.47,1.33,1.33,0,0,0,.07-.43v-.06a.13.13,0,0,0,0-.06h-.53v-1.07h1v1a2.19,2.19,0,0,1-.23,1,1.09,1.09,0,0,1-.81.54Z" transform="translate(0 -4.55)"/><path d="M117,125.83a2.06,2.06,0,0,1,.46,1.26h-.87a1.45,1.45,0,0,0-.25-.65,1.09,1.09,0,0,0-1-.44,1.32,1.32,0,0,0-1.17.68,3.87,3.87,0,0,0-.48,1.95,1.88,1.88,0,0,1,.76-.67,2.19,2.19,0,0,1,.94-.19,2.31,2.31,0,0,1,1.53.56,2.07,2.07,0,0,1,.65,1.68,2.5,2.5,0,0,1-.62,1.68,2.17,2.17,0,0,1-1.76.74,2.27,2.27,0,0,1-1.7-.75,3.57,3.57,0,0,1-.71-2.5,6.59,6.59,0,0,1,.32-2.22,2.24,2.24,0,0,1,2.23-1.73A1.94,1.94,0,0,1,117,125.83Zm-.66,5.35a1.81,1.81,0,0,0,.35-1.1,1.9,1.9,0,0,0-.31-1,1.22,1.22,0,0,0-1.12-.49,1.44,1.44,0,0,0-1,.38,1.4,1.4,0,0,0-.43,1.13,1.64,1.64,0,0,0,.39,1.11,1.31,1.31,0,0,0,1.07.46A1.21,1.21,0,0,0,116.3,131.18Z" transform="translate(0 -4.55)"/><path d="M122.63,126.37a5.06,5.06,0,0,1,.47,2.37,5.76,5.76,0,0,1-.42,2.36,2.1,2.1,0,0,1-2,1.34,2,2,0,0,1-1.87-1.1,5,5,0,0,1-.51-2.45,6.18,6.18,0,0,1,.3-2,2.11,2.11,0,0,1,2.09-1.6A2.07,2.07,0,0,1,122.63,126.37Zm-.88,4.66a4.36,4.36,0,0,0,.4-2.25,5.44,5.44,0,0,0-.29-2,1.12,1.12,0,0,0-1.14-.77,1.19,1.19,0,0,0-1.14.73,5,5,0,0,0-.36,2.15,5.41,5.41,0,0,0,.23,1.72,1.25,1.25,0,0,0,2.3.38Z" transform="translate(0 -4.55)"/><path d="M124.38,131.18h1v1.07h-1Z" transform="translate(0 -4.55)"/><path d="M127.63,130.55a1.12,1.12,0,0,0,.56,1,1.22,1.22,0,0,0,.61.14,1.34,1.34,0,0,0,1.07-.52,4.24,4.24,0,0,0,.63-2.13,1.6,1.6,0,0,1-.72.65,2.24,2.24,0,0,1-.93.19,2.07,2.07,0,0,1-1.6-.63,2.29,2.29,0,0,1-.59-1.62,2.57,2.57,0,0,1,.58-1.67,2.33,2.33,0,0,1,3.82.65,4.74,4.74,0,0,1,.33,1.89,6.19,6.19,0,0,1-.39,2.28,2.24,2.24,0,0,1-2.17,1.65,2.07,2.07,0,0,1-1.55-.54,1.83,1.83,0,0,1-.54-1.35Zm2.29-1.78a1.45,1.45,0,0,0,.43-1.2,1.55,1.55,0,0,0-.39-1.15,1.35,1.35,0,0,0-1-.37,1.29,1.29,0,0,0-1,.43,1.68,1.68,0,0,0-.38,1.15,1.59,1.59,0,0,0,.34,1.08,1.29,1.29,0,0,0,1.06.41A1.51,1.51,0,0,0,129.92,128.77Z" transform="translate(0 -4.55)"/><path d="M136.53,126.37a4.94,4.94,0,0,1,.47,2.37,5.76,5.76,0,0,1-.42,2.36,2.08,2.08,0,0,1-2,1.34,2,2,0,0,1-1.88-1.1,5,5,0,0,1-.51-2.45,5.92,5.92,0,0,1,.31-2,2.09,2.09,0,0,1,2.08-1.6A2.06,2.06,0,0,1,136.53,126.37Zm-.88,4.66a4.36,4.36,0,0,0,.4-2.25,5.44,5.44,0,0,0-.29-2,1.1,1.1,0,0,0-1.14-.77,1.19,1.19,0,0,0-1.14.73,5.17,5.17,0,0,0-.35,2.15,5.45,5.45,0,0,0,.22,1.72,1.25,1.25,0,0,0,2.3.38Z" transform="translate(0 -4.55)"/><path d="M137.77,134.29a15.76,15.76,0,0,0,1-2.21,7.89,7.89,0,0,0,.35-2.46,8.12,8.12,0,0,0-.4-2.58,14.86,14.86,0,0,0-1-2.08h.59c.5.8.8,1.29.91,1.48a4.92,4.92,0,0,1,.34.77,6.29,6.29,0,0,1,.34,1.21,6.62,6.62,0,0,1,.1,1.15,6.69,6.69,0,0,1-.46,2.57,13.72,13.72,0,0,1-1.2,2.15Z" transform="translate(0 -4.55)"/><path class="cls-1" d="M50.34,294.67a1.42,1.42,0,1,0-1.42,1.42,1.43,1.43,0,0,0,1.42-1.42" transform="translate(0 -4.55)"/><path d="M54.71,284.55a16.3,16.3,0,0,0-1,2.19,8,8,0,0,0-.35,2.47,7.91,7.91,0,0,0,.4,2.59,15.41,15.41,0,0,0,1,2.08h-.59c-.48-.74-.77-1.22-.89-1.42s-.23-.49-.37-.84a6.81,6.81,0,0,1-.38-1.54,7.65,7.65,0,0,1,0-.81,6.85,6.85,0,0,1,.45-2.57,15.16,15.16,0,0,1,1.2-2.15Z" transform="translate(0 -4.55)"/><path d="M55.5,288.6H58v.9H55.5Z" transform="translate(0 -4.55)"/><path d="M59.37,286.89v-.68a3.43,3.43,0,0,0,1.33-.31,1.51,1.51,0,0,0,.56-1H62v7H61v-4.95Z" transform="translate(0 -4.55)"/><path d="M65.21,290.05a1.2,1.2,0,0,0,.7,1,1.66,1.66,0,0,0,.72.15,1.37,1.37,0,0,0,1.16-.5,1.79,1.79,0,0,0,.38-1.1,1.42,1.42,0,0,0-.45-1.13,1.55,1.55,0,0,0-1.07-.4,1.58,1.58,0,0,0-.78.17,1.74,1.74,0,0,0-.56.49l-.76,0,.54-3.77h3.63v.85h-3l-.29,1.94a2,2,0,0,1,.46-.27,2.29,2.29,0,0,1,.9-.16,2.26,2.26,0,0,1,1.63.62,2,2,0,0,1,.67,1.57,2.7,2.7,0,0,1-.61,1.75,2.38,2.38,0,0,1-2,.75,2.52,2.52,0,0,1-1.52-.48,1.92,1.92,0,0,1-.73-1.48Z" transform="translate(0 -4.55)"/><path d="M70.39,290.77h1v1.07h-1Z" transform="translate(0 -4.55)"/><path d="M77.55,285v.77a7.73,7.73,0,0,0-.9,1.14,12.26,12.26,0,0,0-1,1.74,11.64,11.64,0,0,0-.64,1.67c-.1.32-.22.84-.37,1.56h-1a12,12,0,0,1,1.46-4,13,13,0,0,1,1.41-2H72.68V285Z" transform="translate(0 -4.55)"/><path d="M79.21,290.14a1.1,1.1,0,0,0,.56,1,1.21,1.21,0,0,0,.6.14,1.37,1.37,0,0,0,1.08-.52,4.45,4.45,0,0,0,.63-2.13,1.67,1.67,0,0,1-.73.65,2.24,2.24,0,0,1-.93.19,2.1,2.1,0,0,1-1.6-.63,2.29,2.29,0,0,1-.59-1.62,2.58,2.58,0,0,1,.59-1.67,2,2,0,0,1,1.71-.73,2.11,2.11,0,0,1,2.11,1.38A4.94,4.94,0,0,1,83,288.1a6.41,6.41,0,0,1-.38,2.28A2.24,2.24,0,0,1,80.41,292a2.08,2.08,0,0,1-1.56-.54,1.86,1.86,0,0,1-.53-1.35Zm2.28-1.78a1.45,1.45,0,0,0,.44-1.2,1.55,1.55,0,0,0-.39-1.15,1.37,1.37,0,0,0-1-.37,1.27,1.27,0,0,0-1,.43,1.93,1.93,0,0,0,0,2.23,1.29,1.29,0,0,0,1.06.41A1.47,1.47,0,0,0,81.49,288.36Z" transform="translate(0 -4.55)"/><path d="M87.05,292.86a.62.62,0,0,0,.47-.47,1.33,1.33,0,0,0,.07-.43v-.06a.13.13,0,0,0,0-.06h-.53v-1.07h1v1a2.19,2.19,0,0,1-.23,1,1.09,1.09,0,0,1-.81.54Z" transform="translate(0 -4.55)"/><path d="M95.09,291.84v-1.71H92v-.86l3.2-4.45H96v4.54h1v.77H96v1.71Zm0-2.48v-3.17l-2.24,3.17Z" transform="translate(0 -4.55)"/><path d="M98.19,290.77h1v1.07h-1Z" transform="translate(0 -4.55)"/><path d="M104.67,285.42a2.06,2.06,0,0,1,.46,1.26h-.87A1.58,1.58,0,0,0,104,286a1.12,1.12,0,0,0-1-.44,1.32,1.32,0,0,0-1.17.68,3.87,3.87,0,0,0-.48,2,1.88,1.88,0,0,1,.76-.67,2.19,2.19,0,0,1,.94-.19,2.31,2.31,0,0,1,1.53.56,2.07,2.07,0,0,1,.66,1.68,2.55,2.55,0,0,1-.62,1.68,2.21,2.21,0,0,1-1.77.74,2.27,2.27,0,0,1-1.7-.75,3.57,3.57,0,0,1-.71-2.5,6.85,6.85,0,0,1,.32-2.22,2.25,2.25,0,0,1,2.23-1.73A1.94,1.94,0,0,1,104.67,285.42Zm-.66,5.35a1.87,1.87,0,0,0,0-2.12,1.22,1.22,0,0,0-1.12-.49,1.39,1.39,0,0,0-1.42,1.51,1.64,1.64,0,0,0,.39,1.11,1.33,1.33,0,0,0,1.08.46A1.2,1.2,0,0,0,104,290.77Z" transform="translate(0 -4.55)"/><path d="M110.34,286a4.94,4.94,0,0,1,.47,2.37,5.76,5.76,0,0,1-.42,2.36,2.08,2.08,0,0,1-2,1.34,2,2,0,0,1-1.88-1.1,5,5,0,0,1-.51-2.45,5.92,5.92,0,0,1,.31-2,2.1,2.1,0,0,1,2.08-1.6A2.06,2.06,0,0,1,110.34,286Zm-.88,4.66a4.36,4.36,0,0,0,.41-2.26,5.5,5.5,0,0,0-.3-2,1.1,1.1,0,0,0-1.14-.76,1.18,1.18,0,0,0-1.13.73,5,5,0,0,0-.36,2.15,5.14,5.14,0,0,0,.23,1.72,1.24,1.24,0,0,0,1.2,1A1.26,1.26,0,0,0,109.46,290.62Z" transform="translate(0 -4.55)"/><path d="M111.58,293.88a17.52,17.52,0,0,0,1-2.21,8.21,8.21,0,0,0,.34-2.46,7.85,7.85,0,0,0-.4-2.58,14.86,14.86,0,0,0-1-2.08h.59c.5.8.81,1.29.91,1.48a5.92,5.92,0,0,1,.35.77,7,7,0,0,1,.33,1.21,6.62,6.62,0,0,1,.1,1.15,6.69,6.69,0,0,1-.46,2.57,13.72,13.72,0,0,1-1.2,2.15Z" transform="translate(0 -4.55)"/><line class="cls-1" x1="75.12" y1="130.53" x2="48.92" y2="290.12"/><path class="cls-1" d="M184.92,147.87a1.42,1.42,0,1,0-1.41,1.41,1.41,1.41,0,0,0,1.41-1.41" transform="translate(0 -4.55)"/><path class="cls-1" d="M118.37,182.87a1.42,1.42,0,1,0-1.42,1.42,1.42,1.42,0,0,0,1.42-1.42" transform="translate(0 -4.55)"/><path d="M122.74,172.75a16.3,16.3,0,0,0-1,2.19,8,8,0,0,0-.35,2.47,7.91,7.91,0,0,0,.4,2.59,15.41,15.41,0,0,0,1,2.08h-.59c-.48-.74-.77-1.22-.89-1.42s-.23-.49-.37-.84a6.81,6.81,0,0,1-.38-1.54,7.65,7.65,0,0,1,0-.81,6.85,6.85,0,0,1,.45-2.57,14.19,14.19,0,0,1,1.2-2.15Z" transform="translate(0 -4.55)"/><path d="M124.07,176a1.4,1.4,0,0,1-.39-1,1.81,1.81,0,0,1,.57-1.34,2.14,2.14,0,0,1,1.6-.56,2.25,2.25,0,0,1,1.58.52,1.66,1.66,0,0,1,.57,1.24,1.62,1.62,0,0,1-.33,1.06,2,2,0,0,1-.58.45,2.51,2.51,0,0,1,.69.46,1.77,1.77,0,0,1,.46,1.27,2.19,2.19,0,0,1-.62,1.57,2.35,2.35,0,0,1-1.75.64,2.72,2.72,0,0,1-1.73-.56,1.91,1.91,0,0,1-.7-1.61,1.78,1.78,0,0,1,1.2-1.76A1.7,1.7,0,0,1,124.07,176Zm2.83,3.16a1.2,1.2,0,0,0,.4-1,1.27,1.27,0,0,0-.41-1,1.62,1.62,0,0,0-1.07-.35,1.44,1.44,0,0,0-1,.36,1.25,1.25,0,0,0-.4,1,1.37,1.37,0,0,0,.36.95,1.49,1.49,0,0,0,1.13.4A1.53,1.53,0,0,0,126.9,179.11Zm-.16-3.46a1.06,1.06,0,0,0,.32-.78,1,1,0,0,0-.31-.72,1.27,1.27,0,0,0-1-.32,1.06,1.06,0,0,0-1.2,1.09,1,1,0,0,0,.37.78,1.4,1.4,0,0,0,.86.27A1.22,1.22,0,0,0,126.74,175.65Z" transform="translate(0 -4.55)"/><path d="M129.53,179h1V180h-1Z" transform="translate(0 -4.55)"/><path d="M132.14,178.46a3,3,0,0,1,1.27-1.21l.93-.54a4.88,4.88,0,0,0,.89-.63,1.36,1.36,0,0,0,0-1.9,1.32,1.32,0,0,0-1-.36,1.27,1.27,0,0,0-1.25.69,2.29,2.29,0,0,0-.21,1h-.89a3.19,3.19,0,0,1,.33-1.49,2.13,2.13,0,0,1,2-1,2.21,2.21,0,0,1,1.76.65,2.15,2.15,0,0,1,.55,1.44,2,2,0,0,1-.59,1.44,6,6,0,0,1-1.23.84l-.66.37a5.89,5.89,0,0,0-.76.5,1.85,1.85,0,0,0-.61,1h3.82V180h-4.8A4,4,0,0,1,132.14,178.46Z" transform="translate(0 -4.55)"/><path d="M138,175.09v-.68a3.43,3.43,0,0,0,1.33-.31,1.51,1.51,0,0,0,.56-1h.7v7h-.94v-4.95Z" transform="translate(0 -4.55)"/><path d="M146.19,181.06a.62.62,0,0,0,.47-.47,1.33,1.33,0,0,0,.07-.43v-.06s0,0,0-.06h-.53V179h1v1a2.19,2.19,0,0,1-.23,1,1.09,1.09,0,0,1-.81.54Z" transform="translate(0 -4.55)"/><path d="M154.23,180v-1.71h-3.06v-.86l3.2-4.44h.74v4.53h1v.77h-1V180Zm0-2.48v-3.17L152,177.56Z" transform="translate(0 -4.55)"/><path d="M159.79,180v-1.71h-3.06v-.86l3.2-4.44h.74v4.53h1v.77h-1V180Zm0-2.48v-3.17l-2.24,3.17Z" transform="translate(0 -4.55)"/><path d="M162.89,179h1V180h-1Z" transform="translate(0 -4.55)"/><path d="M169.48,174.16a5.06,5.06,0,0,1,.47,2.37,5.76,5.76,0,0,1-.42,2.36,2.1,2.1,0,0,1-2,1.34,2,2,0,0,1-1.87-1.1,5,5,0,0,1-.51-2.45,6.18,6.18,0,0,1,.3-2,2.11,2.11,0,0,1,2.09-1.6A2.07,2.07,0,0,1,169.48,174.16Zm-.88,4.66a4.36,4.36,0,0,0,.4-2.25,5.44,5.44,0,0,0-.29-2,1.12,1.12,0,0,0-1.14-.77,1.19,1.19,0,0,0-1.14.73,5,5,0,0,0-.36,2.15,5.41,5.41,0,0,0,.23,1.72,1.25,1.25,0,0,0,2.3.38Z" transform="translate(0 -4.55)"/><path d="M173.7,180v-1.71h-3.07v-.86l3.2-4.44h.74v4.53h1v.77h-1V180Zm0-2.48v-3.17l-2.24,3.17Z" transform="translate(0 -4.55)"/><path d="M176.28,182.08a15.76,15.76,0,0,0,1-2.21,7.89,7.89,0,0,0,.35-2.46,8.12,8.12,0,0,0-.4-2.58,14.86,14.86,0,0,0-1-2.08h.59c.5.8.8,1.29.91,1.48a4.92,4.92,0,0,1,.34.77,6.29,6.29,0,0,1,.34,1.21,6.62,6.62,0,0,1,.1,1.15,6.69,6.69,0,0,1-.46,2.57,13.72,13.72,0,0,1-1.2,2.15Z" transform="translate(0 -4.55)"/><line class="cls-1" x1="183.51" y1="143.31" x2="116.95" y2="178.32"/><path class="cls-1" d="M148.25,517.47a1.42,1.42,0,1,0-1.41,1.42,1.41,1.41,0,0,0,1.41-1.42" transform="translate(0 -4.55)"/><path d="M152.62,507.35a16.3,16.3,0,0,0-1,2.19,8,8,0,0,0-.35,2.47,7.91,7.91,0,0,0,.4,2.59,15.41,15.41,0,0,0,1,2.08h-.59c-.48-.74-.77-1.22-.89-1.42s-.23-.49-.37-.84a6.81,6.81,0,0,1-.38-1.54,7.81,7.81,0,0,1,0-.81,6.94,6.94,0,0,1,.45-2.58,17,17,0,0,1,1.2-2.14Z" transform="translate(0 -4.55)"/><path d="M154,509.69V509a3.43,3.43,0,0,0,1.33-.31,1.51,1.51,0,0,0,.56-1h.7v7h-.94v-4.95Z" transform="translate(0 -4.55)"/><path d="M159.51,510.54a1.36,1.36,0,0,1-.39-1,1.81,1.81,0,0,1,.57-1.34,2.16,2.16,0,0,1,1.6-.57,2.25,2.25,0,0,1,1.58.53,1.66,1.66,0,0,1,.57,1.24,1.62,1.62,0,0,1-.33,1.06,2,2,0,0,1-.58.45,2.3,2.3,0,0,1,.69.46,1.77,1.77,0,0,1,.46,1.27,2.16,2.16,0,0,1-.62,1.57,2.33,2.33,0,0,1-1.75.64,2.72,2.72,0,0,1-1.73-.56,1.91,1.91,0,0,1-.7-1.61,1.78,1.78,0,0,1,1.2-1.76A1.76,1.76,0,0,1,159.51,510.54Zm2.83,3.17a1.2,1.2,0,0,0,.41-1,1.28,1.28,0,0,0-.42-1,1.61,1.61,0,0,0-1.06-.35,1.47,1.47,0,0,0-1,.36,1.25,1.25,0,0,0-.4,1,1.34,1.34,0,0,0,.37.95,1.45,1.45,0,0,0,1.12.4A1.53,1.53,0,0,0,162.34,513.71Zm-.16-3.46a1,1,0,0,0,0-1.5,1.26,1.26,0,0,0-.95-.32,1,1,0,0,0-1.2,1.09.91.91,0,0,0,.36.77,1.37,1.37,0,0,0,.86.28A1.22,1.22,0,0,0,162.18,510.25Z" transform="translate(0 -4.55)"/><path d="M165,513.57h1v1.07h-1Z" transform="translate(0 -4.55)"/><path d="M172.13,507.76v.77a7.73,7.73,0,0,0-.9,1.14,12.26,12.26,0,0,0-1,1.74,11.64,11.64,0,0,0-.64,1.67c-.1.32-.22.84-.37,1.56h-1a12,12,0,0,1,1.46-4,13,13,0,0,1,1.41-2h-3.87v-.89Z" transform="translate(0 -4.55)"/><path d="M173.69,512.85a1.2,1.2,0,0,0,.7,1,1.66,1.66,0,0,0,.72.15,1.36,1.36,0,0,0,1.16-.5,1.79,1.79,0,0,0,.38-1.1,1.42,1.42,0,0,0-.45-1.13,1.53,1.53,0,0,0-1.07-.4,1.51,1.51,0,0,0-1.33.66l-.77,0,.54-3.77h3.63v.85h-3l-.3,1.94a2.28,2.28,0,0,1,.46-.27,2.46,2.46,0,0,1,2.54.46,2,2,0,0,1,.66,1.57,2.7,2.7,0,0,1-.61,1.75,2.38,2.38,0,0,1-1.95.75,2.52,2.52,0,0,1-1.52-.48,1.92,1.92,0,0,1-.73-1.48Z" transform="translate(0 -4.55)"/><path d="M181.63,515.66a.62.62,0,0,0,.47-.47,1.35,1.35,0,0,0,.08-.43s0,0,0-.06a.13.13,0,0,0,0-.06h-.53v-1.07h1v1a2.19,2.19,0,0,1-.23,1,1.09,1.09,0,0,1-.81.54Z" transform="translate(0 -4.55)"/><path d="M186.77,511.4h2.45v.9h-2.45Z" transform="translate(0 -4.55)"/><path d="M194.91,507.76v.77a8.59,8.59,0,0,0-.89,1.14,12.26,12.26,0,0,0-1,1.74,11.64,11.64,0,0,0-.64,1.67c-.1.32-.22.84-.37,1.56h-1a12,12,0,0,1,1.46-4,13,13,0,0,1,1.41-2h-3.87v-.89Z" transform="translate(0 -4.55)"/><path d="M198.57,514.64v-1.71H195.5v-.86l3.2-4.45h.75v4.54h1v.77h-1v1.71Zm0-2.48V509l-2.24,3.17Z" transform="translate(0 -4.55)"/><path d="M201.66,513.57h1v1.07h-1Z" transform="translate(0 -4.55)"/><path d="M208.25,508.76a4.94,4.94,0,0,1,.47,2.37,5.76,5.76,0,0,1-.42,2.36,2.08,2.08,0,0,1-2,1.34,2,2,0,0,1-1.88-1.1,5,5,0,0,1-.51-2.45,5.92,5.92,0,0,1,.31-2,2.1,2.1,0,0,1,2.08-1.6A2.06,2.06,0,0,1,208.25,508.76Zm-.88,4.66a4.36,4.36,0,0,0,.41-2.26,5.5,5.5,0,0,0-.3-2,1.1,1.1,0,0,0-1.14-.76,1.18,1.18,0,0,0-1.13.73,6.54,6.54,0,0,0-.13,3.86,1.24,1.24,0,0,0,1.2,1A1.26,1.26,0,0,0,207.37,513.42Z" transform="translate(0 -4.55)"/><path d="M213.82,508.76a5.07,5.07,0,0,1,.46,2.37,5.76,5.76,0,0,1-.42,2.36,2.08,2.08,0,0,1-2,1.34,2,2,0,0,1-1.88-1.1,5,5,0,0,1-.51-2.45,5.92,5.92,0,0,1,.31-2,2.21,2.21,0,0,1,4-.48Zm-.89,4.66a4.36,4.36,0,0,0,.41-2.26,5.5,5.5,0,0,0-.3-2,1.1,1.1,0,0,0-1.14-.76,1.19,1.19,0,0,0-1.13.73,6.54,6.54,0,0,0-.13,3.86,1.24,1.24,0,0,0,1.2,1A1.26,1.26,0,0,0,212.93,513.42Z" transform="translate(0 -4.55)"/><path d="M215.06,516.68a18.61,18.61,0,0,0,1-2.21,8.21,8.21,0,0,0,.34-2.46,7.85,7.85,0,0,0-.4-2.58,14.86,14.86,0,0,0-1-2.08h.59c.5.8.81,1.29.91,1.48a5.92,5.92,0,0,1,.35.77,7,7,0,0,1,.33,1.21,6.62,6.62,0,0,1,.1,1.15,6.69,6.69,0,0,1-.46,2.57,14.33,14.33,0,0,1-1.19,2.15Z" transform="translate(0 -4.55)"/><path class="cls-1" d="M123.48,520.9a1.42,1.42,0,1,0-1.42,1.42,1.42,1.42,0,0,0,1.42-1.42" transform="translate(0 -4.55)"/><path d="M127.85,510.78a16.3,16.3,0,0,0-1,2.19,8,8,0,0,0-.35,2.47,7.91,7.91,0,0,0,.4,2.59,15.41,15.41,0,0,0,1,2.08h-.59c-.48-.75-.77-1.22-.89-1.42s-.23-.49-.37-.84a6.81,6.81,0,0,1-.38-1.54,7.81,7.81,0,0,1,0-.81,6.94,6.94,0,0,1,.45-2.58,15.77,15.77,0,0,1,1.2-2.14Z" transform="translate(0 -4.55)"/><path d="M129.18,513.11v-.67a3.43,3.43,0,0,0,1.33-.31,1.51,1.51,0,0,0,.56-1h.69v7h-.93v-5Z" transform="translate(0 -4.55)"/><path d="M138.45,512.19a4.94,4.94,0,0,1,.47,2.37,5.76,5.76,0,0,1-.42,2.36,2.08,2.08,0,0,1-2,1.34,2,2,0,0,1-1.88-1.1,5,5,0,0,1-.51-2.45,5.92,5.92,0,0,1,.31-2,2.1,2.1,0,0,1,2.08-1.6A2.06,2.06,0,0,1,138.45,512.19Zm-.88,4.66a4.36,4.36,0,0,0,.41-2.26,5.5,5.5,0,0,0-.3-2,1.11,1.11,0,0,0-1.14-.77,1.18,1.18,0,0,0-1.13.74,6.54,6.54,0,0,0-.13,3.86,1.24,1.24,0,0,0,1.2,1A1.26,1.26,0,0,0,137.57,516.85Z" transform="translate(0 -4.55)"/><path d="M140.2,517h1v1.07h-1Z" transform="translate(0 -4.55)"/><path d="M146.79,512.19a4.94,4.94,0,0,1,.47,2.37,5.76,5.76,0,0,1-.42,2.36,2.08,2.08,0,0,1-2,1.34,2,2,0,0,1-1.88-1.1,5,5,0,0,1-.51-2.45,5.92,5.92,0,0,1,.31-2,2.1,2.1,0,0,1,2.08-1.6A2.06,2.06,0,0,1,146.79,512.19Zm-.88,4.66a4.36,4.36,0,0,0,.41-2.26,5.5,5.5,0,0,0-.3-2,1.11,1.11,0,0,0-1.14-.77,1.18,1.18,0,0,0-1.13.74,6.54,6.54,0,0,0-.13,3.86,1.24,1.24,0,0,0,1.2,1A1.26,1.26,0,0,0,145.91,516.85Z" transform="translate(0 -4.55)"/><path d="M148.64,513.11v-.67a3.43,3.43,0,0,0,1.33-.31,1.51,1.51,0,0,0,.56-1h.7v7h-.94v-5Z" transform="translate(0 -4.55)"/><path d="M156.86,519.09a.62.62,0,0,0,.47-.47,1.33,1.33,0,0,0,.07-.43v-.06a.13.13,0,0,0,0-.06h-.53V517h1v1a2.19,2.19,0,0,1-.23,1,1.09,1.09,0,0,1-.81.54Z" transform="translate(0 -4.55)"/><path d="M162,514.83h2.45v.9H162Z" transform="translate(0 -4.55)"/><path d="M170.14,511.19V512a8.59,8.59,0,0,0-.89,1.14,12.26,12.26,0,0,0-1,1.74,13.14,13.14,0,0,0-.65,1.67q-.13.48-.36,1.56h-1a12,12,0,0,1,1.46-4,13.62,13.62,0,0,1,1.41-2h-3.87v-.88Z" transform="translate(0 -4.55)"/><path d="M171.71,516.28a1.22,1.22,0,0,0,.7,1,1.66,1.66,0,0,0,.72.15,1.37,1.37,0,0,0,1.16-.5,1.79,1.79,0,0,0,.38-1.1,1.42,1.42,0,0,0-.45-1.13,1.72,1.72,0,0,0-1.85-.23,1.74,1.74,0,0,0-.56.49l-.76,0,.53-3.77h3.64V512h-3L172,514a2,2,0,0,1,.46-.27,2.29,2.29,0,0,1,.9-.17,2.32,2.32,0,0,1,1.63.62,2.06,2.06,0,0,1,.67,1.58,2.7,2.7,0,0,1-.61,1.75,2.39,2.39,0,0,1-2,.75,2.49,2.49,0,0,1-1.51-.48,1.89,1.89,0,0,1-.73-1.48Z" transform="translate(0 -4.55)"/><path d="M176.89,517h1v1.07h-1Z" transform="translate(0 -4.55)"/><path d="M179.5,516.49a3,3,0,0,1,1.27-1.21l.94-.54a4.72,4.72,0,0,0,.88-.63,1.36,1.36,0,0,0,0-1.9,1.32,1.32,0,0,0-1-.36,1.27,1.27,0,0,0-1.25.69,2.42,2.42,0,0,0-.21,1h-.89a3.05,3.05,0,0,1,.34-1.48,2.1,2.1,0,0,1,2-1,2.21,2.21,0,0,1,1.76.65,2.15,2.15,0,0,1,.55,1.44,2,2,0,0,1-.59,1.44,6.13,6.13,0,0,1-1.22.84l-.67.37a5,5,0,0,0-.76.5,1.85,1.85,0,0,0-.61,1h3.82v.83h-4.8A4.17,4.17,0,0,1,179.5,516.49Z" transform="translate(0 -4.55)"/><path d="M185.33,513.11v-.67a3.43,3.43,0,0,0,1.33-.31,1.51,1.51,0,0,0,.56-1h.7v7H187v-5Z" transform="translate(0 -4.55)"/><path d="M190.29,520.11a18.61,18.61,0,0,0,1-2.21,8.21,8.21,0,0,0,.34-2.46,7.85,7.85,0,0,0-.4-2.58,14.35,14.35,0,0,0-1-2.08h.59c.5.8.81,1.29.91,1.48a5.92,5.92,0,0,1,.35.77,7,7,0,0,1,.33,1.21,6.62,6.62,0,0,1,.1,1.15,6.69,6.69,0,0,1-.46,2.57,14.33,14.33,0,0,1-1.19,2.15Z" transform="translate(0 -4.55)"/><path class="cls-1" d="M120.92,588.34a1.42,1.42,0,1,0-1.41,1.42,1.42,1.42,0,0,0,1.41-1.42" transform="translate(0 -4.55)"/><path d="M125.3,578.22a16.3,16.3,0,0,0-1,2.19,8,8,0,0,0-.35,2.47,7.91,7.91,0,0,0,.4,2.59,15.41,15.41,0,0,0,1,2.08h-.59c-.48-.74-.77-1.22-.89-1.42s-.23-.49-.37-.84a6.81,6.81,0,0,1-.38-1.54,7.65,7.65,0,0,1,0-.81,6.94,6.94,0,0,1,.45-2.58,15.77,15.77,0,0,1,1.2-2.14Z" transform="translate(0 -4.55)"/><path d="M127,583.81a1.14,1.14,0,0,0,.56,1,1.25,1.25,0,0,0,.61.14,1.34,1.34,0,0,0,1.07-.52,4.24,4.24,0,0,0,.63-2.13,1.6,1.6,0,0,1-.72.65,2.24,2.24,0,0,1-.93.19,2.09,2.09,0,0,1-1.6-.63,2.29,2.29,0,0,1-.59-1.62,2.57,2.57,0,0,1,.58-1.67,2.06,2.06,0,0,1,1.72-.73,2.12,2.12,0,0,1,2.11,1.38,4.94,4.94,0,0,1,.32,1.89,6.19,6.19,0,0,1-.39,2.28,2.23,2.23,0,0,1-2.17,1.65,2.07,2.07,0,0,1-1.55-.54,1.83,1.83,0,0,1-.54-1.35Zm2.29-1.78a1.45,1.45,0,0,0,.43-1.2,1.59,1.59,0,0,0-.38-1.15,1.37,1.37,0,0,0-1-.37,1.31,1.31,0,0,0-1,.43,1.68,1.68,0,0,0-.38,1.15,1.59,1.59,0,0,0,.34,1.08,1.29,1.29,0,0,0,1.06.41A1.51,1.51,0,0,0,129.29,582Z" transform="translate(0 -4.55)"/><path d="M132.09,584.44h1v1.07h-1Z" transform="translate(0 -4.55)"/><path d="M135,580.56v-.68a3.43,3.43,0,0,0,1.33-.31,1.51,1.51,0,0,0,.56-1h.69v7h-.93v-5Z" transform="translate(0 -4.55)"/><path d="M140.53,580.56v-.68a3.43,3.43,0,0,0,1.33-.31,1.51,1.51,0,0,0,.56-1h.7v7h-.94v-5Z" transform="translate(0 -4.55)"/><path d="M148.75,586.53a.62.62,0,0,0,.47-.47,1.33,1.33,0,0,0,.07-.43v-.06a.13.13,0,0,0,0-.06h-.53v-1.07h1v1a2.19,2.19,0,0,1-.23,1,1.09,1.09,0,0,1-.81.54Z" transform="translate(0 -4.55)"/><path d="M153.89,582.27h2.45v.9h-2.45Z" transform="translate(0 -4.55)"/><path d="M158.13,583.81a1.12,1.12,0,0,0,.56,1,1.22,1.22,0,0,0,.61.14,1.34,1.34,0,0,0,1.07-.52,4.24,4.24,0,0,0,.63-2.13,1.65,1.65,0,0,1-.72.65,2.24,2.24,0,0,1-.93.19,2.07,2.07,0,0,1-1.6-.63,2.29,2.29,0,0,1-.59-1.62,2.57,2.57,0,0,1,.58-1.67,2.05,2.05,0,0,1,1.71-.73,2.1,2.1,0,0,1,2.11,1.38,4.74,4.74,0,0,1,.33,1.89,6.19,6.19,0,0,1-.39,2.28,2.24,2.24,0,0,1-2.17,1.65,2.11,2.11,0,0,1-1.56-.54,1.86,1.86,0,0,1-.53-1.35Zm2.29-1.78a1.45,1.45,0,0,0,.43-1.2,1.55,1.55,0,0,0-.39-1.15,1.37,1.37,0,0,0-1-.37,1.27,1.27,0,0,0-1,.43,1.68,1.68,0,0,0-.38,1.15,1.64,1.64,0,0,0,.33,1.08,1.31,1.31,0,0,0,1.06.41A1.51,1.51,0,0,0,160.42,582Z" transform="translate(0 -4.55)"/><path d="M163.69,583.81a1.14,1.14,0,0,0,.56,1,1.25,1.25,0,0,0,.61.14,1.34,1.34,0,0,0,1.07-.52,4.24,4.24,0,0,0,.63-2.13,1.6,1.6,0,0,1-.72.65,2.24,2.24,0,0,1-.93.19,2.07,2.07,0,0,1-1.6-.63,2.29,2.29,0,0,1-.59-1.62,2.57,2.57,0,0,1,.58-1.67,2.06,2.06,0,0,1,1.72-.73,2.12,2.12,0,0,1,2.11,1.38,4.94,4.94,0,0,1,.32,1.89,6.19,6.19,0,0,1-.39,2.28,2.23,2.23,0,0,1-2.17,1.65,2.07,2.07,0,0,1-1.55-.54,1.83,1.83,0,0,1-.54-1.35ZM166,582a1.45,1.45,0,0,0,.43-1.2,1.55,1.55,0,0,0-.39-1.15,1.34,1.34,0,0,0-1-.37,1.29,1.29,0,0,0-1,.43,1.68,1.68,0,0,0-.38,1.15A1.59,1.59,0,0,0,164,582a1.29,1.29,0,0,0,1.06.41A1.51,1.51,0,0,0,166,582Z" transform="translate(0 -4.55)"/><path d="M168.78,584.44h1v1.07h-1Z" transform="translate(0 -4.55)"/><path d="M175.37,579.63a5.06,5.06,0,0,1,.47,2.37,5.76,5.76,0,0,1-.42,2.36,2.09,2.09,0,0,1-2,1.34,2,2,0,0,1-1.87-1.1,5,5,0,0,1-.51-2.45,6.18,6.18,0,0,1,.3-2,2.11,2.11,0,0,1,2.09-1.6A2.07,2.07,0,0,1,175.37,579.63Zm-.88,4.66a4.38,4.38,0,0,0,.4-2.26,5.51,5.51,0,0,0-.29-2,1.12,1.12,0,0,0-1.14-.76,1.19,1.19,0,0,0-1.14.73,5,5,0,0,0-.36,2.15,5.3,5.3,0,0,0,.23,1.71,1.25,1.25,0,0,0,2.3.39Z" transform="translate(0 -4.55)"/><path d="M180.93,579.63a4.94,4.94,0,0,1,.47,2.37,5.76,5.76,0,0,1-.42,2.36,2.08,2.08,0,0,1-2,1.34,2,2,0,0,1-1.88-1.1,5,5,0,0,1-.51-2.45,5.92,5.92,0,0,1,.31-2,2.1,2.1,0,0,1,2.08-1.6A2.06,2.06,0,0,1,180.93,579.63Zm-.88,4.66a4.36,4.36,0,0,0,.41-2.26,5.5,5.5,0,0,0-.3-2,1.1,1.1,0,0,0-1.14-.76,1.18,1.18,0,0,0-1.13.73,6.54,6.54,0,0,0-.13,3.86,1.24,1.24,0,0,0,1.2,1A1.26,1.26,0,0,0,180.05,584.29Z" transform="translate(0 -4.55)"/><path d="M182.17,587.55a17.52,17.52,0,0,0,1-2.21,8.21,8.21,0,0,0,.34-2.46,7.85,7.85,0,0,0-.4-2.58,14.86,14.86,0,0,0-1-2.08h.59c.5.8.8,1.29.91,1.48a5.92,5.92,0,0,1,.35.77,7,7,0,0,1,.33,1.21,6.62,6.62,0,0,1,.1,1.15,6.69,6.69,0,0,1-.46,2.57,13.72,13.72,0,0,1-1.2,2.15Z" transform="translate(0 -4.55)"/><path class="cls-1" d="M3.12,573a1.42,1.42,0,1,0-1.43,1.41A1.41,1.41,0,0,0,3.12,573" transform="translate(0 -4.55)"/><path d="M7.49,562.85a16.3,16.3,0,0,0-1,2.19,8,8,0,0,0-.35,2.47,7.91,7.91,0,0,0,.4,2.59,15.41,15.41,0,0,0,1,2.08H6.92c-.48-.74-.77-1.22-.89-1.42s-.23-.49-.37-.84a6.81,6.81,0,0,1-.38-1.54,7.81,7.81,0,0,1,0-.81A6.94,6.94,0,0,1,5.68,565a14.72,14.72,0,0,1,1.2-2.14Z" transform="translate(0 -4.55)"/><path d="M8.28,566.9h2.45v.9H8.28Z" transform="translate(0 -4.55)"/><path d="M12,569.65a2.56,2.56,0,0,1-.56-1.66h.92a2.24,2.24,0,0,0,.26,1,1.32,1.32,0,0,0,1.23.56,1.61,1.61,0,0,0,1.11-.38,1.19,1.19,0,0,0,.42-.95,1.1,1.1,0,0,0-.44-1,2.15,2.15,0,0,0-1.23-.29h-.36v-.78l.23,0h.2a1.74,1.74,0,0,0,.81-.16,1,1,0,0,0,.56-1,1,1,0,0,0-.37-.8,1.39,1.39,0,0,0-.87-.28,1.27,1.27,0,0,0-1.21.58,2,2,0,0,0-.21.92h-.87a2.64,2.64,0,0,1,.31-1.33,2,2,0,0,1,1.89-1,2.56,2.56,0,0,1,1.66.48,1.68,1.68,0,0,1,.58,1.38,1.52,1.52,0,0,1-.34,1,1.54,1.54,0,0,1-.56.4A1.5,1.5,0,0,1,16,567a1.75,1.75,0,0,1,.31,1.06,2.16,2.16,0,0,1-.66,1.63,2.6,2.6,0,0,1-1.87.63A2.23,2.23,0,0,1,12,569.65Z" transform="translate(0 -4.55)"/><path d="M17.44,568.56a3,3,0,0,1,1.27-1.21l.94-.54a4.72,4.72,0,0,0,.88-.63,1.36,1.36,0,0,0,0-1.9,1.31,1.31,0,0,0-1-.36,1.27,1.27,0,0,0-1.25.69,2.42,2.42,0,0,0-.21,1h-.89a3.05,3.05,0,0,1,.34-1.48,2.1,2.1,0,0,1,2-1,2.21,2.21,0,0,1,1.76.65,2.15,2.15,0,0,1,.55,1.44,2,2,0,0,1-.59,1.44,5.84,5.84,0,0,1-1.22.84l-.67.37a4.4,4.4,0,0,0-.75.5,1.87,1.87,0,0,0-.62.95h3.82v.83h-4.8A4.17,4.17,0,0,1,17.44,568.56Z" transform="translate(0 -4.55)"/><path d="M23.17,569.07h1v1.07h-1Z" transform="translate(0 -4.55)"/><path d="M28.42,570.14v-1.71H25.35v-.86l3.2-4.45h.75v4.54h1v.77h-1v1.71Zm0-2.48v-3.17l-2.24,3.17Z" transform="translate(0 -4.55)"/><path d="M31.89,568.35a1.2,1.2,0,0,0,.7,1,1.66,1.66,0,0,0,.72.15,1.37,1.37,0,0,0,1.16-.5,1.79,1.79,0,0,0,.38-1.1,1.42,1.42,0,0,0-.45-1.13,1.53,1.53,0,0,0-1.07-.4,1.51,1.51,0,0,0-1.33.66l-.77,0,.54-3.77H35.4v.85h-3l-.3,1.94a2,2,0,0,1,.46-.27,2.46,2.46,0,0,1,2.54.46,2,2,0,0,1,.66,1.57,2.7,2.7,0,0,1-.61,1.75,2.38,2.38,0,0,1-2,.75,2.52,2.52,0,0,1-1.52-.48,1.92,1.92,0,0,1-.73-1.48Z" transform="translate(0 -4.55)"/><path d="M39.83,571.16a.62.62,0,0,0,.47-.47,1.33,1.33,0,0,0,.07-.43v-.06a.13.13,0,0,0,0-.06h-.53v-1.07h1v1a2.19,2.19,0,0,1-.23,1,1.09,1.09,0,0,1-.81.54Z" transform="translate(0 -4.55)"/><path d="M45,566.9h2.45v.9H45Z" transform="translate(0 -4.55)"/><path d="M49.21,568.44a1.14,1.14,0,0,0,.56,1,1.22,1.22,0,0,0,.61.14,1.34,1.34,0,0,0,1.07-.52,4.24,4.24,0,0,0,.63-2.13,1.6,1.6,0,0,1-.72.65,2.24,2.24,0,0,1-.93.19,2.07,2.07,0,0,1-1.6-.63,2.29,2.29,0,0,1-.59-1.62,2.57,2.57,0,0,1,.58-1.67,2.06,2.06,0,0,1,1.72-.73,2.1,2.1,0,0,1,2.1,1.38A4.74,4.74,0,0,1,53,566.4a6.19,6.19,0,0,1-.39,2.28,2.24,2.24,0,0,1-2.17,1.65,2.07,2.07,0,0,1-1.55-.54,1.83,1.83,0,0,1-.54-1.35Zm2.29-1.78a1.45,1.45,0,0,0,.43-1.2,1.55,1.55,0,0,0-.39-1.15,1.35,1.35,0,0,0-1-.37,1.29,1.29,0,0,0-1,.43,1.68,1.68,0,0,0-.38,1.15,1.59,1.59,0,0,0,.34,1.08,1.29,1.29,0,0,0,1.06.41A1.51,1.51,0,0,0,51.5,566.66Z" transform="translate(0 -4.55)"/><path d="M54.24,569.65a2.56,2.56,0,0,1-.56-1.66h.92a2.24,2.24,0,0,0,.26,1,1.32,1.32,0,0,0,1.23.56,1.63,1.63,0,0,0,1.12-.38,1.19,1.19,0,0,0,.42-.95,1.1,1.1,0,0,0-.45-1A2.14,2.14,0,0,0,56,566.9h-.37v-.78l.23,0H56a1.74,1.74,0,0,0,.81-.16,1,1,0,0,0,.56-1,1,1,0,0,0-.37-.8,1.39,1.39,0,0,0-.86-.28,1.28,1.28,0,0,0-1.22.58,2.15,2.15,0,0,0-.21.92h-.87a2.75,2.75,0,0,1,.31-1.33,2,2,0,0,1,1.89-1,2.55,2.55,0,0,1,1.66.48A1.68,1.68,0,0,1,58.3,565a1.52,1.52,0,0,1-.34,1,1.54,1.54,0,0,1-.56.4,1.47,1.47,0,0,1,.86.58,1.75,1.75,0,0,1,.31,1.06,2.16,2.16,0,0,1-.66,1.63,2.6,2.6,0,0,1-1.87.63A2.23,2.23,0,0,1,54.24,569.65Z" transform="translate(0 -4.55)"/><path d="M59.86,569.07h1v1.07h-1Z" transform="translate(0 -4.55)"/><path d="M63,568.35a1.2,1.2,0,0,0,.7,1,1.66,1.66,0,0,0,.72.15,1.37,1.37,0,0,0,1.16-.5,1.78,1.78,0,0,0,.37-1.1,1.41,1.41,0,0,0-.44-1.13,1.72,1.72,0,0,0-1.85-.23,1.74,1.74,0,0,0-.56.49l-.76,0,.53-3.77h3.64v.85h-3l-.29,1.94a2,2,0,0,1,.46-.27,2.44,2.44,0,0,1,2.53.46,2,2,0,0,1,.67,1.57,2.7,2.7,0,0,1-.61,1.75,2.39,2.39,0,0,1-2,.75,2.49,2.49,0,0,1-1.51-.48,1.89,1.89,0,0,1-.73-1.48Z" transform="translate(0 -4.55)"/><path d="M68.3,566a1.36,1.36,0,0,1-.39-1,1.81,1.81,0,0,1,.57-1.34,2.16,2.16,0,0,1,1.6-.57,2.25,2.25,0,0,1,1.58.53,1.66,1.66,0,0,1,.57,1.24A1.62,1.62,0,0,1,71.9,566a2,2,0,0,1-.58.45,2.3,2.3,0,0,1,.69.46,1.77,1.77,0,0,1,.46,1.27,2.16,2.16,0,0,1-.62,1.57,2.33,2.33,0,0,1-1.75.64,2.72,2.72,0,0,1-1.73-.56,1.91,1.91,0,0,1-.7-1.61,1.78,1.78,0,0,1,1.2-1.76A1.76,1.76,0,0,1,68.3,566Zm2.83,3.17a1.2,1.2,0,0,0,.41-1,1.28,1.28,0,0,0-.42-1,1.61,1.61,0,0,0-1.06-.35,1.47,1.47,0,0,0-1,.36,1.25,1.25,0,0,0-.4,1,1.34,1.34,0,0,0,.37.95,1.45,1.45,0,0,0,1.12.4A1.53,1.53,0,0,0,71.13,569.21ZM71,565.75a1,1,0,0,0,0-1.5,1.26,1.26,0,0,0-.95-.32,1,1,0,0,0-1.2,1.09.91.91,0,0,0,.36.77,1.37,1.37,0,0,0,.86.28A1.22,1.22,0,0,0,71,565.75Z" transform="translate(0 -4.55)"/><path d="M73.26,572.18a18.61,18.61,0,0,0,1-2.21,8.21,8.21,0,0,0,.34-2.46,7.85,7.85,0,0,0-.4-2.58,14.86,14.86,0,0,0-1-2.08h.59c.5.8.81,1.29.91,1.48a5.92,5.92,0,0,1,.35.77,7,7,0,0,1,.33,1.21,6.62,6.62,0,0,1,.1,1.15,6.69,6.69,0,0,1-.46,2.57,14.33,14.33,0,0,1-1.19,2.15Z" transform="translate(0 -4.55)"/><line class="cls-1" x1="146.83" y1="512.92" x2="122.06" y2="516.35"/><line class="cls-1" x1="122.06" y1="516.35" x2="119.51" y2="583.78"/><line class="cls-1" x1="119.51" y1="583.78" x2="1.7" y2="568.42"/><line class="cls-1" x1="1.7" y1="568.42" x2="146.83" y2="512.92"/><path class="cls-1" d="M123.48,520.9a1.42,1.42,0,1,0-1.42,1.42,1.42,1.42,0,0,0,1.42-1.42" transform="translate(0 -4.55)"/><path class="cls-1" d="M91.9,266.52a1.42,1.42,0,1,0-1.42,1.42,1.42,1.42,0,0,0,1.42-1.42" transform="translate(0 -4.55)"/><path d="M96.27,256.4a16.3,16.3,0,0,0-1,2.19,8,8,0,0,0-.35,2.47,7.91,7.91,0,0,0,.4,2.59,15.41,15.41,0,0,0,1,2.08H95.7c-.48-.74-.77-1.22-.89-1.42s-.23-.49-.37-.84a6.81,6.81,0,0,1-.38-1.54,7.81,7.81,0,0,1,0-.81,6.94,6.94,0,0,1,.45-2.58,14.72,14.72,0,0,1,1.2-2.14Z" transform="translate(0 -4.55)"/><path d="M97.06,260.45h2.45v.9H97.06Z" transform="translate(0 -4.55)"/><path d="M100.93,258.74v-.68a3.43,3.43,0,0,0,1.33-.31,1.51,1.51,0,0,0,.56-1h.69v7h-.93v-4.95Z" transform="translate(0 -4.55)"/><path d="M106.39,262.62h1v1.07h-1Z" transform="translate(0 -4.55)"/><path d="M109.27,258.74v-.68a3.43,3.43,0,0,0,1.33-.31,1.51,1.51,0,0,0,.56-1h.69v7h-.93v-4.95Z" transform="translate(0 -4.55)"/><path d="M114.68,263.2a2.51,2.51,0,0,1-.56-1.66H115a2.24,2.24,0,0,0,.26,1,1.32,1.32,0,0,0,1.23.56,1.63,1.63,0,0,0,1.12-.38,1.19,1.19,0,0,0,.42-.95,1.1,1.1,0,0,0-.45-1,2.14,2.14,0,0,0-1.22-.29H116v-.78l.23,0h.2a1.88,1.88,0,0,0,.81-.16,1,1,0,0,0,.56-1,1,1,0,0,0-.37-.8,1.37,1.37,0,0,0-.86-.28,1.28,1.28,0,0,0-1.22.58,2.15,2.15,0,0,0-.21.92h-.87a2.75,2.75,0,0,1,.31-1.33,2,2,0,0,1,1.89-1,2.55,2.55,0,0,1,1.66.48,1.68,1.68,0,0,1,.58,1.38,1.52,1.52,0,0,1-.34,1,1.54,1.54,0,0,1-.56.4,1.47,1.47,0,0,1,.86.58,1.75,1.75,0,0,1,.31,1.06,2.16,2.16,0,0,1-.66,1.63,2.6,2.6,0,0,1-1.87.63A2.19,2.19,0,0,1,114.68,263.2Z" transform="translate(0 -4.55)"/><path d="M123.05,264.71a.62.62,0,0,0,.47-.47,1.33,1.33,0,0,0,.07-.43v-.06a.13.13,0,0,0,0-.06h-.53v-1.07h1v1a2.19,2.19,0,0,1-.23,1,1.09,1.09,0,0,1-.81.54Z" transform="translate(0 -4.55)"/><path d="M128.73,258.74v-.68a3.48,3.48,0,0,0,1.33-.31,1.51,1.51,0,0,0,.56-1h.69v7h-.93v-4.95Z" transform="translate(0 -4.55)"/><path d="M136.65,263.69V262h-3.06v-.86l3.2-4.45h.74v4.54h1V262h-1v1.71Zm0-2.48V258l-2.24,3.18Z" transform="translate(0 -4.55)"/><path d="M139.75,262.62h1v1.07h-1Z" transform="translate(0 -4.55)"/><path d="M142.91,261.9a1.22,1.22,0,0,0,.7,1,1.66,1.66,0,0,0,.72.15,1.37,1.37,0,0,0,1.16-.5,1.78,1.78,0,0,0,.37-1.1,1.41,1.41,0,0,0-.44-1.13,1.55,1.55,0,0,0-1.08-.4,1.54,1.54,0,0,0-.77.17,1.74,1.74,0,0,0-.56.49l-.76,0,.53-3.77h3.64v.85h-3l-.3,1.94a2.33,2.33,0,0,1,.47-.27,2.29,2.29,0,0,1,.9-.17,2.32,2.32,0,0,1,1.63.62,2.06,2.06,0,0,1,.67,1.58,2.7,2.7,0,0,1-.61,1.75,2.39,2.39,0,0,1-2,.75,2.49,2.49,0,0,1-1.51-.48,1.89,1.89,0,0,1-.73-1.48Z" transform="translate(0 -4.55)"/><path d="M148,263.2a2.56,2.56,0,0,1-.56-1.66h.92a2.24,2.24,0,0,0,.26,1,1.32,1.32,0,0,0,1.23.56,1.63,1.63,0,0,0,1.12-.38,1.19,1.19,0,0,0,.42-.95,1.1,1.1,0,0,0-.45-1,2.14,2.14,0,0,0-1.22-.29h-.37v-.78l.23,0h.2a1.88,1.88,0,0,0,.81-.16,1,1,0,0,0,.56-1,1,1,0,0,0-.37-.8,1.39,1.39,0,0,0-.86-.28,1.28,1.28,0,0,0-1.22.58,2.15,2.15,0,0,0-.21.92h-.87a2.75,2.75,0,0,1,.31-1.33,2,2,0,0,1,1.89-1,2.55,2.55,0,0,1,1.66.48,1.68,1.68,0,0,1,.58,1.38,1.52,1.52,0,0,1-.34,1,1.54,1.54,0,0,1-.56.4,1.47,1.47,0,0,1,.86.58,1.75,1.75,0,0,1,.31,1.06,2.16,2.16,0,0,1-.66,1.63,2.6,2.6,0,0,1-1.87.63A2.23,2.23,0,0,1,148,263.2Z" transform="translate(0 -4.55)"/><path d="M153.14,265.73a15.76,15.76,0,0,0,1-2.21,7.89,7.89,0,0,0,.35-2.46,8.12,8.12,0,0,0-.4-2.58,14.35,14.35,0,0,0-1-2.08h.59c.5.8.8,1.29.91,1.48a4.92,4.92,0,0,1,.34.77,6.29,6.29,0,0,1,.34,1.21,6.62,6.62,0,0,1,.1,1.15,6.69,6.69,0,0,1-.46,2.57,13.72,13.72,0,0,1-1.2,2.15Z" transform="translate(0 -4.55)"/><line class="cls-1" x1="122.06" y1="516.35" x2="90.48" y2="261.97"/><path class="cls-1" d="M76.53,135.08a1.42,1.42,0,1,0-1.41,1.42,1.42,1.42,0,0,0,1.41-1.42" transform="translate(0 -4.55)"/><path class="cls-1" d="M146.47,134.15a1.43,1.43,0,1,0-1.43,1.41,1.42,1.42,0,0,0,1.43-1.41" transform="translate(0 -4.55)"/><path d="M150.84,124a16.3,16.3,0,0,0-1,2.19,8,8,0,0,0-.35,2.47,7.91,7.91,0,0,0,.4,2.59,15.41,15.41,0,0,0,1,2.08h-.59c-.48-.74-.77-1.22-.89-1.42s-.23-.49-.37-.84a6.81,6.81,0,0,1-.38-1.54,7.81,7.81,0,0,1,0-.81,6.94,6.94,0,0,1,.45-2.58,15.77,15.77,0,0,1,1.2-2.14Z" transform="translate(0 -4.55)"/><path d="M152.17,126.36v-.68a3.43,3.43,0,0,0,1.33-.31,1.51,1.51,0,0,0,.56-1h.7v7h-.94v-5Z" transform="translate(0 -4.55)"/><path d="M157.73,127.21a1.36,1.36,0,0,1-.39-1,1.81,1.81,0,0,1,.57-1.34,2.16,2.16,0,0,1,1.6-.57,2.25,2.25,0,0,1,1.58.53,1.66,1.66,0,0,1,.57,1.24,1.62,1.62,0,0,1-.33,1.06,2,2,0,0,1-.58.45,2.3,2.3,0,0,1,.69.46,1.77,1.77,0,0,1,.46,1.27,2.13,2.13,0,0,1-.62,1.56,2.3,2.3,0,0,1-1.75.65,2.72,2.72,0,0,1-1.73-.56,1.91,1.91,0,0,1-.7-1.61,1.78,1.78,0,0,1,1.2-1.76A1.76,1.76,0,0,1,157.73,127.21Zm2.83,3.17a1.2,1.2,0,0,0,.41-1,1.28,1.28,0,0,0-.42-1,1.61,1.61,0,0,0-1.06-.35,1.47,1.47,0,0,0-1,.36,1.25,1.25,0,0,0-.4,1,1.34,1.34,0,0,0,.37.95,1.45,1.45,0,0,0,1.12.4A1.53,1.53,0,0,0,160.56,130.38Zm-.16-3.46a1,1,0,0,0,0-1.5,1.26,1.26,0,0,0-.95-.32,1,1,0,0,0-1.2,1.09.91.91,0,0,0,.36.77,1.37,1.37,0,0,0,.86.28A1.22,1.22,0,0,0,160.4,126.92Z" transform="translate(0 -4.55)"/><path d="M163.19,130.24h1v1.07h-1Z" transform="translate(0 -4.55)"/><path d="M166.07,126.36v-.68a3.43,3.43,0,0,0,1.33-.31,1.51,1.51,0,0,0,.56-1h.7v7h-.94v-5Z" transform="translate(0 -4.55)"/><path d="M171.36,129.73a3,3,0,0,1,1.27-1.21l.94-.54a4.72,4.72,0,0,0,.88-.63,1.27,1.27,0,0,0,.4-.93,1.31,1.31,0,0,0-.36-1,1.35,1.35,0,0,0-1-.36,1.27,1.27,0,0,0-1.25.69,2.59,2.59,0,0,0-.21,1h-.89a3.05,3.05,0,0,1,.34-1.48,2.1,2.1,0,0,1,2-1,2.19,2.19,0,0,1,1.76.65,2.15,2.15,0,0,1,.55,1.44,2,2,0,0,1-.59,1.44,5.57,5.57,0,0,1-1.22.84l-.67.37a4.4,4.4,0,0,0-.75.5,1.87,1.87,0,0,0-.62.95h3.82v.83H171A4.17,4.17,0,0,1,171.36,129.73Z" transform="translate(0 -4.55)"/><path d="M179.85,132.33a.62.62,0,0,0,.47-.47,1.33,1.33,0,0,0,.07-.43v-.06a.13.13,0,0,0,0-.06h-.53v-1.07h1v1a2.19,2.19,0,0,1-.23,1,1.09,1.09,0,0,1-.81.54Z" transform="translate(0 -4.55)"/><path d="M189.13,124.89a2.06,2.06,0,0,1,.46,1.26h-.87a1.58,1.58,0,0,0-.24-.65,1.12,1.12,0,0,0-1-.44,1.32,1.32,0,0,0-1.17.68,3.87,3.87,0,0,0-.48,2,1.88,1.88,0,0,1,.76-.67,2.19,2.19,0,0,1,.94-.19,2.31,2.31,0,0,1,1.53.56,2.07,2.07,0,0,1,.66,1.68,2.55,2.55,0,0,1-.62,1.68,2.21,2.21,0,0,1-1.77.74,2.27,2.27,0,0,1-1.7-.75,3.57,3.57,0,0,1-.71-2.5,6.85,6.85,0,0,1,.32-2.22,2.26,2.26,0,0,1,2.23-1.74A2,2,0,0,1,189.13,124.89Zm-.66,5.35a1.81,1.81,0,0,0,.35-1.1,1.88,1.88,0,0,0-.31-1,1.23,1.23,0,0,0-1.12-.48,1.39,1.39,0,0,0-1.42,1.51,1.64,1.64,0,0,0,.39,1.11,1.33,1.33,0,0,0,1.08.46A1.2,1.2,0,0,0,188.47,130.24Z" transform="translate(0 -4.55)"/><path d="M191.09,126.36v-.68a3.43,3.43,0,0,0,1.33-.31,1.51,1.51,0,0,0,.56-1h.7v7h-.94v-5Z" transform="translate(0 -4.55)"/><path d="M196.55,130.24h1v1.07h-1Z" transform="translate(0 -4.55)"/><path d="M199.16,129.73a3,3,0,0,1,1.27-1.21l.94-.54a4.72,4.72,0,0,0,.88-.63,1.36,1.36,0,0,0,0-1.9,1.31,1.31,0,0,0-1-.36,1.27,1.27,0,0,0-1.25.69,2.42,2.42,0,0,0-.21,1H199a3.05,3.05,0,0,1,.34-1.48,2.1,2.1,0,0,1,2-1,2.21,2.21,0,0,1,1.76.65,2.15,2.15,0,0,1,.55,1.44,2,2,0,0,1-.59,1.44,6.13,6.13,0,0,1-1.22.84l-.67.37a4.4,4.4,0,0,0-.75.5,1.81,1.81,0,0,0-.62.95h3.82v.83h-4.8A4.17,4.17,0,0,1,199.16,129.73Z" transform="translate(0 -4.55)"/><path d="M204.84,130.82a2.51,2.51,0,0,1-.56-1.66h.91a2.24,2.24,0,0,0,.26,1,1.33,1.33,0,0,0,1.23.56,1.62,1.62,0,0,0,1.12-.38,1.19,1.19,0,0,0,.42-.95,1.12,1.12,0,0,0-.44-1,2.2,2.2,0,0,0-1.23-.29h-.36v-.78l.23,0h.2a1.8,1.8,0,0,0,.81-.16,1,1,0,0,0,.55-1,1,1,0,0,0-.37-.8,1.37,1.37,0,0,0-.86-.28,1.29,1.29,0,0,0-1.22.58,2.15,2.15,0,0,0-.21.92h-.87a2.75,2.75,0,0,1,.31-1.33,2,2,0,0,1,1.89-1,2.55,2.55,0,0,1,1.66.48,1.69,1.69,0,0,1,.59,1.38,1.52,1.52,0,0,1-.35,1,1.46,1.46,0,0,1-.56.4,1.47,1.47,0,0,1,.86.58,1.75,1.75,0,0,1,.31,1.06,2.19,2.19,0,0,1-.65,1.63,2.61,2.61,0,0,1-1.87.63A2.2,2.2,0,0,1,204.84,130.82Z" transform="translate(0 -4.55)"/><path d="M210,133.35a18.61,18.61,0,0,0,1-2.21,8.21,8.21,0,0,0,.34-2.46,7.85,7.85,0,0,0-.4-2.58,14.35,14.35,0,0,0-1-2.08h.59c.5.8.81,1.29.91,1.48a5.92,5.92,0,0,1,.35.77,7,7,0,0,1,.33,1.21,6.62,6.62,0,0,1,.1,1.15,6.69,6.69,0,0,1-.46,2.57,14.33,14.33,0,0,1-1.19,2.15Z" transform="translate(0 -4.55)"/><path class="cls-1" d="M155.93,27.54A1.42,1.42,0,1,0,154.51,29a1.42,1.42,0,0,0,1.42-1.41" transform="translate(0 -4.55)"/><line class="cls-1" x1="75.12" y1="130.53" x2="145.05" y2="129.59"/><line class="cls-1" x1="145.05" y1="129.59" x2="154.51" y2="22.98"/><line class="cls-1" x1="154.51" y1="22.98" x2="75.12" y2="130.53"/><path class="cls-1" d="M50.34,294.67a1.42,1.42,0,1,0-1.42,1.42,1.43,1.43,0,0,0,1.42-1.42" transform="translate(0 -4.55)"/><path class="cls-1" d="M148.25,517.47a1.42,1.42,0,1,0-1.41,1.42,1.41,1.41,0,0,0,1.41-1.42" transform="translate(0 -4.55)"/><path class="cls-1" d="M92.75,293.85a1.42,1.42,0,1,0-1.42,1.42,1.42,1.42,0,0,0,1.42-1.42" transform="translate(0 -4.55)"/><path d="M97.12,283.73a16.3,16.3,0,0,0-1,2.19,8,8,0,0,0-.35,2.47,7.91,7.91,0,0,0,.4,2.59,15.41,15.41,0,0,0,1,2.08h-.59c-.48-.74-.77-1.22-.89-1.42s-.23-.49-.37-.84a6.81,6.81,0,0,1-.38-1.54,7.81,7.81,0,0,1,0-.81,6.94,6.94,0,0,1,.45-2.58,17,17,0,0,1,1.2-2.14Z" transform="translate(0 -4.55)"/><path d="M97.91,287.78h2.45v.9H97.91Z" transform="translate(0 -4.55)"/><path d="M105.49,285.14a4.94,4.94,0,0,1,.47,2.37,5.76,5.76,0,0,1-.42,2.36,2.08,2.08,0,0,1-2,1.34,2,2,0,0,1-1.88-1.1,5,5,0,0,1-.51-2.45,5.92,5.92,0,0,1,.31-2,2.09,2.09,0,0,1,2.08-1.6A2.06,2.06,0,0,1,105.49,285.14Zm-.88,4.66a4.38,4.38,0,0,0,.4-2.26,5.51,5.51,0,0,0-.29-2,1.1,1.1,0,0,0-1.14-.76,1.19,1.19,0,0,0-1.14.73,5.17,5.17,0,0,0-.35,2.15,5.34,5.34,0,0,0,.22,1.71,1.25,1.25,0,0,0,2.3.39Z" transform="translate(0 -4.55)"/><path d="M107.24,290h1V291h-1Z" transform="translate(0 -4.55)"/><path d="M110.12,286.92a1.36,1.36,0,0,1-.39-1,1.81,1.81,0,0,1,.57-1.34,2.16,2.16,0,0,1,1.6-.57,2.25,2.25,0,0,1,1.58.53,1.66,1.66,0,0,1,.57,1.24,1.62,1.62,0,0,1-.33,1.06,2,2,0,0,1-.58.45,2.3,2.3,0,0,1,.69.46,1.77,1.77,0,0,1,.46,1.27,2.13,2.13,0,0,1-.62,1.56,2.32,2.32,0,0,1-1.75.65,2.72,2.72,0,0,1-1.73-.56,1.91,1.91,0,0,1-.7-1.61,1.78,1.78,0,0,1,1.2-1.76A1.56,1.56,0,0,1,110.12,286.92Zm2.83,3.17a1.2,1.2,0,0,0,.4-1,1.27,1.27,0,0,0-.41-1,1.61,1.61,0,0,0-1.06-.35,1.47,1.47,0,0,0-1,.36,1.25,1.25,0,0,0-.4,1,1.37,1.37,0,0,0,.36.95,1.49,1.49,0,0,0,1.13.4A1.53,1.53,0,0,0,113,290.09Zm-.16-3.46a1.07,1.07,0,0,0,.33-.78,1,1,0,0,0-.32-.72,1.23,1.23,0,0,0-1-.32,1.13,1.13,0,0,0-.91.32,1.15,1.15,0,0,0-.29.77.92.92,0,0,0,.37.77,1.35,1.35,0,0,0,.86.28A1.22,1.22,0,0,0,112.79,286.63Z" transform="translate(0 -4.55)"/><path d="M115.53,290.53a2.51,2.51,0,0,1-.56-1.66h.91a2.24,2.24,0,0,0,.26,1,1.33,1.33,0,0,0,1.23.56,1.62,1.62,0,0,0,1.12-.38,1.19,1.19,0,0,0,.42-.95,1.12,1.12,0,0,0-.44-1,2.2,2.2,0,0,0-1.23-.29h-.36V287l.22,0h.2a1.82,1.82,0,0,0,.82-.16,1,1,0,0,0,.55-1,1,1,0,0,0-.37-.8,1.37,1.37,0,0,0-.86-.28,1.29,1.29,0,0,0-1.22.58,2.15,2.15,0,0,0-.21.92h-.87a2.75,2.75,0,0,1,.31-1.33,2,2,0,0,1,1.89-1,2.55,2.55,0,0,1,1.66.48,1.69,1.69,0,0,1,.59,1.38,1.52,1.52,0,0,1-.35,1,1.54,1.54,0,0,1-.56.4,1.47,1.47,0,0,1,.86.58,1.75,1.75,0,0,1,.31,1.06,2.16,2.16,0,0,1-.66,1.63,2.58,2.58,0,0,1-1.87.63A2.19,2.19,0,0,1,115.53,290.53Z" transform="translate(0 -4.55)"/><path d="M123.9,292a.62.62,0,0,0,.47-.47,1.33,1.33,0,0,0,.07-.43v-.06a.13.13,0,0,0,0-.06h-.53V290h1v1a2.19,2.19,0,0,1-.23,1,1.09,1.09,0,0,1-.81.54Z" transform="translate(0 -4.55)"/><path d="M131.94,291v-1.71h-3.06v-.86l3.2-4.45h.74v4.54h1v.77h-1V291Zm0-2.48v-3.18l-2.24,3.18Z" transform="translate(0 -4.55)"/><path d="M135,290h1V291h-1Z" transform="translate(0 -4.55)"/><path d="M137.92,286.92a1.36,1.36,0,0,1-.39-1,1.84,1.84,0,0,1,.56-1.34,2.18,2.18,0,0,1,1.61-.57,2.27,2.27,0,0,1,1.58.53,1.66,1.66,0,0,1,.57,1.24,1.57,1.57,0,0,1-.34,1.06,1.86,1.86,0,0,1-.57.45,2.13,2.13,0,0,1,.68.46,1.78,1.78,0,0,1,.47,1.27,2.17,2.17,0,0,1-.62,1.56,2.32,2.32,0,0,1-1.75.65,2.72,2.72,0,0,1-1.73-.56,1.91,1.91,0,0,1-.7-1.61,1.78,1.78,0,0,1,1.2-1.76A1.56,1.56,0,0,1,137.92,286.92Zm2.83,3.17a1.2,1.2,0,0,0,.4-1,1.3,1.3,0,0,0-.41-1,1.62,1.62,0,0,0-1.07-.35,1.49,1.49,0,0,0-1,.36,1.28,1.28,0,0,0-.39,1,1.37,1.37,0,0,0,.36.95,1.48,1.48,0,0,0,1.13.4A1.55,1.55,0,0,0,140.75,290.09Zm-.16-3.46a1.1,1.1,0,0,0,.32-.78,1,1,0,0,0-.31-.72,1.24,1.24,0,0,0-.95-.32,1.16,1.16,0,0,0-.92.32,1.2,1.2,0,0,0-.28.77.89.89,0,0,0,.37.77,1.35,1.35,0,0,0,.86.28A1.22,1.22,0,0,0,140.59,286.63Z" transform="translate(0 -4.55)"/><path d="M143.85,289.32a1.14,1.14,0,0,0,.56,1,1.25,1.25,0,0,0,.61.14,1.34,1.34,0,0,0,1.07-.52,4.24,4.24,0,0,0,.63-2.13,1.6,1.6,0,0,1-.72.65,2.24,2.24,0,0,1-.93.19,2.07,2.07,0,0,1-1.6-.63,2.29,2.29,0,0,1-.59-1.62,2.57,2.57,0,0,1,.58-1.67,2.06,2.06,0,0,1,1.72-.73,2.12,2.12,0,0,1,2.11,1.38,4.94,4.94,0,0,1,.32,1.89,6.19,6.19,0,0,1-.39,2.28,2.23,2.23,0,0,1-2.17,1.65,2.07,2.07,0,0,1-1.55-.54,1.83,1.83,0,0,1-.54-1.35Zm2.29-1.78a1.45,1.45,0,0,0,.43-1.2,1.55,1.55,0,0,0-.39-1.15,1.33,1.33,0,0,0-1-.37,1.31,1.31,0,0,0-1,.43,1.68,1.68,0,0,0-.38,1.15,1.59,1.59,0,0,0,.34,1.08,1.29,1.29,0,0,0,1.06.41A1.51,1.51,0,0,0,146.14,287.54Z" transform="translate(0 -4.55)"/><path d="M148.43,293.06a17.07,17.07,0,0,0,1-2.21,7.89,7.89,0,0,0,.35-2.46,8.12,8.12,0,0,0-.4-2.58,14.35,14.35,0,0,0-1-2.08H149c.5.8.8,1.29.91,1.48a4.92,4.92,0,0,1,.34.77,6.29,6.29,0,0,1,.34,1.21,6.62,6.62,0,0,1,.1,1.15,6.69,6.69,0,0,1-.46,2.57,13.72,13.72,0,0,1-1.2,2.15Z" transform="translate(0 -4.55)"/><line class="cls-1" x1="48.92" y1="290.12" x2="146.83" y2="512.92"/><line class="cls-1" x1="146.83" y1="512.92" x2="91.33" y2="289.29"/><line class="cls-1" x1="91.33" y1="289.29" x2="48.92" y2="290.12"/><path class="cls-1" d="M146.47,134.15a1.43,1.43,0,1,0-1.43,1.41,1.42,1.42,0,0,0,1.43-1.41" transform="translate(0 -4.55)"/><path class="cls-1" d="M92.75,293.85a1.42,1.42,0,1,0-1.42,1.42,1.42,1.42,0,0,0,1.42-1.42" transform="translate(0 -4.55)"/><path class="cls-1" d="M118.37,182.87a1.42,1.42,0,1,0-1.42,1.42,1.42,1.42,0,0,0,1.42-1.42" transform="translate(0 -4.55)"/><path class="cls-1" d="M91.9,266.52a1.42,1.42,0,1,0-1.42,1.42,1.42,1.42,0,0,0,1.42-1.42" transform="translate(0 -4.55)"/><path class="cls-1" d="M34.73,313.47a1.43,1.43,0,1,0-1.42,1.41,1.42,1.42,0,0,0,1.42-1.41" transform="translate(0 -4.55)"/><path d="M39.09,303.34a16.3,16.3,0,0,0-1,2.19,8,8,0,0,0-.35,2.47,7.91,7.91,0,0,0,.4,2.59,15.41,15.41,0,0,0,1,2.08h-.59c-.48-.74-.77-1.22-.89-1.42s-.23-.49-.37-.84a6.81,6.81,0,0,1-.38-1.54,7.65,7.65,0,0,1-.05-.81,6.85,6.85,0,0,1,.45-2.57,15.16,15.16,0,0,1,1.2-2.15Z" transform="translate(0 -4.55)"/><path d="M39.88,307.39h2.45v.9H39.88Z" transform="translate(0 -4.55)"/><path d="M43.48,309.05a3,3,0,0,1,1.27-1.21l.94-.54a4.72,4.72,0,0,0,.88-.63,1.36,1.36,0,0,0,0-1.9,1.32,1.32,0,0,0-1-.36,1.27,1.27,0,0,0-1.25.69,2.27,2.27,0,0,0-.21,1h-.89a3.05,3.05,0,0,1,.34-1.48,2.1,2.1,0,0,1,2-1,2.21,2.21,0,0,1,1.76.65,2.15,2.15,0,0,1,.55,1.44,2,2,0,0,1-.59,1.44,6.13,6.13,0,0,1-1.22.84l-.67.37a5.89,5.89,0,0,0-.76.5,1.85,1.85,0,0,0-.61.95h3.82v.83h-4.8A4,4,0,0,1,43.48,309.05Z" transform="translate(0 -4.55)"/><path d="M49.31,305.68V305a3.43,3.43,0,0,0,1.33-.31,1.51,1.51,0,0,0,.56-1h.7v7H51v-4.95Z" transform="translate(0 -4.55)"/><path d="M54.77,309.56h1v1.07h-1Z" transform="translate(0 -4.55)"/><path d="M57.5,310.14a2.51,2.51,0,0,1-.56-1.66h.91a2.24,2.24,0,0,0,.26,1,1.33,1.33,0,0,0,1.23.56,1.68,1.68,0,0,0,1.12-.37,1.23,1.23,0,0,0,.42-1,1.1,1.1,0,0,0-.45-1,2.22,2.22,0,0,0-1.22-.29h-.37v-.78l.23,0h.2a1.82,1.82,0,0,0,.82-.16,1,1,0,0,0,.55-1,1,1,0,0,0-.37-.8,1.37,1.37,0,0,0-.86-.28,1.29,1.29,0,0,0-1.22.58,2.15,2.15,0,0,0-.21.92h-.87a2.75,2.75,0,0,1,.31-1.33,2,2,0,0,1,1.89-1,2.55,2.55,0,0,1,1.66.48,1.68,1.68,0,0,1,.58,1.38,1.56,1.56,0,0,1-.34,1,1.65,1.65,0,0,1-.56.39,1.47,1.47,0,0,1,.86.58,1.75,1.75,0,0,1,.31,1.06,2.16,2.16,0,0,1-.66,1.63,2.6,2.6,0,0,1-1.87.63A2.19,2.19,0,0,1,57.5,310.14Z" transform="translate(0 -4.55)"/><path d="M66.93,304.75a5.07,5.07,0,0,1,.46,2.37,5.76,5.76,0,0,1-.42,2.36,2.08,2.08,0,0,1-2,1.34,2,2,0,0,1-1.88-1.1,5,5,0,0,1-.51-2.45,5.92,5.92,0,0,1,.31-2,2.21,2.21,0,0,1,4.05-.48ZM66,309.41a4.36,4.36,0,0,0,.41-2.26,5.4,5.4,0,0,0-.3-1.95,1.1,1.1,0,0,0-1.14-.77,1.19,1.19,0,0,0-1.13.73,5,5,0,0,0-.36,2.15,5.14,5.14,0,0,0,.23,1.72,1.24,1.24,0,0,0,1.2,1A1.26,1.26,0,0,0,66,309.41Z" transform="translate(0 -4.55)"/><path d="M71.43,311.65a.62.62,0,0,0,.47-.47,1.33,1.33,0,0,0,.07-.43v-.06a.13.13,0,0,0,0-.06h-.53v-1.07h1v1a2.19,2.19,0,0,1-.23,1,1.09,1.09,0,0,1-.81.54Z" transform="translate(0 -4.55)"/><path d="M76.57,307.39H79v.9H76.57Z" transform="translate(0 -4.55)"/><path d="M80.17,309.05a3,3,0,0,1,1.27-1.21l.94-.54a4.72,4.72,0,0,0,.88-.63,1.36,1.36,0,0,0,0-1.9,1.32,1.32,0,0,0-1-.36,1.27,1.27,0,0,0-1.25.69,2.27,2.27,0,0,0-.21,1H80a3.18,3.18,0,0,1,.33-1.48,2.13,2.13,0,0,1,2-1,2.21,2.21,0,0,1,1.76.65,2.15,2.15,0,0,1,.55,1.44,2,2,0,0,1-.59,1.44,6,6,0,0,1-1.23.84l-.66.37a5.89,5.89,0,0,0-.76.5,1.85,1.85,0,0,0-.61.95H84.6v.83H79.8A4,4,0,0,1,80.17,309.05Z" transform="translate(0 -4.55)"/><path d="M85.9,309.56h1v1.07h-1Z" transform="translate(0 -4.55)"/><path d="M92.49,304.75a5.06,5.06,0,0,1,.47,2.37,5.76,5.76,0,0,1-.42,2.36,2.09,2.09,0,0,1-2,1.34,2,2,0,0,1-1.87-1.1,5,5,0,0,1-.51-2.45,6.18,6.18,0,0,1,.3-2,2.11,2.11,0,0,1,2.09-1.6A2.07,2.07,0,0,1,92.49,304.75Zm-.88,4.66a4.38,4.38,0,0,0,.4-2.26,5.42,5.42,0,0,0-.29-1.95,1.12,1.12,0,0,0-1.14-.77,1.19,1.19,0,0,0-1.14.73,5,5,0,0,0-.36,2.15,5.41,5.41,0,0,0,.23,1.72,1.25,1.25,0,0,0,2.3.38Z" transform="translate(0 -4.55)"/><path d="M94.18,310.14a2.56,2.56,0,0,1-.55-1.66h.91a2.24,2.24,0,0,0,.26,1A1.32,1.32,0,0,0,96,310a1.68,1.68,0,0,0,1.12-.37,1.23,1.23,0,0,0,.42-1,1.1,1.1,0,0,0-.45-1,2.22,2.22,0,0,0-1.22-.29h-.37v-.78l.23,0H96a1.74,1.74,0,0,0,.81-.16,1,1,0,0,0,.56-1,1,1,0,0,0-.37-.8,1.37,1.37,0,0,0-.86-.28,1.28,1.28,0,0,0-1.22.58,2.15,2.15,0,0,0-.21.92H93.8a2.75,2.75,0,0,1,.31-1.33,2,2,0,0,1,1.89-1,2.55,2.55,0,0,1,1.66.48,1.68,1.68,0,0,1,.58,1.38,1.56,1.56,0,0,1-.34,1,1.65,1.65,0,0,1-.56.39,1.47,1.47,0,0,1,.86.58,1.75,1.75,0,0,1,.31,1.06,2.16,2.16,0,0,1-.66,1.63,2.6,2.6,0,0,1-1.87.63A2.23,2.23,0,0,1,94.18,310.14Z" transform="translate(0 -4.55)"/><path d="M99.29,312.67a17.52,17.52,0,0,0,1-2.21,8.21,8.21,0,0,0,.34-2.46,7.85,7.85,0,0,0-.4-2.58,14.86,14.86,0,0,0-1-2.08h.59c.5.8.81,1.29.91,1.48a5.92,5.92,0,0,1,.35.77,7,7,0,0,1,.33,1.21,6.62,6.62,0,0,1,.1,1.15,6.69,6.69,0,0,1-.46,2.57,13.72,13.72,0,0,1-1.2,2.15Z" transform="translate(0 -4.55)"/><line class="cls-1" x1="145.05" y1="129.59" x2="91.33" y2="289.29"/><line class="cls-1" x1="91.33" y1="289.29" x2="116.95" y2="178.32"/><line class="cls-1" x1="116.95" y1="178.32" x2="90.48" y2="261.97"/><line class="cls-1" x1="90.48" y1="261.97" x2="33.3" y2="308.91"/><line class="cls-1" x1="33.3" y1="308.91" x2="145.05" y2="129.59"/><path d="M514.27,214.47a1.22,1.22,0,0,0,.7,1,1.66,1.66,0,0,0,.72.15,1.37,1.37,0,0,0,1.16-.5,1.79,1.79,0,0,0,.38-1.1,1.45,1.45,0,0,0-.45-1.14,1.58,1.58,0,0,0-1.07-.4,1.55,1.55,0,0,0-1.33.67l-.77-.05.54-3.76h3.63v.85h-3l-.3,1.94a2.1,2.1,0,0,1,.46-.28,2.49,2.49,0,0,1,.9-.16,2.34,2.34,0,0,1,1.64.62,2.08,2.08,0,0,1,.66,1.57,2.67,2.67,0,0,1-.61,1.75,2.35,2.35,0,0,1-1.95.76,2.52,2.52,0,0,1-1.52-.48,1.92,1.92,0,0,1-.73-1.48Z" transform="translate(0 -4.55)"/><path d="M708.78,120.61" transform="translate(0 -4.55)"/><path d="M514,31.71V31a3.62,3.62,0,0,0,1.33-.31,1.54,1.54,0,0,0,.56-1h.7v7h-.94V31.71Z" transform="translate(0 -4.55)"/><path class="cls-2" d="M577.77,28.37l-2.52-4.95-3.92-3.92L566.39,17l-5.52-.87H547.1l-5.53.88-4.93,2.51-3.92,3.92-2.52,4.95-.86,5.46.85,5.43v0l2.52,5,3.92,3.92,5,2.52,5.45.86h13.87l5.43-.85h0l5-2.52,3.92-3.92,2.52-5v0l.85-5.43ZM547.05,39.78a6,6,0,1,1,6-6A6,6,0,0,1,547.05,39.78Zm13.87,0a6,6,0,1,1,6-6A6,6,0,0,1,560.92,39.78Z" transform="translate(0 -4.55)"/><path d="M513.72,69.92A3,3,0,0,1,515,68.7l.94-.54a4.3,4.3,0,0,0,.88-.63,1.27,1.27,0,0,0,.4-.93,1.32,1.32,0,0,0-.36-1,1.35,1.35,0,0,0-1-.36,1.27,1.27,0,0,0-1.25.69,2.6,2.6,0,0,0-.21,1h-.89a3.07,3.07,0,0,1,.34-1.49,2.1,2.1,0,0,1,2-1,2.07,2.07,0,0,1,2.31,2.1,1.93,1.93,0,0,1-.59,1.43,5.57,5.57,0,0,1-1.22.84l-.67.37a4.37,4.37,0,0,0-.75.51,1.81,1.81,0,0,0-.62.94h3.82v.83h-4.8A4.12,4.12,0,0,1,513.72,69.92Z" transform="translate(0 -4.55)"/><path class="cls-2" d="M687.68,63.2l-2.54-5-3.9-3.9-4.93-2.5-5.53-.88H547.1l-5.53.88-4.93,2.5-3.92,3.92-2.52,5-.86,5.46.86,5.45,2.52,5L536.64,83l4.93,2.51,5.53.88H670.78l5.53-.88L681.24,83l3.89-3.88v0l2.54-5,.86-5.45ZM547.05,74.61a6,6,0,1,1,6-6A6,6,0,0,1,547.05,74.61Zm123.78,0a6,6,0,1,1,5.95-6A6,6,0,0,1,670.83,74.61Z" transform="translate(0 -4.55)"/><path d="M513.84,105.84a2.49,2.49,0,0,1-.56-1.66h.91a2.29,2.29,0,0,0,.26,1,1.33,1.33,0,0,0,1.23.55,1.61,1.61,0,0,0,1.12-.37,1.23,1.23,0,0,0,.42-1,1.12,1.12,0,0,0-.44-1,2.28,2.28,0,0,0-1.23-.29h-.36v-.77l.23,0h.2a2,2,0,0,0,.81-.15,1,1,0,0,0,.55-1,1,1,0,0,0-.37-.81,1.43,1.43,0,0,0-.86-.28,1.29,1.29,0,0,0-1.22.59,2.1,2.1,0,0,0-.21.91h-.87a2.58,2.58,0,0,1,.32-1.32,2,2,0,0,1,1.88-1,2.55,2.55,0,0,1,1.66.48,1.66,1.66,0,0,1,.59,1.38,1.54,1.54,0,0,1-.35,1,1.35,1.35,0,0,1-.56.39,1.51,1.51,0,0,1,.86.58,1.77,1.77,0,0,1,.31,1.06,2.18,2.18,0,0,1-.65,1.63,2.61,2.61,0,0,1-1.87.63A2.17,2.17,0,0,1,513.84,105.84Z" transform="translate(0 -4.55)"/><path class="cls-2" d="M725.64,98.07v0l-2.52-5-3.92-3.92-4.93-2.51-5.53-.88H547.1l-5.53.88-4.93,2.51-3.92,3.92-2.52,5v0l-.85,5.43.85,5.43v0l2.52,5,3.92,3.92,5,2.52,5.45.86H708.78l5.45-.86,5-2.52,3.92-3.92,2.52-5v0l.85-5.43ZM547.05,109.45a6,6,0,1,1,6-6A6,6,0,0,1,547.05,109.45Zm161.73,0a6,6,0,1,1,6-6A6,6,0,0,1,708.78,109.45Z" transform="translate(0 -4.55)"/><path d="M516.36,140.56v-1.71h-3.07V138l3.2-4.44h.75v4.53h1v.77h-1v1.71Zm0-2.48v-3.17l-2.24,3.17Z" transform="translate(0 -4.55)"/><path class="cls-2" d="M639.09,132.25l-2.51-4.93-3.9-3.9-4.94-2.52-5.53-.88H547.1l-5.53.88-5,2.52-3.91,3.92-2.51,4.94-.86,5.46.86,5.45,2.51,4.94,3.91,3.92,5,2.52,5.53.88h75.11l5.53-.88,4.94-2.52h0l3.88-3.89,2.51-4.93.87-5.48Zm-92,11.44a6,6,0,1,1,6-6A6,6,0,0,1,547.05,143.69Zm75.21,0a6,6,0,1,1,5.94-6A6,6,0,0,1,622.26,143.69Z" transform="translate(0 -4.55)"/><path class="cls-2" d="M715.53,199.35l-1.76-4.26v0L711,191.48h0l-3.69-2.85-4.21-1.76h0L588.53,155.48h0l-2.31-.47-2.35-.17h0l-2.31.16-2.32.46h0l-2.2.76h0l-2.07,1,0,0-1.94,1.34-1.73,1.55L569.63,162l-1.29,2v0l-36.76,66.4-1.46,3.44-.7,3.54h0l.05,3.7v0l.81,3.57h0l1.5,3.29,0,0L534,251h0l2.7,2.4h0l3.21,1.83h0l3.48,1.11h0l3.62.38h25.5l.47,0h0l.47,0,.47-.05h0l.47-.06h0l.46-.07h0l.47-.08.47-.1.46-.11h0l.46-.12L703.16,221h0l4.25-1.81h0l3.57-2.78h0l2.78-3.65v0l1.74-4.26.6-4.56ZM547.05,245a6,6,0,1,1,6-6A6,6,0,0,1,547.05,245Zm25,0a6,6,0,1,1,6-6A6,6,0,0,1,572.06,245Zm11.78-66.45a6,6,0,1,1,5.95-6A6,6,0,0,1,583.84,178.52ZM698.43,209.9a6,6,0,1,1,6-6A6,6,0,0,1,698.43,209.9Z" transform="translate(0 -4.55)"/><path d="M517.6,270.27a2.13,2.13,0,0,1,.46,1.26h-.87a1.58,1.58,0,0,0-.25-.65,1.09,1.09,0,0,0-1-.44,1.32,1.32,0,0,0-1.17.68,3.87,3.87,0,0,0-.49,1.95,1.85,1.85,0,0,1,.76-.66,2.23,2.23,0,0,1,.94-.2,2.27,2.27,0,0,1,1.53.56,2.09,2.09,0,0,1,.66,1.68,2.55,2.55,0,0,1-.62,1.68,2.18,2.18,0,0,1-1.77.74,2.25,2.25,0,0,1-1.69-.75,3.52,3.52,0,0,1-.72-2.5,6.85,6.85,0,0,1,.32-2.22,2.26,2.26,0,0,1,2.23-1.73A2,2,0,0,1,517.6,270.27Zm-.66,5.35a1.8,1.8,0,0,0,.34-1.1,1.82,1.82,0,0,0-.31-1,1.21,1.21,0,0,0-1.12-.49,1.48,1.48,0,0,0-1,.38,1.45,1.45,0,0,0-.43,1.13,1.68,1.68,0,0,0,.39,1.12,1.35,1.35,0,0,0,1.08.45A1.22,1.22,0,0,0,516.94,275.62Z" transform="translate(0 -4.55)"/><path class="cls-2" d="M820.22,268.37l-2.51-4.93-3.91-3.91L808.87,257l-5.53-.88H547.1l-5.53.88-5,2.52-3.91,3.92-2.51,4.94-.86,5.46.86,5.45,2.52,4.95,3.9,3.91,5,2.52,5.53.88H803.34l5.53-.88,4.93-2.51,3.89-3.88v0l2.52-4.94.87-5.48ZM547.05,279.81a6,6,0,1,1,6-6A6,6,0,0,1,547.05,279.81Zm256.34,0a6,6,0,1,1,6-6A6,6,0,0,1,803.39,279.81Z" transform="translate(0 -4.55)"/><path d="M518.27,375.51v.76a7.73,7.73,0,0,0-.9,1.14,11.85,11.85,0,0,0-1,1.75,11.56,11.56,0,0,0-.64,1.66c-.1.33-.22.85-.37,1.56h-1a12,12,0,0,1,1.46-4,12.63,12.63,0,0,1,1.41-2H513.4v-.88Z" transform="translate(0 -4.55)"/><path class="cls-2" d="M645.5,310.37l-.13-4.61h0l-1.29-4.35-2.36-3.89h0l-3.33-3.19,0,0-4-2.2L629.94,291l-4.58.06-4.43,1.24h0L617,294.6l-3.22,3.26,0,0L533,404.31l-2,3.42-1.21,3.71v0l-.36,3.88.49,3.86h0l1.36,3.71,2.1,3.28,0,0,2.77,2.74,0,0,3.3,2h0l3.73,1.29h0l3.87.43H617l2.57-.19,2.54-.56h0l2.42-.94,2.23-1.26,2.05-1.59,1.8-1.88,1.51-2.12,0,0,1.17-2.32.81-2.42v0l.46-2.54h0L645.5,310.41ZM547.05,421a6,6,0,1,1,6-6A6,6,0,0,1,547.05,421ZM617,421a6,6,0,1,1,6-6A6,6,0,0,1,617,421Zm10.89-106.47a6,6,0,1,1,6-6A6,6,0,0,1,627.88,314.53Z" transform="translate(0 -4.55)"/><path d="M514,474.7a1.36,1.36,0,0,1-.39-1,1.81,1.81,0,0,1,.57-1.34,2.16,2.16,0,0,1,1.6-.57,2.25,2.25,0,0,1,1.58.53,1.66,1.66,0,0,1,.57,1.24,1.62,1.62,0,0,1-.33,1.06,1.91,1.91,0,0,1-.58.45,2.3,2.3,0,0,1,.69.46,1.77,1.77,0,0,1,.46,1.27,2.13,2.13,0,0,1-.62,1.56,2.3,2.3,0,0,1-1.75.65,2.74,2.74,0,0,1-1.73-.56,1.94,1.94,0,0,1-.7-1.61,1.78,1.78,0,0,1,1.2-1.76A1.76,1.76,0,0,1,514,474.7Zm2.83,3.17a1.2,1.2,0,0,0,.41-1,1.28,1.28,0,0,0-.42-1,1.59,1.59,0,0,0-1.06-.35,1.47,1.47,0,0,0-1,.36,1.25,1.25,0,0,0-.4,1,1.34,1.34,0,0,0,.37.95,1.45,1.45,0,0,0,1.12.4A1.52,1.52,0,0,0,516.82,477.87Zm-.16-3.46a1,1,0,0,0,0-1.5,1.26,1.26,0,0,0-.95-.32,1,1,0,0,0-1.2,1.09.91.91,0,0,0,.36.77,1.37,1.37,0,0,0,.86.28A1.22,1.22,0,0,0,516.66,474.41Z" transform="translate(0 -4.55)"/><path class="cls-2" d="M807.73,485.28l-1.85-4.89-3.19-4.15-4.28-3-5-1.65h0l-227-39.15h0l-2.37-.25h0l-2.35.07h0l-2.32.39h0l-2.28.71-2.13,1,0,0-2,1.29L551,437.18l-1.57,1.75,0,0-1.32,1.94,0,0-1,2.12v0l-16.29,39.11v0l-1,3.3v.05l-.34,3.41V489l.33,3.41v.05l1,3.28,0,.05,1.61,3h0l2.19,2.68,0,0,2.64,2.17,3.06,1.65,0,0,3.28,1h0l3.43.34H790.38l5.23-.78,4.73-2.26,3.83-3.51h0l2.67-4.55,1.22-5.09ZM547.05,495a6,6,0,1,1,6-6A6,6,0,0,1,547.05,495Zm16.31-39.15a6,6,0,1,1,5.95-6A6,6,0,0,1,563.36,455.82ZM790.42,495a6,6,0,1,1,6-6A6,6,0,0,1,790.42,495Z" transform="translate(0 -4.55)"/><path d="M514.33,538.87a1.1,1.1,0,0,0,.56,1,1.23,1.23,0,0,0,.61.15,1.34,1.34,0,0,0,1.07-.52,4.25,4.25,0,0,0,.63-2.14,1.62,1.62,0,0,1-.72.66,2.41,2.41,0,0,1-.93.18,2.07,2.07,0,0,1-1.6-.63,2.25,2.25,0,0,1-.59-1.61,2.58,2.58,0,0,1,.58-1.68,2.07,2.07,0,0,1,1.71-.72,2.1,2.1,0,0,1,2.11,1.38,4.71,4.71,0,0,1,.33,1.89,6.13,6.13,0,0,1-.39,2.27,2.24,2.24,0,0,1-2.17,1.65,2.11,2.11,0,0,1-1.55-.53,1.83,1.83,0,0,1-.54-1.35Zm2.29-1.78a1.45,1.45,0,0,0,.43-1.2,1.52,1.52,0,0,0-.39-1.15,1.37,1.37,0,0,0-1-.38,1.31,1.31,0,0,0-1,.43,1.71,1.71,0,0,0-.38,1.16,1.66,1.66,0,0,0,.33,1.08,1.31,1.31,0,0,0,1.06.4A1.5,1.5,0,0,0,516.62,537.09Z" transform="translate(0 -4.55)"/><path class="cls-2" d="M770.1,569.79l-1.21-4.18v0l-2.17-3.71,0,0-37.06-48.71h0l-1-1.24,0,0-1.14-1.13-1.25-1h0l-1.33-.91h0l-1.4-.78h0l-1.46-.64h0l-1.52-.51h0l-1.57-.36-1.61-.23h0l-1.61-.08H547.06l-5.14.76-4.64,2.17-3.8,3.37h0l-2.71,4.41-1.33,4.94.15,5.11,1.62,4.9,2.91,4.18h0l4,3.2,4.77,1.9h0l205.51,48.72,4.34.49,4.27-.58h0l4-1.6h0l3.5-2.53h0l2.79-3.33,1.9-3.86v0l.91-4.28h0ZM547,529.81a6,6,0,1,1,6-5.95A6,6,0,0,1,547,529.81Zm55.14,11.09a6,6,0,1,1,6-5.95A6,6,0,0,1,602.16,540.9Zm87.73-1.57a6,6,0,1,1,6-6A6,6,0,0,1,689.89,539.33Zm25.62-9.52a6,6,0,1,1,6-5.95A6,6,0,0,1,715.51,529.81Zm37.09,48.75a6,6,0,1,1,6-5.95A6,6,0,0,1,752.6,578.56Z" transform="translate(0 -4.55)"/></svg>