<?xml version="1.0" encoding="utf-8"?>
<!-- Generator: Adobe Illustrator 27.2.0, SVG Export Plug-In . SVG Version: 6.00 Build 0)  -->
<svg version="1.1" id="Layer_1" xmlns="http://www.w3.org/2000/svg" xmlns:xlink="http://www.w3.org/1999/xlink" x="0px" y="0px"
	 viewBox="0 0 412.4 695.7" style="enable-background:new 0 0 412.4 695.7;" xml:space="preserve">
<style type="text/css">
	.st0{fill:#FFFFFF;}
	.st1{fill:none;stroke:#000000;stroke-width:0.71;stroke-linecap:round;stroke-linejoin:round;}
</style>
<rect class="st0" width="412.4" height="695.7"/>
<path class="st1" d="M139,170.1l0.1-0.1 M234.7,331.3l-0.9,0.8 M169.7,131.3l-0.5,0.5 M99.4,302.7L99.4,302.7 M36.1,615.4l-1.7-0.1
	l-1.7,0.2l-1.7,0.3l-1.6,0.5l-1.5,0.8l-1.4,0.9l-1.3,1.1 M63.7,640.2L63.7,640.2 M60.7,648.3L60.7,648.3 M55.3,637.2l1.3-4.2
	 M63.6,640.2l-8.3-3 M55.3,637.2l-0.9,0.9 M63.7,640.2l-0.9,0.9 M64.4,635.7L64.4,635.7 M62.2,617.7l-26.1-2.3 M36.1,615.4l-0.9,0.9
	 M60.7,648.3l2.1-7.2 M62.8,641.1l-8.3-3 M54.5,638.1l1.6-5.4 M64.4,635.7l-8.3-3 M64.4,635.7l0.5-1.8 M61.3,618.6l-26.1-2.3
	 M35.2,616.3l-1.7-0.1l-1.7,0.2l-1.7,0.3l-1.6,0.5L27,618l-1.4,0.9l-1.3,1.1l-1.1,1.2l-1,1.3l-0.8,1.5l-0.6,1.6l-0.5,1.6l-0.2,1.7
	v1.7l0.1,1.8l0.4,1.7l0.5,1.7l0.8,1.6l0.9,1.5l1.1,1.4l1.2,1.3l1.4,1.2l1.5,1l1.5,0.8l1.7,0.6l1.7,0.5l1.7,0.2 M60.6,648.3
	l-26.1-2.4 M61.9,618.9L61.9,618.9l-0.2-0.1v-0.1h-0.2l-0.1-0.1h-0.2 M63.2,620.1l0.1-0.3l0.2-0.4V619l-0.1-0.4l-0.2-0.3l-0.3-0.3
	l-0.4-0.2l-0.4-0.1 M62.1,617.7l-0.9,0.9 M61.9,618.9l0.3,0.6v0.9l-0.1,0.4l-0.2,0.4l-0.2,0.2 M64.8,633.9l-1.2-0.5l-1.2-0.8l-1-0.9
	l-0.9-1l-0.8-1.2l-0.5-1.2l-0.4-1.3l-0.1-1.4v-1.3L59,623l0.5-1.2l0.6-1.1l0.8-1l1-0.8 M64.8,632.8v1.1 M61.7,621.4l-0.7,0.9l-0.5,1
	l-0.4,1l-0.1,1.2v1.1l0.2,1.2l0.4,1.1l0.6,1l0.7,0.9l0.9,0.8l1,0.7l1,0.5 M64.8,632.8l1.2,0.3l1.1,0.1l1.2-0.1l1.1-0.3l1-0.5
	l0.9-0.6l0.8-0.8l0.6-0.9l0.5-1l0.2-1.1l0.1-1.2l-0.1-1.1l-0.3-1.2l-0.5-1l-0.7-1l-0.8-0.9l-0.9-0.7l-1.1-0.6l-1.1-0.4l-1.1-0.2
	h-1.2l-1.1,0.2l-1.1,0.4l-0.9,0.5l-0.9,0.7 M72.1,620.6L72.1,620.6l-1-0.7l-1-0.6l-1.2-0.4l-1.1-0.2h-1.1l-1.2,0.2l-1,0.4l-1,0.5
	l-0.7,0.6 M264.9,649.2l-1.6,0.7l-1.4,0.9l-1.3,1l-0.5,0.4 M290.9,661.8l-0.7-4.9 M299.5,661.2L299.5,661.2 M299.8,669.5l-0.1,0.1
	 M299.5,661.1l-8.6,0.7 M290.9,661.8l-0.9,0.9 M299.5,661.1l-0.9,0.9 M288.8,640.6l-23.9,8.6 M264.9,649.2l-0.9,0.9 M297.8,656.2
	l-0.1,0.1 M299.7,669.6l-1.1-7.6 M298.6,662l-8.6,0.7 M290,662.7l-0.8-5.8 M297.7,656.3l-8.5,0.6 M297.7,656.3l-0.2-1.9
	 M287.9,641.5l-23.9,8.6 M264,650.1l-1.6,0.7l-1.4,0.9l-1.4,1l-1.2,1.2l-1,1.3l-0.8,1.4l-0.7,1.5l-0.5,1.7l-0.3,1.6l-0.1,1.8
	l0.1,1.7l0.3,1.7l0.5,1.7l0.6,1.6l0.9,1.6l1,1.5l1.2,1.3l1.3,1.2l1.5,1.1l1.5,0.8l1.7,0.7l1.6,0.6l1.7,0.3l1.8,0.1l1.7-0.1l1.7-0.3
	l1.6-0.4 M299.7,669.6l-24,8.7 M288.7,641.4h-0.6l-0.1,0.1h-0.1 M290.7,641.5l-0.1-0.2l-0.3-0.4l-0.3-0.2l-0.4-0.1l-0.4-0.1
	l-0.4,0.1 M288.8,640.6l-0.9,0.9 M288.7,641.4l0.4,0.5l0.3,0.7v0.8l-0.1,0.4 M297.5,654.4h-1.4l-1.3-0.2l-1.3-0.4l-1.2-0.6l-1.1-0.8
	l-1-1l-0.9-1.1l-0.6-1.1l-0.5-1.3l-0.3-1.3l-0.1-1.4l0.1-1.3l0.3-1.3l0.6-1.2 M296.9,653.1l0.7,1.3 M298.4,639l-0.9-0.3l-1.1-0.1
	l-1.2,0.1l-1.1,0.3l-1,0.5l-0.9,0.6l-0.3,0.3 M289.4,643.8l-0.2,1.1l-0.1,1.1l0.1,1.2l0.3,1.1l0.5,1.1l0.7,0.9l0.8,0.9l0.9,0.7
	l1.1,0.6l1.1,0.4l1.1,0.2h1.2 M296.9,653.1l1.1-0.2l1-0.4l1-0.5l0.9-0.7l0.7-0.9l0.5-1l0.4-1l0.1-1.2v-1.1l-0.2-1.2l-0.4-1.1l-0.6-1
	l-0.7-0.9l-0.9-0.8l-1-0.7l-1.1-0.5l-1.1-0.3l-1.2-0.1l-1.1,0.1l-1.1,0.3l-1,0.5l-0.9,0.6l-0.8,0.8l-0.6,0.9l-0.5,1.1 M159.3,352.1
	l-0.3,0.5l-0.5,1l-0.2,1.2l-0.1,1.2l0.1,1.2l0.3,1.1l0.5,1.1l0.7,1.1l0.9,0.9l0.9,0.7l1.1,0.6l1.2,0.4l1.1,0.2h1.2l1.2-0.2l1.1-0.4
	l0.7-0.4 M93.8,131.6l-0.4,0.5l-0.4,1.1l-0.3,1.1l-0.1,1.2l0.1,1.2l0.4,1.2l0.5,1.1l0.7,1l0.8,0.9l1,0.8l1.1,0.6l1.1,0.4l1.2,0.2
	h1.2l1.1-0.2l1.1-0.4l0.8-0.4 M177.3,335.9l-0.6-3.6l-1.9-11.5l-2.1-11.6l-2.3-11.5l-2.5-11.5l-2.7-11.5l-2.9-11.4l-3.1-11.4
	l-3.3-11.3l-3.4-11.3l-3.7-11.3l-3.8-11.2l-4.1-11.1l-4.2-11.1l-4.4-11l-4.6-11l-4.5-10.4 M176.3,336.3l-0.5-3.1l-1.9-11.5
	l-2.2-11.6l-2.3-11.5l-2.5-11.5l-2.7-11.5l-2.9-11.4l-3-11.4l-3.3-11.3l-3.5-11.3l-3.6-11.3l-3.9-11.2l-4-11.1l-4.2-11.1l-4.4-11
	l-4.6-11l-4.7-10.9l-0.2-0.4 M148.9,353.4l-0.9-7.1l-1.8-11.6l-1.9-11.6l-2.2-11.7l-2.3-11.5l-2.6-11.6l-2.8-11.5l-3-11.5l-3.2-11.4
	l-3.4-11.4l-3.6-11.4l-3.7-11.3l-4-11.2l-4.2-11.2l-4.4-11.1l-4.7-11.1l-4.8-10.9l-4.9-10.9l-2.3-5 M93.1,132v0.1l-0.7,0.9l-0.5,1.1
	l-0.2,1.1l-0.1,1.2l0.1,1.2l0.3,1.2l0.5,1.1l0.7,1l0.9,0.9l0.9,0.8l1.1,0.6l1.2,0.4l1.2,0.2h1.2l1.2-0.2l1.1-0.4l1-0.6l0.3-0.2
	 M158.8,352.5h-0.1l-0.6,1l-0.5,1l-0.3,1.2v1.2l0.1,1.2l0.3,1.1l0.5,1.1l0.7,1.1l0.8,0.9l1,0.7l1.1,0.6l1.1,0.4l1.2,0.2h1.2l1.2-0.2
	l1.1-0.4l1-0.5l0.2-0.2 M50.8,329.8l0.5-0.5l1-1.3l0.9-1.4 M34.6,314l-0.3,0.4l-0.6,1l-0.4,1.1l-0.2,1.2v1.2l0.2,1.2l0.4,1.1
	l0.6,1.1l0.7,1l0.9,0.8l1.1,0.7l1.1,0.5l1.1,0.4l1.2,0.1l1.2-0.1l1.1-0.3l1.1-0.4l0.9-0.6 M53.2,326.6l5.4-9.9l5.1-10l5-10.1
	l4.8-10.3l4.6-10.3l4.5-10.4l4.2-10.5l4.1-10.5l3.9-10.7l3.6-10.7l3.5-10.8l3.4-10.9l2.3-8.3 M53.2,326.6l-0.9,0.9 M100.2,97.4
	l-0.8,0.7 M52.3,327.5l5.3-9.9l5.2-10l5-10.1l4.8-10.3l4.6-10.3l4.4-10.4l4.3-10.5l4-10.5l3.9-10.7l3.7-10.7l3.5-10.8l3.3-10.9
	l2.9-10.2 M100,97.7l-0.7,0.6l-1.2,1.1l-1.1,1.3l-0.9,1.4l-0.7,1.5l-0.6,1.6l-0.3,1.7 M93.9,110.4l0.6-3.5 M25.9,311.8l5.4-10
	l5.2-10.1l5-10.2l4.8-10.3l4.6-10.4l4.4-10.5l4.2-10.6l4-10.6l3.8-10.8l3.6-10.8l3.5-10.9l3.2-11l3-11.1l2.8-11.1l2.6-11.2l1.1-4.9
	 M25.9,311.8l-0.7,1.5l-0.5,1.6l-0.4,1.7l-0.1,1.7l0.1,1.7l0.2,1.8l0.5,1.7l0.6,1.6l0.9,1.6l1,1.5l1.1,1.3l1.3,1.3l1.4,1l1.6,0.9
	l1.6,0.8l1.7,0.5l1.7,0.4l1.7,0.1h1.7l1.7-0.2l1.6-0.5l1.6-0.6l1.5-0.8l1.3-1l1.2-1.2l1.1-1.3l0.9-1.4 M45.7,322.4l0.3-1.1l0.1-1.2
	l-0.1-1.2l-0.3-1.1l-0.5-1.2l-0.7-1l-0.8-0.9l-1-0.8l-1-0.6l-1.2-0.4l-1.2-0.2l-1.2-0.1l-1.1,0.2l-1.1,0.4l-1,0.5l-0.9,0.8l-0.8,0.8
	l-0.6,1l-0.3,1.1l-0.2,1.2v1.2l0.2,1.2l0.4,1.1l0.6,1.1l0.7,1l0.9,0.8l1,0.7l1.1,0.5l1.2,0.4l1.2,0.1l1.2-0.1l1.1-0.3l1.1-0.4
	l0.9-0.7l0.8-0.8l0.7-0.9L45.7,322.4 M140.8,178l-0.6,0.9l-0.5,1.1l-0.3,1.1l-0.1,1.2l0.1,1.2l0.3,1.1l0.5,1.2l0.6,1l0.9,0.9
	l0.9,0.8l1.1,0.6l1.1,0.4l1.2,0.3h1.2l1.1-0.2l1.1-0.3l1.1-0.6l0.4-0.3 M177,153.9l20.6-8.5 M215.7,171l2.8-1.2 M151.7,197.3
	l6.6-2.7 M177.1,154.4l19.8-8.2 M139,170.1l10-4.2 M141.5,197.5l0.3,0.1l1.6,0.5l1.7,0.2h1.7l1.7-0.1l1.6-0.4l1.6-0.5 M139,170.1
	l-1.5,0.7l-1.3,0.9l-1.3,1l-1.1,1.2l-0.9,1.3 M152.4,184.8v-1.2l-0.2-1.2l-0.4-1.1l-0.6-1.1l-0.7-1l-0.9-0.9l-1-0.7l-1.1-0.5
	l-1.2-0.3l-1.2-0.2l-1.2,0.1l-1.1,0.3l-1.1,0.4l-0.9,0.7l-0.9,0.8l-0.6,0.9l-0.5,1.1l-0.3,1.1l-0.1,1.2l0.1,1.2l0.2,1.1l0.5,1.2
	l0.7,1l0.8,0.9l1,0.8l1,0.6l1.2,0.4l1.2,0.3h1.1l1.2-0.2l1.1-0.3l1-0.6l0.9-0.7l0.8-0.9l0.6-1l0.4-1.1L152.4,184.8 M168.7,191.2
	l-0.4,0.4l-0.5,1l-0.4,1.1l-0.2,1.2v1.2l0.2,1.2l0.4,1.1l0.6,1.1l0.8,1l0.9,0.8l1,0.7l1.1,0.5l1.2,0.3l1.1,0.1h1.2l1.2-0.3l1-0.5
	l0.8-0.5 M184.7,206.8l0.8-0.8 M185.5,206l61.6-71.2 M184.6,206.9l0.9-0.9 M230.3,120l-0.4,0.5l-0.5,1l-0.4,1.1l-0.2,1.2v1.2
	l0.2,1.2l0.4,1.1l0.6,1.1l0.8,0.9l0.9,0.9l1,0.7l1.1,0.5l1.2,0.3l1.2,0.1l1.1-0.1l1.2-0.2l1-0.5l0.9-0.6 M247.1,134.8l1-1.3l0.9-1.4
	l0.6-1.5l0.5-1.6l0.3-1.7v-1.7l-0.1-1.7l-0.3-1.7l-0.5-1.6l-0.7-1.6l-0.9-1.6l-1-1.4l-1.2-1.3l-1.3-1.2l-1.5-1l-1.5-0.8l-1.6-0.7
	l-1.7-0.5l-1.6-0.3l-1.7-0.1l-1.7,0.1l-1.7,0.3l-1.6,0.5l-1.5,0.7l-1.4,0.9l-1.3,1l-0.3,0.3 M246.2,135.7l0.9-0.9 M184.6,206.9
	l61.6-71.2 M246.2,135.7l1-1.3l0.8-1.4l0.7-1.5l0.4-1.6l0.3-1.7l0.1-1.7l-0.1-1.7l-0.3-1.7l-0.6-1.6l-0.6-1.6l-0.9-1.6l-1-1.4
	l-1.2-1.3l-1.4-1.2l-1.4-1l-1.5-0.8l-1.6-0.7l-1.7-0.5l-1.7-0.3l-1.7-0.1l-1.7,0.1l-1.6,0.3l-1.6,0.5l-1.5,0.7l-1.4,0.9l-1.3,1
	l-1.2,1.1 M161.9,186.8l61.6-71.2 M161.9,186.8l-1,1.3l-0.8,1.4l-0.7,1.5l-0.4,1.6l-0.3,1.7l-0.1,1.7l0.1,1.7l0.4,1.7l0.5,1.6
	l0.7,1.6l0.8,1.6l1.1,1.4l1.1,1.3l1.4,1.2l1.4,1l1.5,0.8l1.6,0.7l1.7,0.5l1.7,0.3l1.7,0.1l1.7-0.1l1.6-0.3l1.6-0.5l1.5-0.7l1.4-0.9
	l1.3-1l1.2-1.1 M179.8,194.9l-0.5-1.2l-0.6-1l-0.9-0.9l-0.9-0.8l-1.1-0.6l-1.1-0.4l-1.2-0.2h-1.2l-1.2,0.2l-1.1,0.3l-1,0.6l-0.9,0.7
	l-0.7,0.9l-0.6,1l-0.4,1.1l-0.2,1.2l0.1,1.2l0.2,1.2l0.4,1.1l0.6,1.1l0.7,1l0.9,0.8l1,0.7l1.2,0.5l1.1,0.3l1.2,0.1h1.2l1.1-0.3
	l1.1-0.5l0.9-0.6l0.9-0.9l0.6-0.9l0.5-1.1l0.3-1.1l0.1-1.2l-0.1-1.2L179.8,194.9 M241.5,123.7l-0.5-1.1l-0.7-1l-0.8-0.9l-1-0.8
	l-1.1-0.6l-1.1-0.4l-1.2-0.2h-1.2l-1.2,0.2l-1.1,0.3l-1,0.6l-0.9,0.7l-0.7,0.9l-0.6,1l-0.3,1.1l-0.2,1.2v1.2l0.2,1.2l0.4,1.1
	l0.6,1.1l0.7,0.9l0.9,0.9l1.1,0.7l1.1,0.5l1.1,0.3l1.2,0.1l1.2-0.1l1.1-0.2l1.1-0.5l1-0.7l0.8-0.8l0.6-0.9l0.5-1.1l0.3-1.1l0.1-1.2
	l-0.1-1.2L241.5,123.7 M307.2,660.5l-7.5,0.6 M299.7,661.1l-0.9,0.9 M298.6,637.9l-0.2-0.1l-1.2-0.1l-1.1,0.1l-1.1,0.3l-1,0.5
	l-0.9,0.6l-0.2,0.3 M298.4,639l-0.9-0.3l-1.2-0.1l-1.1,0.1l-1.1,0.3l-1,0.5l-0.9,0.6l-0.3,0.3 M300.2,636.5h-0.1l-0.1,0.1h-0.1
	l-0.1,0.1l-0.1,0.1 M300.2,636.5l32.7-12.1 M300.2,636.5l-1,0.9 M324.5,602.4l-0.6,1l-0.4,1.1l-0.2,1.2l0.1,1.2l0.2,1.2l0.4,1.1
	l0.6,1.1l0.8,0.9l0.9,0.9l1,0.6l1.1,0.5l1.2,0.4l1.2,0.1l1.1-0.1l1.2-0.3l1-0.5l0.3-0.1 M373.3,607l8.5,3.1 M337.1,587.9l22-8.2
	 M388.2,635.1l0.7-0.7l1.1-1.4l0.8-1.4l0.7-1.5l0.5-1.7l0.3-1.6l0.1-1.7l-0.1-1.8l-0.4-1.7l-0.4-1.7l-0.7-1.6l-0.9-1.6l-1-1.4
	l-1.2-1.3l-1.3-1.2l-1.5-1.1l-1.5-0.9l-1.6-0.7 M381.8,610.1l-1,0.9 M359.6,588.9l-0.3,0.6l-0.6,1l-0.4,1.1l-0.2,1.1v1.2l0.3,1.2
	l0.4,1.2l0.6,1l0.7,1l1,0.8l1,0.7l1.1,0.5l1.2,0.3l1.1,0.1l1.2-0.1l1.2-0.2l1-0.5l0.8-0.6 M375.8,604.8l1-1.1l1-1.3l0.8-1.5l0.6-1.5
	l0.5-1.6l0.2-1.7l0.1-1.7l-0.1-1.7l-0.4-1.7l-0.5-1.7l-0.7-1.6l-0.9-1.6l-1.1-1.4l-1.2-1.3l-1.3-1.2l-1.4-1l-1.6-0.8l-1.6-0.7
	l-1.7-0.5l-1.7-0.3l-1.7-0.1l-1.7,0.1l-1.7,0.3l-1.6,0.5 M359.1,579.7l-0.9,0.9 M323.9,602.8l-0.4,0.5l-0.5,1l-0.4,1.1l-0.2,1.2v1.2
	l0.3,1.2l0.4,1.1l0.6,1.1l0.7,0.9l0.9,0.9l1.1,0.6l1.1,0.5l1.1,0.4l1.2,0.1l1.2-0.1l1.1-0.3l1.1-0.5l0.8-0.5 M370.8,592.6l-0.5-1.1
	l-0.7-1l-0.8-0.9l-1-0.8l-1.1-0.6l-1.1-0.4l-1.2-0.2h-1.2l-1.2,0.2l-1.1,0.4l-1,0.5l-0.8,0.8l-0.8,0.9l-0.5,1l-0.4,1.1l-0.2,1.1v1.2
	l0.2,1.2l0.5,1.2l0.6,1l0.7,1l0.9,0.8l1,0.7l1.2,0.5l1.1,0.3l1.2,0.1l1.2-0.1l1.1-0.2l1.1-0.5l0.9-0.7l0.8-0.8l0.7-1l0.5-1l0.2-1.2
	l0.1-1.1l-0.1-1.2L370.8,592.6 M307.4,661.3l-0.9-5.7 M307.4,661.3l-8.6,0.7 M300,669.6l-1.2-7.6 M300,669.6l82.5-30.6 M382.5,639
	l1.6-0.7l1.4-0.8l1.3-1.1l1.2-1.1l1-1.4l0.9-1.4l0.7-1.5l0.4-1.7l0.3-1.6l0.1-1.7l-0.1-1.8l-0.3-1.7l-0.5-1.7l-0.7-1.6l-0.8-1.6
	l-1.1-1.4l-1.1-1.3l-1.4-1.2l-1.4-1.1l-1.5-0.9l-1.7-0.7 M372,607.8l8.8,3.2 M372,607.8l1.4-0.9l1.3-1.1l1.2-1.2l0.9-1.3l0.9-1.5
	l0.6-1.5l0.4-1.6l0.3-1.7l0.1-1.7l-0.2-1.7l-0.3-1.7l-0.5-1.7l-0.7-1.6l-0.9-1.6l-1.1-1.4l-1.2-1.3l-1.3-1.2l-1.5-1l-1.5-0.8
	l-1.6-0.7l-1.7-0.5l-1.7-0.3l-1.7-0.1l-1.7,0.1l-1.7,0.3l-1.6,0.5 M337.3,588.4l20.9-7.8 M330.1,623.3l3.6,1.3 M299.2,637.4
	l34.5-12.8 M299.2,637.4l-0.3,0.2l-0.3,0.3l-0.1,0.3l-0.1,0.4l0.1,0.4l0.1,0.4l0.3,0.3l0.3,0.2 M301.2,650.9l0.2-0.1l0.7-0.9l0.5-1
	l0.3-1l0.2-1.2v-1.1l-0.2-1.2l-0.5-1.1l-0.6-1l-0.7-0.9l-0.9-0.8l-1-0.7 M297.9,656.3l-0.5-3.3 M306.5,655.6l-8.6,0.7 M71.5,643
	l-7.7-2.8 M63.8,640.2l-1,0.9 M73,619.6l-0.9-0.6l-1-0.6L70,618l-1.2-0.2h-1.1l-1.1,0.2l-1.1,0.4l-0.9,0.5l-0.8,0.6 M72.2,620.6
	L72.2,620.6l-1-0.7l-1-0.6l-1.1-0.4l-1.2-0.2h-1.1l-1.1,0.2l-1.1,0.4l-1,0.5l-0.7,0.6 M74.5,618.8H74l-0.1,0.1h-0.1 M73.8,618.9
	l-0.2,0.2 M74.5,618.8l35.6,3.2 M74.5,618.8l-0.9,0.9 M109.8,600.6L109.8,600.6l-0.6,0.9l-0.5,1.1l-0.3,1.1l-0.1,1.2l0.1,1.2
	l0.3,1.2l0.5,1.1l0.7,1l0.8,0.9l1,0.8l1.1,0.6l1.1,0.4l1.2,0.2l1.2,0.1l1.1-0.2l1.1-0.4l1-0.6l0.4-0.2 M115.6,590.5l-1.8-0.1
	l-1.7,0.2l-1.7,0.4l-1.6,0.5l-1.5,0.8l-1.4,0.9l-1.3,1.1 M162.8,651.6l1.1-1.1l0.9-1.3l0.9-1.5l0.6-1.6l0.4-1.6l0.3-1.7v-1.7
	l-0.2-1.7l-0.3-1.7l-0.6-1.7l-0.7-1.6l-0.9-1.6l-1.1-1.4l-1.2-1.3 M155.9,624.2l6.1,5.9 M162,630.1l-0.9,0.9 M147.8,603.9
	L147.8,603.9l-0.6,1l-0.5,1l-0.3,1.1l-0.1,1.2l0.1,1.2l0.3,1.2l0.5,1.1l0.7,1l0.8,0.9l1,0.8l1.1,0.6l1.1,0.4l1.2,0.3h1.2l1.1-0.2
	l1.1-0.4l1.1-0.5l0.3-0.3 M115.6,590.5l38,3.3 M115.6,590.5l-0.9,0.9 M164,619.7l0.1-0.1l1.1-1.2l1-1.4l0.8-1.5l0.6-1.5l0.4-1.7
	l0.2-1.7v-1.7l-0.2-1.7l-0.4-1.7l-0.6-1.6l-0.7-1.6l-0.9-1.5l-1.1-1.5l-1.3-1.2l-1.3-1.2l-1.5-0.9l-1.6-0.9l-1.6-0.6l-1.7-0.4
	l-1.7-0.3 M153.6,593.8l-0.9,0.9 M121.4,607.3v-1.2l-0.2-1.2l-0.4-1.2l-0.6-1l-0.8-1l-0.9-0.9l-1-0.6l-1.1-0.6l-1.2-0.3l-1.2-0.1
	l-1.1,0.1l-1.2,0.3l-1,0.4l-1,0.7l-0.8,0.8l-0.7,0.9l-0.4,1.1l-0.3,1.1l-0.1,1.2l0.1,1.2l0.3,1.2l0.5,1.1l0.7,1l0.8,0.9l1,0.8l1,0.6
	l1.2,0.4l1.1,0.2l1.2,0.1l1.2-0.2l1.1-0.4l1-0.6l0.9-0.7l0.7-0.9l0.6-1l0.4-1.1L121.4,607.3 M159.4,610.6v-1.2l-0.2-1.2l-0.4-1.1
	l-0.6-1.1l-0.8-1l-0.9-0.8l-1-0.7l-1.1-0.5l-1.2-0.4l-1.1-0.1l-1.2,0.1l-1.2,0.3l-1,0.4l-1,0.7l-0.8,0.8l-0.6,1l-0.5,1l-0.3,1.1
	l-0.1,1.2l0.1,1.2l0.3,1.2l0.5,1.1l0.7,1l0.8,0.9l1,0.8l1,0.6l1.2,0.4l1.2,0.3h1.2l1.1-0.2l1.1-0.4l1-0.5l0.9-0.8l0.8-0.8l0.5-1.1
	l0.4-1.1L159.4,610.6 M71.2,644.1l1.5-5.4 M71.2,644.1l-8.4-3 M60.7,648.3l2.1-7.2 M60.7,648.3l90.2,8 M150.9,656.3h1.7l1.8-0.1
	l1.6-0.3l1.6-0.6l1.5-0.7l1.4-0.9l1.3-1.1l1.1-1.2l1-1.3l0.8-1.5l0.6-1.6l0.5-1.6l0.2-1.7l0.1-1.7l-0.2-1.7l-0.3-1.7l-0.6-1.7
	l-0.7-1.6l-0.9-1.6l-1.1-1.4l-1.2-1.3 M154.2,624.4l6.9,6.6 M154.2,624.4l1.7-0.2l1.6-0.3l1.6-0.6l1.5-0.8l1.4-0.9l1.2-1.1l1.1-1.2
	l1-1.4l0.7-1.5l0.6-1.5l0.4-1.7l0.2-1.7l0.1-1.7l-0.2-1.7l-0.4-1.7l-0.6-1.6l-0.7-1.6l-1-1.5l-1.1-1.5l-1.2-1.2l-1.4-1.2l-1.4-0.9
	l-1.6-0.9l-1.6-0.6l-1.7-0.4l-1.7-0.3 M114.7,591.4l38,3.3 M114.7,591.4l-1.8-0.1l-1.7,0.2l-1.7,0.4l-1.6,0.5l-1.5,0.8l-1.5,0.9
	l-1.2,1.1l-1.2,1.3l-1,1.4l-0.7,1.5l-0.6,1.6l-0.4,1.7l-0.2,1.7 M99.6,604.4l-0.1,1 M99.5,605.4l0.1,1.6l0.3,1.5l0.4,1.5l0.6,1.5
	l0.7,1.4l0.9,1.4l0.9,1.2l1.1,1.2 M104.5,616.7l6.7,6.3 M73.6,619.7l37.6,3.3 M73.6,619.7h-0.4l-0.4,0.2l-0.3,0.2l-0.2,0.3l-0.1,0.4
	v0.4l0.1,0.4l0.2,0.3 M72.2,631l0.5-0.5l0.6-1l0.4-1l0.3-1.1l0.1-1.1l-0.1-1.2l-0.4-1.1l-0.5-1.1l-0.6-1 M64.4,635.7l0.9-2.8
	 M72.7,638.7l-8.3-3 M93.2,132l-0.5,0.7l-0.5,1l-0.4,1.1l-0.1,1.2v1.2l0.3,1.2l0.4,1.1l0.7,1.1l0.8,0.9l0.9,0.8l1,0.7l1.2,0.5
	l1.1,0.2l1.2,0.1l1.2-0.1l1.1-0.3l1.1-0.5l0.6-0.5 M165.4,147v-0.1l1.2-1.3l1-1.4l0.8-1.6l0.6-1.6l0.4-1.7l0.1-1.8v-1.8 M140.9,32.6
	l-0.5,0.7l-0.5,1l-0.4,1.2l-0.1,1.1v1.2l0.3,1.2l0.4,1.1l0.7,1.1l0.7,0.9l1,0.8l1,0.7l1.1,0.5l1.2,0.3h1.2l1.2-0.1l1.1-0.3l1-0.5
	l0.7-0.4 M161.2,37.2l8.3,98.5 M168.6,136.6l0.9-0.9 M155,151.7l-56,0.9 M155,151.7l1.8-0.1l1.7-0.4l1.7-0.5l1.5-0.8l1.5-0.9
	l1.3-1.2l1.2-1.3l0.9-1.4l0.8-1.6l0.6-1.6l0.4-1.7l0.2-1.8v-1.8 M160.3,38.1l8.3,98.5 M84.3,130.5L132,31.1 M84.3,130.5l-0.6,1.5
	l-0.5,1.7l-0.2,1.7l-0.1,1.7l0.2,1.7l0.3,1.7l0.6,1.7l0.7,1.6l0.9,1.5l1.1,1.5l1.2,1.3l1.3,1.1l1.5,1.1l1.6,0.8l1.6,0.7l1.7,0.4
	l1.7,0.3l1.7,0.1 M152,36.1l-0.6-1.1l-0.7-1l-0.8-0.9l-1-0.7l-1.1-0.6l-1.2-0.3l-1.2-0.2h-1.1l-1.2,0.2l-1.1,0.4l-1,0.6l-0.8,0.8
	l-0.7,0.9l-0.6,1l-0.3,1.2l-0.2,1.1l0.1,1.2l0.3,1.2l0.4,1.1l0.6,1.1l0.8,0.9l0.9,0.8l1.1,0.7l1.1,0.5l1.2,0.3h1.2l1.1-0.1l1.2-0.3
	l1-0.5l0.9-0.7l0.8-0.8l0.6-1l0.5-1.1l0.2-1.1l0.1-1.2l-0.2-1.2L152,36.1 M104.3,135.5l-0.5-1.1l-0.8-1l-0.8-0.9l-1-0.7l-1.1-0.6
	l-1.1-0.4l-1.2-0.1h-1.2l-1.2,0.2l-1.1,0.4l-0.9,0.6l-0.9,0.8l-0.7,0.9l-0.5,1l-0.4,1.1l-0.1,1.2v1.2l0.3,1.2l0.4,1.1l0.6,1.1
	l0.8,0.9l1,0.8l1,0.7l1.1,0.5l1.2,0.2l1.2,0.1l1.2-0.1l1.1-0.3l1-0.5l0.9-0.7l0.8-0.9l0.7-0.9l0.4-1.1l0.2-1.2l0.1-1.1l-0.2-1.2
	L104.3,135.5 M160.3,134.6l-0.6-1.1l-0.7-1l-0.8-0.8l-1-0.8l-1.1-0.5l-1.2-0.4l-1.2-0.2h-1.1l-1.2,0.2l-1.1,0.5l-1,0.6l-0.8,0.7
	l-0.7,0.9l-0.6,1.1l-0.3,1.1l-0.2,1.2l0.1,1.1l0.2,1.2l0.5,1.2l0.6,1l0.8,1l0.9,0.8l1.1,0.6l1.1,0.5l1.2,0.3l1.2,0.1l1.1-0.2
	l1.2-0.3l1-0.5l0.9-0.7l0.8-0.8l0.6-1l0.5-1.1l0.2-1.1l0.1-1.2l-0.2-1.2L160.3,134.6 M161.2,37.2l-0.2-1.7l-0.5-1.7l-0.6-1.6
	l-0.8-1.6l-0.9-1.4l-1.1-1.4l-1.3-1.2l-1.3-1.1l-1.5-1l-1.6-0.7l-1.6-0.6l-1.7-0.4l-1.6-0.3h-1.7l-1.7,0.2l-1.6,0.3l-1.6,0.6
	l-1.5,0.7l-1.4,0.9l-1.2,1l-0.1,0.1 M160.3,38.1l-0.3-1.7l-0.4-1.7l-0.6-1.6l-0.8-1.6l-0.9-1.4l-1.2-1.4l-1.2-1.2l-1.4-1.1l-1.4-1
	l-1.6-0.7l-1.6-0.6l-1.7-0.4l-1.7-0.3h-1.7l-1.6,0.2l-1.7,0.3l-1.5,0.6l-1.5,0.7l-1.4,0.9l-1.2,1l-1.2,1.2l-0.9,1.4l-0.8,1.4
	 M160.3,38.1l0.9-0.9 M179.7,131l0.3-1.1 M169.7,131.3l0.5-0.3 M188,98.1l-8,31.8 M179.1,130.8l0.9-0.9 M183.1,27.3l-0.2,0.2
	l-0.5,1.1l-0.3,1.1l-0.1,1.2V32l0.3,1.2l0.5,1.2l0.6,1l0.8,0.9l0.9,0.8l1.1,0.7l1.1,0.4l1.2,0.3l1.2,0.1l1.2-0.2l1.1-0.3l1-0.5
	 M203.8,32.9V31l-0.3-1.7l-0.5-1.6l-0.6-1.6l-0.8-1.6l-1-1.4l-1.1-1.4l-1.3-1.2l-1.4-1.1l-1.4-0.9l-1.6-0.7l-1.6-0.6l-1.7-0.4
	l-1.7-0.2h-1.7l-1.7,0.2l-1.6,0.4l-1.5,0.6l-1.5,0.8l-1.4,0.9l-1.1,1 M172.4,139.5l0.7-0.4l1.4-1l1.3-1.2l1.1-1.3l0.9-1.5l0.8-1.6
	l0.5-1.7 M187.4,97.6l-8.3,33.2 M201.8,27.8l-0.3-0.8l-0.8-1.6l-1-1.4l-1.1-1.4l-1.3-1.2l-1.4-1.1l-1.5-0.9l-1.5-0.7l-1.7-0.6
	l-1.7-0.4l-1.6-0.2h-1.7l-1.7,0.2l-1.6,0.4l-1.6,0.6l-1.4,0.8l-1.4,0.9l-1.1,1 M164.9,33.6l11-10.8 M99.4,98.1l0.8-0.9 M182.6,27.7
	l-0.6,0.7l-0.5,1.1l-0.3,1.1l-0.2,1.2l0.1,1.1l0.3,1.2l0.4,1.2l0.7,1l0.8,0.9l0.9,0.8l1.1,0.7l1.1,0.4l1.2,0.3l1.2,0.1l1.1-0.2
	l1.2-0.3l1-0.5l0.5-0.4 M169.7,131.5l0.7-0.7l0.6-1l0.4-1.1l0.2-1.2l0.1-1.2 M171.7,126.3l-0.2-1.1l-0.4-1.2l-0.5-1.1l-0.7-1
	L169,121l-0.8-0.5 M96.2,311.9l-0.2,0.3l-0.6,1l-0.5,1l-0.2,1.2v1.2l0.1,1.2l0.4,1.1l0.5,1.1l0.7,1l0.9,0.9l1,0.7l1.1,0.6l1.1,0.3
	l1.2,0.2h1.2l1.2-0.2l1.1-0.5l0.9-0.6l0.1-0.1 M108.4,275.4l-0.2,0.2l-0.6,1l-0.4,1.1l-0.3,1.1v1.2l0.1,1.2l0.4,1.2l0.6,1l0.7,1
	l0.8,0.9l1,0.7l1.1,0.6l1.2,0.4l1.2,0.1h1.1l1.2-0.2l1.1-0.4l1-0.6l0.1-0.1 M140.9,178l-0.1,0.2l-0.7,1l-0.4,1.1l-0.2,1.1l-0.1,1.2
	l0.2,1.2l0.3,1.2l0.6,1.1l0.7,1l0.9,0.9l1,0.7l1.1,0.5l1.1,0.4l1.2,0.2l1.2-0.1l1.1-0.2l1.1-0.4l1-0.6l0.1-0.1 M169.7,131.3l0.4-0.2
	l0.1-0.1 M124,297.8l-7.4,22 M158.5,194.6l-8.8,26.2 M179.8,130.9l-5.2,15.5 M179.8,130.9l-1,0.9 M179.8,130.9l0.4-1.6v-0.2
	 M132.7,270l-17,50.6 M157.8,194.9l-8.4,24.9 M178.8,131.8l-4.5,13.6 M178.8,131.8l0.3-1 M117.4,219.8l-27.7,83.1 M140.1,151.9
	l-7.5,22.4 M95.7,312.4l-0.6,0.7l-0.7,1l-0.4,1l-0.2,1.2l-0.1,1.2l0.2,1.2l0.3,1.1l0.6,1.1l0.7,1l0.9,0.9l1,0.7l1.1,0.6l1.1,0.3
	l1.2,0.2h1.2l1.1-0.2l1.1-0.5l1-0.6l0.6-0.5 M119.5,284l0.3-1.1l0.2-1.2l-0.1-1.2l-0.2-1.1l-0.5-1.2l-0.6-1l-0.8-1l-1-0.8l-1-0.6
	l-1.1-0.5l-1.2-0.2l-1.2-0.1l-1.2,0.1l-1.1,0.3l-1,0.6l-0.9,0.7l-0.8,0.8l-0.6,1l-0.5,1.1l-0.2,1.1v1.2l0.1,1.2l0.4,1.2l0.5,1l0.7,1
	l0.9,0.9l1,0.7l1.1,0.6l1.1,0.4l1.2,0.1h1.2l1.2-0.2l1-0.4l1-0.6l0.9-0.8l0.7-0.9L119.5,284 M140.5,178.4l-0.7,0.7l-0.6,1l-0.4,1.1
	l-0.3,1.1v1.2l0.2,1.2l0.3,1.2l0.6,1.1l0.7,1l0.8,0.9l1,0.7l1.1,0.5l1.2,0.4l1.2,0.2l1.2-0.1l1.1-0.2l1.1-0.4l1-0.6l0.6-0.5
	 M214.7,330.7l-0.3,0.5l-0.4,1l-0.3,1.2l-0.1,1.1l0.1,1.2l0.3,1.2l0.5,1.1l0.7,1.1l0.8,0.9l1,0.7l1,0.6l1.2,0.4l1.2,0.3h1.2l1.1-0.2
	l1.1-0.4l0.8-0.4 M235.5,336.3l-0.1-1.6l-0.2-1.7l-0.5-1.7 M202.7,292L202.7,292l-0.7,1l-0.5,1l-0.2,1.1l-0.1,1.2l0.1,1.2l0.3,1.2
	l0.5,1.1l0.7,1l0.8,0.9l1,0.8l1,0.6l1.2,0.4l1.2,0.3h1.1l1.2-0.2l1.1-0.4l1-0.6l0.3-0.2 M169.2,190.8l-0.3,0.4l-0.4,1.1l-0.3,1.1
	l-0.1,1.2l0.1,1.2l0.3,1.2l0.5,1.1l0.7,1l0.8,0.9l1,0.8l1.1,0.6l1.1,0.4l1.2,0.2h1.2l1.1-0.2l1.1-0.3l0.8-0.5 M169.7,131.3l-0.6-1.6
	l-0.1-0.3 M191.7,198.8l43,132.5 M169.7,131.3l11,33.8 M190.8,199.9l42.8,131.8 M169.3,133.9l10.5,32.2 M161.9,205.3l39.5,121.3
	 M144.6,151.9l14,43.3 M214.2,331.1L214.2,331.1l-0.7,1l-0.5,1l-0.3,1.2v1.1l0.1,1.2l0.3,1.2l0.5,1.1l0.7,1.1l0.8,0.9l0.9,0.7
	l1.1,0.6l1.2,0.4l1.1,0.3h1.2l1.2-0.2l1.1-0.4l1-0.5l0.3-0.3 M214,296.3l-0.4-1.2l-0.6-1l-0.7-1l-0.9-0.9l-1-0.6l-1.2-0.5l-1.1-0.4
	l-1.2-0.1l-1.2,0.1l-1.1,0.3l-1.1,0.4l-0.9,0.7l-0.9,0.8l-0.6,1l-0.5,1l-0.3,1.1l-0.1,1.2l0.1,1.2l0.4,1.2l0.5,1.1l0.6,1l0.9,0.9
	l0.9,0.8l1.1,0.6l1.1,0.4l1.2,0.3h1.2l1.2-0.2l1.1-0.4l1-0.6l0.9-0.7l0.7-0.9l0.6-1l0.4-1.1l0.2-1.1l-0.1-1.2L214,296.3
	 M168.7,191.2L168.7,191.2l-0.7,0.9l-0.5,1.1l-0.3,1.1v1.2l0.1,1.2l0.3,1.2l0.5,1.1l0.7,1l0.8,0.9l1,0.8l1,0.6l1.2,0.4l1.1,0.2h1.2
	l1.2-0.2l1.1-0.3l1-0.6l0.3-0.2 M323.9,602.8l-0.4,0.6l-0.6,1l-0.3,1.1l-0.2,1.2v1.2l0.3,1.2l0.4,1.1l0.6,1.1l0.8,0.9l0.9,0.8
	l1.1,0.7l1.1,0.5l1.1,0.3l1.2,0.1l1.2-0.1l1.1-0.3l1.1-0.5l0.7-0.5 M340.1,618.6l0.2-0.2l1.1-1.2l0.9-1.4l0.8-1.4l0.6-1.6l0.3-1.6
	l0.3-1.7v-1.7l-0.2-1.7l-0.4-1.7l-0.6-1.6 M158.1,343.3l-1.5,0.7l-1.5,0.9l-1.3,1.1l-0.2,0.1 M158.8,352.5l-0.5,0.6l-0.5,1l-0.4,1.1
	l-0.1,1.1v1.2l0.2,1.2l0.5,1.2l0.6,1l0.8,1l0.9,0.8l1,0.7l1.1,0.5l1.2,0.3h1.2l1.2-0.1l1.1-0.3l1-0.5l0.7-0.4 M158.1,343.3
	l55.4-21.4 M157.1,344.2l0.9-0.9 M214.1,331.1l-0.5,0.6l-0.5,1l-0.4,1.1l-0.1,1.2v1.2l0.2,1.2l0.5,1.1l0.6,1.1l0.8,0.9l0.9,0.9
	l1,0.6l1.1,0.5l1.2,0.3l1.2,0.1l1.2-0.1l1.1-0.3l1-0.5l0.7-0.5 M233.1,330.6l-0.8-1.6l-1.1-1.5L230,326l-1.3-1.2l-1.5-1.2l-1.6-0.9
	l-1.7-0.7l-1.7-0.6l-1.8-0.3l-1.8-0.1l-1.8,0.1l-1.7,0.3l-1.7,0.5 M212.5,322.8l0.9-0.9 M343,602.8L233.1,330.6 M232.2,331.5
	l0.9-0.9 M342.1,603.7l0.9-0.9 M342.1,603.7L232.2,331.5 M232.2,331.5l-0.9-1.6l-1-1.5l-1.2-1.5l-1.3-1.2l-1.5-1.2l-1.6-0.9
	l-1.7-0.7l-1.7-0.6l-1.8-0.3l-1.8-0.1l-1.8,0.1l-1.7,0.3l-1.7,0.5 M157.1,344.2l55.4-21.4 M157.1,344.2l-1.6,0.7l-1.4,0.9l-1.3,1.1
	l-1.2,1.2l-1,1.4l-0.9,1.5l-0.6,1.6l-0.4,1.6l-0.3,1.8v1.7l0.2,1.8l0.4,1.8l0.6,1.7l0.7,1.6l1,1.5l1.1,1.5l1.3,1.3 M314.3,612.3
	l-3.4-9.8l-3.6-9.8l-3.8-9.8l-4-9.6l-4.2-9.7l-4.3-9.5l-4.6-9.5l-4.7-9.4l-4.8-9.3l-5.1-9.2l-5.2-9.1l-5.4-9.1l-5.6-8.9l-5.7-8.9
	L244,472l-6-8.7l-6.2-8.5l-6.4-8.4l-6.5-8.3l-6.7-8.2l-6.8-8.1l-7-8l-7.1-7.8l-7.2-7.7l-7.4-7.6l-7.5-7.4l-7.7-7.3l-7.8-7.1
	 M314.3,612.3l0.7,1.6l0.8,1.6l1,1.4l1.1,1.4l1.3,1.2l1.4,1.1l1.5,0.9l1.6,0.7l1.6,0.6l1.7,0.3l1.7,0.2h1.7l1.7-0.2l1.6-0.4l1.5-0.6
	l1.5-0.8l1.3-0.9l1.3-1.1l1.1-1.2l0.9-1.4l0.7-1.4l0.6-1.6l0.4-1.6l0.2-1.7v-1.7L343,607l-0.3-1.7l-0.6-1.6 M169.8,356l-0.5-1.1
	l-0.7-1l-0.9-0.9l-1-0.7l-1-0.6l-1.2-0.4l-1.2-0.2h-1.2l-1.1,0.2l-1.1,0.4l-1,0.6l-0.9,0.8l-0.7,0.9l-0.5,1l-0.4,1.1l-0.2,1.1
	l0.1,1.2l0.2,1.2l0.4,1.2l0.7,1l0.7,1l0.9,0.8l1.1,0.7l1.1,0.5l1.2,0.3h1.2l1.1-0.1l1.2-0.3l1-0.5l0.9-0.6l0.8-0.9l0.7-0.9l0.4-1.1
	l0.3-1.1l0.1-1.2l-0.2-1.2L169.8,356 M334.9,606.3l-0.5-1.1l-0.7-1l-0.8-0.9l-1-0.7l-1.1-0.6l-1.1-0.4l-1.2-0.2h-1.2l-1.2,0.2
	L325,602l-1,0.6l-0.8,0.8l-0.7,0.9l-0.6,1l-0.4,1.1l-0.1,1.2v1.2l0.3,1.2l0.4,1.1l0.6,1.1l0.8,0.9l0.9,0.8l1,0.7l1.1,0.5l1.2,0.3
	l1.2,0.1l1.2-0.1l1.1-0.3l1.1-0.5l0.9-0.7l0.8-0.8l0.6-1l0.5-1.1l0.2-1.1l0.1-1.2l-0.1-1.2L334.9,606.3 M225.2,334.7l-0.5-1.1
	l-0.7-1l-0.9-0.9l-1-0.8l-1-0.6l-1.2-0.4l-1.2-0.1h-1.2l-1.1,0.2l-1.1,0.4l-1,0.6l-0.9,0.7l-0.7,0.9l-0.5,1l-0.4,1.1l-0.2,1.2
	l0.1,1.2l0.2,1.2l0.4,1.1l0.7,1.1l0.7,0.9l0.9,0.9l1.1,0.6l1.1,0.5l1.2,0.3l1.2,0.1l1.1-0.1l1.2-0.3l1-0.5l0.9-0.7l0.8-0.8l0.7-1
	l0.4-1l0.3-1.2l0.1-1.2l-0.2-1.2L225.2,334.7 M111,599.8l-0.2,0.4l-0.4,1.1l-0.1,1.2v1.2l0.3,1.2l0.4,1.1l0.6,1.1l0.8,0.9l0.9,0.8
	l1,0.7l1.2,0.5l1.1,0.3l1.2,0.1l1.2-0.1l1.1-0.3l0.5-0.2 M35,313.6v0.1l-0.6,1l-0.3,1.1l-0.2,1.2v1.2l0.3,1.2l0.4,1.1l0.6,1.1
	l0.8,0.9l0.9,0.9L38,324l1.1,0.5l1.2,0.3l1.1,0.1l1.2-0.1l1.1-0.3l1.1-0.5l0.1-0.1 M65.7,302.5l24.1-0.5 M96.1,312l-0.5,0.6l-0.5,1
	l-0.4,1.1l-0.2,1.2l0.1,1.2l0.2,1.1l0.4,1.2l0.7,1l0.7,1l0.9,0.8l1.1,0.7l1.1,0.5l1.2,0.3l1.2,0.1l1.1-0.1l1.2-0.4l1-0.5l0.7-0.4
	 M117.9,344.6l-1.4-24.9 M131.5,591.9l-5-91.1 M115.4,317.3L115.4,317.3 M130.5,591.8l-15.1-274.5 M115.4,317.3l-0.3-1.8l-0.4-1.7
	l-0.7-1.7l-0.9-1.7l-1.1-1.5l-1.2-1.4l-1.4-1.2l-1.5-1.1l-1.6-0.9l-1.7-0.7l-1.7-0.5l-1.8-0.3l-1.8-0.1 M65.3,303.4l34-0.7
	 M101.5,597.8v-4.9l-0.3-10.2l-0.4-10.2l-0.7-10.3L99.3,552l-1-10.2L97,531.5l-1.3-10.3l-1.6-10.2l-1.8-10.2l-2-10.1l-2.2-10.1
	l-2.4-10.1l-2.6-10.1l-2.8-10l-3-10l-3.1-9.9l-3.4-9.9l-3.5-9.8l-3.7-9.8l-3.9-9.7l-4.1-9.6l-4.3-9.6l-4.4-9.5l-4.7-9.4l-4.8-9.4
	l-4.9-9.2l-2-3.5 M34.6,314l-0.5,0.6l-0.5,1l-0.4,1.1l-0.1,1.2v1.2l0.3,1.2l0.4,1.1l0.6,1.1l0.8,0.9l0.9,0.9l1,0.6l1.2,0.5l1.1,0.3
	l1.2,0.1l1.2-0.1l1.1-0.3l1.1-0.5l0.7-0.5 M110.5,600.1l-0.5,1l-0.4,1.1l-0.2,1.2l0.1,1.2l0.2,1.2l0.5,1.1l0.6,1.1l0.7,0.9l1,0.8
	l1,0.7l1.1,0.5l1.2,0.3l1.2,0.1l1.2-0.1l1.1-0.3l1-0.5l0.1-0.1 M107.7,317.9l-0.1-1.2l-0.4-1.2l-0.5-1.1l-0.7-1l-0.8-0.9l-1-0.7
	l-1.1-0.6l-1.1-0.4l-1.2-0.2h-1.2l-1.2,0.2l-1.1,0.4l-0.9,0.6l-0.9,0.8l-0.7,0.9l-0.6,1l-0.3,1.1l-0.2,1.2v1.2l0.3,1.1l0.4,1.2
	l0.6,1l0.8,1l0.9,0.8l1.1,0.7l1.1,0.5l1.1,0.3l1.2,0.1l1.2-0.1l1.1-0.4l1.1-0.5l0.9-0.6l0.8-0.9l0.6-0.9l0.5-1.1l0.3-1.1
	L107.7,317.9 M182.6,27.7l-0.6,0.7l-0.5,1l-0.3,1.1l-0.2,1.2l0.1,1.2l0.3,1.2l0.4,1.1l0.6,1.1l0.8,0.9l1,0.8l1,0.6l1.1,0.5l1.2,0.3
	l1.2,0.1l1.2-0.2L191,39l1-0.5l0.6-0.4 M201.8,27.8l-0.7-1.6l-0.9-1.5l-1.1-1.4l-1.2-1.3l-1.4-1.2l-1.5-1l-1.5-0.8l-1.7-0.7
	l-1.7-0.4l-1.7-0.3l-1.7-0.1l-1.7,0.2l-1.7,0.3l-1.6,0.5l-1.5,0.8l-1.4,0.9l-1.3,1l-0.1,0.2 M228.5,95.8l-26.7-68 M241.4,128.7
	l-0.6-1.6 M201.8,27.8l-0.9,0.9 M226.4,93.7l-25.5-65 M240.5,129.6l-1.3-3.2 M200.9,28.7l-0.7-1.6l-0.9-1.5l-1.2-1.3l-1.3-1.3
	l-1.3-1.2l-1.5-1l-1.6-0.8l-1.6-0.7l-1.7-0.4l-1.7-0.3l-1.8-0.1l-1.7,0.2l-1.6,0.3l-1.6,0.5l-1.5,0.8l-1.5,0.9l-1.2,1l-1.2,1.3
	l-1,1.3l-0.8,1.5l-0.6,1.5l-0.4,1.7l-0.3,1.7v1.7l0.1,1.7l0.4,1.7l0.5,1.7 M175.7,44.3l-2.5-6.4 M204.6,117.8l-2.2-5.4 M194,34.6
	v-1.1l-0.1-1.2l-0.4-1.2L193,30l-0.7-1l-0.9-0.9l-1-0.7l-1.1-0.6l-1.1-0.3l-1.2-0.2h-1.2l-1.2,0.3l-1.1,0.4l-0.9,0.6l-0.9,0.8
	l-0.7,0.9l-0.5,1l-0.4,1.1l-0.1,1.2l0.1,1.2l0.2,1.2l0.5,1.1l0.6,1.1l0.8,0.9l0.9,0.8l1.1,0.6l1.1,0.5l1.2,0.3l1.2,0.1l1.1-0.2
	l1.2-0.3l1-0.5l0.9-0.7l0.8-0.9l0.6-0.9l0.5-1.1L194,34.6 M217.7,122.3l-0.9,0.8 M141.3,32.3l-0.4,0.8l-0.5,1.1l-0.2,1.2v1.1
	l0.2,1.2l0.4,1.2l0.6,1.1l0.7,1l0.9,0.8l1,0.7l1.1,0.5l1.2,0.4l1.2,0.1h1.2l1.2-0.3l1.1-0.4l0.4-0.3 M230.8,119.7l-0.4,0.8l-0.5,1.1
	l-0.2,1.1v1.2l0.2,1.2l0.4,1.2l0.6,1.1l0.7,1l0.9,0.8l1,0.7l1.1,0.5l1.2,0.4l1.2,0.1h1.1l1.2-0.3l1.1-0.4l0.4-0.3 M157.2,26.2
	l-1.3-1.2l-1.5-1l-1.5-0.9l-1.7-0.6l-1.7-0.5l-1.7-0.3l-1.7-0.1l-1.7,0.1l-1.7,0.3l-1.6,0.5l-1.5,0.7l-1.5,0.9l-1.4,1.1l-0.3,0.2
	 M247.3,135l0.9-1l1-1.3l0.8-1.5l0.7-1.5l0.5-1.6l0.2-1.7l0.1-1.8l-0.1-1.7l-0.4-1.7l-0.5-1.7l-0.7-1.6l-0.9-1.6l-1.1-1.4l-1.2-1.3
	 M246.6,113.6l-0.9,0.9 M246.6,113.6l-89.4-87.4 M157.2,26.2l-0.9,0.9 M216.8,123.1h0.1 M216.8,123.1l3.7-4 M225.4,113.6l-0.1,0.2
	l-0.1,0.1 M245.7,114.5l-89.4-87.4 M156.3,27.1l-1.4-1.2l-1.4-1l-1.6-0.9l-1.6-0.6l-1.7-0.5l-1.7-0.3l-1.8-0.1l-1.7,0.1l-1.6,0.3
	l-1.7,0.5l-1.5,0.7l-1.4,0.9l-1.3,1.1l-0.3,0.2 M215.3,125l-51-49.9 M245.4,136.7l0.7-0.6l1.2-1.2l1-1.3l0.8-1.5l0.7-1.5l0.4-1.6
	l0.3-1.7l0.1-1.8l-0.2-1.7l-0.3-1.7l-0.5-1.7l-0.8-1.6l-0.8-1.6l-1.1-1.4l-1.2-1.3 M140.8,32.6l-0.3,0.4l-0.6,1l-0.4,1.1l-0.2,1.2
	v1.1l0.2,1.2l0.4,1.2l0.5,1.1l0.8,1l0.9,0.8l1,0.7l1.1,0.5l1.1,0.4l1.2,0.1h1.2l1.2-0.3l1-0.4l1-0.6 M230.2,120l-0.3,0.4l-0.6,1
	l-0.4,1.1l-0.2,1.2v1.1l0.2,1.2l0.4,1.2l0.5,1.1l0.8,1l0.9,0.8l1,0.7l1.1,0.5l1.1,0.4l1.2,0.1h1.2l1.2-0.3l1-0.4l1-0.7 M231.3,119.3
	l-0.3,0.8l-0.3,1.1l-0.2,1.2l0.1,1.2l0.3,1.1l0.5,1.2l0.6,1l0.8,1l1,0.7l1,0.7l1.2,0.4l1.1,0.3h1.2l1.2-0.1l1.1-0.4l0.4-0.1
	 M230.7,119.7l-0.1,0.2L230,121l-0.3,1.1l-0.1,1.2l0.1,1.2l0.3,1.1l0.4,1.2l0.7,1l0.8,1l0.9,0.7l1.1,0.7l1.1,0.4l1.2,0.3h1.2
	l1.2-0.1l1.1-0.4l1-0.5 M254.7,163.5l0.5-0.4l1.6-1.8l1.5-1.9l1.3-2.1l1.2-2.1l1-2.3l0.8-2.3l0.6-2.4l0.4-2.4l0.3-2.5v-2.5l-0.1-2.5
	l-0.4-2.5l-0.5-2.5l-0.7-2.5l-0.9-2.4l-1.1-2.3l-1.2-2.3l-1.4-2.2l-1.6-2.1l-1.7-1.9l-1.8-1.9l-2-1.7l-2.1-1.5l-2.2-1.4l-2.2-1.2
	l-2.2-1 M217.2,169.2l0.2,0.1l2.3,1.1l2.4,0.8l2.5,0.7l2.5,0.5l2.5,0.4l2.5,0.1l2.5-0.1l2.5-0.2l2.4-0.5l2.4-0.6l2.3-0.9l2.2-1
	l2.2-1.1l2-1.4l1.9-1.5l1.8-1.6l1.6-1.8l1.5-1.9l1.3-2.1l1.2-2.1l0.9-2.3l0.8-2.3l0.7-2.4l0.4-2.4l0.2-2.5l0.1-2.5l-0.2-2.5
	l-0.3-2.5l-0.5-2.5l-0.7-2.5l-0.9-2.4l-1.1-2.3l-1.2-2.3l-1.5-2.2l-1.5-2.1l-1.7-1.9l-1.9-1.9l-1.9-1.7l-2.1-1.5l-2.2-1.4l-0.7-0.4
	 M206.2,116.1L206.2,116.1l-1.7,1.8l-1.4,1.9l-1.4,2.1l-1.1,2.1l-1,2.3l-0.8,2.3l-0.6,2.4l-0.5,2.4l-0.2,2.5v2.5l0.1,2.5l0.3,2.5
	l0.3,1.4 M232.8,127.4l-0.1,0.3 M261.9,156.6l0.8-0.8l1.6-1.9l1.5-1.9l1.3-2.1l1.1-2.1l0.9-2.3l0.8-2.3l0.6-2.4l0.4-2.5l0.2-2.5
	v-2.5l-0.2-2.5l-0.4-2.5l-0.5-2.5l-0.8-2.4l-0.9-2.4l-1.1-2.4l-1.3-2.2l-1.4-2.2l-1.6-2l-1.8-2l-1.8-1.8l-2-1.6l-2.1-1.6l-2.2-1.3
	l-2.3-1.2l-2.4-1l-2.4-0.9l-2.5-0.6l-2.5-0.5l-2.5-0.3l-2.5-0.1l-2.5,0.2l-1.1,0.1 M257.6,160.3l0.6-0.4l1.9-1.6l1.7-1.6l1.6-1.9
	l1.5-1.9l1.2-2.1l1.2-2.1l0.9-2.3l0.8-2.3l0.6-2.4l0.3-2.5l0.2-2.5v-2.5l-0.1-2.5l-0.3-2.5l-0.6-2.5l-0.7-2.4l-1-2.4l-1.1-2.4
	l-1.2-2.2l-1.5-2.2l-1.6-2l-1.7-2l-1.9-1.8l-2-1.6l-2.1-1.6l-2.2-1.3l-2.3-1.2l-2.3-1l-2.4-0.9l-2.5-0.6l-2.5-0.5l-2.5-0.3l-2.5-0.1
	l-2,0.1 M241.7,127.8l-0.5-0.4l-1.1-0.6l-1.1-0.5l-1.2-0.2h-1.2l-1.1,0.1l-1.1,0.4l-1.1,0.6l-0.6,0.4 M149.4,603l-0.3,0.8l-0.2,1.2
	v1.2l0.2,1.2l0.3,1.1l0.6,1.1l0.7,1l0.9,0.9l1,0.7l1.1,0.5l1.2,0.4l1.2,0.1h1.2l1.1-0.3l0.5-0.1 M166.6,617.3l0.8-0.9l1-1.3l0.8-1.5
	l0.7-1.5l0.5-1.6l0.3-1.7l0.1-1.7l-0.2-1.8 M121.2,343.4l-1.7,0.4l-1.5,0.5 M140.6,369.6l30,235.7 M170.6,605.3l-0.9,0.9
	 M121.2,343.4l2.1-0.4l2.1-0.6l2-0.8l1.9-1l1.8-1.1l1.6-1.3l0.4-0.4 M121.2,343.4l-1,0.9 M108.7,275.2l-0.1,0.1l-0.6,0.9l-0.4,1.1
	l-0.2,1.2l-0.1,1.2l0.2,1.2l0.4,1.1l0.6,1.1l0.7,1l0.9,0.9l1,0.7l1.1,0.5l1.1,0.4l1.2,0.1h1.2l1.2-0.3l1-0.4l0.8-0.5 M158.2,356.1
	L158.2,356.1l2-2.5l1.7-2.5 M125.7,494.2l12.5,98.3 M164.8,618.9l0.5-0.4l1.1-1.2l1.1-1.3l0.8-1.5l0.7-1.5l0.5-1.6l0.2-1.7l0.1-1.7
	l-0.1-1.8 M139.7,370.1l30,236.1 M158.2,355.9l1-1.4l1.9-2.6l0.4-0.7 M139.7,370.1l2.8-1.4l2.8-1.6l2.6-1.7l2.2-1.5 M123.7,297.7
	l1.1,0.5l1.9,1.1l1.9,1.3l1.8,1.4l1.7,1.6l1.5,1.7l1.3,1.8l1.2,2l1.1,2l0.8,2.1l0.7,2.1l0.5,2.2l0.2,2.2l0.1,2.2l-0.1,2.2l-0.3,2.2
	l-0.5,2.1l-0.7,2l-0.9,2l-1,1.8l-1.3,1.8l-1.4,1.6l-1.5,1.5l-1.7,1.3l-1.8,1.1l-1.9,1l-2,0.8l-2,0.6l-2.2,0.4 M117.5,345l1.1-0.3
	l1.6-0.4 M108.1,275.6l-0.4,0.6l-0.6,0.9l-0.4,1.1l-0.3,1.2v1.2l0.2,1.2l0.4,1.1l0.5,1.1l0.8,1l0.9,0.9l1,0.7l1.1,0.5l1.1,0.4
	l1.2,0.1h1.2l1.1-0.3l1.1-0.4l1-0.7l0.2-0.2 M148.8,603.3l-0.2,0.4l-0.4,1l-0.2,1.2v1.2l0.1,1.2l0.4,1.1l0.6,1.1l0.7,1l0.9,0.9
	l1,0.7l1.1,0.5l1.2,0.4l1.1,0.1h1.2l1.2-0.3l1-0.4h0.1 M360.2,588.6L360.2,588.6l-0.6,1l-0.4,1.1l-0.1,1.1v1.2l0.2,1.2l0.4,1.2
	l0.6,1l0.8,1l0.9,0.8l1,0.7l1.1,0.5l1.2,0.3l1.2,0.1l1.2-0.1l1.1-0.3l1.1-0.4l0.2-0.2 M376.8,603.9l1-1.2l1-1.3l0.8-1.5l0.6-1.6
	l0.4-1.6l0.3-1.7v-1.7l-0.1-1.7l-0.4-1.8l-0.6-1.6l-0.7-1.7 M203.2,291.6L203.2,291.6l-0.5,1l-0.4,1.1l-0.2,1.2v1.2l0.3,1.2l0.4,1.1
	l0.6,1.1l0.7,1l0.9,0.8l1.1,0.7l1.1,0.5l1.2,0.3l1.1,0.1l1.2-0.1l1.2-0.3l1-0.5l0.2-0.1 M241.8,352l0.2-0.2l0.1-0.1 M265.6,371.8
	l113.5,214.7 M379.1,586.5l-0.9,0.9 M265.6,371.8l-1,0.9 M265.6,371.8l2.1-2.4l1.9-2.5l1.8-2.6l1.6-2.7l1.4-2.9l1.3-2.9l1-3l0.9-3.1
	l0.7-3.2l0.5-3.1l0.3-3.3l0.1-3.2l-0.1-3.3l-0.3-3.3l-0.4-3.2l-0.7-3.3l-0.9-3.2l-1-3.2l-1.3-3.1l-1.4-3l-1.6-3l-1.8-2.8l-1.9-2.8
	l-2.1-2.7l-2.2-2.5l-2.4-2.4l-2.5-2.3l-2.6-2.1l-2.7-2l-2.9-1.8l-2.9-1.7l-3-1.5l-3.1-1.3l-3.1-1.1l-3.2-0.9l-3.2-0.7l-3.3-0.6
	l-3.2-0.3l-3.3-0.2l-3.3,0.1h-1.2 M309.2,518.8l35.1,66.4 M375.8,604.8l1.1-1.2l0.9-1.3l0.8-1.5l0.7-1.6l0.4-1.6l0.2-1.7l0.1-1.7
	l-0.2-1.7l-0.3-1.8l-0.6-1.6l-0.7-1.7 M264.6,372.7l113.6,214.7 M264.6,372.7l2.1-2.4l2-2.5l1.7-2.6l1.7-2.7l1.4-2.9l1.2-2.9l1.1-3
	l0.9-3.1l0.7-3.2l0.5-3.1l0.3-3.3l0.1-3.2l-0.1-3.3l-0.3-3.3l-0.5-3.2l-0.6-3.3l-0.9-3.2l-1.1-3.2l-1.2-3.1l-1.4-3l-1.6-3l-1.8-2.8
	l-1.9-2.8l-2.1-2.7l-2.2-2.5l-2.4-2.4l-2.5-2.3l-2.6-2.1l-2.7-2l-2.9-1.8l-2.9-1.7l-3-1.5l-3.1-1.3l-3.1-1.1l-3.2-0.9l-3.3-0.7
	l-3.2-0.6l-3.3-0.3l-3.2-0.2l-3.3,0.1 M227.8,309.9l1.5,0.4l2.1,0.7l2.1,0.9l2,1.1l1.9,1.2l1.8,1.4l1.6,1.6l1.6,1.7l1.4,1.8l1.2,1.9
	l1.1,2l0.8,2.1l0.7,2.1l0.5,2.2l0.3,2.2l0.2,2.2l-0.1,2.2l-0.3,2.2l-0.5,2.1l-0.6,2l-0.9,2l-1,1.9l-1.2,1.7l-1.4,1.7l-0.8,0.8
	 M202.7,292l-0.4,0.5l-0.6,1l-0.3,1.1l-0.2,1.2v1.2l0.2,1.2l0.4,1.1l0.6,1.1l0.8,1l0.9,0.8l1,0.7l1.2,0.5l1.1,0.3l1.2,0.1l1.2-0.1
	l1.1-0.3l1.1-0.5l0.7-0.5 M359.6,588.9l-0.4,0.6l-0.5,1l-0.4,1.1l-0.2,1.1l0.1,1.2l0.2,1.2l0.4,1.2l0.6,1l0.8,1l0.9,0.8l1,0.7
	l1.1,0.5l1.2,0.3l1.2,0.1l1.1-0.1l1.2-0.3l1-0.4l0.8-0.6 M160.8,137.3l-0.1-1.2l-0.3-1.2l-0.5-1.1l-0.7-1l-0.8-0.9l-1-0.8l-1-0.6
	l-1.2-0.4l-1.2-0.3h-1.1l-1.2,0.2l-1.1,0.3l-1,0.6l-0.9,0.7l-0.8,0.9l-0.6,1l-0.3,1.1l-0.2,1.1v1.2l0.2,1.2l0.3,1.2l0.6,1.1l0.8,0.9
	l0.9,0.9l1,0.7l1.1,0.5l1.2,0.3l1.1,0.2l1.2-0.1l1.2-0.3l1-0.4l1-0.7l0.8-0.8l0.7-0.9l0.5-1.1l0.3-1.1L160.8,137.3 M25.1,619.1
	l-1,0.9 M71.7,631.4l0.5-0.4 M62.9,620.4l-0.9,0.9 M260.1,652.2l-1,0.9 M300.7,651.4l0.4-0.5 M291.8,640.4l-0.9,0.9 M49.7,330.7
	l1-0.9 M99.3,98.1L98.4,99 M134.9,172.8L134.9,172.8 M183.7,207.7l0.9-0.9 M225.2,113.9l-1,0.9 M292.8,639.5l-1,0.9 M299.6,636.8
	l-0.9,0.9 M387.2,636l0.9-0.9 M374.8,605.7l0.9-0.9 M63.7,619.5l-0.9,0.9 M73.5,619.1l-1.1,0.9 M104.5,594.3l-0.9,0.9 M161.8,652.5
	l0.9-0.9 M163,620.6l0.9-0.9 M164.3,147.9l1-0.9 M135.7,26.3l-0.9,0.9 M175.4,137.3L175.4,137.3 M178.3,20.5l-0.9,0.9 M339.2,619.5
	l0.9-0.9 M153.6,346.1l-0.9,0.9 M177.4,21.4l-1,0.9 M136.6,25.4l-0.9,0.9 M246.5,135.9l0.9-0.9 M253.9,164.4l0.9-0.9 M261.1,157.5
	l0.9-0.9 M165.5,618.2l1-0.9 M375.7,604.8l1-0.9"/>
</svg>
