<svg id="Layer_1" data-name="Layer 1" xmlns="http://www.w3.org/2000/svg" viewBox="0 0 373.01 663.21"><defs><style>.cls-1{fill:none;stroke:#000;stroke-linecap:round;stroke-linejoin:round;stroke-width:0.71px;}</style></defs><path class="cls-1" d="M119.35,153.85l.1-.1M215,315.05l-.9.8M150,115.05l-.5.5m-69.8,170.9h0m-63.3,312.7-1.7-.1-1.7.2-1.7.3-1.6.5-1.5.8-1.4.9-1.3,1.1M44,624h0m-3,8.1h0M35.65,621l1.3-4.2m7,7.2-8.3-3m0,0-.9.9M44,624l-.9.9m1.6-5.4h0m-2.2-18-26.1-2.3m0,0-.9.9m25.5,32,2.1-7.2m0,0-8.3-3m0,0,1.6-5.4m8.3,3-8.3-3m8.3,3,.5-1.8m-3.6-15.3-26.1-2.3m0,0-1.7-.1-1.7.2-1.7.3-1.6.5-1.5.8-1.4.9-1.3,1.1L3.45,605l-1,1.3-.8,1.5-.6,1.6L.55,611l-.2,1.7v1.7l.1,1.8.4,1.7.5,1.7.8,1.6.9,1.5,1.1,1.4,1.2,1.3,1.4,1.2,1.5,1,1.5.8,1.7.6,1.7.5,1.7.2m26.1,2.4-26.1-2.4m27.4-27-.1-.1h-.1v-.1h-.2l-.1-.1h-.2m2,1.5.1-.3.2-.4v-.4l-.1-.4-.2-.3-.3-.3-.4-.2-.4-.1m0,0-.9.9m.7.3.3.6v.9l-.1.4-.2.4-.2.2m3.1,12.5-1.2-.5-1.2-.8-1-.9-.9-1-.8-1.2-.5-1.2-.4-1.3-.1-1.4v-1.3l.3-1.3.5-1.2.6-1.1.8-1,1-.8m2.9,13.9v1.1m-3.1-12.5-.7.9-.5,1-.4,1-.1,1.2v1.1l.2,1.2.4,1.1.6,1,.7.9.9.8,1,.7,1,.5m0,0,1.2.3,1.1.1,1.2-.1,1.1-.3,1-.5.9-.6.8-.8.6-.9.5-1,.2-1.1.1-1.2-.1-1.1-.3-1.2-.5-1-.7-1-.8-.9-.9-.7-1.1-.6-1.1-.4-1.1-.2h-1.2l-1.1.2-1.1.4-.9.5-.9.7m10.4-.8h-.1l-.9-.7-1-.6-1.2-.4-1.1-.2h-1.1l-1.2.2-1,.4-1,.5-.7.6M245.25,633l-1.6.7-1.4.9-1.3,1-.5.4m30.8,9.6-.7-4.9m9.3,4.3v-.1m.3,8.4-.1.1m-.2-8.5-8.6.7m0,0-.9.9m9.5-1.6-.9.9m-9.8-21.4-23.9,8.6m0,0-.9.9m33.8,6.1-.1.1m2,13.3-1.1-7.6m0,0-8.6.7m0,0-.8-5.8m8.5-.6-8.5.6m8.5-.6-.2-1.9m-9.6-12.9-23.9,8.6m0,0-1.6.7-1.4.9-1.4,1-1.2,1.2-1,1.3-.8,1.4-.7,1.5-.5,1.7-.3,1.6-.1,1.8.1,1.7.3,1.7.5,1.7.6,1.6.9,1.6,1,1.5,1.2,1.3,1.3,1.2,1.5,1.1,1.5.8,1.7.7,1.6.6,1.7.3,1.8.1,1.7-.1,1.7-.3,1.6-.4m24-8.7-24,8.7m13-36.9h-.6l-.1.1h-.1m2.8,0-.1-.2-.3-.4-.3-.2-.4-.1-.4-.1-.4.1m0,0-.9.9m.8-.1.4.5.3.7v.8l-.1.4m8.2,10.6h-1.4l-1.3-.2-1.3-.4-1.2-.6-1.1-.8-1-1-.9-1.1L269,633l-.5-1.3-.3-1.3-.1-1.4.1-1.3.3-1.3.6-1.2m8.1,11.7.7,1.3m.8-15.4-.9-.3-1.1-.1-1.2.1-1.1.3-1,.5-.9.6-.3.3m-2.5,3.4-.2,1.1-.1,1.1.1,1.2.3,1.1.5,1.1.7.9.8.9.9.7,1.1.6,1.1.4,1.1.2h1.2m0,0,1.1-.2,1-.4,1-.5.9-.7.7-.9.5-1,.4-1,.1-1.2v-1.1l-.2-1.2-.4-1.1-.6-1-.7-.9-.9-.8-1-.7-1.1-.5-1.1-.3-1.2-.1-1.1.1-1.1.3-1,.5-.9.6-.8.8-.6.9-.5,1.1m-130.1-291.7-.3.5-.5,1-.2,1.2-.1,1.2.1,1.2.3,1.1.5,1.1.7,1.1.9.9.9.7,1.1.6,1.2.4,1.1.2h1.2l1.2-.2,1.1-.4.7-.4m-75.4-230.7-.4.5-.4,1.1-.3,1.1-.1,1.2.1,1.2.4,1.2.5,1.1.7,1,.8.9,1,.8,1.1.6,1.1.4,1.2.2H81l1.1-.2,1.1-.4.8-.4m73.6,194-.6-3.6-1.9-11.5L153,293l-2.3-11.5-2.5-11.5-2.7-11.5-2.9-11.4-3.1-11.4-3.3-11.3-3.4-11.3-3.7-11.3-3.8-11.2-4.1-11.1-4.2-11.1-4.4-11-4.6-11-4.5-10.4m53.1,184.1-.5-3.1-1.9-11.5-2.2-11.6-2.3-11.5-2.5-11.5-2.7-11.5-2.9-11.4-3-11.4-3.3-11.3-3.5-11.3-3.6-11.3-3.9-11.2-4-11.1-4.2-11.1-4.4-11-4.6-11-4.7-10.9-.2-.4m27,201.2-.9-7.1-1.8-11.6-1.9-11.6-2.2-11.7-2.3-11.5-2.6-11.6-2.8-11.5-3-11.5-3.2-11.4-3.4-11.4-3.6-11.4-3.7-11.3-4-11.2-4.2-11.2-4.4-11.1L80.55,159l-4.8-10.9-4.9-10.9-2.3-5m4.9-16.4v.1l-.7.9-.5,1.1-.2,1.1-.1,1.2.1,1.2.3,1.2.5,1.1.7,1,.9.9.9.8,1.1.6,1.2.4,1.2.2H80l1.2-.2,1.1-.4,1-.6.3-.2m55.5,210.1H139l-.6,1-.5,1-.3,1.2v1.2l.1,1.2.3,1.1.5,1.1.7,1.1.8.9,1,.7,1.1.6,1.1.4,1.2.2h1.2l1.2-.2,1.1-.4,1-.5.2-.2m-118-33.1.5-.5,1-1.3.9-1.4m-18.6-12.6-.3.4-.6,1-.4,1.1-.2,1.2v1.2l.2,1.2L14,305l.6,1.1.7,1,.9.8,1.1.7,1.1.5,1.1.4,1.2.1,1.2-.1,1.1-.3,1.1-.4.9-.6m8.5,2.2,5.4-9.9,5.1-10,5-10.1,4.8-10.3,4.6-10.3,4.5-10.4,4.2-10.5,4.1-10.5,3.9-10.7,3.6-10.7,3.5-10.8,3.4-10.9,2.3-8.3m-54.4,133.4-.9.9m47.9-230.1-.8.7m-47.1,229.4,5.3-9.9,5.2-10,5-10.1,4.8-10.3,4.6-10.3,4.4-10.4,4.3-10.5,4-10.5,3.9-10.7,3.7-10.7,3.5-10.8,3.3-10.9,2.9-10.2m-7.2-94.5-.7.6-1.2,1.1-1.1,1.3-.9,1.4-.7,1.5-.6,1.6-.3,1.7m-.6,3.5.6-3.5M6.25,295.55l5.4-10,5.2-10.1,5-10.2,4.8-10.3,4.6-10.4,4.4-10.5,4.2-10.6,4-10.6,3.8-10.8,3.6-10.8,3.5-10.9,3.2-11,3-11.1,2.8-11.1,2.6-11.2,1.1-4.9M6.25,295.55l-.7,1.5-.5,1.6-.4,1.7-.1,1.7.1,1.7.2,1.8.5,1.7.6,1.6.9,1.6,1,1.5,1.1,1.3,1.3,1.3,1.4,1,1.6.9,1.6.8,1.7.5,1.7.4,1.7.1h1.7l1.7-.2,1.6-.5,1.6-.6,1.5-.8,1.3-1,1.2-1.2,1.1-1.3.9-1.4m-6.5-5.1.3-1.1.1-1.2-.1-1.2-.3-1.1-.5-1.2-.7-1-.8-.9-1-.8-1-.6-1.2-.4-1.2-.2-1.2-.1-1.1.2-1.1.4-1,.5-.9.8-.8.8-.6,1-.3,1.1-.2,1.2v1.2l.2,1.2.4,1.1.6,1.1.7,1,.9.8,1,.7,1.1.5,1.2.4,1.2.1,1.2-.1,1.1-.3,1.1-.4.9-.7.8-.8.7-.9.5-1.1m95.1-144.4-.6.9-.5,1.1-.3,1.1-.1,1.2.1,1.2.3,1.1.5,1.2.6,1,.9.9.9.8,1.1.6,1.1.4,1.2.3h1.2l1.1-.2,1.1-.3,1.1-.6.4-.3m26.1-34.5,20.6-8.5m18.1,25.6,2.8-1.2m-66.8,27.5,6.6-2.7m18.8-40.2,19.8-8.2m-57.9,23.9,10-4.2m-7.5,31.6.3.1,1.6.5,1.7.2h1.7l1.7-.1,1.6-.4,1.6-.5m-12.7-27.2-1.5.7-1.3.9-1.3,1-1.1,1.2-.9,1.3m19.5,9.6v-1.2l-.2-1.2-.4-1.1-.6-1.1-.7-1-.9-.9-1-.7-1.1-.5-1.2-.3-1.2-.2-1.2.1-1.1.3-1.1.4-.9.7-.9.8-.6.9-.5,1.1-.3,1.1-.1,1.2.1,1.2.2,1.1.5,1.2.7,1,.8.9,1,.8,1,.6,1.2.4,1.2.3h1.1l1.2-.2,1.1-.3,1-.6.9-.7.8-.9.6-1,.4-1.1.2-1.1M149,175l-.4.4-.5,1-.4,1.1-.2,1.2v1.2l.2,1.2.4,1.1.6,1.1.8,1,.9.8,1,.7,1.1.5,1.2.3,1.1.1H156l1.2-.3,1-.5.8-.5m6,5.2.8-.8m0,0,61.6-71.2m-62.5,72.1.9-.9m44.8-86-.4.5-.5,1-.4,1.1-.2,1.2v1.2l.2,1.2.4,1.1.6,1.1.8.9.9.9,1,.7,1.1.5,1.2.3,1.2.1,1.1-.1,1.2-.2,1-.5.9-.6m6.7,4.4,1-1.3.9-1.4.6-1.5.5-1.6.3-1.7v-1.7l-.1-1.7-.3-1.7-.5-1.6-.7-1.6-.9-1.6-1-1.4-1.2-1.3-1.3-1.2-1.5-1-1.5-.8-1.6-.7-1.7-.5-1.6-.3-1.7-.1-1.7.1-1.7.3-1.6.5-1.5.7-1.4.9-1.3,1-.3.3m20.9,21.8.9-.9m-62.5,72.1,61.6-71.2m0,0,1-1.3.8-1.4.7-1.5.4-1.6.3-1.7.1-1.7-.1-1.7-.3-1.7-.6-1.6-.6-1.6-.9-1.6-1-1.4-1.2-1.3-1.4-1.2-1.4-1-1.5-.8-1.6-.7-1.7-.5-1.7-.3-1.7-.1-1.7.1-1.6.3-1.6.5-1.5.7-1.4.9-1.3,1-1.2,1.1m-61.6,71.2,61.6-71.2m-61.6,71.2-1,1.3-.8,1.4-.7,1.5-.4,1.6-.3,1.7-.1,1.7.1,1.7.4,1.7.5,1.6.7,1.6.8,1.6,1.1,1.4,1.1,1.3,1.4,1.2,1.4,1,1.5.8,1.6.7,1.7.5,1.7.3,1.7.1,1.7-.1,1.6-.3,1.6-.5,1.5-.7,1.4-.9,1.3-1,1.2-1.1m-4.8-12-.5-1.2-.6-1-.9-.9-.9-.8-1.1-.6-1.1-.4-1.2-.2h-1.2l-1.2.2-1.1.3-1,.6-.9.7-.7.9-.6,1-.4,1.1-.2,1.2.1,1.2.2,1.2.4,1.1.6,1.1.7,1,.9.8,1,.7,1.2.5,1.1.3,1.2.1h1.2l1.1-.3,1.1-.5.9-.6.9-.9.6-.9.5-1.1.3-1.1.1-1.2-.1-1.2-.4-1.1m61.7-71.2-.5-1.1-.7-1-.8-.9-1-.8-1.1-.6-1.1-.4-1.2-.2h-1.2l-1.2.2-1.1.3-1,.6-.9.7-.7.9-.6,1-.3,1.1-.2,1.2v1.2l.2,1.2.4,1.1.6,1.1.7.9.9.9,1.1.7,1.1.5,1.1.3,1.2.1,1.2-.1,1.1-.2,1.1-.5,1-.7.8-.8.6-.9.5-1.1.3-1.1.1-1.2-.1-1.2-.3-1.2m65.7,536.8-7.5.6m0,0-.9.9m-.2-24.1-.2-.1-1.2-.1-1.1.1-1.1.3-1,.5-.9.6-.2.3m5.5-.5-.9-.3-1.2-.1-1.1.1-1.1.3-1,.5-.9.6-.3.3m8.3-3.9h-.1l-.1.1h-.1l-.1.1-.1.1m.5-.3,32.7-12.1m-32.7,12.1-1,.9m25.3-35-.6,1-.4,1.1-.2,1.2.1,1.2.2,1.2.4,1.1.6,1.1.8.9.9.9,1,.6,1.1.5,1.2.4,1.2.1,1.1-.1,1.2-.3,1-.5.3-.1m38.9-5.7,8.5,3.1m-44.7-22.2,22-8.2m29.1,55.4.7-.7,1.1-1.4.8-1.4.7-1.5.5-1.7.3-1.6.1-1.7-.1-1.8-.4-1.7-.4-1.7-.7-1.6-.9-1.6-1-1.4-1.2-1.3-1.3-1.2-1.5-1.1-1.5-.9-1.6-.7m0,0-1,.9m-21.2-22.1-.3.6-.6,1-.4,1.1-.2,1.1v1.2l.3,1.2.4,1.2.6,1,.7,1,1,.8,1,.7,1.1.5,1.2.3,1.1.1,1.2-.1,1.2-.2,1-.5.8-.6m6.1,5.5,1-1.1,1-1.3.8-1.5.6-1.5.5-1.6.2-1.7.1-1.7-.1-1.7-.4-1.7-.5-1.7-.7-1.6-.9-1.6-1.1-1.4-1.2-1.3-1.3-1.2-1.4-1-1.6-.8-1.6-.7-1.7-.5-1.7-.3-1.7-.1-1.7.1-1.7.3-1.6.5m0,0-.9.9m-34.3,22.2-.4.5-.5,1-.4,1.1-.2,1.2v1.2l.3,1.2.4,1.1.6,1.1.7.9.9.9,1.1.6,1.1.5,1.1.4,1.2.1,1.2-.1,1.1-.3,1.1-.5.8-.5m36.8-20.6-.5-1.1-.7-1-.8-.9-1-.8L347,572l-1.1-.4-1.2-.2h-1.2l-1.2.2-1.1.4-1,.5-.8.8-.8.9-.5,1-.4,1.1-.2,1.1v1.2l.2,1.2.5,1.2.6,1,.7,1,.9.8,1,.7,1.2.5,1.1.3,1.2.1,1.2-.1,1.1-.2,1.1-.5.9-.7.8-.8.7-1,.5-1,.2-1.2.1-1.1-.1-1.2-.3-1.2m-63.4,68.7-.9-5.7m.9,5.7-8.6.7m1.2,7.6-1.2-7.6m1.2,7.6,82.5-30.6m0,0,1.6-.7,1.4-.8,1.3-1.1,1.2-1.1,1-1.4.9-1.4.7-1.5.4-1.7.3-1.6.1-1.7-.1-1.8-.3-1.7-.5-1.7-.7-1.6-.8-1.6-1.1-1.4-1.1-1.3-1.4-1.2-1.4-1.1-1.5-.9-1.7-.7m-8.8-3.2,8.8,3.2m-8.8-3.2,1.4-.9,1.3-1.1,1.2-1.2.9-1.3.9-1.5.6-1.5.4-1.6.3-1.7.1-1.7-.2-1.7-.3-1.7-.5-1.7-.7-1.6-.9-1.6-1.1-1.4-1.2-1.3-1.3-1.2-1.5-1-1.5-.8-1.6-.7-1.7-.5-1.7-.3-1.7-.1-1.7.1-1.7.3-1.6.5m-20.9,7.8,20.9-7.8m-28.1,42.7,3.6,1.3m-34.5,12.8,34.5-12.8m-34.5,12.8-.3.2-.3.3-.1.3-.1.4.1.4.1.4.3.3.3.2m2,11,.2-.1.7-.9.5-1,.3-1,.2-1.2v-1.1l-.2-1.2-.5-1.1-.6-1-.7-.9-.9-.8-1-.7m-1.3,16.4-.5-3.3m9.1,2.6-8.6.7m-226.4-13.3-7.7-2.8m0,0-1,.9m10.2-21.5-.9-.6-1-.6-1.1-.4-1.2-.2H48l-1.1.2-1.1.4-.9.5-.8.6m8.4,1.1h-.1l-.9-.7-1-.6-1.1-.4-1.2-.2h-1.1l-1.1.2-1.1.4-1,.5-.7.6m11.6-1.6h-.5l-.1.1h-.1m0,0-.2.2m.9-.3,35.6,3.2m-35.6-3.2-.9.9m36.2-19.1h0l-.6.9-.5,1.1-.3,1.1-.1,1.2.1,1.2.3,1.2.5,1.1.7,1,.8.9,1,.8,1.1.6,1.1.4,1.2.2,1.2.1,1.1-.2,1.1-.4,1-.6.4-.2m-4.3-20.5-1.8-.1-1.7.2-1.7.4-1.6.5-1.5.8-1.4.9-1.3,1.1m58.2,57.3,1.1-1.1.9-1.3.9-1.5.6-1.6.4-1.6.3-1.7v-1.7l-.2-1.7-.3-1.7-.6-1.7-.7-1.6-.9-1.6-1.1-1.4-1.2-1.3m-6.1-5.9,6.1,5.9m0,0-.9.9m-13.3-27.1h0l-.6,1-.5,1-.3,1.1-.1,1.2.1,1.2.3,1.2.5,1.1.7,1,.8.9,1,.8,1.1.6,1.1.4,1.2.3h1.2l1.1-.2,1.1-.4,1.1-.5.3-.3m-42.3-23.8,38,3.3m-38-3.3-.9.9m49.3,28.3.1-.1,1.1-1.2,1-1.4.8-1.5.6-1.5.4-1.7.2-1.7v-1.7l-.2-1.7-.4-1.7-.6-1.6-.7-1.6-.9-1.5-1.1-1.5-1.3-1.2-1.3-1.2-1.5-.9-1.6-.9-1.6-.6-1.7-.4-1.7-.3m0,0-.9.9m-31.3,12.6v-1.2l-.2-1.2-.4-1.2-.6-1-.8-1-.9-.9-1-.6-1.1-.6-1.2-.3-1.2-.1-1.1.1-1.2.3-1,.4-1,.7-.8.8-.7.9-.4,1.1-.3,1.1-.1,1.2.1,1.2.3,1.2.5,1.1.7,1,.8.9,1,.8,1,.6,1.2.4,1.1.2,1.2.1,1.2-.2,1.1-.4,1-.6.9-.7.7-.9.6-1,.4-1.1.2-1.1m38,3.3v-1.2l-.2-1.2-.4-1.1-.6-1.1-.8-1-.9-.8-1-.7-1.1-.5-1.2-.4-1.1-.1-1.2.1-1.2.3-1,.4-1,.7-.8.8-.6,1-.5,1-.3,1.1-.1,1.2.1,1.2.3,1.2.5,1.1.7,1,.8.9,1,.8,1,.6,1.2.4,1.2.3h1.2l1.1-.2,1.1-.4,1-.5.9-.8.8-.8.5-1.1.4-1.1.2-1.1m-88.2,33.5,1.5-5.4m-1.5,5.4-8.4-3m-2.1,7.2,2.1-7.2m-2.1,7.2,90.2,8m0,0h1.7l1.8-.1,1.6-.3,1.6-.6,1.5-.7,1.4-.9,1.3-1.1,1.1-1.2,1-1.3.8-1.5.6-1.6.5-1.6.2-1.7.1-1.7-.2-1.7-.3-1.7-.6-1.7-.7-1.6-.9-1.6-1.1-1.4-1.2-1.3m-6.9-6.6,6.9,6.6m-6.9-6.6,1.7-.2,1.6-.3,1.6-.6,1.5-.8,1.4-.9,1.2-1.1,1.1-1.2,1-1.4.7-1.5.6-1.5.4-1.7.2-1.7.1-1.7-.2-1.7-.4-1.7-.6-1.6-.7-1.6-1-1.5-1.1-1.5-1.2-1.2-1.4-1.2-1.4-.9-1.6-.9-1.6-.6-1.7-.4-1.7-.3m-38-3.3,38,3.3m-38-3.3-1.8-.1-1.7.2-1.7.4-1.6.5-1.5.8-1.5.9L84,579l-1.2,1.3-1,1.4-.7,1.5-.6,1.6-.4,1.7-.2,1.7m0,0-.1,1m0,0,.1,1.6.3,1.5.4,1.5.6,1.5.7,1.4.9,1.4.9,1.2,1.1,1.2m0,0,6.7,6.3m-37.6-3.3,37.6,3.3m-37.6-3.3h-.4l-.4.2-.3.2-.2.3-.1.4v.4l.1.4.2.3m-.3,9.1.5-.5.6-1,.4-1,.3-1.1.1-1.1-.1-1.2-.4-1.1-.5-1.1-.6-1m-8.1,13.8.9-2.8m7.4,5.8-8.3-3m28.8-503.7-.5.7-.5,1-.4,1.1-.1,1.2V121l.3,1.2.4,1.1.7,1.1.8.9.9.8,1,.7,1.2.5,1.1.2,1.2.1,1.2-.1,1.1-.3,1.1-.5.6-.5m62.1,4.6v-.1l1.2-1.3,1-1.4.8-1.6.6-1.6.4-1.7.1-1.8v-1.8m-28.6-103.1-.5.7-.5,1-.4,1.2-.1,1.1v1.2l.3,1.2.4,1.1.7,1.1.7.9,1,.8,1,.7,1.1.5,1.2.3h1.2l1.2-.1,1.1-.3,1-.5.7-.4m10.2-5.9,8.3,98.5m-.9.9.9-.9m-14.5,16-56,.9m56-.9,1.8-.1,1.7-.4,1.7-.5,1.5-.8,1.5-.9,1.3-1.2,1.2-1.3.9-1.4.8-1.6.6-1.6.4-1.7.2-1.8v-1.8m-8.3-98.5,8.3,98.5m-84.3-6.1,47.7-99.4m-47.7,99.4-.6,1.5-.5,1.7-.2,1.7-.1,1.7.2,1.7.3,1.7.6,1.7.7,1.6.9,1.5,1.1,1.5,1.2,1.3,1.3,1.1,1.5,1.1,1.6.8,1.6.7,1.7.4,1.7.3,1.7.1m53-116.5-.6-1.1-.7-1-.8-.9-1-.7-1.1-.6-1.2-.3-1.2-.2h-1.1l-1.2.2-1.1.4-1,.6-.8.8-.7.9-.6,1-.3,1.2-.2,1.1.1,1.2.3,1.2.4,1.1.6,1.1.8.9.9.8,1.1.7,1.1.5,1.2.3h1.2l1.1-.1,1.2-.3,1-.5.9-.7.8-.8.6-1,.5-1.1.2-1.1.1-1.2-.2-1.2-.3-1.2m-47.7,99.4-.5-1.1-.8-1-.8-.9-1-.7-1.1-.6-1.1-.4-1.2-.1h-1.2l-1.2.2-1.1.4-.9.6-.9.8-.7.9-.5,1-.4,1.1-.1,1.2v1.2l.3,1.2.4,1.1.6,1.1.8.9,1,.8,1,.7,1.1.5,1.2.2,1.2.1,1.2-.1,1.1-.3,1-.5.9-.7.8-.9.7-.9.4-1.1.2-1.2.1-1.1-.2-1.2-.3-1.2m56-.9-.6-1.1-.7-1-.8-.8-1-.8-1.1-.5-1.2-.4-1.2-.2h-1.1l-1.2.2-1.1.5-1,.6-.8.7-.7.9-.6,1.1-.3,1.1-.2,1.2.1,1.1.2,1.2.5,1.2.6,1,.8,1,.9.8,1.1.6,1.1.5,1.2.3,1.2.1,1.1-.2,1.2-.3,1-.5.9-.7.8-.8.6-1,.5-1.1.2-1.1.1-1.2-.2-1.2-.3-1.2m.9-97.4-.2-1.7-.5-1.7-.6-1.6-.8-1.6-.9-1.4-1.1-1.4-1.3-1.2-1.3-1.1-1.5-1-1.6-.7-1.6-.6-1.7-.4-1.6-.3h-1.7l-1.7.2-1.6.3-1.6.6-1.5.7-1.4.9-1.2,1-.1.1m24.6,11.8-.3-1.7-.4-1.7-.6-1.6-.8-1.6-.9-1.4-1.2-1.4-1.2-1.2-1.4-1.1-1.4-1-1.6-.7-1.6-.6-1.7-.4-1.7-.3h-1.7l-1.6.2-1.7.3-1.5.6-1.5.7-1.4.9-1.2,1-1.2,1.2-.9,1.4-.8,1.4m28.3,7,.9-.9m18.5,93.8.3-1.1m-10.3,1.4.5-.3m17.8-32.9-8,31.8m-.9.9.9-.9m3.1-102.6-.2.2-.5,1.1-.3,1.1-.1,1.2v1.1l.3,1.2.5,1.2.6,1,.8.9.9.8,1.1.7,1.1.4,1.2.3,1.2.1,1.2-.2,1.1-.3,1-.5m10.8-4.7v-1.9l-.3-1.7-.5-1.6-.6-1.6-.8-1.6-1-1.4-1.1-1.4-1.3-1.2-1.4-1.1-1.4-.9-1.6-.7-1.6-.6-1.7-.4-1.7-.2h-1.7l-1.7.2-1.6.4-1.5.6-1.5.8-1.4.9-1.1,1m-5.9,119,.7-.4,1.4-1,1.3-1.2,1.1-1.3.9-1.5.8-1.6.5-1.7m8.3-33.2-8.3,33.2m22.7-103-.3-.8-.8-1.6-1-1.4-1.1-1.4-1.3-1.2-1.4-1.1-1.5-.9-1.5-.7-1.7-.6-1.7-.4-1.6-.2h-1.7l-1.7.2-1.6.4-1.6.6-1.4.8-1.4.9-1.1,1m-12.5,12.2,11-10.8m-76.5,75.3.8-.9m82.4-69.5-.6.7-.5,1.1-.3,1.1-.2,1.2.1,1.1.3,1.2.4,1.2.7,1,.8.9.9.8,1.1.7,1.1.4,1.2.3,1.2.1,1.1-.2,1.2-.3,1-.5.5-.4M150,115.25l.7-.7.6-1,.4-1.1.2-1.2.1-1.2m0,0-.2-1.1-.4-1.2-.5-1.1-.7-1-.9-.9-.8-.5m-72,191.4-.2.3-.6,1-.5,1-.2,1.2v1.2l.1,1.2.4,1.1.5,1.1.7,1,.9.9,1,.7,1.1.6,1.1.3,1.2.2h1.2l1.2-.2,1.1-.5.9-.6.1-.1m2.2-46.9-.2.2-.6,1-.4,1.1-.3,1.1v1.2l.1,1.2.4,1.2.6,1,.7,1,.8.9,1,.7,1.1.6,1.2.4,1.2.1h1.1l1.2-.2,1.1-.4,1-.6.1-.1m22.4-107.8-.1.2-.7,1-.4,1.1-.2,1.1-.1,1.2.2,1.2.3,1.2.6,1.1.7,1,.9.9,1,.7,1.1.5,1.1.4,1.2.2,1.2-.1,1.1-.2,1.1-.4,1-.6.1-.1m18.7-57.1.4-.2.1-.1m-46.2,166.8-7.4,22m41.9-125.2-8.8,26.2m30.1-89.9-5.2,15.5m5.2-15.5-1,.9m1-.9.4-1.6v-.2M113,253.75l-17,50.6m42.1-125.7-8.4,24.9m29.4-88-4.5,13.6m4.5-13.6.3-1m-61.7,89L70,286.65m50.4-151-7.5,22.4M76,296.15l-.6.7-.7,1-.4,1-.2,1.2-.1,1.2.2,1.2.3,1.1.6,1.1.7,1,.9.9,1,.7,1.1.6,1.1.3,1.2.2h1.2l1.1-.2,1.1-.5,1-.6.6-.5m13.7-38.8.3-1.1.2-1.2-.1-1.2-.2-1.1-.5-1.2-.6-1-.8-1-1-.8-1-.6-1.1-.5-1.2-.2-1.2-.1-1.2.1-1.1.3-1,.6-.9.7-.8.8-.6,1-.5,1.1-.2,1.1v1.2l.1,1.2.4,1.2.5,1,.7,1,.9.9,1,.7,1.1.6,1.1.4,1.2.1h1.2l1.2-.2,1-.4,1-.6.9-.8.7-.9.5-1.1m21-105.6-.7.7-.6,1-.4,1.1-.3,1.1v1.2l.2,1.2.3,1.2.6,1.1.7,1,.8.9,1,.7,1.1.5,1.2.4,1.2.2,1.2-.1,1.1-.2,1.1-.4,1-.6.6-.5M195,314.45l-.3.5-.4,1-.3,1.2-.1,1.1.1,1.2.3,1.2.5,1.1.7,1.1.8.9,1,.7,1,.6,1.2.4,1.2.3h1.2l1.1-.2,1.1-.4.8-.4m10.9-4.7-.1-1.6-.2-1.7-.5-1.7m-32-39.3h0l-.7,1-.5,1-.2,1.1-.1,1.2.1,1.2.3,1.2.5,1.1.7,1,.8.9,1,.8,1,.6,1.2.4,1.2.3h1.1l1.2-.2,1.1-.4,1-.6.3-.2m-43.5-111.6-.3.4-.4,1.1-.3,1.1-.1,1.2.1,1.2.3,1.2.5,1.1.7,1,.8.9,1,.8,1.1.6,1.1.4,1.2.2h1.2l1.1-.2,1.1-.3.8-.5m-9.4-69.7-.6-1.6-.1-.3m22.7,69.4,43,132.5m-65-200,11,33.8m10.1,34.8,42.8,131.8m-64.3-197.8,10.5,32.2m-17.9,39.2,39.5,121.3m-56.8-174.7,14,43.3m55.6,135.9h0l-.7,1-.5,1-.3,1.2v1.1l.1,1.2.3,1.2.5,1.1.7,1.1.8.9.9.7,1.1.6,1.2.4,1.1.3h1.2l1.2-.2,1.1-.4,1-.5.3-.3m-10.2-45.2-.4-1.2-.6-1-.7-1-.9-.9-1-.6-1.2-.5-1.1-.4-1.2-.1-1.2.1-1.1.3-1.1.4-.9.7-.9.8-.6,1-.5,1-.3,1.1-.1,1.2.1,1.2.4,1.2.5,1.1.6,1,.9.9.9.8,1.1.6,1.1.4,1.2.3h1.2l1.2-.2,1.1-.4,1-.6.9-.7.7-.9.6-1,.4-1.1.2-1.1-.1-1.2-.2-1.2M149,175h0l-.7.9-.5,1.1-.3,1.1v1.2l.1,1.2.3,1.2.5,1.1.7,1,.8.9,1,.8,1,.6,1.2.4,1.1.2h1.2l1.2-.2,1.1-.3,1-.6.3-.2m145.2,401.2-.4.6-.6,1-.3,1.1-.2,1.2v1.2l.3,1.2.4,1.1.6,1.1.8.9.9.8,1.1.7,1.1.5,1.1.3,1.2.1,1.2-.1,1.1-.3,1.1-.5.7-.5m6.1,5.4.2-.2,1.1-1.2.9-1.4.8-1.4.6-1.6.3-1.6.3-1.7v-1.7l-.2-1.7-.4-1.7-.6-1.6m-185-259.5-1.5.7-1.5.9-1.3,1.1-.2.1m5.2,6.4-.5.6-.5,1-.4,1.1-.1,1.1v1.2l.2,1.2.5,1.2.6,1,.8,1,.9.8,1,.7,1.1.5,1.2.3h1.2l1.2-.1,1.1-.3,1-.5.7-.4m-10.7-19.6,55.4-21.4M137.45,328l.9-.9m56.1-12.2-.5.6-.5,1-.4,1.1-.1,1.2V320l.2,1.2.5,1.1.6,1.1.8.9.9.9,1,.6,1.1.5,1.2.3,1.2.1,1.2-.1,1.1-.3,1-.5.7-.5m9-10.9-.8-1.6-1.1-1.5-1.2-1.5-1.3-1.2-1.5-1.2-1.6-.9-1.7-.7-1.7-.6-1.8-.3-1.8-.1-1.8.1-1.7.3-1.7.5m-.9.9.9-.9m129.6,280.9-109.9-272.2m-.9.9.9-.9m109,273.1.9-.9m-.9.9-109.9-272.2m0,0-.9-1.6-1-1.5-1.2-1.5-1.3-1.2-1.5-1.2-1.6-.9-1.7-.7-1.7-.6-1.8-.3-1.8-.1-1.8.1-1.7.3-1.7.5M137.45,328l55.4-21.4M137.45,328l-1.6.7-1.4.9-1.3,1.1-1.2,1.2-1,1.4-.9,1.5-.6,1.6-.4,1.6-.3,1.8v1.7l.2,1.8.4,1.8.6,1.7.7,1.6,1,1.5,1.1,1.5,1.3,1.3m160.6,243.4-3.4-9.8-3.6-9.8-3.8-9.8-4-9.6-4.2-9.7-4.3-9.5-4.6-9.5-4.7-9.4-4.8-9.3-5.1-9.2-5.2-9.1-5.4-9.1-5.6-8.9-5.7-8.9-5.9-8.7-6-8.7-6.2-8.5-6.4-8.4-6.5-8.3-6.7-8.2-6.8-8.1-7-8-7.1-7.8-7.2-7.7-7.4-7.6-7.5-7.4-7.7-7.3-7.8-7.1m160.6,243.4.7,1.6.8,1.6,1,1.4,1.1,1.4,1.3,1.2,1.4,1.1,1.5.9,1.6.7,1.6.6,1.7.3,1.7.2h1.7l1.7-.2,1.6-.4,1.5-.6,1.5-.8,1.3-.9,1.3-1.1,1.1-1.2.9-1.4.7-1.4.6-1.6.4-1.6.2-1.7v-1.7l-.2-1.7-.3-1.7-.6-1.6m-172.3-247.7-.5-1.1-.7-1-.9-.9-1-.7-1-.6-1.2-.4-1.2-.2h-1.2l-1.1.2-1.1.4-1,.6-.9.8-.7.9-.5,1-.4,1.1-.2,1.1.1,1.2.2,1.2.4,1.2.7,1,.7,1,.9.8,1.1.7,1.1.5,1.2.3h1.2l1.1-.1,1.2-.3,1-.5.9-.6.8-.9.7-.9.4-1.1.3-1.1.1-1.2-.2-1.2-.3-1.2m165.1,250.3-.5-1.1-.7-1-.8-.9-1-.7-1.1-.6-1.1-.4-1.2-.2h-1.2l-1.2.2-1.1.4-1,.6-.8.8-.7.9-.6,1-.4,1.1-.1,1.2v1.2l.3,1.2.4,1.1.6,1.1.8.9.9.8,1,.7,1.1.5,1.2.3,1.2.1,1.2-.1,1.1-.3,1.1-.5.9-.7.8-.8.6-1,.5-1.1.2-1.1.1-1.2-.1-1.2-.4-1.2m-109.7-271.6-.5-1.1-.7-1-.9-.9-1-.8-1-.6-1.2-.4-1.2-.1h-1.2l-1.1.2-1.1.4-1,.6-.9.7-.7.9-.5,1-.4,1.1-.2,1.2.1,1.2.2,1.2.4,1.1.7,1.1.7.9.9.9,1.1.6,1.1.5,1.2.3,1.2.1,1.1-.1,1.2-.3,1-.5.9-.7.8-.8.7-1,.4-1,.3-1.2.1-1.2-.2-1.2-.3-1.1M91.35,583.55l-.2.4-.4,1.1-.1,1.2v1.2l.3,1.2.4,1.1.6,1.1.8.9.9.8,1,.7,1.2.5,1.1.3,1.2.1,1.2-.1,1.1-.3.5-.2m-85.6-296.2v.1l-.6,1-.3,1.1-.2,1.2V302l.3,1.2.4,1.1.6,1.1.8.9.9.9,1.1.6,1.1.5,1.2.3,1.1.1,1.2-.1,1.1-.3,1.1-.5.1-.1m20.8-21.4,24.1-.5m6.3,10-.5.6-.5,1-.4,1.1-.2,1.2.1,1.2.2,1.1.4,1.2.7,1,.7,1,.9.8,1.1.7,1.1.5,1.2.3,1.2.1,1.1-.1,1.2-.4,1-.5.7-.4m11.8,22.2-1.4-24.9m15,272.2-5-91.1m-11.1-183.5h0m15.1,274.5-15.1-274.5m0,0-.3-1.8-.4-1.7-.7-1.7-.9-1.7-1.1-1.5-1.2-1.4-1.4-1.2-1.5-1.1-1.6-.9-1.7-.7-1.7-.5-1.8-.3-1.8-.1m-34,.7,34-.7m2.2,295.1v-4.9l-.3-10.2-.4-10.2-.7-10.3-.8-10.2-1-10.2-1.3-10.3L76,505.05l-1.6-10.2-1.8-10.2-2-10.1-2.2-10.1L66,454.35l-2.6-10.1-2.8-10-3-10-3.1-9.9-3.4-9.9-3.5-9.8-3.7-9.8-3.9-9.7-4.1-9.6-4.3-9.6-4.4-9.5-4.7-9.4-4.8-9.4-4.9-9.2-2-3.5m4.1-17.2-.5.6-.5,1-.4,1.1-.1,1.2v1.2l.3,1.2.4,1.1.6,1.1.8.9.9.9,1,.6,1.2.5,1.1.3,1.2.1,1.2-.1,1.1-.3,1.1-.5.7-.5m65.8,275.7-.5,1-.4,1.1-.2,1.2.1,1.2.2,1.2.5,1.1.6,1.1.7.9,1,.8,1,.7,1.1.5,1.2.3,1.2.1,1.2-.1,1.1-.3,1-.5.1-.1M88,301.65l-.1-1.2-.4-1.2-.5-1.1-.7-1-.8-.9-1-.7-1.1-.6-1.1-.4-1.2-.2h-1.2l-1.2.2-1.1.4-.9.6-.9.8-.7.9-.6,1-.3,1.1-.2,1.2v1.2l.3,1.1.4,1.2.6,1,.8,1,.9.8,1.1.7,1.1.5,1.1.3,1.2.1,1.2-.1,1.1-.4,1.1-.5.9-.6.8-.9.6-.9.5-1.1.3-1.1v-1.2m74.9-290.2-.6.7-.5,1-.3,1.1-.2,1.2.1,1.2.3,1.2.4,1.1.6,1.1.8.9,1,.8,1,.6,1.1.5,1.2.3,1.2.1,1.2-.2,1.1-.3,1-.5.6-.4m9.2-10.3-.7-1.6-.9-1.5-1.1-1.4-1.2-1.3-1.4-1.2-1.5-1-1.5-.8-1.7-.7-1.7-.4-1.7-.3-1.7-.1-1.7.2-1.7.3-1.6.5-1.5.8-1.4.9-1.3,1-.1.2m51.1,74.4-26.7-68m39.6,100.9-.6-1.6m-39-99.3-.9.9m25.5,65-25.5-65m39.6,100.9-1.3-3.2m-38.3-97.7-.7-1.6-.9-1.5L178.45,8l-1.3-1.3-1.3-1.2-1.5-1-1.6-.8-1.6-.7-1.7-.4-1.7-.3-1.8-.1-1.7.2-1.6.3-1.6.5-1.5.8-1.5.9-1.2,1-1.2,1.3-1,1.3-.8,1.5-.6,1.5-.4,1.7-.3,1.7v1.7l.1,1.7.4,1.7.5,1.7m2.5,6.4-2.5-6.4m31.4,79.9-2.2-5.4m-8.4-77.8v-1.1l-.1-1.2-.4-1.2-.5-1.1-.7-1-.9-.9-1-.7-1.1-.6-1.1-.3-1.2-.2h-1.2l-1.2.3-1.1.4-.9.6-.9.8-.7.9-.5,1-.4,1.1-.1,1.2.1,1.2.2,1.2.5,1.1.6,1.1.8.9.9.8,1.1.6,1.1.5,1.2.3,1.2.1,1.1-.2,1.2-.3,1-.5.9-.7.8-.9.6-.9.5-1.1.2-1.2m23.7,87.7-.9.8m-75.5-90.8-.4.8-.5,1.1-.2,1.2v1.1l.2,1.2.4,1.2.6,1.1.7,1,.9.8,1,.7,1.1.5,1.2.4,1.2.1H129l1.2-.3,1.1-.4.4-.3m79.4,77.2-.4.8-.5,1.1-.2,1.1v1.2l.2,1.2.4,1.2.6,1.1.7,1,.9.8,1,.7,1.1.5,1.2.4,1.2.1h1.1l1.2-.3,1.1-.4.4-.3M137.55,10l-1.3-1.2-1.5-1-1.5-.9-1.7-.6-1.7-.5-1.7-.3-1.7-.1-1.7.1-1.7.3-1.6.5L120,7l-1.5.9L117.15,9l-.3.2m110.8,109.6.9-1,1-1.3.8-1.5.7-1.5.5-1.6.2-1.7.1-1.8-.1-1.7-.4-1.7-.5-1.7-.7-1.6-.9-1.6-1.1-1.4-1.2-1.3m0,0-.9.9m.9-.9L137.55,10m0,0-.9.9m60.5,96h.1m-.1,0,3.7-4m4.9-5.5-.1.2-.1.1m20.5.6-89.4-87.4m0,0-1.4-1.2-1.4-1-1.6-.9-1.6-.6-1.7-.5-1.7-.3-1.8-.1-1.7.1-1.6.3-1.7.5-1.5.7-1.4.9-1.3,1.1-.3.2m79.7,98.7-51-49.9m81.1,61.6.7-.6,1.2-1.2,1-1.3.8-1.5.7-1.5.4-1.6.3-1.7.1-1.8-.2-1.7-.3-1.7-.5-1.7-.8-1.6-.8-1.6-1.1-1.4-1.2-1.3m-104.9-81.9-.3.4-.6,1-.4,1.1-.2,1.2v1.1l.2,1.2.4,1.2.5,1.1.8,1,.9.8,1,.7,1.1.5,1.1.4,1.2.1h1.2l1.2-.3,1-.4,1-.6m79.3,76.9-.3.4-.6,1-.4,1.1-.2,1.2v1.1l.2,1.2.4,1.2.5,1.1.8,1,.9.8,1,.7,1.1.5,1.1.4,1.2.1h1.2l1.2-.3,1-.4,1-.7m-9-11.1-.3.8-.3,1.1-.2,1.2.1,1.2.3,1.1.5,1.2.6,1,.8,1,1,.7,1,.7,1.2.4,1.1.3h1.2l1.2-.1,1.1-.4.4-.1m-10.3-9.7-.1.2-.6,1.1-.3,1.1-.1,1.2.1,1.2.3,1.1.4,1.2.7,1,.8,1,.9.7,1.1.7,1.1.4,1.2.3h1.2l1.2-.1,1.1-.4,1-.5m14,33.6.5-.4,1.6-1.8,1.5-1.9,1.3-2.1,1.2-2.1,1-2.3.8-2.3.6-2.4.4-2.4.3-2.5v-2.5l-.1-2.5-.4-2.5-.5-2.5-.7-2.5-.9-2.4-1.1-2.3-1.2-2.3-1.4-2.2-1.6-2.1-1.7-1.9-1.8-1.9-2-1.7-2.1-1.5-2.2-1.4-2.2-1.2-2.2-1M197.55,153l.2.1,2.3,1.1,2.4.8,2.5.7,2.5.5,2.5.4,2.5.1,2.5-.1,2.5-.2,2.4-.5,2.4-.6,2.3-.9,2.2-1,2.2-1.1,2-1.4,1.9-1.5,1.8-1.6,1.6-1.8,1.5-1.9,1.3-2.1,1.2-2.1.9-2.3.8-2.3.7-2.4.4-2.4.2-2.5.1-2.5-.2-2.5-.3-2.5-.5-2.5-.7-2.5-.9-2.4-1.1-2.3-1.2-2.3-1.5-2.2-1.5-2.1-1.7-1.9-1.9-1.9-1.9-1.7-2.1-1.5-2.2-1.4-.7-.4m-38.4,4.5h0l-1.7,1.8-1.4,1.9-1.4,2.1-1.1,2.1-1,2.3-.8,2.3-.6,2.4-.5,2.4-.2,2.5v2.5l.1,2.5.3,2.5.3,1.4m34.6-17.4-.1.3m29.2,28.9.8-.8,1.6-1.9,1.5-1.9,1.3-2.1,1.1-2.1.9-2.3.8-2.3.6-2.4.4-2.5.2-2.5v-2.5l-.2-2.5-.4-2.5-.5-2.5-.8-2.4-.9-2.4-1.1-2.4-1.3-2.2-1.4-2.2-1.6-2-1.8-2-1.8-1.8-2-1.6-2.1-1.6-2.2-1.3-2.3-1.2-2.4-1-2.4-.9-2.5-.6-2.5-.5-2.5-.3-2.5-.1-2.5.2-1.1.1m25.3,60.7.6-.4,1.9-1.6,1.7-1.6,1.6-1.9,1.5-1.9,1.2-2.1,1.2-2.1.9-2.3.8-2.3.6-2.4.3-2.5.2-2.5V118l-.1-2.5L250,113l-.6-2.5-.7-2.4-1-2.4-1.1-2.4-1.2-2.2-1.5-2.2-1.6-2-1.7-2-1.9-1.8-2-1.6-2.1-1.6-2.2-1.3-2.3-1.2-2.3-1-2.4-.9-2.5-.6-2.5-.5-2.5-.3-2.5-.1-2,.1m8.6,27.5-.5-.4-1.1-.6-1.1-.5-1.2-.2h-1.2l-1.1.1-1.1.4-1.1.6-.6.4m-83.3,475.4-.3.8-.2,1.2V590l.2,1.2.3,1.1.6,1.1.7,1,.9.9,1,.7,1.1.5,1.2.4,1.2.1h1.2l1.1-.3.5-.1m7.7,4.5.8-.9,1-1.3.8-1.5.7-1.5.5-1.6.3-1.7.1-1.7-.2-1.8m-49.4-261.9-1.7.4-1.5.5m22.6,25.3,30,235.7m0,0-.9.9m-48.5-262.8,2.1-.4,2.1-.6,2-.8,1.9-1,1.8-1.1L113,322l.4-.4m-11.9,5.6-1,.9M89,259l-.1.1-.6.9-.4,1.1-.2,1.2-.1,1.2.2,1.2.4,1.1.6,1.1.7,1,.9.9,1,.7,1.1.5,1.1.4,1.2.1H96l1.2-.3,1-.4.8-.5m39.5,70.6h0l2-2.5,1.7-2.5M106,478l12.5,98.3m26.6,26.4.5-.4,1.1-1.2,1.1-1.3.8-1.5.7-1.5.5-1.6.2-1.7.1-1.7L150,590m-30-236.1L150,590m-11.5-250.3,1-1.4,1.9-2.6.4-.7M120,353.85l2.8-1.4,2.8-1.6,2.6-1.7,2.2-1.5M104,281.45l1.1.5,1.9,1.1,1.9,1.3,1.8,1.4,1.7,1.6,1.5,1.7,1.3,1.8,1.2,2,1.1,2,.8,2.1.7,2.1.5,2.2.2,2.2.1,2.2-.1,2.2-.3,2.2-.5,2.1-.7,2-.9,2-1,1.8-1.3,1.8-1.4,1.6-1.5,1.5-1.7,1.3-1.8,1.1-1.9,1-2,.8-2,.6-2.2.4m-2.7.7,1.1-.3,1.6-.4m-12.1-68.7-.4.6-.6.9L87,262l-.3,1.2v1.2l.2,1.2.4,1.1.5,1.1.8,1,.9.9,1,.7,1.1.5,1.1.4,1.2.1h1.2l1.1-.3,1.1-.4,1-.7.2-.2m30.6,317.3-.2.4-.4,1-.2,1.2v1.2l.1,1.2.4,1.1.6,1.1.7,1,.9.9,1,.7,1.1.5,1.2.4,1.1.1h1.2l1.2-.3,1-.4h.1m201.6-24.8h0l-.6,1-.4,1.1-.1,1.1v1.2l.2,1.2.4,1.2.6,1,.8,1,.9.8,1,.7,1.1.5,1.2.3,1.2.1,1.2-.1,1.1-.3,1.1-.4.2-.2m6.7,5.1,1-1.2,1-1.3.8-1.5.6-1.6.4-1.6.3-1.7v-1.7l-.1-1.7-.4-1.8-.6-1.6-.7-1.7m-175.9-294.9h0l-.5,1-.4,1.1-.2,1.2v1.2l.3,1.2.4,1.1.6,1.1.7,1,.9.8,1.1.7,1.1.5,1.2.3,1.1.1,1.2-.1,1.2-.3,1-.5.2-.1m28.7,50.1.2-.2.1-.1m23.5,20.1,113.5,214.7m0,0-.9.9m-112.6-215.6-1,.9m1-.9,2.1-2.4,1.9-2.5,1.8-2.6,1.6-2.7,1.4-2.9,1.3-2.9,1-3,.9-3.1.7-3.2.5-3.1.3-3.3.1-3.2-.1-3.3-.3-3.3-.4-3.2-.7-3.3-.9-3.2-1-3.2-1.3-3.1-1.4-3-1.6-3-1.8-2.8-1.9-2.8-2.1-2.7-2.2-2.5-2.4-2.4-2.5-2.3-2.6-2.1-2.7-2-2.9-1.8-2.9-1.7-3-1.5-3.1-1.3-3.1-1.1-3.2-.9-3.2-.7-3.3-.6-3.2-.3-3.3-.2-3.3.1h-1.2m91.6,240.1,35.1,66.4m31.5,19.6,1.1-1.2.9-1.3.8-1.5.7-1.6.4-1.6.2-1.7.1-1.7-.2-1.7-.3-1.8-.6-1.6-.7-1.7m-113.6-214.7,113.6,214.7m-113.6-214.7,2.1-2.4,2-2.5,1.7-2.6,1.7-2.7,1.4-2.9,1.2-2.9,1.1-3,.9-3.1.7-3.2.5-3.1.3-3.3.1-3.2-.1-3.3-.3-3.3-.5-3.2-.6-3.3-.9-3.2-1.1-3.2-1.2-3.1-1.4-3-1.6-3-1.8-2.8-1.9-2.8-2.1-2.7-2.2-2.5-2.4-2.4-2.5-2.3-2.6-2.1-2.7-2-2.9-1.8-2.9-1.7-3-1.5-3.1-1.3-3.1-1.1-3.2-.9-3.3-.7-3.2-.6-3.3-.3-3.2-.2-3.3.1m9.9,30.3,1.5.4,2.1.7,2.1.9,2,1.1,1.9,1.2,1.8,1.4,1.6,1.6,1.6,1.7,1.4,1.8,1.2,1.9,1.1,2,.8,2.1.7,2.1.5,2.2.3,2.2.2,2.2-.1,2.2-.3,2.2-.5,2.1-.6,2-.9,2-1,1.9-1.2,1.7-1.4,1.7-.8.8m-39.1-60-.4.5-.6,1-.3,1.1-.2,1.2v1.2l.2,1.2.4,1.1.6,1.1.8,1,.9.8,1,.7,1.2.5,1.1.3,1.2.1,1.2-.1,1.1-.3,1.1-.5.7-.5m146.9,286.5-.4.6-.5,1-.4,1.1-.2,1.1.1,1.2.2,1.2.4,1.2.6,1,.8,1,.9.8,1,.7,1.1.5,1.2.3,1.2.1,1.1-.1,1.2-.3,1-.4.8-.6m-208.9-462-.1-1.2-.3-1.2-.5-1.1-.7-1-.8-.9-1-.8-1-.6-1.2-.4-1.2-.3h-1.1l-1.2.2-1.1.3-1,.6-.9.7-.8.9-.6,1-.3,1.1-.2,1.1v1.2l.2,1.2.3,1.2.6,1.1.8.9.9.9,1,.7,1.1.5,1.2.3,1.1.2,1.2-.1,1.2-.3,1-.4,1-.7.8-.8.7-.9.5-1.1.3-1.1.1-1.2M5.45,602.85l-1,.9M52,615.15l.5-.4m-9.3-10.6-.9.9M240.45,636l-1,.9m41.6-1.7.4-.5m-9.3-10.5-.9.9M30.05,314.45l1-.9m48.6-231.7-.9.9m36.5,73.8h0m48.8,34.9.9-.9m40.6-92.9-1,.9m68.6,524.7-1,.9m7.8-3.6-.9.9m88.5-1.7.9-.9m-13.3-29.4.9-.9m-312,14.7-.9.9m10.7-1.3-1.1.9m32.1-25.7-.9.9m58.2,57.3.9-.9m.3-31,.9-.9m.4-471.8,1-.9M116,10.05l-.9.9m40.6,110.1h0m2.9-116.8-.9.9m161.8,598.1.9-.9m-186.5-272.5-.9.9m24.7-325.6-1,.9m-39.8,3.1-.9.9m110.8,109.6.9-.9m6.5,29.4.9-.9m6.3-6,.9-.9M145.85,602l1-.9m209.2-12.5,1-.9"/></svg>