<?xml version="1.0" encoding="utf-8"?>
<!-- Generator: Adobe Illustrator 24.3.0, SVG Export Plug-In . SVG Version: 6.00 Build 0)  -->
<svg version="1.1" id="Layer_1" xmlns="http://www.w3.org/2000/svg" xmlns:xlink="http://www.w3.org/1999/xlink" x="0px" y="0px"
	 viewBox="0 0 255.6 175.2" style="enable-background:new 0 0 255.6 175.2;" xml:space="preserve">
<style type="text/css">
	.st0{fill:none;stroke:#010101;stroke-width:0.709;stroke-linecap:round;stroke-linejoin:round;stroke-miterlimit:10;}
</style>
<g>
	<path class="st0" d="M152.7,71.7l-0.8,0.8 M163,69.9l2.3-2.2 M190.6,86.7l-3.7,3.6 M175.3,55.6l-3.2,3.1 M174.2,57.7l0.9-1
		 M196.3,79.3l3.6-3.5 M198.4,75.7l-1.5,1.4 M186.6,57.9l4-3.9 M43.6,147.8l-1.3,1.3 M24.1,126.3l-1.5,1.5 M43.2,148l-0.4,0.5
		 M23.3,127.4l0.6-0.6 M59.7,156.2l-2,1.9 M17,109.7l-2.1,2 M59.1,156.3l-1.1,1 M15.7,111.5l1.2-1.2 M77.1,160.9l-2.5,2.3 M13.7,92
		l-2.5,2.5 M76.4,160.8l-1.7,1.6 M11.9,94.5l1.8-1.8 M95.2,161.2l-3.2,3 M94.1,161.3l-2.2,2.1 M15,73.8l-3.4,3.3 M12.4,77.3l2.3-2.3
		 M113.1,156.9l-4.2,4.2 M112,156.9l-3.4,3.4 M20.5,56.4l-4.4,4.3 M16.9,61l3.7-3.6 M128.8,149.4l-4.6,4.5 M128.1,149l-4.3,4.2
		 M29.1,41.6L24.6,46 M25.2,46.5l4.4-4.3 M141.1,138.1l-4.6,4.5 M141.8,138.6l-4.7,4.5 M136.3,139.8l2.5-2.5 M36.9,34.7l4.6-4.5
		 M138.2,137.7l-0.3,0.3 M41.1,29.5l-4.7,4.6 M42.4,32.5l-2.7,2.7 M41.6,33.8l0.5-0.5 M151.3,124.1l-5.1,4.9 M145.3,126.3l3.3-3.2
		 M152.2,124.3l-5.3,5.1 M51.3,26.2l5.2-5.1 M147.3,123.2l-0.9,0.9 M57.2,24l-3.3,3.3 M56.1,26.5l1.1-1.1 M73.8,19.3l-4,3.9
		 M72.2,22.9l1.7-1.6 M88.9,23.5l2.2-2.2 M154.1,77.1l-2.1,2 M149.6,77.6l2.3-2.2 M152.2,72l-3.3,3.2 M105.3,28l4.4-4.3 M154.5,77.3
		l-1.7,1.7 M162.7,62.6l-3.7,3.6 M157.1,61.7l2.1-2.1 M159.8,60.5l-1.9,1.8 M159.1,65.3l3.1-3 M191.1,97.2L191.1,97.2L191.1,97.2
		l0.1-0.2 M159.8,65.7l0.7-0.5l1.9-0.6l1.5-0.1 M163.9,64.5l1.8,0.3 M158.9,69.3l5-4.8 M186.3,101.8l4.9-4.8 M191.2,97l1.2-2.2
		l0.6-2.1l0.3-2.1l-0.2-1.1 M188.2,94.3l4.9-4.8 M193.1,89.5l-0.7-2.1 M164.3,47.1h-0.1h-0.1H164l-0.1,0.1h-0.1l-0.1,0.1h-0.1v0.1
		 M208.4,88.7L208.4,88.7 M171.9,50l2.6,3.3 M174.5,53.3l0.1,0.2 M169.5,58.1l5-4.8 M209.8,86.9l-0.1,0.3l-0.2,0.2l-0.2,0.2
		l-0.2,0.2L209,88l-0.2,0.2l-0.2,0.2l-0.2,0.2 M203.5,93.4l4.9-4.8 M164.3,47.1l2.3,0.3l2.2,0.7l1.8,0.9l1.3,1 M164.3,47.1l-4.9,4.8
		 M166.9,54.8l5-4.8 M209.8,86.9l-4.9,4.8 M209.8,86.9L209.8,86.9l0.2-0.2v-0.2v-0.1v-0.1v-0.1v-0.1 M201.3,76l0.1,0.3l0.2,0.3
		l0.3,0.2l0.3,0.2 M205,90.9l5-4.8 M210,86.1l-0.7-2.2l-1.1-2.1l-1.1-1.6l-1.2-1.1 M200.9,83.9l5-4.8 M205.9,79.1l-3.7-2.1
		 M202.2,77l-4.9,4.9 M187.7,50.1v0.4l0.1,0.3l0.1,0.4l0.2,0.3l0.2,0.3l0.3,0.2l0.3,0.2l0.4,0.1 M189.3,52.3l0.3,0.1l0.2,0.1
		l0.3,0.1l0.3,0.1l0.3,0.1l0.3,0.1l0.2,0.1l0.3,0.1 M189.3,52.3l-5,4.8 M199.5,60l0.2,0.2l0.2,0.3l0.1,0.2l0.2,0.3l0.1,0.3l0.1,0.2
		l0.2,0.3l0.1,0.3 M200.7,62.1l0.2,0.3l0.2,0.3l0.3,0.2l0.3,0.2l0.4,0.2h0.3h0.4h0.3 M195.7,66.9l5-4.8 M188.1,46.1l-0.4,4
		 M182.7,54.9l5-4.8 M181.4,38.6L181.4,38.6h-0.2h-0.1l-0.1,0.1l-0.1,0.1 M199.2,58.7v0.2l0.1,0.4l0.1,0.3l0.1,0.4 M199.5,60
		l-4.9,4.8 M181.4,38.6l0.3-0.1h0.3h0.3h0.2h0.3h0.3l0.3-0.1h0.3 M181.4,38.6l-4.9,4.8 M207,62.2l-3.9,1.1 M203.1,63.3l-4.9,4.8
		 M184.5,38.8L184.5,38.8l-0.2-0.2h-0.1l-0.1-0.1H184h-0.1l-0.1-0.1h-0.1 M178.7,43.3l5-4.9 M184.5,38.8l1.4,1.8l1.2,2l0.7,1.9
		l0.3,1.6 M184.5,38.8l-5,4.8 M183.1,50.9l5-4.8 M215.1,68.3L215.1,68.3L215.1,68.3l0.2-0.2V68l0.1-0.1v-0.1v-0.1v-0.1 M215.1,65.3
		l0.1,0.3v0.3l0.1,0.3v0.3v0.2l0.1,0.3v0.3v0.3 M210.4,72.4l5-4.8 M215.1,65.3l-4.9,4.8 M215.1,65.3L215.1,65.3v-0.2L215,65v-0.1
		l-0.1-0.1l-0.1-0.1h-0.1v-0.1 M209.7,69.4l5-4.8 M214.7,64.6l-2.1-1.1l-2.1-0.9l-2-0.4H207 M202,67l5-4.8 M177.3,88.6l2.3,0.5h2.9
		l2.8-0.5l2.6-1l2.4-1.5l2-1.9L194,82l1.1-2.6l0.7-2.8l0.1-2.8l-0.4-2.9l-0.9-2.8l-1.4-2.6l-1.9-2.3l-2.2-2l-2.5-1.6l-2.7-1.1
		l-2.9-0.6h-2.9l-2.8,0.5l-2.6,1 M172.7,59.4l-2.4,1.5l-2,1.9l-1.6,2.2l-1.2,2.6l-0.7,2.8l-0.1,2.8l0.4,2.9 M202.5,45.1l-2.1,0.6
		l-2,0.8l-1.6,1.1l-0.3,0.4 M205.5,47.6l-0.2,2.3l-0.5,2.1l-0.8,1.8l-0.9,1.2 M203.4,45.3L203.4,45.3l-0.2-0.1l-0.1-0.1H203h-0.1
		h-0.1h-0.2h-0.1 M197.6,49.9l4.9-4.8 M205.5,47.6l-5,4.8 M205.5,47.6v-0.1v-0.1l-0.1-0.1v-0.1v-0.1l-0.1-0.1l-0.1-0.1l-0.1-0.1
		 M203.4,45.3l0.2,0.2l0.2,0.2l0.3,0.1l0.2,0.2l0.2,0.2l0.2,0.2l0.2,0.2l0.2,0.2 M203.4,45.3l-5,4.8 M200.2,51.6l4.9-4.8
		 M190.2,83.7l0.1-0.1l1.7-2.1l1.2-2.4l0.7-2.7l0.2-2.7l-0.5-2.8l-0.9-2.7l-1.5-2.5l-1.9-2.1l-2.3-1.7l-2.6-1.3l-2.7-0.7l-2.8-0.2
		l-2.7,0.4l-2.6,0.9 M173.6,61l-2.3,1.5l-0.9,0.8 M181.3,88l1.1-0.1l2.7-0.7l2.4-1.2l2.1-1.7l1.7-2.1l1.2-2.4l0.7-2.7l0.2-2.8
		l-0.5-2.7l-0.9-2.7l-1.5-2.5l-1.9-2.1l-2.3-1.7l-2.6-1.3l-2.7-0.7l-2.8-0.2l-2.8,0.4l-2.5,0.9 M172.9,61.7l-2.3,1.5l-1.9,1.9
		l-1.5,2.3l-0.9,2.5l-0.4,2.1 M192.3,84.4l0.8-0.8l1.6-2.3l1.1-2.6l0.7-2.7l0.1-2.9l-0.4-2.9l-0.9-2.8l-1.4-2.6l-1.8-2.3l-2.3-2
		l-2.5-1.6l-2.7-1.1l-2.9-0.5l-2.9-0.1l-2.8,0.5l-2.6,1 M173.4,58.7l-2.4,1.5l-1.2,1 M158.6,52.2l-0.2,0.2l-0.2,0.2l-0.2,0.2
		l-0.1,0.2l-0.2,0.2l-0.2,0.3l-0.1,0.2l-0.2,0.2 M157.2,53.9L157.2,53.9l-0.1,0.2l-0.1,0.1v0.1v0.1v0.1v0.1v0.1 M161.1,61.7
		l-1.1-0.9l-0.7-0.9l-1-1.8l-1.3-3.4 M164.8,63.8l-3.7-2.1 M164.8,63.8l0.3,0.2l0.3,0.2l0.2,0.3l0.1,0.4l0.2,0.3v0.4v0.3l-0.1,0.4
		 M165.8,66.3l-0.1,0.3l-0.1,0.2l-0.1,0.3l-0.1,0.3l-0.1,0.3v0.2l-0.1,0.3l-0.1,0.3 M165.1,68.5l-0.1,0.3l-0.1,0.4l-0.3,0.2
		l-0.2,0.3l-0.3,0.1l-0.4,0.1l-0.3,0.1l-0.4-0.1 M163,69.9l-4.1-0.6 M158.9,69.3l-1.4,0.1l-1,0.3l-1.8,0.8l-2.8,2 M151.9,72.5
		L151.9,72.5l-0.1,0.1l-0.1,0.1v0.1l-0.1,0.1V73v0.1v0.1 M151.6,73.2v0.3l0.1,0.3v0.3v0.3l0.1,0.2v0.3v0.3l0.1,0.3 M151.9,75.5v0.1
		v0.1l0.1,0.1v0.1l0.1,0.1l0.1,0.1l0.1,0.1h0.1 M160,78.6h-1.4l-1.1-0.1l-1.9-0.6l-3.2-1.7 M163.9,77.5l-3.9,1.1 M163.9,77.5h0.3
		h0.4h0.4l0.2,0.1 M170.5,92.9l-0.2,0.2l-0.2,0.2 M178.5,88.9l0.2,0.1l0.2,0.3l0.2,0.4l0.2,0.3v0.4v0.3 M179.3,90.7l-0.4,4.1
		 M178.9,94.8l0.2,1.4l0.4,1l0.9,1.9l2.1,2.9 M182.5,102l0.1,0.1l0.1,0.1h0.1l0.1,0.1h0.1l0.1,0.1h0.1h0.1 M183.3,102.4h0.3h0.3h0.3
		l0.3-0.1h0.2h0.3h0.3h0.3 M185.6,102.3L185.6,102.3l0.2-0.1h0.1l0.1-0.1h0.1l0.1-0.1v-0.1l0.1-0.1 M188.2,94.3l0.1,1.4l-0.1,1.1
		l-0.5,1.9l-1.4,3.1 M186.9,90.3l1.3,4 M186.9,90.3l-0.1-0.3v-0.4v-0.3l0.1-0.4l0.2-0.3l0.2-0.3l0.3-0.2l0.3-0.1 M187.9,88l0.3-0.2
		l0.2-0.1l0.3-0.1l0.2-0.1l0.3-0.1l0.2-0.2l0.3-0.1l0.2-0.2 M189.9,86.9l0.4-0.1l0.3-0.1h0.4h0.3l0.4,0.1L192,87l0.3,0.2l0.3,0.3
		 M192.6,87.5l2.6,3.3 M195.2,90.8l1.1,0.9l1,0.6l1.9,0.7l3.5,0.7 M202.7,93.7h0.1h0.1h0.1h0.1l0.1-0.1h0.1l0.1-0.1l0.1-0.1
		 M203.5,93.4l0.1-0.2l0.2-0.2l0.2-0.2l0.2-0.2l0.2-0.2l0.1-0.2l0.2-0.2l0.2-0.3 M204.9,91.7L204.9,91.7L204.9,91.7l0.1-0.2v-0.1
		v-0.2v-0.1V91v-0.1 M200.9,83.9l1.1,1l0.7,0.9l1.1,1.7l1.2,3.4 M197.3,81.9l3.6,2 M197.3,81.9l-0.3-0.3l-0.3-0.2l-0.2-0.3l-0.2-0.3
		l-0.1-0.4V80v-0.3l0.1-0.4 M196.3,79.3l0.1-0.2l0.1-0.3l0.1-0.3v-0.3l0.1-0.2l0.1-0.3l0.1-0.3v-0.3 M196.9,77.1l0.1-0.3l0.2-0.3
		l0.2-0.3l0.3-0.2l0.3-0.2l0.3-0.1h0.4h0.3 M199,75.7l4.1,0.6 M203.1,76.3l1.4-0.1l1.1-0.3l1.7-0.7l2.8-2 M210.1,73.2L210.1,73.2
		l0.2-0.2v-0.1l0.1-0.1v-0.1v-0.1v-0.1v-0.1 M210.4,72.4v-0.3v-0.3v-0.2l-0.1-0.3V71v-0.3l-0.1-0.3v-0.3 M210.2,70.1V70l-0.1-0.1
		v-0.1l-0.1-0.1l-0.1-0.1l-0.1-0.1l-0.1-0.1 M202,67h1.4l1.1,0.2l2,0.5l3.2,1.7 M198.2,68.1L202,67 M198.2,68.1l-0.4,0.1l-0.4-0.1
		h-0.3l-0.4-0.2l-0.3-0.1l-0.3-0.3l-0.2-0.3l-0.2-0.3 M195.7,66.9l-0.1-0.3l-0.1-0.2l-0.2-0.3l-0.1-0.3l-0.2-0.2l-0.1-0.3l-0.2-0.3
		l-0.1-0.2 M194.6,64.8l-0.2-0.4l-0.1-0.3v-0.4v-0.3l0.1-0.4l0.1-0.3l0.2-0.3l0.3-0.2 M195,62.2l3.1-2.4 M198.1,59.8l0.9-1.1l0.5-1
		l0.6-1.8l0.4-3.5 M200.5,52.4L200.5,52.4v-0.2v-0.1l-0.1-0.1v-0.1l-0.1-0.1v-0.1l-0.1-0.1 M200.2,51.6l-0.2-0.2l-0.2-0.2l-0.3-0.2
		l-0.2-0.2l-0.2-0.1l-0.2-0.2l-0.3-0.2l-0.2-0.2 M198.4,50.1l-0.1-0.1h-0.1l-0.1-0.1H198h-0.1h-0.1h-0.1h-0.1 M190.8,53.5l0.9-1
		l0.9-0.6l1.7-1l3.3-1 M189,57.1l1.8-3.6 M189,57.1l-0.2,0.3l-0.2,0.2l-0.3,0.2L188,58l-0.4,0.1h-0.3l-0.4-0.1l-0.3-0.1 M186.6,57.9
		l-0.3-0.1l-0.3-0.1l-0.3-0.1l-0.3-0.1l-0.2-0.1l-0.3-0.1l-0.3-0.1l-0.3-0.1 M184.3,57.1L184,57l-0.4-0.2l-0.2-0.2l-0.3-0.3
		l-0.2-0.3l-0.1-0.4l-0.1-0.3v-0.4 M182.7,54.9l0.4-4 M183.1,50.9l-0.2-1.4l-0.3-1.1l-0.9-1.8l-2.2-3 M179.5,43.6l-0.1-0.1h-0.1
		l-0.1-0.1l-0.1-0.1H179h-0.1h-0.1h-0.1 M178.7,43.3h-0.3h-0.3h-0.2h-0.3h-0.3H177h-0.3l-0.2,0.1 M176.5,43.4L176.5,43.4h-0.2
		l-0.1,0.1h-0.1l-0.1,0.1h-0.1l-0.1,0.1v0.1 M173.9,51.4l-0.1-1.5l0.1-1.1l0.4-1.9l1.5-3.1 M175.2,55.3l-1.3-3.9 M175.2,55.3
		l0.1,0.4V56v0.4l-0.2,0.3L175,57l-0.3,0.3l-0.2,0.2l-0.3,0.2 M174.2,57.7l-0.3,0.1l-0.3,0.1l-0.2,0.1l-0.3,0.1l-0.2,0.2l-0.3,0.1
		l-0.2,0.1l-0.3,0.2 M172.1,58.7l-0.3,0.1l-0.4,0.1h-0.3h-0.4l-0.3-0.1l-0.4-0.2l-0.3-0.2l-0.2-0.3 M169.5,58.1l-2.6-3.3
		 M166.9,54.8l-1.1-0.9l-1-0.6l-1.9-0.7l-3.5-0.7 M159.4,51.9L159.4,51.9h-0.3H159l-0.1,0.1h-0.1v0.1h-0.1l-0.1,0.1 M188,82.8
		l0.3-0.2l1.4-2l1-2.2l0.5-2.5v-2.5l-0.6-2.5l-1.1-2.3l-1.6-2.1l-2-1.7l-2.2-1.3l-2.5-0.8l-2.5-0.2l-2.5,0.3l-2.3,0.8 M173.9,63.6
		l-2,1.4l-0.7,0.5 M165.3,78.2l-0.2-1.8l0.2-2.5l0.8-2.3l1.2-2.1l1.7-1.8l2.1-1.3 M171.1,66.4l2.3-0.8l2.5-0.4l2.5,0.3l2.5,0.8
		l2.2,1.2l2,1.8l1.5,2l1.1,2.4l0.6,2.5l0.1,2.5l-0.5,2.4l-1,2.3l-1.5,1.9l-1.9,1.6l-2.2,1.1l-2.4,0.5l-2.5,0.1l-1.2-0.2 M177,86.6
		l0.2-0.1l2.2-0.4l2-1l1.6-1.4l1.2-1.8l0.6-2.1l0.2-2.2l-0.5-2.2l-0.9-2.1l-1.5-1.8l-1.8-1.4l-2.1-1l-2.2-0.4l-2.2,0.2l-2.1,0.7
		 M171.7,69.6l-1.8,1.2l-1.4,1.6l-0.9,2l-0.4,2 M170.8,99.4l0.1,0.2l0.7,1.9l1.1,1.6l1.6,1.3l1.8,0.8l2,0.2l1.9-0.2l1.7-0.9l1.4-1.3
		l0.4-0.6 M179.2,92H179l-1.9-0.3l-1.9,0.3l-1.7,0.8l-1.4,1.3l-0.9,1.7l-0.1,0.2 M253.4,35l0.6-0.7l0.9-1.6l0.4-1.9 M255.3,30.8
		l-0.1-2l-0.7-1.8l-1.2-1.7l-1.6-1.2l-1.8-0.8l-2-0.3l-1.9,0.3l-1.7,0.8l-0.8,0.7 M47.5,134l-0.2-1.9l-0.7-1.9l-1.1-1.6l-1.6-1.3
		l-1.8-0.8l-2-0.3l-1.9,0.3l-1.7,0.9l-1.4,1.3l-0.9,1.6l-0.4,1.9l0.1,2l0.7,1.8l1.2,1.7l1.6,1.2l1.8,0.8l1.9,0.3l1.9-0.3l1.7-0.8
		l1.4-1.3l1-1.7L47.5,134 M171.1,72.5l0.8-0.6l1.7-0.8l1.9-0.4l2,0.3l1.8,0.8l1.6,1.2l1.2,1.7 M182.1,74.7l0.7,1.8l0.1,2l-0.4,1.9
		l-0.9,1.6l-0.6,0.7 M111.2,143.4l0.7,1.8l0.1,2l-0.3,1.9l-1,1.6l-1.3,1.3l-1.7,0.9l-1.9,0.3l-2-0.2l-1.8-0.8l-1.6-1.3l-1.2-1.6
		l-0.7-1.9l-0.1-1.9l0.3-1.9l1-1.7l1.3-1.3l1.7-0.8l1.9-0.4l2,0.3l1.8,0.8l1.6,1.2L111.2,143.4 M179.3,91.2l-0.5-0.1h-2l-1.8,0.6
		l-1.6,1v0.1 M183.2,103l0.6-0.6 M166.4,103.9l1.3,2l2,2.1l2.3,1.7l2.6,1.2l2.7,0.6 M177.3,111.5l2.8,0.1l2.7-0.5l2.5-1l2.3-1.5
		l0.2-0.2 M32.7,21.9l1.6-1.4l4.9-4.1l5.3-3.8l5.6-3.2l5.8-2.8L62,4.3l6.3-1.7l6.5-1.3l6.5-0.7L88,0.4l6.6,0.4l6.7,0.9l6.5,1.4
		l6.5,2l6.4,2.4 M78.7,86.4L78.7,86.4l1.6-1.2l1.8-0.5l2-0.1l1.9,0.6l1.7,1l1.4,1.5l0.9,1.8l0.4,1.9l-0.1,1.9l-0.7,1.8l-1.1,1.4
		 M201.1,42.3L120.7,7.5 M120.7,7.5l-3.6,3.5 M201.1,42.3l5.2,2.6l5,3.1l4.7,3.5l4.4,4l4,4.3l3.5,4.7l3.1,5l2.6,5.2l2.1,5.5l1.6,5.6
		l1,5.6l0.4,5.7l-0.1,5.7l-0.6,5.7l-1.3,5.4l-1.8,5.4l-2.3,5l-2.8,4.8l-3.3,4.5l-3.7,4l-0.2,0.3 M201.1,42.3l-3.6,3.5 M191.1,96.8
		l0.2,1.5l-0.1,2.8l-0.6,2.7l-1.1,2.4l-1.7,2.2l-2,1.7l-2.4,1.3l-2.6,0.7l-2.8,0.2l-2.7-0.4l-2.7-0.9l-2.5-1.4l-2.2-1.9l-1.7-2.2
		l-0.5-0.9 M181.1,38.7l-64-27.7 M197.5,45.8l-11.5-5 M28.8,25.8l1.9-1.9l4.9-4.1l5.3-3.7l5.6-3.3l5.9-2.8l6.1-2.2L64.8,6l6.4-1.2
		L77.8,4l6.6-0.1l6.7,0.3l6.6,0.9l6.6,1.5l6.5,1.9l6.3,2.5 M19.1,37.4l2.9-4l1.6-2 M10.5,54.7l1.7-4.5l0.8-1.7 M6.3,73.7L6.9,69
		l0.3-1.7 M6.9,93.5l-0.6-4.6l-0.2-2.4 M12,112.8l-1.5-4.1l-1.1-3.4 M20.7,129.4l-1.4-2.3l-2.7-4.5 M32.5,143.7l-0.4-0.4l-4.7-5.1
		l-0.2-0.2 M47,155.3l-4.5-3.1l-1.9-1.4 M63.7,163.8l-3.5-1.4l-3.9-1.8 M82.1,168.6l-2.4-0.4l-4.7-0.9 M101.2,169.1l-1.6,0.1
		l-4.9,0.2 M125.9,165.5l64-9.8 M113.6,167.3l8.5-1.2 M205.3,49.9l2.5,1.5l4.7,3.5l4.3,4l4,4.3l3.6,4.7l3.1,5l2.6,5.3l2.1,5.4
		l1.5,5.6l1,5.7l0.5,5.7l-0.1,5.7l-0.7,5.6l-1.2,5.5l-1.8,5.3l-2.3,5.1l-2.8,4.7L223,137l-3.7,4.1l-4.2,3.6l-4.5,3.2l-4.8,2.8
		l-5.1,2.2l-5.3,1.6l-5.5,1.2 M197.5,45.8l1.2,0.5 M75.4,166.8L75.4,166.8 M60.5,156.5l-0.6,0.7h-0.1 M7.2,93.2L7.2,93.2l0.1-0.1
		 M16.7,108.5l-1,0.8l-1.2,1.2 M79.1,161.1l-1,2l-2.7,3.7 M69.8,172.3l5.6-5.5 M13.5,89.8l-2.2,1l-4,2.3 M7.3,93.1l-5.7,5.5
		 M95.2,168.9L95.2,168.9l-0.1,0.2l-0.1,0.1 M6.5,73.5L6.5,73.5l0.3-0.2h0.1 M97.5,161.5l-0.1,0.6l-0.6,2.5l-1.6,4.3 M89.5,174.4
		l5.7-5.5 M14.5,71.6h-0.6L11.3,72l-4.4,1.3 M6.9,73.3l-5.7,5.5 M114.6,166.2L114.6,166.2l-0.1,0.2l-0.1,0.1v0.1l-0.1,0.1
		 M10.6,54.5L10.6,54.5l0.2-0.1l0.1-0.1H11h0.2 M115.1,158.5v0.4v2.6l-0.5,4.7 M108.9,171.7l5.7-5.5 M18.1,54.3l-2.2-0.2l-4.7,0.2
		 M11.2,54.3l-5.7,5.4 M132.5,158.8v0.2l-0.1,0.1v0.1v0.2l-0.1,0.1l-0.1,0.1 M19.2,37.3L19.2,37.3l0.1-0.1h0.2l0.1-0.1h0.1h0.2H20
		 M131.3,151.9l0.6,2.2l0.6,4.7 M126.8,164.3l5.7-5.5 M27,38.9l-2.4-0.8l-4.6-1 M20,37.1l-5.7,5.5 M147.8,147.3L147.8,147.3v0.3v0.1
		v0.1v0.2l-0.1,0.1l-0.1,0.1v0.1 M147.6,148.3l-5.7,5.5 M29.6,25l0.2-0.3l0.3-0.2l0.3-0.3l0.3-0.2l0.2-0.3l0.3-0.2l0.3-0.3l0.3-0.2
		 M29.6,25l-5.7,5.5 M31.8,23L31.8,23l0.2-0.2h0.1h0.1l0.2-0.1l0.1,0.1h0.1h0.2 M26.1,28.5l5.7-5.5 M144.5,139.9l0.3,0.5l1.3,2.4
		l1.7,4.5 M142.1,152.8l5.7-5.5 M40.2,26.9l-0.8-0.6l-2.3-1.4l-4.3-2.1 M32.8,22.8l-5.7,5.5 M158.1,135.8L158.1,135.8l-0.2,0.1
		 M159.7,133.3l-0.2,0.3l-0.2,0.3l-0.2,0.3l-0.2,0.3l-0.2,0.4l-0.2,0.3l-0.2,0.3l-0.2,0.3 M152.4,141.3l5.7-5.5 M159.7,132.3
		L159.7,132.3l0.1,0.2v0.1v0.2v0.1v0.1l-0.1,0.2v0.1 M159.7,133.3l-5.7,5.5 M44.9,13.7L44.9,13.7l0.2-0.1 M45.1,13.6l0.4-0.2
		l0.3-0.2l0.3-0.2l0.4-0.1l0.3-0.2l0.3-0.2l0.4-0.2l0.3-0.1 M45.1,13.6l-5.6,5.5 M47.8,12.2L47.8,12.2l0.2-0.1h0.2h0.1h0.1h0.2
		l0.1,0.1l0.1,0.1 M42.1,17.7l5.7-5.5 M153.3,124.5l0.7,0.5l1.2,1.2l1.8,2l2.7,4.1 M154,137.8l5.7-5.5 M56.6,20l-1-1.5l-1.1-1.3
		l-1.9-1.9l-3.8-3 M48.8,12.3l-5.7,5.5 M56.6,20l-5.7,5.5 M166.7,118.4v0.2l-0.1,0.1l-0.1,0.1 M157.9,107.8l0.8,0.2 M167.7,115.6
		l-0.1,0.3l-0.1,0.4l-0.2,0.3l-0.1,0.4l-0.1,0.4l-0.1,0.3l-0.1,0.4l-0.2,0.3 M161.1,123.9l5.6-5.5 M157,107.2l0.2,0.2l0.3,0.2
		l0.4,0.2 M157.9,107.8l-5.7,5.5 M167.4,114.5l0.1,0.2l0.1,0.1v0.1l0.1,0.1v0.2v0.1v0.1v0.2 M167.7,115.6l-5.7,5.5 M62.8,6.6
		L62.8,6.6L63,6.5l0.1-0.1h0.1 M73.2,16.1L73,15.3 M73.2,16.1l0.1,0.3l0.2,0.4l0.2,0.3l0.2,0.2 M67.5,21.5l5.7-5.4 M63.2,6.4
		l0.4-0.1l0.3-0.1l0.4-0.1L64.7,6l0.4-0.1l0.3-0.1h0.4l0.4-0.1 M63.2,6.4l-5.7,5.5 M66.2,5.7h0.1h0.1h0.2h0.1l0.1,0.1h0.1l0.2,0.1
		L67.2,6 M60.5,11.2l5.7-5.5 M158.7,108l1.5,0.7l1.5,0.9l2.2,1.6l3.5,3.3 M161.8,120l5.6-5.5 M158.7,108l-5.7,5.5 M73,15.3l-0.6-1.6
		l-0.8-1.6l-1.4-2.3l-3-3.8 M67.2,6l-5.7,5.5 M73,15.3l-5.7,5.5 M170.9,99.2L170.9,99.2l-0.1,0.3l-0.1,0.1v0.1l-0.1,0.1 M90.3,15.5
		v-0.8 M90.3,15.5v0.4l0.1,0.3l0.2,0.4l0.2,0.3l0.3,0.3l0.3,0.2l0.4,0.2h0.3 M84.6,21l5.7-5.5 M92.1,17.6l-5.6,5.5 M171.1,96.2v0.3
		l-0.1,0.4v0.4v0.4v0.4l-0.1,0.4v0.3v0.4 M165.2,104.7l5.7-5.5 M170.6,95.2L170.6,95.2l0.2,0.2l0.1,0.1l0.1,0.1v0.2l0.1,0.1V96v0.2
		 M171.1,96.2l-5.7,5.4 M82.1,4.1L82.1,4.1L82.3,4l0.1-0.1h0.1h0.1h0.2 M164.9,100.7l5.7-5.5 M169,94.3l1.6,0.9 M82.8,3.9h0.4h0.3
		h0.4h0.4h0.4h0.4h0.4h0.3 M82.8,3.9l-5.7,5.5 M85.8,3.9H86L86.1,4h0.1l0.2,0.1h0.1l0.1,0.1l0.1,0.1v0.2 M80.2,9.4l5.6-5.5
		 M90.3,14.7L90.1,13l-0.4-1.6l-0.9-2.6l-2.1-4.3 M86.7,4.5L81.1,10 M90.3,14.7l-5.7,5.5 M107.3,19.1l0.2-0.8 M108.6,21.6l0.3,0.1
		l0.3,0.1l0.3,0.1l0.3,0.1l0.3,0.1l0.3,0.1l0.3,0.2l0.2,0.1 M107.3,19.1l-0.1,0.3v0.4l0.1,0.4l0.1,0.4l0.3,0.3l0.2,0.3l0.4,0.2
		l0.3,0.2 M101.6,24.6l5.7-5.5 M108.6,21.6l-5.7,5.5 M147.6,54.1l0.1,0.2l0.2,0.3l0.2,0.3l0.1,0.3l0.2,0.2l0.1,0.3l0.2,0.3l0.1,0.3
		 M148.8,56.3l0.3,0.3l0.2,0.3l0.4,0.2l0.3,0.2l0.4,0.1h0.4l0.3-0.1l0.4-0.1 M143.2,61.8l5.6-5.5 M101.8,6.4L101.8,6.4L101.8,6.4
		l0.2-0.2h0.1l0.2-0.1h0.1h0.1l0.2,0.1 M151.5,57.2l0.7-0.3 M151.5,57.2l-5.7,5.5 M123.9,29.3l0.3,0.2l0.2,0.1l0.3,0.2L125,30
		l0.2,0.2l0.3,0.1l0.2,0.2l0.3,0.2 M123.2,26.6l-0.2,0.3v0.4l-0.1,0.4L123,28l0.1,0.4l0.2,0.3l0.3,0.3l0.3,0.3 M123.9,29.3l-5.7,5.5
		 M147.3,52.7V53v0.3l0.1,0.4l0.2,0.4 M147.6,54.1l-5.7,5.5 M117.5,32.1l5.7-5.5 M123.2,26.6l0.4-0.7 M126,30.7l0.3,0.2l0.4,0.1
		l0.4,0.1h0.4l0.2-0.1 M120.3,36.2l5.7-5.5 M102.7,6.2l0.3,0.1h0.4l0.4,0.1l0.4,0.1l0.4,0.1l0.3,0.1l0.4,0.1l0.4,0.1 M102.7,6.2
		L97,11.7 M105.7,6.9l0.1,0.1h0.1l0.2,0.1l0.1,0.1v0.1l0.1,0.1l0.1,0.2v0.1 M100,12.4l5.7-5.5 M137.2,40.3l0.2,0.3l0.2,0.2l0.2,0.2
		l0.2,0.3l0.2,0.2l0.3,0.2l0.2,0.3l0.2,0.2 M138.9,42.2l0.3,0.3l0.3,0.2l0.4,0.1l0.3,0.1h0.4l0.4-0.1l0.3-0.1l0.3-0.2 M133.2,47.7
		l5.7-5.5 M107.5,18.3l0.2-1.6V15l-0.3-2.6l-1-4.7 M106.4,7.7l-5.6,5.5 M107.5,18.3l-5.7,5.5 M137.1,37.6l-0.2,0.2l-0.2,0.4
		l-0.1,0.3v0.4v0.4l0.1,0.4l0.2,0.3l0.3,0.3 M137.2,40.3l-5.7,5.5 M141.6,42.5l0.6-0.5 M141.6,42.5L136,48 M131.4,43.1l5.7-5.5
		 M137.1,37.6l0.5-0.6 M117.3,16l3.4-2.8 M152.2,56.9l1.6-0.5l1.6-0.3l2.1-0.1 M152.2,56.9l-5.7,5.5 M120.7,13.2l0.1-0.1h0.1
		l0.2-0.1h0.1h0.1h0.2l0.1,0.1h0.1 M115,18.7l5.7-5.5 M123.6,25.9l0.6-1.5l0.4-1.6l0.4-2.6l0.1-4.7 M123.6,25.9l-5.7,5.5
		 M124.5,14.6L124.5,14.6l0.3,0.2v0.1l0.1,0.1l0.1,0.1v0.1l0.1,0.2v0.1 M125.1,15.5l-5.7,5.5 M121.7,13.1l0.4,0.2l0.3,0.2l0.4,0.2
		l0.3,0.2l0.4,0.1l0.3,0.2l0.4,0.2l0.3,0.2 M121.7,13.1l-5.6,5.5 M118.9,20.1l5.6-5.5 M150.2,49.9l1-1.1l1.6-2l2.3-4 M129.9,29
		l0.4-0.5l1.3-1l2.1-1.3l4.2-2 M142.2,42l1.4-0.8l1.5-0.7l2.5-0.8l4.5-0.9 M142.2,42l-5.6,5.5 M155,41.8L155,41.8l0.1,0.2v0.2
		l0.1,0.1v0.1v0.2l-0.1,0.1v0.1 M155.1,42.8l-5.7,5.5 M137.6,37l1-1.3l0.8-1.4l1-2.4l1.2-4.5 M137.6,37l-5.6,5.5 M152.1,38.8h0.2
		h0.1h0.1l0.2,0.1l0.1,0.1h0.1l0.1,0.1l0.1,0.1 M146.5,44.3l5.6-5.5 M137.9,24.2L137.9,24.2l0.2-0.1h0.1h0.2l0.1,0.1h0.1l0.2,0.1
		l0.1,0.1 M132.2,29.7l5.7-5.5 M141.3,26.5L141.3,26.5l0.2,0.2v0.1l0.1,0.1V27v0.2v0.1v0.1 M141.6,27.4l-5.6,5.5 M153.1,39.2
		l0.2,0.3l0.3,0.4l0.2,0.3l0.2,0.3l0.3,0.3l0.2,0.4l0.2,0.3l0.3,0.3 M153.1,39.2l-5.7,5.5 M149.3,47.3l5.7-5.5 M138.9,24.4l0.3,0.2
		l0.3,0.3l0.3,0.2l0.3,0.3l0.3,0.3l0.3,0.2l0.3,0.3l0.3,0.3 M138.9,24.4l-5.7,5.5 M135.6,31.9l5.7-5.4 M57.7,126.5l2.7,1.9l4.3,2.5
		l4.5,2.1l4.7,1.5l4.8,1.1l4.8,0.5h4.8l4.8-0.6l4.6-1.1l4.5-1.6l4.2-2l3.9-2.6l3.6-3l3.3-3.4l2.8-3.7l2.3-4.1l1.9-4.3l1.4-4.6
		l0.9-4.7l0.3-4.8l-0.2-4.8l-0.7-4.9l-1.3-4.7l-1.7-4.7l-2.3-4.4l-2.7-4.2l-3.1-3.9l-3.5-3.5l-3.9-3.2l-4.1-2.7l-4.4-2.3l-4.6-1.8
		l-4.8-1.3l-4.8-0.8l-4.8-0.3l-4.8,0.3l-4.7,0.8l-4.6,1.4l-4.3,1.8l-4.1,2.3l-3.8,2.8l-3.4,3.2l-3,3.6l-2.6,3.9l-2.2,4.2l-1.6,4.5
		l-1.1,4.6l-0.6,4.8 M39.1,86.3L39,91.1l0.5,4.9l1,4.7l1.5,4.7l2,4.6l2.5,4.3l1.3,2 M98.5,163.5l0.6,1.6l0.7,1.6l1.5,2.3l3,3.8
		 M104.3,172.8L104.3,172.8l0.2,0.1l0.1,0.1l0.2,0.1h0.1h0.1h0.2h0.1 M108.3,172.4l-0.4,0.1l-0.4,0.1l-0.4,0.1l-0.3,0.1l-0.4,0.1
		H106l-0.3,0.1l-0.4,0.1 M108.3,172.4L108.3,172.4l0.2-0.1l0.1-0.1l0.1-0.1l0.1-0.1v-0.1l0.1-0.1v-0.1 M108.9,161.1l0.3,1.6l0.2,1.7
		v2.6l-0.5,4.7 M108.6,160.3l0.3,0.8 M108.6,160.3l-0.1-0.4l-0.1-0.4l0.1-0.3l0.1-0.4l0.2-0.3l0.2-0.3l0.3-0.2l0.4-0.2 M111.9,157
		l-0.3,0.1l-0.2,0.1l-0.3,0.1l-0.3,0.1l-0.3,0.1l-0.3,0.1l-0.3,0.1l-0.2,0.1 M111.9,157l0.4-0.1h0.4h0.3l0.4,0.1l0.4,0.2l0.3,0.2
		l0.2,0.3l0.2,0.4 M114.5,158.1l0.4,0.7 M114.9,158.8l0.9,1.4l1.1,1.4l2,1.9l3.8,3 M122.7,166.5l0.1,0.1l0.1,0.1h0.1h0.2h0.1h0.1
		h0.2l0.1-0.1 M126.3,165.2l-0.3,0.2l-0.3,0.2l-0.4,0.2l-0.3,0.1l-0.3,0.2l-0.4,0.2l-0.3,0.1l-0.3,0.2 M126.3,165.2L126.3,165.2
		l0.2-0.1l0.1-0.1l0.1-0.1v-0.2l0.1-0.1v-0.1v-0.2 M124.2,153.9l0.8,1.5l0.5,1.6l0.7,2.6l0.6,4.7 M123.8,153.2l0.4,0.7 M123.8,153.2
		l-0.2-0.3l-0.2-0.4v-0.4v-0.4l0.1-0.3l0.2-0.4l0.2-0.3l0.3-0.2 M126.1,149.1l-0.2,0.2l-0.2,0.2l-0.3,0.2l-0.2,0.1l-0.3,0.2
		l-0.2,0.2l-0.3,0.1l-0.2,0.2 M126.1,149.1l0.4-0.2l0.3-0.1h0.4h0.4l0.3,0.1l0.4,0.2l0.3,0.2l0.3,0.3 M128.9,149.6l0.5,0.6
		 M129.4,150.2l1.3,1.2l1.3,1.1l2.3,1.4l4.4,2.1 M138.7,156h0.1h0.2h0.1h0.1h0.1l0.2-0.1h0.1l0.1-0.1 M141.9,153.8l-0.3,0.2
		l-0.3,0.3l-0.2,0.3l-0.3,0.2l-0.3,0.3l-0.3,0.2l-0.2,0.3l-0.3,0.2 M141.9,153.8L141.9,153.8l0.1-0.2l0.1-0.1v-0.2l0.1-0.1v-0.1
		v-0.2l-0.1-0.1 M137.1,143.1l1.1,1.4l1,1.4l1.2,2.4l1.7,4.5 M136.5,142.6l0.6,0.5 M136.5,142.6l-0.2-0.3l-0.2-0.4l-0.2-0.3v-0.4
		v-0.4l0.1-0.4l0.1-0.3l0.2-0.3 M137.9,138l-0.2,0.2l-0.2,0.2l-0.2,0.3l-0.2,0.2l-0.2,0.2l-0.2,0.2l-0.2,0.3l-0.2,0.2 M137.9,138
		l0.2-0.3l0.3-0.2l0.4-0.1l0.3-0.1h0.4l0.4,0.1l0.4,0.1l0.3,0.2 M140.6,137.7l0.6,0.6 M141.2,138.3l1.5,0.8l1.6,0.7l2.5,0.9l4.7,1
		 M151.5,141.7L151.5,141.7h0.2h0.2l0.1-0.1h0.1l0.1-0.1l0.1-0.1l0.1-0.1 M154,138.8l-0.2,0.3l-0.2,0.3l-0.2,0.3l-0.2,0.3l-0.2,0.4
		l-0.2,0.3l-0.2,0.3l-0.2,0.3 M154,138.8L154,138.8l0.1-0.3v-0.1l0.1-0.1l-0.1-0.2V138v-0.1l-0.1-0.1 M146.9,129.4l1.4,1l1.2,1.3
		l1.8,2l2.7,4.1 M146.2,129l0.7,0.4 M146.2,129l-0.3-0.3l-0.3-0.2l-0.2-0.4l-0.1-0.3l-0.1-0.4V127v-0.4l0.1-0.3 M146.4,124.1
		l-0.1,0.3l-0.2,0.3L146,125l-0.1,0.2l-0.2,0.3l-0.1,0.3l-0.1,0.2l-0.2,0.3 M146.4,124.1l0.2-0.3l0.2-0.3l0.3-0.2l0.3-0.1l0.4-0.1
		h0.4h0.4l0.3,0.2 M148.9,123.3l0.8,0.3 M149.7,123.6l1.6,0.5l1.7,0.3l2.6,0.3l4.7-0.2 M160.3,124.5L160.3,124.5h0.2l0.2-0.1
		l0.1-0.1h0.1v-0.1l0.1-0.2l0.1-0.1 M162,121.1l-0.1,0.3l-0.1,0.4l-0.1,0.3l-0.1,0.4l-0.2,0.4l-0.1,0.3l-0.1,0.4l-0.1,0.3
		 M162,121.1v-0.2l0.1-0.1l-0.1-0.1v-0.2v-0.1l-0.1-0.1l-0.1-0.1V120 M153,113.5l1.5,0.7l1.5,0.9l2.2,1.6l3.6,3.3 M152.2,113.3
		l0.8,0.2 M152.2,113.3l-0.3-0.2l-0.4-0.2l-0.3-0.3l-0.2-0.3l-0.2-0.3 M155.7,107.2h0.2h1.7l2.5-0.4l4.5-1.3 M164.6,105.5
		L164.6,105.5l0.2-0.1l0.1-0.1l0.1-0.1l0.1-0.1V105l0.1-0.2v-0.1 M165.4,101.6v0.4v0.4l-0.1,0.4v0.4v0.4v0.3l-0.1,0.4v0.4
		 M165.4,101.6v-0.1v-0.1l-0.1-0.2v-0.1l-0.1-0.1l-0.1-0.1l-0.1-0.1l-0.1-0.1 M163.4,99.8l1.5,0.9 M152.3,90.8L152.3,90.8l0.2-0.4
		l0.3-0.2l0.3-0.2 M152.8,79l1.6-0.1l1.7,0.1l2.6,0.5l4,1.2 M152,79.1l0.8-0.1 M152,79.1l-0.4,0.1l-0.3-0.1l-0.4-0.1l-0.4-0.2
		l-0.3-0.2l-0.2-0.3l-0.2-0.3l-0.2-0.4 M148.9,75.2l0.1,0.3l0.1,0.3l0.1,0.3l0.1,0.3l0.1,0.3V77l0.1,0.3l0.1,0.3 M148.9,75.2
		l-0.1-0.4v-0.4l0.1-0.3l0.1-0.4l0.2-0.3l0.3-0.3l0.3-0.2l0.3-0.1 M150.1,72.8l0.8-0.2 M150.9,72.6l1.5-0.7l1.3-0.9l2.1-1.5l3.2-3.3
		 M159,66.2L159,66.2l0.1-0.2l0.1-0.1v-0.1v-0.2v-0.1v-0.1l-0.1-0.1 M157.9,62.3l0.2,0.4l0.1,0.4l0.2,0.3l0.1,0.4l0.2,0.4l0.1,0.3
		l0.2,0.4l0.1,0.4 M157.9,62.3L157.9,62.3l-0.1-0.2l-0.1-0.1l-0.1-0.1l-0.2-0.1h-0.1l-0.1-0.1h-0.1 M146.5,62.4l1.6-0.5l1.6-0.3
		l2.6-0.1l4.8,0.2 M145.8,62.7l0.7-0.3 M145.8,62.7l-0.3,0.1l-0.4,0.1h-0.4l-0.4-0.1l-0.3-0.2l-0.3-0.2l-0.3-0.3l-0.2-0.3
		 M141.9,59.6l0.2,0.2l0.1,0.3l0.2,0.3l0.1,0.3l0.2,0.2l0.2,0.3l0.1,0.3l0.2,0.3 M141.9,59.6l-0.2-0.4l-0.1-0.4v-0.3l0.1-0.4
		l0.1-0.4l0.2-0.3l0.2-0.3l0.3-0.2 M142.5,56.9l0.7-0.4 M143.2,56.5l1.2-1l1.1-1.2l1.6-2l2.3-4 M149.4,48.3L149.4,48.3l0.1-0.2v-0.2
		v-0.1v-0.1l-0.1-0.2v-0.1l-0.1-0.1 M147.4,44.7l0.3,0.3l0.2,0.4l0.2,0.3l0.3,0.3l0.2,0.3l0.2,0.3l0.3,0.4l0.2,0.3 M147.4,44.7
		L147.4,44.7l-0.2-0.2h-0.1l-0.1-0.1l-0.1-0.1h-0.2h-0.1h-0.1 M136.6,47.5l1.4-0.9l1.5-0.6l2.4-0.8l4.6-0.9 M136,48l0.6-0.5 M136,48
		l-0.3,0.2l-0.4,0.1l-0.4,0.1h-0.3l-0.4-0.1l-0.4-0.1l-0.3-0.2l-0.3-0.3 M131.5,45.8l0.2,0.3l0.2,0.2l0.2,0.2l0.3,0.2l0.2,0.3
		l0.2,0.2l0.2,0.3l0.2,0.2 M131.5,45.8l-0.3-0.3l-0.1-0.3l-0.2-0.4v-0.4V44l0.1-0.3l0.2-0.4l0.2-0.2 M131.4,43.1l0.6-0.6 M132,42.5
		l0.9-1.3l0.8-1.4l1-2.4l1.3-4.5 M136,32.9L136,32.9v-0.2v-0.2l-0.1-0.1v-0.1l-0.1-0.1l-0.1-0.2l-0.1-0.1 M133.2,29.9l0.3,0.2
		l0.3,0.3l0.3,0.2l0.3,0.3l0.3,0.3l0.3,0.2l0.3,0.3l0.3,0.2 M133.2,29.9L133.2,29.9l-0.2-0.2h-0.2l-0.1-0.1h-0.1h-0.2h-0.1l-0.1,0.1
		 M123.5,35.2l1.1-1.2l1.3-1l2.1-1.4l4.2-1.9 M123,35.8l0.5-0.6 M123,35.8l-0.2,0.3l-0.3,0.2l-0.3,0.2l-0.4,0.1h-0.4l-0.4-0.1
		l-0.3-0.1l-0.4-0.2 M118.2,34.8l0.3,0.1l0.3,0.2l0.2,0.2l0.3,0.2l0.3,0.2l0.2,0.1l0.3,0.2l0.2,0.2 M118.2,34.8l-0.3-0.3l-0.2-0.3
		l-0.2-0.3l-0.2-0.4v-0.3v-0.4l0.1-0.4l0.1-0.3 M117.5,32.1l0.4-0.7 M117.9,31.4l0.6-1.5l0.4-1.6l0.4-2.6l0.1-4.7 M119.4,21
		L119.4,21v-0.3l-0.1-0.1v-0.1l-0.1-0.1l-0.1-0.1l-0.1-0.1l-0.1-0.1 M116.1,18.6l0.3,0.2l0.4,0.2l0.3,0.2l0.4,0.1l0.3,0.2l0.4,0.2
		l0.3,0.2l0.4,0.2 M116.1,18.6h-0.2l-0.1-0.1h-0.1h-0.2h-0.1l-0.1,0.1h-0.1l-0.2,0.1 M108,26.2l0.9-1.4l0.9-1.3l1.7-1.9l3.5-2.9
		 M107.8,26.9l0.2-0.7 M107.8,26.9l-0.2,0.4l-0.2,0.3l-0.3,0.2l-0.3,0.2l-0.4,0.1H106h-0.4l-0.3-0.1 M102.9,27.1l0.3,0.1l0.3,0.1
		l0.3,0.1l0.3,0.1l0.3,0.1l0.3,0.1l0.3,0.1l0.3,0.2 M102.9,27.1l-0.3-0.2l-0.3-0.2l-0.3-0.3l-0.2-0.3l-0.2-0.4l-0.1-0.4v-0.4
		l0.1-0.3 M101.6,24.6l0.2-0.8 M101.8,23.8l0.2-1.6v-1.7l-0.2-2.7l-1-4.6 M100.8,13.2l-0.1-0.2v-0.1l-0.1-0.1l-0.1-0.1l-0.1-0.1
		l-0.1-0.1h-0.2l-0.1-0.1 M97,11.7h0.4l0.3,0.1l0.4,0.1l0.4,0.1l0.4,0.1l0.4,0.1l0.3,0.1l0.4,0.1 M97,11.7L97,11.7l-0.3-0.1h-0.1
		l-0.1,0.1h-0.2l-0.1,0.1l-0.1,0.1L96,12 M91.2,21.1l0.4-1.6l0.6-1.5l1.2-2.3L96,12 M91.1,21.9l0.1-0.8 M91.1,21.9L91,22.2l-0.2,0.4
		l-0.2,0.3l-0.3,0.2L90,23.3l-0.3,0.1l-0.4,0.1h-0.4 M86.5,23.1l0.3,0.1h0.3h0.3l0.3,0.1H88l0.3,0.1h0.3l0.3,0.1 M86.5,23.1h-0.4
		l-0.4-0.2l-0.3-0.2l-0.3-0.3l-0.2-0.3l-0.2-0.4l-0.1-0.3V21 M84.6,21v-0.8 M84.6,20.2l-0.2-1.7L84,16.9l-0.9-2.6l-2-4.3 M81.1,10
		L81,9.8l-0.1-0.1l-0.1-0.1h-0.1l-0.1-0.1l-0.2-0.1h-0.1h-0.1 M77.1,9.4h0.4h0.4h0.4h0.3H79h0.4h0.4h0.4 M77.1,9.4L77.1,9.4h-0.3
		h-0.1l-0.1,0.1l-0.1,0.1l-0.1,0.1l-0.1,0.1v0.1 M73.8,20.1v-1.7l0.2-1.7l0.6-2.5l1.7-4.3 M73.9,20.8l-0.1-0.7 M73.9,20.8v0.4
		l-0.1,0.4L73.7,22l-0.2,0.3l-0.3,0.2l-0.3,0.2l-0.3,0.2h-0.4 M69.8,23.2h0.3l0.3-0.1h0.3H71l0.3-0.1h0.3h0.3l0.3-0.1 M69.8,23.2
		h-0.4H69L68.7,23l-0.4-0.2L68,22.6l-0.2-0.3l-0.2-0.4l-0.1-0.4 M67.5,21.5l-0.2-0.7 M67.3,20.8l-0.6-1.6l-0.8-1.6l-1.4-2.3l-3-3.8
		 M61.5,11.5L61.5,11.5l-0.2-0.2h-0.1L61,11.2h-0.1h-0.1h-0.2h-0.1 M57.5,11.9l0.4-0.1l0.4-0.1l0.3-0.1l0.4-0.1l0.4-0.1l0.4-0.1h0.3
		l0.4-0.1 M57.5,11.9L57.5,11.9L57.3,12l-0.1,0.1h-0.1L57,12.2v0.2l-0.1,0.1v0.1 M56.9,23.2l-0.3-1.6l-0.2-1.7v-2.6l0.5-4.7
		 M57.2,24l-0.3-0.8 M57.2,24l0.1,0.4v0.3v0.4l-0.1,0.4L57,25.8l-0.2,0.3l-0.3,0.2l-0.4,0.2 M53.9,27.3l0.3-0.1l0.2-0.1l0.3-0.1
		l0.3-0.1l0.3-0.1l0.3-0.1l0.2-0.1l0.3-0.1 M53.9,27.3l-0.4,0.1h-0.4h-0.3l-0.4-0.1L52,27.1l-0.3-0.3l-0.2-0.3l-0.2-0.3 M51.3,26.2
		l-0.4-0.7 M50.9,25.5L50,24l-1.1-1.3l-2-1.9l-3.8-3 M43.1,17.8L43.1,17.8l-0.2-0.2h-0.1h-0.2h-0.1h-0.1h-0.2l-0.1,0.1 M39.5,19.1
		l0.3-0.2l0.3-0.2l0.4-0.2l0.3-0.1l0.3-0.2l0.3-0.2l0.4-0.2l0.3-0.1 M39.5,19.1L39.5,19.1l-0.2,0.1l-0.1,0.1l-0.1,0.1v0.1L39,19.7
		v0.1v0.1 M41.6,30.4l-0.8-1.5l-0.5-1.7l-0.7-2.5L39,19.9 M42,31.1l-0.4-0.7 M42,31.1l0.2,0.3l0.2,0.4v0.4v0.4l-0.1,0.3l-0.2,0.4
		l-0.2,0.2l-0.3,0.3 M39.7,35.2l0.2-0.2l0.2-0.2l0.3-0.2l0.2-0.1l0.3-0.2l0.2-0.2l0.3-0.2l0.2-0.1 M39.7,35.2l-0.4,0.1L39,35.5h-0.4
		h-0.4l-0.4-0.1l-0.3-0.2L37.2,35l-0.3-0.3 M36.9,34.7l-0.5-0.6 M36.4,34.1l-1.3-1.2l-1.3-1.1l-2.3-1.4l-4.4-2.1 M27.1,28.3
		L27.1,28.3h-0.3l-0.1-0.1l-0.1,0.1h-0.2h-0.1l-0.1,0.1l-0.1,0.1 M23.9,30.5l0.3-0.3l0.3-0.2l0.2-0.3l0.3-0.2l0.3-0.3l0.3-0.2
		l0.2-0.3l0.3-0.2 M23.9,30.5l-0.1,0.1l-0.1,0.1v0.1v0.1l-0.1,0.2v0.1v0.1l0.1,0.2 M28.7,41.2l-1.1-1.4l-1-1.4L25.4,36l-1.7-4.5
		 M29.3,41.7l-0.6-0.5 M29.3,41.7l0.2,0.3l0.2,0.4l0.2,0.3v0.4v0.4l-0.1,0.4l-0.1,0.3l-0.2,0.3 M27.9,46.3l0.2-0.2l0.2-0.2l0.2-0.3
		l0.2-0.2l0.2-0.2l0.2-0.3l0.2-0.2l0.2-0.2 M27.9,46.3l-0.2,0.3l-0.3,0.2L27,46.9L26.7,47h-0.4l-0.4-0.1l-0.4-0.1l-0.3-0.3
		 M25.2,46.5L24.6,46 M24.6,46l-1.5-0.8l-1.6-0.7L19,43.6l-4.7-1 M14.3,42.6h-0.1H14h-0.1l-0.1,0.1h-0.1l-0.1,0.1l-0.1,0.1L13.4,43
		 M11.8,45.5l0.2-0.3l0.2-0.3l0.2-0.3l0.2-0.4l0.2-0.3l0.2-0.3l0.2-0.3l0.2-0.3 M11.8,45.5l-0.1,0.1v0.1v0.2L11.6,46l0.1,0.1v0.2
		v0.1l0.1,0.1 M18.9,54.9l-1.4-1.1l-1.2-1.2l-1.8-2l-2.7-4.1 M19.6,55.3l-0.7-0.4 M19.6,55.3l0.3,0.2l0.3,0.3l0.2,0.3l0.1,0.4
		l0.1,0.4v0.4v0.3L20.4,58 M19.4,60.1l0.1-0.2l0.2-0.3l0.1-0.3l0.1-0.2l0.2-0.3l0.1-0.3l0.1-0.3l0.1-0.2 M19.4,60.1l-0.2,0.4
		L19,60.7L18.7,61l-0.3,0.1L18,61.2h-0.4h-0.4L16.9,61 M16.9,61l-0.8-0.3 M16.1,60.7l-1.6-0.5l-1.7-0.3l-2.6-0.3l-4.7,0.1 M5.5,59.7
		L5.5,59.7l-0.2,0.1l-0.2,0.1H5L4.9,60v0.1l-0.1,0.1l-0.1,0.2 M3.8,63.2l0.1-0.3L4,62.5l0.1-0.4l0.1-0.3l0.2-0.4l0.1-0.3l0.1-0.4
		l0.1-0.3 M3.8,63.2v0.2l-0.1,0.1l0.1,0.1v0.2v0.1L3.9,64v0.1L4,64.2 M12.8,70.8l-1.6-0.7l-1.4-0.9l-2.2-1.6L4,64.2 M13.6,71
		l-0.8-0.2 M13.6,71l0.3,0.2l0.4,0.2l0.3,0.3l0.2,0.3l0.2,0.3l0.1,0.4v0.4v0.4 M14.6,75.8v-0.3l0.1-0.3l0.1-0.3v-0.3l0.1-0.3V74
		l0.1-0.3l0.1-0.2 M14.6,75.8l-0.1,0.4l-0.2,0.3l-0.2,0.3l-0.3,0.3l-0.3,0.1l-0.4,0.1l-0.4,0.1l-0.3-0.1 M12.4,77.3l-0.8-0.2
		 M11.6,77.1L9.9,77l-1.7,0.1l-2.5,0.4l-4.5,1.3 M1.2,78.8L1.2,78.8L1,78.9L0.9,79l-0.1,0.1l-0.1,0.1v0.1l-0.1,0.1v0.2 M0.4,82.6
		v-0.3v-0.4l0.1-0.4v-0.4v-0.4v-0.4L0.6,80v-0.4 M0.4,82.6v0.2v0.1L0.5,83v0.2l0.1,0.1l0.1,0.1l0.1,0.1l0.1,0.1 M10.8,87.9l-1.6-0.3
		l-1.7-0.5L5.1,86l-4.2-2.4 M11.6,88l-0.8-0.1 M11.6,88H12l0.4,0.2l0.3,0.2l0.3,0.2l0.2,0.3l0.2,0.4l0.2,0.3V90 M13.7,92.5v-0.3
		v-0.3v-0.4v-0.3l-0.1-0.3v-0.3v-0.3V90 M13.7,92.5v0.4l-0.1,0.3l-0.1,0.4l-0.2,0.3L13,94.1l-0.3,0.2l-0.4,0.1l-0.4,0.1 M11.9,94.5
		h-0.7 M11.2,94.5l-1.7,0.3L8,95.3l-2.4,1l-4,2.3 M1.6,98.6L1.6,98.6l-0.1,0.2l-0.1,0.1L1.3,99v0.1v0.1l-0.1,0.2l0.1,0.1 M1.8,102.6
		l-0.1-0.4l-0.1-0.4v-0.4l-0.1-0.3l-0.1-0.4v-0.4l-0.1-0.4v-0.4 M1.8,102.6L1.8,102.6l0.1,0.2v0.2l0.1,0.1l0.1,0.1l0.1,0.1h0.1
		l0.2,0.1 M13,105.3l-1.7,0.1l-1.6-0.2l-2.6-0.4l-4.6-1.4 M13.8,105.2l-0.8,0.1 M13.8,105.2l0.4-0.1l0.3,0.1l0.4,0.1l0.4,0.2
		l0.3,0.2l0.2,0.3l0.2,0.3l0.2,0.4 M16.9,109.1l-0.1-0.3l-0.1-0.3l-0.1-0.3l-0.1-0.3l-0.1-0.3l-0.1-0.3V107l-0.1-0.3 M16.9,109.1
		l0.1,0.4v0.3l-0.1,0.4l-0.1,0.4l-0.2,0.3l-0.3,0.2l-0.3,0.2l-0.3,0.2 M15.7,111.5l-0.8,0.2 M14.9,111.7l-1.5,0.7l-1.4,0.8l-2,1.6
		L6.8,118 M6.8,118l-0.1,0.1v0.2l-0.1,0.1v0.1v0.1v0.2v0.1l0.1,0.1 M7.9,121.9l-0.2-0.3l-0.1-0.4l-0.2-0.3l-0.1-0.4l-0.2-0.4
		L7,119.8l-0.2-0.4L6.7,119 M7.9,121.9l0.1,0.2v0.1l0.1,0.1l0.1,0.1h0.2l0.1,0.1h0.1l0.1,0.1 M19.3,121.9l-1.6,0.5l-1.6,0.2
		l-2.6,0.2l-4.8-0.2 M20,121.6l-0.7,0.3 M20,121.6l0.3-0.1l0.4-0.1h0.4l0.4,0.1l0.3,0.2l0.3,0.2l0.3,0.3l0.2,0.3 M23.9,124.7
		l-0.2-0.3l-0.1-0.2l-0.2-0.3l-0.2-0.3l-0.1-0.2l-0.2-0.3l-0.1-0.3l-0.2-0.3 M23.9,124.7l0.2,0.4l0.1,0.3v0.4l-0.1,0.4l-0.1,0.4
		l-0.2,0.3l-0.2,0.3l-0.3,0.2 M23.3,127.4l-0.7,0.4 M22.6,127.8l-1.2,1l-1.1,1.2l-1.6,2l-2.3,4 M16.4,136l-0.1,0.1v0.1v0.1v0.2v0.1
		l0.1,0.1v0.2l0.1,0.1 M18.4,139.6l-0.3-0.4l-0.2-0.3l-0.2-0.3l-0.3-0.3l-0.2-0.3l-0.2-0.4l-0.3-0.3l-0.2-0.3 M18.4,139.6
		L18.4,139.6l0.2,0.2h0.1l0.1,0.1h0.1l0.2,0.1h0.1h0.1 M29.2,136.8l-1.4,0.8l-1.5,0.7l-2.4,0.8l-4.6,0.9 M29.8,136.3l-0.6,0.5
		 M29.8,136.3l0.3-0.2l0.4-0.1l0.3-0.1h0.4l0.4,0.1l0.4,0.1l0.3,0.2l0.3,0.3 M34.3,138.5l-0.2-0.3l-0.2-0.2l-0.2-0.2l-0.3-0.3
		l-0.2-0.2l-0.2-0.2l-0.2-0.3l-0.2-0.2 M34.3,138.5l0.3,0.3l0.1,0.3l0.2,0.4v0.4v0.3l-0.1,0.4l-0.2,0.3l-0.2,0.3 M34.4,141.2
		l-0.6,0.6 M33.8,141.8l-0.9,1.3l-0.8,1.4l-1,2.4l-1.3,4.5 M29.8,151.4L29.8,151.4v0.2v0.1l0.1,0.2v0.1l0.1,0.1l0.1,0.1l0.1,0.1
		 M32.6,154.4l-0.3-0.2l-0.3-0.3l-0.3-0.3l-0.3-0.2l-0.3-0.3l-0.3-0.2l-0.3-0.3l-0.3-0.3 M32.6,154.4L32.6,154.4l0.2,0.2H33h0.1
		l0.1,0.1h0.1l0.2-0.1h0.1 M42.3,149.1l-1.1,1.1l-1.3,1.1l-2.1,1.3l-4.2,2 M42.8,148.5l-0.5,0.6 M42.8,148.5l0.2-0.3l0.3-0.2
		l0.3-0.2l0.4-0.1h0.4l0.4,0.1l0.3,0.1l0.4,0.2 M47.6,149.5l-0.3-0.2l-0.3-0.1l-0.2-0.2l-0.3-0.2l-0.3-0.2l-0.2-0.2l-0.3-0.1
		l-0.2-0.2 M47.6,149.5l0.3,0.3l0.2,0.2l0.2,0.4l0.2,0.4v0.3v0.4l-0.1,0.4l-0.1,0.3 M48.3,152.2l-0.4,0.7 M47.9,152.9l-0.6,1.5
		l-0.4,1.6l-0.4,2.6l-0.1,4.7 M46.4,163.3L46.4,163.3v0.3l0.1,0.1v0.1l0.1,0.1l0.1,0.1l0.1,0.1l0.1,0.1 M49.7,165.7l-0.3-0.2
		l-0.4-0.2l-0.3-0.2l-0.4-0.2l-0.3-0.2l-0.4-0.1l-0.3-0.2l-0.4-0.2 M49.7,165.7h0.2H50l0.1,0.1h0.2l0.1-0.1h0.1h0.1l0.1-0.1
		 M57.7,158.1l-0.8,1.4l-0.9,1.3l-1.8,1.9l-3.5,2.9 M58,157.3l-0.3,0.8 M58,157.3l0.2-0.3l0.2-0.3l0.3-0.2l0.3-0.2l0.4-0.1h0.4h0.3
		l0.4,0.1 M62.9,157.2l-0.3-0.1l-0.3-0.1l-0.3-0.1l-0.3-0.1l-0.3-0.1l-0.3-0.2l-0.3-0.1l-0.3-0.1 M62.9,157.2l0.3,0.2l0.3,0.2
		l0.3,0.3l0.2,0.3l0.2,0.4l0.1,0.4v0.3l-0.1,0.4 M64.2,159.7l-0.2,0.8 M64,160.5l-0.2,1.6v1.7l0.2,2.6l1,4.7 M65,171.1L65,171.1
		l0.1,0.3l0.1,0.1l0.1,0.1l0.1,0.1h0.1l0.1,0.1h0.2 M68.8,172.6l-0.4-0.1l-0.4-0.1l-0.3-0.1h-0.4l-0.4-0.1l-0.4-0.1l-0.3-0.1
		l-0.4-0.2 M68.8,172.6L68.8,172.6l0.3,0.1l0.1-0.1h0.1h0.2l0.1-0.1l0.1-0.1l0.1-0.1 M74.6,163.2l-0.4,1.6l-0.6,1.5l-1.2,2.3
		l-2.6,3.7 M74.7,162.4l-0.1,0.8 M74.7,162.4l0.1-0.3l0.2-0.4l0.2-0.3l0.3-0.2l0.3-0.2l0.3-0.1l0.4-0.1h0.4 M79.3,161.1H79h-0.3
		l-0.3-0.1h-0.3h-0.3l-0.3-0.1h-0.3l-0.3-0.1 M79.3,161.1l0.4,0.1l0.4,0.2l0.3,0.2l0.3,0.3l0.2,0.3l0.2,0.3l0.1,0.4v0.4 M81.2,163.3
		v0.8 M81.2,164.1l0.2,1.7l0.4,1.6l0.8,2.6l2.1,4.3 M84.7,174.3l0.1,0.1l0.1,0.1l0.1,0.1l0.1,0.1l0.1,0.1h0.1l0.2,0.1h0.1
		 M88.7,174.9h-0.4h-0.4h-0.4h-0.3h-0.4h-0.4H86h-0.4 M88.7,174.9h0.1H89l0.1-0.1h0.1l0.1-0.1l0.1-0.1l0.1-0.1v-0.1 M92,164.2v1.7
		l-0.2,1.6l-0.6,2.6l-1.7,4.3 M91.9,163.4l0.1,0.8 M91.9,163.4v-0.3l0.1-0.4l0.1-0.4l0.2-0.3l0.3-0.2l0.3-0.3l0.3-0.1l0.4-0.1
		 M96,161.1h-0.3h-0.3l-0.3,0.1h-0.3h-0.3l-0.3,0.1h-0.3h-0.3 M96,161.1h0.4h0.4l0.3,0.2l0.4,0.2l0.3,0.2L98,162l0.2,0.4l0.1,0.3
		 M98.3,162.7l0.2,0.8 M75.5,89.4l0.3-1.1l1-1.9l0.5-0.7 M89.2,97.9L89,98l-1.8,1.1l-1.8,0.5 M47.8,116.3l-2-3.1l-2.4-4.3l-1.8-4.6
		l-1.4-4.7l-0.9-4.9L39,89.9l0.2-4.8l0.7-4.8l1.3-4.6l1.7-4.3l2.3-4.2l2.7-3.8l3.1-3.5l3.5-3.1l3.9-2.7l4.1-2.2l4.4-1.7l4.6-1.2
		l4.8-0.7l4.8-0.1l4.8,0.3 M85.9,48.5l4.8,0.9l4.7,1.5l4.6,1.9l4.3,2.4l4.1,2.9l3.8,3.2l3.4,3.7l3,3.9l2.6,4.3l2.2,4.5l1.6,4.6
		l1.1,4.8l0.6,4.9l0.1,4.8l-0.5,4.8l-1,4.7l-1.5,4.5l-2,4.2l-2.5,4l-2.9,3.7l-3.3,3.3l-3.7,2.9l-4,2.4l-4.3,2l-4.5,1.5l-4.7,0.9
		l-4.8,0.4l-4.8-0.1l-4.8-0.6l-4.8-1.2l-4.6-1.7l-4.5-2.2l-4.2-2.6l-1.7-1.2 M74.8,90.1l0.3-1.1l1-1.9l1.4-1.5l1.8-1.1l2-0.5h2.2
		 M83.5,84l2.1,0.5l1.9,1.1l1.6,1.5l1.2,1.9l0.7,2.1l0.1,2.1l-0.4,2.1l-1,1.9l-1.4,1.5l-1.8,1.1l-1.8,0.5 M152.7,71.7l-0.8,0.8
		 M170.6,92.9l4.6-4.5 M186.1,102l5-4.8 M163.6,47.4l-5,4.8 M203.4,93.5l5-4.8 M180.9,38.8l-5,4.8 M210.2,73.1l4.9-4.8 M191.5,85.1
		l0.8-0.7 M169.8,61.2l-0.7,0.7 M196.4,47.9l-4.9,4.8 M198.2,59.7l5-4.8 M189.5,84.4l0.7-0.7 M170.4,63.3l-0.7,0.7 M185.2,85.6
		l2.8-2.8 M171.2,65.5l-2.8,2.8 M225.8,61.7L253.4,35 M182.5,103.7l0.7-0.7 M173.4,92.8l-0.7,0.7 M243.5,24.8L216,51.5 M45.6,138.2
		l42.9-41.7 M78.7,86.4l-43,41.6 M171.1,72.5l-70.8,68.7 M110.1,151.4L181,82.7 M32.7,21.9l-3.5,3.5 M219,141.3l3.6-3.4 M41.6,149.8
		l2.2-2 M24.2,126.1l-2.9,2.8 M69.7,172.4l5.7-5.5 M54.2,162.8l5.6-5.5 M7.2,93.2l-5.7,5.5 M14.5,110.4l-5.7,5.5 M89.3,174.7
		l5.7-5.5 M6.5,73.5L0.9,79 M108.7,172.2l5.6-5.5 M10.6,54.5L5,60 M126.5,165.1l5.7-5.5 M19.2,37.3l-5.7,5.5 M152.3,141.4l5.6-5.5
		 M44.9,13.7l-5.6,5.5 M160.8,124.3l5.7-5.5 M62.8,6.6l-5.7,5.5 M164.9,105.3l5.7-5.5 M82.1,4.1l-5.6,5.5 M101.8,6.4l-5.7,5.5
		 M157,68.4l5.7-5.5 M117.3,16l-5.7,5.5 M144.5,55.4l5.7-5.5 M129.8,29l-5.6,5.4"/>
</g>
</svg>
