<?xml version="1.0" encoding="utf-8"?>
<!-- Generator: Adobe Illustrator 27.2.0, SVG Export Plug-In . SVG Version: 6.00 Build 0)  -->
<svg version="1.1" id="Layer_1" xmlns="http://www.w3.org/2000/svg" xmlns:xlink="http://www.w3.org/1999/xlink" x="0px" y="0px"
	 viewBox="0 0 1008 1720.5" style="enable-background:new 0 0 1008 1720.5;" xml:space="preserve">
<style type="text/css">
	.st0{fill:#FFFFFF;stroke:#000000;stroke-miterlimit:10;}
	.st1{fill:none;stroke:#000000;stroke-width:0.71;stroke-linecap:round;stroke-linejoin:round;}
</style>
<rect class="st0" width="1008" height="1720.5"/>
<path class="st1" d="M618.5,332l-0.1,0.1 M593.2,303.9l2.6-2.5 M595.9,302l-2.4,2.3 M338.4,413.6h0.1 M587.5,818.3l-2.3,2.3
	 M421.7,319.4l-1.2,1.1 M221.8,738.6L221.8,738.6 M604.8,370.3l1.9-2l2.7-3.4l2.3-3.7l1.8-4l1.4-4.1l0.9-4.4 M595.4,304l-0.7,0.3
	l-1.3,0.1l-1.3-0.4l-1.1-0.9l-0.7-1.2l-0.2-1.3l0.4-1.3 M590.5,299.4l0.1-0.3 M618.7,330.2l-2.9,18.6 M595.5,303.8l0.3-1.3l-0.2-1.3
	l-0.7-1.2l-1.1-0.9l-1.3-0.4l-1.3,0.1l-1.2,0.6l-0.7,1.1l-0.4,1.2l0.2,1.4l0.7,1.2l1.1,0.8l1.3,0.4l1.3-0.1l1.2-0.6L595.5,303.8
	 M571.5,382.6l1.8,0.1l4.5,0.1l4.4-0.4l4.3-0.9l4.2-1.4l4-1.9l3.7-2.3l3.4-2.6l3-3.1l2.7-3.4l2.3-3.7l1.9-4l1.4-4.2l0.9-4.3
	 M616.9,332l-2.9,18.6 M607.5,367.5L607.5,367.5v0.2l-0.1,0.1v0.1h-0.1 M607.2,367.9l-2.2,2.2 M592.5,301.9L592.5,301.9l1.8-1.5
	 M594.2,300.4L594.2,300.4l0.2-0.1h0.1v0.1h0.2 M591.2,303.3l3-2.9 M595.5,300.8L595.5,300.8l-0.2-0.1l-0.2-0.1l-0.2-0.1l-0.1-0.1
	 M594.8,300.4l-3,2.8 M609.7,364.6l0.1-0.2l0.1-0.1l0.1-0.2l0.1-0.1l0.1-0.2l0.1-0.2l0.1-0.1l0.1-0.2 M593.5,304.4L593.5,304.4v-0.2
	h-0.1v-0.1h-0.1V304h-0.1 M593.2,304l-0.2-0.1l-0.1-0.1l-0.2-0.1l-0.2-0.1l-0.1-0.1l-0.2-0.1l-0.2-0.1l-0.2-0.1 M591.8,303.2h-0.4
	l-0.1,0.1 M589.2,299.2l-0.6,0.9l-0.3,1.4l0.1,1.4l0.6,1.3l1,1.1l1.3,0.7l1.4,0.2l1.4-0.2l1-0.6 M595.8,304.5l0.4-1.4l-0.1-1.4
	l-0.6-1.3l-1.1-1.1l-1.3-0.7l-1.4-0.2l-1.3,0.2l-1.2,0.8l-0.8,1.1l-0.4,1.3l0.1,1.5l0.6,1.3l1,1.1l1.3,0.7l1.4,0.2l1.4-0.3l1.2-0.7
	L595.8,304.5 M96,1519.9l-4.3-0.2l-4.2,0.4l-4.2,0.9l-4,1.3l-3.8,1.9l-3.5,2.2l-3.2,2.7l-0.2,0.2 M165,1582L165,1582 M157.4,1602.1
	L157.4,1602.1 M144.2,1574.5l3.2-10.6 M165,1582l-20.8-7.5 M144.2,1574.5l-2.3,2.3 M165,1582l-2.3,2.2 M166.7,1570.8L166.7,1570.8
	 M161.3,1525.7l-65.3-5.8 M96,1519.9l-2.3,2.2 M157.4,1602.2l5.3-18 M162.7,1584.2l-20.8-7.4 M141.9,1576.8l4-13.5 M166.7,1570.8
	l-20.8-7.5 M166.7,1570.8l1.3-4.5 M158.9,1528l-65.2-5.9 M93.7,1522.1l-4.3-0.1l-4.3,0.4l-4.1,0.8l-4,1.4l-3.8,1.8l-3.5,2.3
	l-3.2,2.6l-2.9,3.1l-2.4,3.4l-2,3.7l-1.6,3.9l-1.1,4.1l-0.6,4.2l-0.1,4.4l0.5,4.3l0.9,4.3l1.4,4.2l1.8,4l2.3,3.8l2.7,3.6l3.1,3.2
	l3.4,2.9l3.7,2.5l4,2l4.1,1.7l4.2,1.1l4.3,0.6 M157.4,1602.2l-65.2-5.9 M160.7,1528.6l-0.2-0.1l-0.2-0.1l-0.2-0.1l-0.2-0.1l-0.3-0.1
	l-0.2-0.1h-0.5 M163.8,1531.6l0.5-0.7l0.3-0.9v-1l-0.2-1l-0.5-0.8l-0.8-0.8l-0.9-0.5l-0.9-0.2 M161.3,1525.7l-2.4,2.3 M160.7,1528.6
	l0.7,1.7l0.1,2l-0.3,1.2l-0.4,0.9l-0.5,0.7 M168,1566.3l-3.1-1.4l-2.9-1.7l-2.6-2.3l-2.2-2.6l-1.9-2.9l-1.4-3.1l-0.9-3.3l-0.3-3.3
	l0.1-3.3l0.6-3.3l1.2-3l1.6-2.8l2.1-2.5l2.4-2.1 M168.1,1563.5l-0.1,2.9 M160.3,1535.2l-1.8,2.1l-1.3,2.5l-0.9,2.6l-0.4,2.8v2.9
	l0.6,2.9l1,2.7l1.4,2.6l1.8,2.3l2.2,2l2.5,1.6l2.7,1.3 M168.1,1563.5l2.8,0.7l2.9,0.3l2.8-0.2l2.8-0.7l2.5-1.2l2.3-1.6l2-2l1.5-2.3
	l1.2-2.5l0.6-2.8l0.2-2.8l-0.3-2.9l-0.7-2.9l-1.3-2.7l-1.6-2.4l-2.1-2.2l-2.3-1.8l-2.6-1.5l-2.8-0.9l-2.9-0.5h-2.8l-2.9,0.4l-2.6,1
	l-2.4,1.4l-2.1,1.8 M186.2,1533.2l-0.2-0.2l-2.3-1.8l-2.6-1.4l-2.8-1l-2.8-0.5h-2.9l-2.8,0.5l-2.7,0.9l-2.4,1.4l-1.8,1.5
	 M652.5,1615.9l-3.8,1.7l-3.6,2.1l-3.3,2.6l-1.3,1.1 M717.5,1647.2l-1.8-12.2 M739,1645.6L739,1645.6 M739.5,1666.8L739.5,1666.8
	 M739,1645.6l-21.4,1.6 M739,1645.6L739,1645.6 M717.5,1647.2l-2.3,2.3 M739,1645.6l-2.4,2.2 M712.4,1594.3l-59.9,21.6
	 M652.5,1615.9l-2.3,2.3 M739.5,1666.8l-2.8-19 M736.7,1647.8l-21.4,1.7 M715.2,1649.5l-2.1-14.3 M734.7,1633.5l-21.5,1.7
	 M734.7,1633.5l-0.7-4.7 M710,1596.6l-59.9,21.6 M650.2,1618.2l-3.9,1.6l-3.6,2.2l-3.3,2.5l-2.9,2.9l-2.6,3.3l-2.2,3.6l-1.7,3.9
	l-1.3,4l-0.7,4.2l-0.3,4.3l0.3,4.3l0.7,4.4l1.3,4.2l1.7,4.1l2.1,3.9l2.6,3.6l3,3.4l3.3,3l3.6,2.6l3.9,2.2l4,1.8l4.2,1.3l4.3,0.8
	l4.3,0.3l4.3-0.2l4.2-0.7l4.1-1.2 M739.5,1666.8l-59.9,21.7 M712,1596.4h-1.4l-0.3,0.1l-0.2,0.1 M717,1596.5l-0.3-0.5l-0.6-0.8
	l-0.9-0.6l-0.9-0.4l-1-0.1l-1,0.2 M712.4,1594.3l-2.3,2.3 M712,1596.4l1.1,1.1l0.6,1.8l0.2,1.1l-0.1,1l-0.2,0.9 M734,1628.8h-3.3
	l-3.3-0.6l-3.3-1l-3-1.5l-2.9-2l-2.5-2.3l-2.1-2.7l-1.7-3l-1.3-3.2l-0.7-3.3l-0.3-3.3l0.3-3.3l0.8-3.2l1.3-3 M732.2,1625.6l1.8,3.2
	 M713.5,1602.3l-0.6,2.7l-0.2,2.9l0.3,2.8l0.8,2.8l1.3,2.7l1.6,2.5l2,2.1l2.4,1.8l2.6,1.5l2.7,0.9l2.9,0.5l2.8,0.1 M732.2,1625.6
	l2.8-0.5l2.7-0.9l2.4-1.4l2.1-1.8l1.8-2.2l1.3-2.4l1-2.7l0.4-2.8l-0.1-2.9l-0.5-2.9l-1-2.7l-1.5-2.6l-1.8-2.3l-2.3-2.1l-2.4-1.6
	l-2.7-1.2l-2.9-0.7l-2.8-0.3l-2.9,0.3l-2.7,0.7l-2.6,1.2l-2.2,1.6l-2,2l-1.5,2.3l-1.2,2.6 M736.4,1590.3l-2.5-0.7l-2.9-0.2l-2.9,0.2
	l-2.7,0.7l-2.5,1.2l-2.3,1.6l-0.7,0.6 M102.5,812.9l0.3-0.2l2.8-3.1l2.3-3.5 M62.1,773.4l-0.5,0.5l-1.5,2.5l-1.1,2.8l-0.6,2.9
	l-0.1,2.9l0.4,3l0.9,2.9l1.3,2.7l1.8,2.5l2.2,2.2l2.5,1.9l2.7,1.4l2.9,0.9l2.9,0.4h3l2.9-0.6l2.7-1.1l2.4-1.5l0.3-0.2 M107.9,806.2
	l14.4-24.2l13.9-24.4l13.4-24.8l13-24.9l12.6-25.3l12.1-25.5l11.7-25.7l11.2-25.9l10.7-26.2l10.3-26.4l9.8-26.6l9.4-26.7l8.9-27
	l3.5-11.3 M107.9,806.2l-2.3,2.3 M105.6,808.5l14.3-24.2l13.9-24.5l13.5-24.7l13-25l12.6-25.2l12.1-25.5l11.7-25.7l11.2-26
	l10.7-26.1l10.3-26.4l9.8-26.6l9.4-26.8l8.8-27l5-15.7 M244.5,242.7l-2.2,1.9l-2.8,3.1l-2.4,3.4l-1.9,3.7l-1.6,3.9l-1,4.2
	 M231.6,268.4l1-5.5 M41.3,766.6l14.4-24.3l14-24.7l13.5-24.9l13-25.2l12.5-25.3l12.1-25.8l11.6-25.9l11.1-26.2l10.6-26.4l10.1-26.7
	l9.6-26.8l9.1-27.1l8.7-27.3l8.1-27.4l7.6-27.6l5.3-20.7 M41.3,766.6l-1.9,3.8l-1.5,3.9l-1,4.1l-0.5,4.3v4.3l0.5,4.3l1,4.3l1.4,4.2
	l2,4l2.3,3.8l2.8,3.5l3.1,3.2l3.5,2.9l3.7,2.4l4,2l4.1,1.5l4.3,1.1l4.3,0.6h4.3l4.3-0.4l4.1-1l4-1.4l3.7-1.9l3.5-2.3l3.1-2.8
	l2.8-3.1l2.4-3.4 M89.8,795.2l0.9-2.8l0.3-3l-0.1-2.9l-0.7-3l-1.1-2.8l-1.6-2.7l-2-2.3l-2.3-2l-2.6-1.6l-2.8-1.2l-3-0.7l-2.9-0.2
	l-3,0.3l-2.8,0.9l-2.6,1.3l-2.3,1.7l-1.9,2.1l-1.6,2.4l-1.1,2.7l-0.6,2.9l-0.1,3l0.4,2.9l0.9,2.9l1.4,2.8l1.8,2.5l2.1,2.2l2.5,1.8
	l2.7,1.4l2.9,0.9l3,0.5l3-0.1l2.8-0.6l2.7-1l2.5-1.5l2.1-2l1.8-2.3L89.8,795.2 M398.2,868.6l-0.8,1.4l-1.2,2.6l-0.6,2.9l-0.2,2.9
	l0.3,3l0.8,2.9l1.3,2.8l1.7,2.6l2.2,2.2l2.4,1.9l2.7,1.4l2.8,1l3,0.6h3l2.9-0.5l2.7-1l1.8-1 M231.7,318.2l-0.8,1.3l-1.2,2.7
	l-0.6,2.8l-0.2,3l0.3,2.9l0.8,3l1.3,2.7l1.8,2.6l2.2,2.2l2.4,1.9l2.7,1.5l2.8,1l3,0.5h3l2.9-0.5l2.7-1l1.8-1 M443,828.9l-1.6-9.9
	l-4.9-28.9l-5.5-28.8l-5.9-28.8l-6.4-28.7l-6.8-28.6l-7.4-28.6l-7.8-28.4l-8.4-28.4l-8.8-28.2l-9.2-28.1l-9.8-28l-10.2-27.8
	L339.7,450l-11.1-27.5L317,395.2l-10.9-24.6 M440.4,830l-1.3-8.6l-5-28.9l-5.4-28.9l-5.9-28.8l-6.4-28.7l-6.9-28.6l-7.3-28.5
	l-7.9-28.5l-8.3-28.3l-8.8-28.2l-9.2-28.1l-9.8-28L348,480l-10.6-27.7l-11.2-27.6l-11.5-27.3l-11.9-26.9 M372.2,872.1l-2.4-17.7
	l-4.6-29.1l-5-29.1l-5.5-29l-6.1-29l-6.6-28.8l-7.1-28.8l-7.5-28.7l-8.2-28.6l-8.6-28.4l-9.1-28.4l-9.6-28.2l-10.1-28l-10.6-27.9
	l-11.1-27.8l-11.5-27.4l-12.1-27.4L224,372.5l-5.9-12.3 M230.4,319l-0.2,0.2l-1.6,2.4l-1.2,2.7l-0.7,2.9l-0.2,2.9l0.4,3l0.8,2.9
	l1.3,2.8l1.7,2.5l2.1,2.3l2.5,1.9l2.6,1.4l2.9,1l3,0.5h2.9l2.9-0.5l2.8-0.9l2.5-1.5l0.6-0.5 M396.9,869.5l-0.2,0.2l-1.6,2.4
	l-1.2,2.7l-0.7,2.8l-0.2,3l0.4,3l0.8,2.9l1.3,2.8l1.7,2.5l2.1,2.3l2.5,1.8l2.6,1.5l2.9,1l3,0.5h2.9l2.9-0.5l2.8-1l2.5-1.4l0.6-0.5
	 M343,433.5l-1.6,2.3l-1.2,2.6l-0.8,2.9l-0.2,2.9l0.2,3l0.8,2.9l1.2,2.8l1.7,2.6l2,2.3l2.4,1.9l2.7,1.5l2.8,1.1l3,0.6l3,0.1l2.9-0.5
	l2.7-0.9l2.6-1.4l0.9-0.7 M438.7,370.5l66.4-27.7 M604.9,378l2.2-3l1.9-3.7l1.5-3.9l1.1-4l0.1-0.9 M550,406.7l26.4-11 M370.4,481.7
	l22.4-9.4 M439.1,371.6l64.2-26.8 M338.4,413.6l30.6-12.7 M352.7,484.2l1.2,0.1l4.3,0.1l4.2-0.4l4.1-0.9l3.9-1.3 M338.4,413.7
	l-3.7,1.9l-3.5,2.2l-3.1,2.7l-0.3,0.3 M344,461.2l1.2,0.9l2.7,1.5l2.8,1.1l3,0.5l2.9,0.1l3-0.4l2.7-0.9l2.6-1.4l2.2-1.8l1.9-2.2
	l1.4-2.5l1-2.8l0.5-2.9 M371.9,450.4v-2.9l-0.5-3l-1-2.9l-1.5-2.7l-1.8-2.4l-2.3-2.1l-2.5-1.8l-2.8-1.3l-2.9-0.8l-3-0.3l-2.9,0.1
	l-2.9,0.7l-2.6,1.2l-2.4,1.6l-2.1,2l-1.6,2.3l-1.3,2.7l-0.7,2.8 M420.2,469l-0.8,1.1l-1.5,2.5l-1,2.7l-0.5,2.9v3l0.5,3l1,2.8
	l1.5,2.7l1.9,2.5l2.2,2.1l2.5,1.7l2.8,1.3l2.9,0.9l3,0.3l2.9-0.2l2.9-0.6l2.6-1.2l2.2-1.4 M460.2,508.2l1.7-1.9 M462,506.3
	l155.9-176.2 M459.7,508.5l2.3-2.2 M576,292.8l-0.8,1.1l-1.4,2.5l-1,2.7l-0.5,2.9v3l0.5,3l1,2.8l1.4,2.7l1.9,2.5l2.2,2.1l2.6,1.8
	l2.7,1.3l2.9,0.8l3,0.3l3-0.2l2.8-0.6l2.7-1.2l2.2-1.4 M617.9,330.1l2.5-3.2l2.1-3.6l1.7-3.8l1.2-4l0.7-4.1l0.2-4.3l-0.2-4.2
	l-0.8-4.3l-1.2-4.1l-1.7-4l-2.1-3.9l-2.6-3.5l-2.9-3.3l-3.3-3l-3.6-2.6l-3.8-2.1l-4-1.7l-4.1-1.3l-4.2-0.8l-4.3-0.2l-4.2,0.2
	l-4.2,0.7l-3.9,1.2l-3.8,1.6l-3.6,2.1l-3.2,2.6l-1.2,1 M615.5,332.3l2.4-2.2 M459.7,508.5l155.8-176.2 M615.5,332.3l2.6-3.2l2.1-3.5
	l1.7-3.8l1.2-4l0.7-4.2l0.2-4.2l-0.2-4.3l-0.8-4.2l-1.2-4.2l-1.7-4l-2.2-3.8l-2.5-3.6l-3-3.3l-3.2-2.9l-3.6-2.6l-3.8-2.2l-4-1.7
	l-4.1-1.2l-4.3-0.8l-4.2-0.3l-4.2,0.2l-4.2,0.7l-4,1.2l-3.8,1.7l-3.5,2.1l-3.3,2.5l-2.9,2.9 M403.5,457.8l155.8-176.2 M403.5,457.8
	L401,461l-2.1,3.6l-1.7,3.8l-1.2,4l-0.7,4.1l-0.3,4.3l0.3,4.2l0.7,4.3l1.3,4.1l1.7,4l2.1,3.9l2.6,3.5l2.9,3.3l3.3,3l3.5,2.6l3.8,2.1
	l4,1.7l4.2,1.3l4.2,0.8l4.3,0.2l4.2-0.2l4.1-0.7l4-1.2l3.8-1.6l3.6-2.1l3.2-2.6l2.9-2.9 M448.2,478.5l-1.3-2.8l-1.6-2.6l-2.1-2.3
	l-2.4-1.9l-2.6-1.6l-2.9-1l-2.9-0.6l-3-0.1l-2.9,0.4l-2.8,0.9l-2.5,1.4l-2.3,1.8l-1.8,2.2l-1.5,2.5l-1,2.8l-0.5,2.9v2.9l0.5,3l1,2.9
	l1.5,2.7l1.8,2.4l2.3,2.2l2.5,1.7l2.8,1.3l2.9,0.8l2.9,0.4l3-0.2l2.8-0.7l2.7-1.1l2.4-1.6l2.1-2.1l1.6-2.3l1.3-2.6l0.7-2.9l0.3-2.9
	l-0.3-3L448.2,478.5 M604,302.2l-1.2-2.8l-1.7-2.6l-2.1-2.3l-2.4-1.9L594,291l-2.9-1l-2.9-0.6l-3-0.1l-2.9,0.4l-2.8,1L577,292
	l-2.2,1.8l-1.9,2.2l-1.5,2.5l-1,2.8l-0.5,2.9v3l0.5,3l1,2.9l1.5,2.7l1.9,2.4l2.2,2.2l2.5,1.7l2.8,1.3l2.9,0.8l3,0.4l2.9-0.2l2.9-0.7
	l2.6-1.1l2.4-1.6l2.1-2l1.7-2.4l1.2-2.6l0.7-2.9l0.3-2.9l-0.3-3L604,302.2 M739,1645.6L739,1645.6 M757.8,1644.2l-18.7,1.4
	 M739,1645.6l-2.4,2.2 M736.9,1587.5l-0.7-0.1l-2.8-0.3l-2.9,0.2l-2.7,0.8l-2.5,1.1l-2.3,1.6l-0.8,0.7 M736.4,1590.3l-2.5-0.7
	l-2.9-0.2l-2.8,0.2l-2.7,0.7l-2.6,1.2l-2.2,1.6l-0.8,0.6 M740.7,1584.1l-0.2,0.1l-0.2,0.1l-0.2,0.1l-0.2,0.2l-0.2,0.1l-0.1,0.1
	 M740.7,1584.1l82.3-29.4 M740.7,1584.1l-2.3,2.3 M802.2,1499.8l-1.3,2.3l-1,2.8l-0.4,2.9v3l0.5,2.9l1,2.9l1.5,2.7l1.9,2.4l2.2,2.1
	l2.5,1.8l2.8,1.2l2.9,0.9l3,0.3l3-0.2l2.8-0.7l2.6-1.2l0.8-0.4 M924.5,1512.4l21.1,8.1 M961.2,1582.9l1.7-1.7l2.6-3.3l2.1-3.5
	l1.8-3.9l1.2-4l0.8-4.2l0.3-4.2l-0.2-4.4l-0.8-4.3l-1.2-4.2l-1.6-4.1l-2.1-3.9l-2.6-3.6l-2.9-3.4l-3.3-3l-3.5-2.7l-3.9-2.2l-4-1.8
	 M945.5,1520.5l-2.3,2.3 M834.5,1463.6l55.2-19.8 M890.7,1467.1l-0.9,1.1l-1.4,2.5l-1,2.8l-0.5,2.9v3l0.6,2.9l1,2.9l1.4,2.7l1.9,2.4
	l2.3,2.1l2.5,1.8l2.8,1.3l2.9,0.8l3,0.3l2.9-0.2l2.9-0.7l2.6-1.2l2.1-1.4 M931,1506.7l2.2-2.3l2.5-3.3l2.1-3.6l1.6-3.9l1.2-4
	l0.7-4.2l0.2-4.3l-0.3-4.3l-0.8-4.3l-1.3-4.1l-1.7-4.1l-2.2-3.8l-2.6-3.6l-3-3.3l-3.3-3l-3.6-2.6l-3.8-2.2l-4-1.7l-4.2-1.3l-4.3-0.8
	l-4.3-0.3l-4.2,0.3l-4.2,0.6l-4,1.2 M889.8,1443.8l-2.4,2.3 M801,1500.7l-0.9,1.2l-1.4,2.5l-1,2.7l-0.5,2.9v3l0.6,3l1,2.9l1.4,2.6
	l1.9,2.5l2.3,2.1l2.5,1.7l2.8,1.3l2.9,0.8l3,0.3l2.9-0.2l2.9-0.7l2.6-1.1l2.1-1.4 M918.5,1476.4l-1.2-2.7l-1.7-2.6l-2.1-2.3
	l-2.4-1.9l-2.7-1.5l-2.8-1.1l-3-0.6h-2.9l-3,0.4l-2.7,1l-2.5,1.4l-2.3,1.8l-1.8,2.2l-1.5,2.5l-0.9,2.7l-0.5,2.9v3l0.5,3l1,2.9
	l1.5,2.7l1.9,2.4l2.2,2.1l2.6,1.7l2.7,1.3l3,0.8l2.9,0.3l3-0.2l2.8-0.6l2.7-1.2l2.4-1.6l2-2.1l1.7-2.3l1.2-2.7l0.7-2.8l0.2-2.9
	l-0.2-3L918.5,1476.4 M758,1646.2l-2-14.2 M758,1646.2l-21.5,1.6 M739.2,1666.9l-2.7-19.1 M739.2,1666.9l207.5-74.3 M946.8,1592.6
	l3.8-1.6l3.7-2.1l3.3-2.5l2.9-3l2.6-3.2l2.2-3.6l1.7-3.8l1.3-4l0.8-4.2l0.2-4.3l-0.2-4.3l-0.7-4.3l-1.2-4.2l-1.7-4.1l-2.1-3.9
	l-2.5-3.7l-2.9-3.3l-3.3-3.1l-3.6-2.6l-3.8-2.2l-4-1.8 M921.2,1514.4l22,8.4 M921.2,1514.4l3.5-2.2l3.3-2.6l2.9-3l2.5-3.3l2-3.6
	l1.7-3.8l1.2-4.1l0.6-4.2l0.2-4.2l-0.3-4.3l-0.8-4.3l-1.2-4.2l-1.8-4l-2.1-3.9l-2.6-3.6l-3-3.3l-3.3-3l-3.6-2.5l-3.8-2.2l-4.1-1.8
	l-4.1-1.2l-4.3-0.8l-4.3-0.3l-4.2,0.2l-4.2,0.7l-4.1,1.2 M835,1464.9l52.3-18.8 M816.2,1552.1l8.7,3.3 M738.4,1586.4l86.5-31
	 M738.4,1586.4l-0.9,0.4l-0.6,0.7l-0.5,0.9l-0.1,1l0.1,1l0.4,0.9l0.6,0.8l0.9,0.6 M743,1620.1l0.3-0.2l1.7-2.2l1.4-2.4l0.9-2.7
	l0.4-2.8v-2.9l-0.5-2.8l-1.1-2.8l-1.4-2.6l-1.9-2.3l-2.2-2.1l-2.4-1.6 M734.5,1633.6l-0.7-4.8 M756,1632l-21.5,1.6 M184.4,1589
	l-19.3-6.9 M165.1,1582.1l-2.4,2.2 M188.2,1530.6l-2.2-1.6l-2.6-1.4l-2.7-1l-2.9-0.5H175l-2.8,0.4l-2.7,1l-2.4,1.3l-1.9,1.6
	 M186.2,1533.2l-0.2-0.2l-2.3-1.8l-2.6-1.4l-2.8-1l-2.8-0.5h-2.9l-2.8,0.5l-2.6,0.9l-2.4,1.4l-1.9,1.5 M192,1528.6h-1l-0.2,0.1h-0.2
	l-0.3,0.1l-0.2,0.1 M190.1,1528.9l-0.4,0.4 M192,1528.6l88.9,7.9 M192,1528.6l-2.4,2.2 M280.2,1483.1l-1.6,2.3l-1.2,2.7l-0.8,2.8
	l-0.2,3l0.3,2.9l0.7,3l1.3,2.8l1.7,2.5l2,2.3l2.4,1.9l2.7,1.5l2.9,1.1l2.9,0.6h3l2.9-0.4l2.8-1l2.5-1.4l0.8-0.6 M294.7,1457.9
	l-4.3-0.2l-4.4,0.4l-4.2,0.9l-4,1.4l-3.9,1.9l-3.5,2.3l-3.1,2.7 M412.8,1610.7l2.5-2.7l2.5-3.4l2-3.7l1.6-3.9l1.1-4.1l0.6-4.2
	l0.1-4.3l-0.4-4.3l-0.9-4.3l-1.4-4.2l-1.8-4l-2.2-3.8l-2.7-3.6l-3.1-3.2 M395.4,1542.3l15.3,14.7 M410.7,1557l-2.3,2.2
	 M375.2,1491.4l-1.6,2.4l-1.2,2.6l-0.7,2.9l-0.3,2.9l0.3,3l0.8,2.9l1.2,2.8l1.7,2.6l2.1,2.3l2.4,1.9l2.6,1.5l2.9,1.1l2.9,0.5l3,0.1
	l2.9-0.5l2.8-0.9l2.5-1.4l0.9-0.6 M294.7,1457.9l95.1,8.3 M294.7,1457.9l-2.3,2.2 M415.8,1531l0.3-0.3l2.7-3.1l2.4-3.4l1.9-3.7
	l1.5-3.9l1-4.1l0.6-4.2v-4.3l-0.5-4.3l-0.9-4.2l-1.5-4.2l-1.8-4l-2.4-3.7l-2.7-3.5l-3.1-3.2l-3.4-2.9l-3.6-2.4l-4-2.1l-4-1.5
	l-4.3-1.2l-4.2-0.6 M389.8,1466.2l-2.4,2.3 M309.2,1499.8v-3l-0.5-3l-1-2.8l-1.5-2.7l-1.9-2.5l-2.2-2.1l-2.6-1.7l-2.8-1.3l-2.9-0.8
	l-3-0.3l-2.9,0.2l-2.8,0.7l-2.7,1.2l-2.4,1.6l-2,2l-1.7,2.4l-1.2,2.6l-0.7,2.9l-0.2,2.9l0.2,3l0.8,2.9l1.2,2.8l1.7,2.6l2.1,2.3
	l2.4,1.9l2.7,1.5l2.8,1l3,0.6l3,0.1l2.9-0.5l2.7-0.9l2.5-1.4l2.3-1.8l1.8-2.2l1.5-2.6l0.9-2.7L309.2,1499.8 M404.2,1508.2v-3l-0.5-3
	l-1-2.9l-1.5-2.7l-1.9-2.4l-2.2-2.1l-2.6-1.7l-2.7-1.3l-2.9-0.8l-3-0.3l-3,0.2l-2.8,0.7l-2.7,1.1l-2.3,1.7l-2.1,2l-1.6,2.3l-1.2,2.7
	l-0.8,2.8l-0.2,3l0.3,3l0.7,2.9l1.3,2.8l1.7,2.6l2,2.2l2.4,2l2.7,1.5l2.9,1l2.9,0.6h3l2.9-0.4l2.8-1l2.5-1.4l2.2-1.8l1.9-2.2
	l1.4-2.5l1-2.7L404.2,1508.2 M183.6,1591.8l3.9-13.4 M183.6,1591.8l-20.9-7.5 M157.4,1602.3l5.3-18 M157.4,1602.3l225.6,20.1
	 M383,1622.4l4.3,0.1l4.2-0.3l4.2-0.9l4-1.3l3.8-1.8l3.5-2.3l3.2-2.7l2.8-3l2.5-3.4l2-3.6l1.5-3.9l1.1-4.1l0.6-4.2l0.2-4.3l-0.4-4.3
	l-0.9-4.3l-1.4-4.2l-1.8-4l-2.3-3.8l-2.7-3.6l-3-3.3 M391.2,1542.8l17.2,16.4 M391.2,1542.8l4.2-0.5l4.1-1l4-1.4l3.7-1.9l3.4-2.3
	l3.1-2.7l2.8-3.1l2.4-3.4l1.9-3.7l1.5-3.9l1-4.1l0.5-4.2l0.1-4.3l-0.5-4.3l-1-4.3l-1.4-4.1l-1.9-4l-2.3-3.8l-2.7-3.5l-3.1-3.2
	l-3.4-2.8l-3.7-2.5l-3.9-2l-4.1-1.6l-4.2-1.1l-4.3-0.6 M292.4,1460.1l95,8.4 M292.4,1460.1l-4.4-0.1l-4.3,0.4l-4.2,0.9l-4.1,1.4
	l-3.8,1.9l-3.5,2.3l-3.2,2.8l-2.9,3.1l-2.4,3.5l-2,3.8l-1.5,4l-1,4.2l-0.5,4.3 M254.6,1492.6v2.6 M254.6,1495.2l0.2,3.9l0.7,3.8
	l1,3.8l1.4,3.7l1.8,3.5l2.1,3.3l2.5,3.2l2.7,2.9 M267,1523.3l16.7,15.9 M189.6,1530.8l94.1,8.4 M189.6,1530.8l-0.9,0.1l-1,0.3
	l-0.7,0.6l-0.6,0.8l-0.3,0.9v1l0.3,1l0.5,0.8 M186.1,1559l1.2-1.3l1.6-2.3l1.1-2.6l0.7-2.7l0.2-2.9l-0.3-2.9l-0.8-2.8l-1.2-2.7
	l-1.7-2.5 M166.7,1570.9l2.1-7.2 M187.5,1578.4l-20.8-7.5 M230.4,319.1l-1.1,1.5l-1.4,2.5l-0.9,2.8l-0.4,2.9v3l0.6,2.9l1.1,2.9
	l1.5,2.6l2,2.4l2.2,2.1l2.6,1.7l2.8,1.2l2.9,0.7l3,0.3l3-0.3l2.8-0.7l2.6-1.2l1.8-1.3 M410.9,358.9l2.7-2.9l2.5-3.6l2.1-3.8l1.6-4.1
	l1-4.3l0.5-4.4v-4.5 M353.8,73l-1,1.4l-1.4,2.6l-0.9,2.7l-0.4,3v2.9l0.6,3l1.1,2.9l1.5,2.6l1.9,2.4l2.3,2.1l2.6,1.7l2.8,1.2l2.9,0.7
	l3,0.3l2.9-0.3l2.9-0.7l2.6-1.3L379,99 M404.6,84.9l16.7,246.4 M418.9,333.5l2.4-2.2 M404.6,84.9l-0.5-4.2l-1-4.2l-1.4-4.1l-1.9-3.9
	l-2.4-3.7l-2.7-3.4l-3-3.1l-3.4-2.8l-3.7-2.4l-3.8-2l-4.1-1.6l-4.1-1.1l-4.2-0.6l-4.3-0.2l-4.2,0.4l-4.1,0.8l-3.9,1.3l-3.7,1.7
	l-3.5,2.2l-3.2,2.6l-0.6,0.6 M402.2,87.2l2.3-2.3 M384.4,370.7l-140.1-0.2 M384.4,370.7l4.4-0.2l4.4-0.8l4.2-1.4l3.9-1.8l3.7-2.3
	l3.3-2.8l3-3.2l2.5-3.5l2.1-3.9l1.5-4.1l1.1-4.3l0.5-4.4l-0.1-4.5 M402.2,87.2l16.6,246.3 M402.2,87.2l-0.5-4.2l-1-4.2l-1.5-4.1
	l-1.9-3.9l-2.3-3.7l-2.7-3.5l-3.1-3.1l-3.3-2.8l-3.7-2.4l-3.9-2l-4-1.5l-4.2-1.1l-4.2-0.7l-4.2-0.1l-4.2,0.3l-4.1,0.9l-3.9,1.3
	l-3.7,1.7l-3.5,2.2l-3.2,2.5l-2.9,3l-2.4,3.2l-2.1,3.6 M208.3,314.7L331.8,68.6 M208.3,314.7l-1.6,3.9l-1.2,4.1l-0.7,4.2l-0.2,4.3
	l0.3,4.3l0.8,4.3l1.3,4.2l1.8,4l2.2,3.9l2.6,3.6l3,3.3l3.3,3l3.6,2.6l3.9,2.1l4.1,1.7l4.2,1.3l4.3,0.7l4.3,0.3 M381.6,82l-1.3-2.8
	l-1.7-2.5l-2.1-2.3l-2.5-1.9l-2.7-1.4l-2.8-1l-3-0.5h-3l-2.8,0.5l-2.8,1l-2.5,1.5l-2.2,1.8l-1.8,2.3l-1.3,2.5l-1,2.8l-0.4,2.9l0.1,3
	l0.6,3l1.1,2.8l1.5,2.7l1.9,2.4l2.3,2l2.6,1.7l2.8,1.2l2.9,0.8l3,0.2l2.9-0.2l2.8-0.8l2.7-1.2l2.3-1.7l2-2.1l1.6-2.4l1.2-2.6
	l0.6-2.9l0.2-2.9l-0.3-3L381.6,82 M258.1,328.1l-1.3-2.8l-1.7-2.5l-2.1-2.3l-2.4-1.8l-2.7-1.5l-2.9-1l-3-0.5h-2.9l-2.9,0.5l-2.8,1
	l-2.5,1.5l-2.1,1.9l-1.8,2.2l-1.4,2.5l-0.9,2.8l-0.5,2.9l0.1,3l0.6,3l1.1,2.8l1.5,2.7l1.9,2.4l2.3,2.1l2.6,1.6l2.8,1.2l2.9,0.8
	l3,0.3l2.9-0.3l2.9-0.8l2.6-1.2l2.3-1.7l2-2l1.6-2.4l1.2-2.7l0.6-2.8l0.2-3l-0.3-3L258.1,328.1 M398.2,328.3l-1.3-2.8l-1.8-2.5
	l-2.1-2.2l-2.4-1.9l-2.7-1.5l-2.9-1l-3-0.5h-2.9l-2.9,0.5l-2.8,1l-2.5,1.5l-2.1,1.9L367,323l-1.4,2.6l-0.9,2.7l-0.5,3l0.1,2.9l0.6,3
	l1.1,2.8l1.5,2.7l1.9,2.4l2.3,2.1l2.6,1.6l2.8,1.3l2.9,0.7l3,0.3l2.9-0.3l2.9-0.7l2.6-1.3l2.3-1.6l2-2.1l1.6-2.4l1.2-2.7l0.6-2.8
	l0.2-3l-0.3-3L398.2,328.3 M446.2,320.4l0.6-1.4l1.1-4.3 M421.8,319.8l0.4-0.3l0.7-0.5 M464.8,231.6l-16.9,83.1 M445.6,317l2.3-2.3
	 M445.2,56.7l-0.8,1.2l-1.1,2.7l-0.7,2.8l-0.3,3l0.3,2.9l0.8,3l1.3,2.7l1.7,2.6l2.1,2.3l2.4,1.9l2.7,1.4l2.9,1.1l2.9,0.5h3l2.9-0.4
	l2.8-1l1.9-1 M497,70.5v-1.7l-0.3-4.3l-0.9-4.2l-1.3-4.1l-1.7-4l-2.2-3.8l-2.6-3.5l-3-3.2l-3.2-2.9l-3.6-2.6l-3.8-2.1l-4-1.7
	l-4.1-1.3l-4.2-0.8l-4.3-0.3l-4.2,0.2l-4.1,0.7l-4,1.1l-3.8,1.6l-3.6,2.1l-3.2,2.4l-1.7,1.5 M428.6,340.1l3-1.8l3.4-2.7l3-3.1
	l2.6-3.4l2.2-3.8l1.6-4.1l1.2-4.2 M463.2,230.1L445.5,317 M491.9,57.7l-1.5-3.2l-2.2-3.8l-2.5-3.5l-3-3.3l-3.3-2.9l-3.5-2.5
	l-3.8-2.2l-4-1.7l-4.1-1.2l-4.2-0.8l-4.3-0.3l-4.2,0.2l-4.1,0.6l-4,1.2l-3.8,1.6l-3.6,2l-3.3,2.4l-1.7,1.6 M406.2,68.2L425,48
	 M377.9,98.8l3.6-3.8 M244.1,242.9l0.6-0.7 M443.8,57.6l-0.1,0.2l-1.6,2.4l-1.2,2.6l-0.7,2.8l-0.2,3l0.3,3l0.8,2.9l1.3,2.8l1.7,2.5
	l2.1,2.3l2.4,1.9l2.7,1.5l2.8,1l3,0.6h3l2.9-0.5l2.7-1l2.5-1.4l0.8-0.5 M421.8,320.2l0.2-0.3l1.9-2.2l1.4-2.5l0.9-2.8l0.5-2.9
	l-0.1-2.9 M426.6,306.6l-0.5-3l-1.1-2.9l-1.5-2.7l-1.9-2.4l-2.2-2.1l-0.7-0.5 M215.3,761.7l-1.6,2.4l-1.3,2.6l-0.7,2.8l-0.2,3l0.2,3
	l0.8,2.9l1.2,2.8l1.7,2.6l2.1,2.2l2.4,2l2.7,1.5l2.8,1l3,0.6l2.9,0.1l3-0.5l2.7-0.9l2.5-1.4l0.9-0.7 M250.2,672.1l-1.6,2.3l-1.3,2.7
	l-0.7,2.8l-0.2,3l0.2,3l0.8,2.9l1.2,2.8l1.7,2.5l2.1,2.3l2.4,2l2.7,1.5l2.8,1l3,0.6l2.9,0.1l3-0.5l2.7-0.9l2.5-1.4l0.9-0.7
	 M343,433.5l-1.6,2.3l-1.2,2.6l-0.7,2.9l-0.3,2.9l0.3,3l0.8,2.9l1.2,2.8l1.7,2.6l2.1,2.3l2.4,1.9l2.6,1.5l2.9,1.1l3,0.5l2.9,0.1
	l2.9-0.4l2.8-1l2.5-1.4l0.9-0.6 M421.8,319.7l0.3-0.2l0.9-0.7 M288.2,726.4l-21.4,55 M323.1,636.7l-8,20.6 M386,475.2l-19,48.7
	 M446.2,320.3l-13.1,33.6 M446.2,320.3l-2.3,2.2 M446.2,320.3l1.3-4.1l0.7-3.6 M322.5,634.5l-58,148.9 M384.2,475.9l-18,46.1
	 M444,322.5l-11.5,29.4 M444,322.5l1.3-4l0.4-1.7 M285.4,520.2l-85.6,219.9 M343.7,370.7l-17.8,45.5 M214.1,762.8l-1.1,1.1l-1.7,2.4
	l-1.2,2.6l-0.7,2.9l-0.3,2.9l0.3,3l0.8,2.9l1.2,2.8l1.7,2.6l2.1,2.3l2.4,1.9l2.6,1.5l2.9,1.1l2.9,0.5l3,0.1l2.9-0.4l2.8-1l2.5-1.4
	l2.1-1.7 M277.6,694.5l1-2.7l0.5-3v-2.9l-0.5-3l-1.1-2.9l-1.4-2.7l-1.9-2.4l-2.2-2.1l-2.6-1.7l-2.8-1.3l-2.9-0.8l-2.9-0.4l-3,0.2
	l-2.8,0.7l-2.7,1.2l-2.4,1.6l-2,2l-1.7,2.4l-1.2,2.6l-0.7,2.9l-0.3,2.9l0.3,3l0.8,2.9l1.2,2.8l1.7,2.6l2.1,2.3l2.4,1.9l2.6,1.5
	l2.9,1.1l2.9,0.5l3,0.1l2.9-0.4l2.8-1l2.5-1.4l2.2-1.8l1.9-2.2L277.6,694.5 M343.9,461l1.4,1.1l2.7,1.5l2.9,1l2.9,0.6h3l2.9-0.4
	l2.8-0.9l2.5-1.4l2.1-1.7 M341.8,434.6l-1,1.2l-1.7,2.3l-1.2,2.7l-0.7,2.8l-0.1,0.1 M537.6,817.4l-0.7,1.2l-1.2,2.6l-0.7,2.9
	l-0.2,2.9l0.3,3l0.8,2.9l1.2,2.8l1.7,2.6l2.1,2.2l2.5,1.9l2.6,1.5l2.9,1l3,0.6h2.9l2.9-0.5l2.8-0.9l1.9-1.1 M589.5,831.7v-0.4
	l-0.2-4.3l-0.7-4.3l-1.1-4.3 M506.9,720.7l-0.1,0.1l-1.6,2.4l-1.2,2.6l-0.7,2.9l-0.2,2.9l0.3,3l0.8,3l1.2,2.7l1.8,2.6l2,2.3l2.5,1.9
	l2.7,1.4l2.8,1.1l3,0.5h2.9l2.9-0.5l2.8-0.9l2.5-1.4l0.7-0.6 M421.5,468.1l-0.7,1.2l-1.2,2.6l-0.7,2.9l-0.2,2.9l0.3,3l0.8,2.9
	l1.3,2.8l1.7,2.6l2.1,2.2l2.4,1.9l2.7,1.5l2.8,1.1l3,0.5h3l2.9-0.5l2.7-0.9l1.9-1.1 M421.7,319.5l-1.5-3.9 M477.8,488.4l109.7,330
	 M421.7,319.5l28.4,85.6 M475.6,490.9L585,820.2 M420.9,326.4l27,81.2 M403.5,504.6l100.3,302 M359,370.6l36,108.6 M536.2,818.2
	L536.2,818.2l-1.8,2.5l-1.2,2.7l-0.7,2.8l-0.2,3l0.3,3l0.8,2.9l1.3,2.8l1.7,2.5l2.1,2.3l2.4,1.9l2.7,1.5l2.9,1l2.9,0.5l3,0.1
	l2.9-0.5l2.7-1l2.6-1.4l0.7-0.6 M535.2,731.2l-1-2.9l-1.5-2.6l-1.9-2.5l-2.3-2l-2.6-1.7l-2.7-1.3l-3-0.8l-2.9-0.3l-3,0.3l-2.8,0.7
	l-2.6,1.2l-2.4,1.6l-2,2.1l-1.7,2.3l-1.1,2.7l-0.7,2.8l-0.3,3l0.3,3l0.8,2.9l1.3,2.8l1.7,2.5l2.1,2.3l2.4,1.9l2.7,1.5l2.9,1l2.9,0.5
	l3,0.1l2.9-0.5l2.8-1l2.5-1.4l2.2-1.8l1.8-2.3l1.4-2.5l1-2.7l0.4-3v-2.9L535.2,731.2 M420.2,468.9l-0.1,0.2l-1.6,2.3l-1.2,2.7
	l-0.7,2.8l-0.2,3l0.3,3l0.8,2.9l1.3,2.8l1.7,2.5l2.1,2.3l2.4,1.9l2.7,1.5l2.8,1l3,0.5l2.9,0.1l2.9-0.5l2.8-1l2.5-1.4l0.7-0.5
	 M801,1500.6l-1,1.3l-1.4,2.6l-0.9,2.7l-0.5,2.9l0.1,3l0.5,3l1.1,2.8l1.4,2.7l2,2.4l2.2,2.1l2.6,1.7l2.8,1.3l2.9,0.7l3,0.3l2.9-0.2
	l2.8-0.7l2.7-1.2l1.9-1.3 M841.4,1540.2L841.4,1540.2l2.9-3.1l2.4-3.4l1.9-3.6l1.5-3.9l1.1-4l0.6-4.2l0.1-4.2l-0.4-4.3l-0.9-4.2
	l-1.4-4.1 M395.7,846.3l-3.9,1.7l-3.7,2.2l-3.3,2.7l-0.9,0.8 M396.9,869.5l-1,1.3l-1.4,2.5l-1,2.8l-0.4,2.9v2.9l0.6,3l1,2.9l1.5,2.7
	l1.9,2.4l2.3,2.1l2.6,1.7l2.7,1.2l3,0.8l2.9,0.3l3-0.3l2.8-0.7l2.6-1.2l2-1.3 M395.7,846.3L535.1,795 M393.4,848.5l2.3-2.2
	 M536.2,818.2l-1,1.3l-1.4,2.5l-1,2.8l-0.4,2.9v3l0.6,2.9l1,2.9l1.5,2.7l1.9,2.4l2.3,2.1l2.6,1.7l2.7,1.2l3,0.8l2.9,0.3l3-0.2
	l2.8-0.7l2.6-1.2l2-1.4 M849.2,1501.2L584,817.5 M846.9,1503.4l2.3-2.2 M584,817.5l-2-4.1l-2.5-3.9l-3-3.6l-3.3-3.2l-3.7-2.8
	l-3.9-2.4l-4.2-2l-4.3-1.4l-4.5-0.9l-4.5-0.3l-4.4,0.2l-4.4,0.7L535,795 M532.8,797.3l2.3-2.3 M581.7,819.8l2.3-2.3 M846.9,1503.4
	L581.7,819.8 M581.7,819.8l-2.1-4.1l-2.5-3.9l-2.9-3.6l-3.3-3.3l-3.7-2.8l-4-2.4l-4.1-1.9l-4.4-1.4l-4.4-0.9l-4.5-0.4l-4.5,0.2
	L537,796l-4.2,1.3 M393.4,848.5l139.4-51.2 M393.4,848.5l-4,1.8l-3.6,2.2l-3.4,2.6l-3,3.1l-2.5,3.4l-2.2,3.7l-1.6,4l-1.2,4.1
	l-0.6,4.4l-0.2,4.4l0.4,4.4l0.9,4.4l1.4,4.2l1.9,4.2l2.4,3.8l2.8,3.7l3.2,3.2 M777,1524l-8.2-24.8l-8.7-24.6l-9.2-24.4l-9.6-24.3
	l-10.1-24.2l-10.6-24l-10.9-23.8l-11.5-23.6l-11.8-23.4l-12.4-23.2l-12.7-23l-13.2-22.8l-13.6-22.6l-14-22.3l-14.4-22.1l-14.8-21.8
	l-15.2-21.5l-15.6-21.3l-16-21l-16.4-20.7l-16.8-20.4l-17.1-20.1l-17.5-19.9l-17.9-19.4l-18.2-19.2l-18.5-18.8l-18.9-18.5L384,910.1
	 M777,1524l1.6,4l2,3.9l2.4,3.7l2.8,3.4l3.1,3.1l3.5,2.7l3.7,2.3l3.9,1.9l4.1,1.5l4.2,0.9l4.2,0.6h4.3l4.1-0.5l4.1-0.9l3.9-1.4
	l3.7-1.9l3.4-2.3l3.1-2.6l2.8-3.1l2.3-3.3l2-3.7l1.5-3.8l1.1-4.1l0.5-4.2l0.1-4.2l-0.4-4.2l-0.8-4.3l-1.4-4.1 M424.7,878.6l-1.3-2.7
	l-1.7-2.6l-2.1-2.3l-2.4-1.9l-2.7-1.4l-2.8-1.1l-3-0.5h-3l-2.9,0.5l-2.7,0.9l-2.5,1.5l-2.2,1.8l-1.8,2.2l-1.5,2.5l-0.9,2.8l-0.5,2.9
	l0.1,3l0.6,3l1,2.8l1.5,2.7l1.9,2.4l2.3,2.1l2.5,1.7l2.8,1.3l2.9,0.7l3,0.3l3-0.2l2.8-0.7l2.6-1.2l2.4-1.7l2-2l1.6-2.4l1.2-2.7
	l0.7-2.8l0.2-3l-0.3-2.9L424.7,878.6 M828.8,1509.8l-1.2-2.8l-1.7-2.5l-2.1-2.3l-2.5-1.9l-2.6-1.5l-2.9-1l-3-0.5l-2.9-0.1l-2.9,0.5
	l-2.8,1l-2.5,1.4l-2.2,1.9l-1.8,2.2l-1.4,2.5l-1,2.8l-0.4,2.9v3l0.6,2.9l1,2.9l1.5,2.7l1.9,2.4l2.3,2.1l2.6,1.7l2.7,1.2l3,0.8
	l2.9,0.3l3-0.2l2.8-0.8l2.6-1.2l2.4-1.6l2-2.1l1.7-2.3l1.1-2.7l0.7-2.8l0.2-3l-0.3-3L828.8,1509.8 M564,827.4l-1.3-2.8L561,822
	l-2.1-2.2l-2.4-1.9l-2.7-1.5l-2.8-1l-3-0.6h-3l-2.9,0.5l-2.7,1l-2.5,1.4l-2.2,1.8l-1.9,2.3l-1.4,2.5l-0.9,2.7l-0.5,3l0.1,2.9l0.5,3
	l1.1,2.9l1.5,2.6l1.9,2.5l2.3,2l2.5,1.7l2.8,1.3l2.9,0.8l3,0.3l2.9-0.3l2.9-0.7l2.6-1.2l2.4-1.6l2-2.1l1.6-2.4l1.2-2.6l0.7-2.9
	l0.2-2.9l-0.3-3L564,827.4 M283.4,1481.2l-0.7,1.6l-0.8,2.8l-0.3,3l0.3,3l0.7,2.9l1.2,2.8l1.6,2.6l2.1,2.3l2.4,2l2.6,1.5l2.8,1.1
	l3,0.6l3,0.1l2.9-0.4l2.8-0.8l0.5-0.3 M63.4,772.4l-0.5,0.8l-1.3,2.7l-0.7,2.8l-0.3,2.9l0.2,3l0.7,3l1.2,2.8l1.7,2.6l2,2.3l2.4,1.9
	l2.6,1.6l2.9,1.1l2.9,0.6l3,0.1l2.9-0.4l2.8-0.9l2.3-1.2 M145,741.3l55.6-3.4 M215.3,761.6l-1.6,2.2l-1.2,2.6l-0.8,2.8l-0.3,3l0.2,3
	l0.7,2.9l1.3,2.8l1.6,2.6l2,2.3l2.4,2l2.7,1.5l2.8,1.1l2.9,0.6l3,0.1l2.9-0.4l2.8-0.8l2.6-1.4l1.1-0.8 M273.2,848.2l-6.5-66.9
	 M333.5,1461.2L307.7,1198 M263.5,773.5L263.5,773.5 M330.9,1460.9l-67.4-687.4 M263.5,773.5l-0.9-4.5l-1.4-4.4l-1.9-4.1l-2.3-4
	l-2.8-3.7l-3.2-3.4l-3.6-2.9l-3.9-2.6l-4.1-2.1l-4.3-1.6l-4.4-1l-4.5-0.6h-4.4 M143.8,743.5l78-4.9 M259.1,1477l-0.6-11.6l-1.7-25.6
	l-2.2-25.6l-2.7-25.6l-3.2-25.5l-3.6-25.5l-4.2-25.5l-4.7-25.4l-5.1-25.4l-5.6-25.3l-6.1-25.2l-6.6-25.1l-7.1-25.1l-7.5-24.9
	l-8-24.8l-8.5-24.6l-9-24.6l-9.4-24.4l-9.8-24.2L143.1,989l-10.8-23.8l-11.2-23.8l-11.7-23.5l-12.1-23.3l-12.5-23.1l-13-22.9
	l-13.4-22.7l-5.2-8.6 M62.1,773.4l-1.5,2.1l-1.3,2.6l-0.8,2.8l-0.3,3l0.3,3l0.7,2.9l1.2,2.8l1.6,2.6l2.1,2.3l2.4,2l2.6,1.5l2.8,1.1
	l3,0.6l3,0.1l2.9-0.4l2.8-0.9l2.5-1.3l1.1-0.8 M282,1481.8l-0.4,0.6l-1.2,2.6l-0.8,2.8l-0.3,2.9l0.2,3l0.8,3l1.2,2.8l1.6,2.6
	l2.1,2.3l2.3,1.9l2.7,1.6l2.8,1.1l3,0.6l2.9,0.1l3-0.4l2.7-0.9l2-1 M244.1,775.7l-0.4-3l-1-2.8l-1.4-2.8l-1.9-2.4l-2.2-2.2l-2.5-1.7
	l-2.8-1.3l-2.9-0.9l-3-0.4l-2.9,0.2l-2.9,0.6l-2.6,1.2l-2.5,1.5l-2,2l-1.7,2.4l-1.3,2.6l-0.7,2.8l-0.3,2.9l0.2,3l0.7,3l1.2,2.8
	l1.7,2.6l2,2.3l2.4,1.9l2.6,1.6l2.9,1.1l2.9,0.6l3,0.1l2.9-0.4l2.8-0.9l2.5-1.4l2.3-1.7l1.9-2.2l1.5-2.5l1-2.7l0.5-2.9V775.7
	 M544.5,298.3l-1.9,1.8 M355.2,72l-1.2,2l-1,2.7l-0.6,2.9v2.9l0.5,3l0.9,2.9l1.4,2.7l1.9,2.5l2.2,2.1l2.5,1.8l2.7,1.4l2.9,0.8l3,0.4
	l2.9-0.1l2.9-0.6l2.7-1.2l1.1-0.6 M577.4,291.8l-1.2,2l-1,2.7l-0.6,2.9v3l0.4,3l1,2.8l1.4,2.8l1.8,2.4l2.2,2.2l2.5,1.8l2.8,1.3
	l2.9,0.9l3,0.4l2.9-0.2l2.9-0.6l2.7-1.1l1.1-0.6 M395.1,56.9l-3.4-2.9l-3.6-2.6l-3.9-2.2l-4.1-1.7l-4.2-1.2l-4.3-0.8l-4.3-0.2
	l-4.3,0.2l-4.2,0.8l-4,1.3l-3.9,1.7l-3.5,2.1l-3.3,2.6l-0.9,0.9 M618.8,330l2-2.1l2.6-3.3l2.1-3.6l1.7-3.9l1.1-4.1l0.7-4.2l0.2-4.3
	l-0.3-4.3l-0.8-4.3l-1.3-4.3l-1.7-4l-2.2-3.9l-2.7-3.6l-3-3.3 M617.2,276.8l-2.3,2.2 M617.2,276.8L395.1,56.9 M395.1,56.9l-2.4,2.3
	 M542.6,300.2l8.6-9.4 M564.2,276.7L564,277l-0.3,0.3l-0.3,0.2 M614.9,279.1L392.7,59.3 M392.7,59.3l-3.3-3l-3.6-2.6l-3.9-2.1
	l-4.1-1.7l-4.2-1.3l-4.3-0.7l-4.3-0.3l-4.3,0.3l-4.2,0.8l-4.1,1.2l-3.8,1.7l-3.6,2.2l-3.3,2.6l-0.8,0.8 M538.8,304.8L410.9,178.3
	 M613.7,334.8l1.9-1.6l2.9-3l2.6-3.3l2.1-3.6l1.6-3.9l1.2-4l0.7-4.3l0.2-4.3l-0.3-4.3l-0.8-4.3l-1.3-4.2l-1.7-4.1l-2.3-3.8l-2.6-3.7
	l-3-3.3 M353.8,73l-0.6,0.8l-1.5,2.5l-1,2.7l-0.6,2.9v3l0.4,3l1,2.8l1.4,2.8l1.8,2.4l2.2,2.2l2.5,1.8l2.8,1.3l2.9,0.9l3,0.4l2.9-0.2
	l2.9-0.6l2.7-1.1L379,99 M576,292.8l-0.6,0.9l-1.5,2.5l-1.1,2.7l-0.5,2.9l-0.1,2.9l0.5,3l1,2.9l1.4,2.7l1.8,2.5l2.2,2.1l2.5,1.8
	l2.8,1.4l2.9,0.8l2.9,0.4l3-0.1l2.9-0.6l2.6-1.2l2.5-1.5 M600,384.1l2.8-3l2.4-3.4l2-3.7l1.5-4l1.1-4.1l0.3-1.7 M443.8,57.6l-1.3,2
	l-1.3,2.5l-0.9,2.9l-0.3,2.9l0.2,3l0.7,2.9l1.1,2.8l1.6,2.7l2.1,2.3l2.3,2l2.6,1.6l2.9,1.1l2.9,0.7l3,0.1l2.9-0.3l2.8-0.9l2.6-1.3
	l1.3-0.9 M491.9,57.7l-1.9-4l-2.3-3.8l-2.8-3.6l-3.1-3.2l-3.4-2.9l-3.7-2.4l-3.9-2.1l-4.2-1.6l-4.2-1.1l-4.3-0.6l-4.3-0.1l-4.3,0.4
	l-4.2,0.9l-3.9,1.4l-3.8,1.8l-3.5,2.3l-3.2,2.7l-0.1,0.1 M555.8,216L491.9,57.7 M590.8,302.9l-0.6-1.5 M491.9,57.7l-2.3,2.2
	 M550.4,210.7L489.6,59.9 M489.6,59.9l-1.9-4l-2.4-3.8l-2.7-3.5l-3.1-3.3l-3.4-2.8l-3.7-2.5l-4-2l-4.1-1.6l-4.2-1.1l-4.3-0.6
	l-4.4-0.1l-4.2,0.4l-4.2,0.8l-4,1.4l-3.7,1.9l-3.5,2.3l-3.2,2.7l-2.9,3l-2.4,3.4l-2,3.7l-1.5,4l-1.1,4.1l-0.5,4.2l-0.1,4.4l0.5,4.3
	l0.9,4.3l0.8,2.5 M519.1,327.1l-28-69.5 M561.4,393.9l0.5,0.2l4.2,1.1l4.3,0.6l4.3,0.1l4.3-0.4l4.2-0.9l4-1.4l3.7-1.8l3.5-2.3
	l3.2-2.7l2.8-3.1l2.5-3.4l2-3.7l1.5-3.9l1-4.1l0.2-0.9 M472.7,74.9l0.1-3l-0.5-2.9l-0.9-2.9l-1.4-2.8l-1.8-2.4l-2.2-2.2l-2.5-1.8
	l-2.7-1.4l-2.9-0.9l-3-0.4l-2.9,0.1l-2.9,0.6l-2.7,1.1l-2.4,1.5l-2.1,2l-1.8,2.3l-1.3,2.6l-0.8,2.8l-0.3,2.9l0.2,3l0.7,3l1.1,2.8
	l1.6,2.6l2,2.3l2.4,2l2.6,1.6l2.8,1.2l3,0.6l2.9,0.2l3-0.4l2.8-0.8l2.5-1.4l2.3-1.7l1.9-2.1l1.6-2.5l1-2.7L472.7,74.9 M892,1466.2
	l-1.3,2.3l-1,2.8l-0.5,2.9l0.1,2.9l0.5,3l1,2.9l1.5,2.7l1.9,2.4l2.2,2.1l2.5,1.7l2.8,1.3l2.9,0.8l3,0.3l3-0.2l2.8-0.7l2.6-1.1
	l0.8-0.5 M933.5,1504.4l2.3-2.5l2.5-3.3l2-3.7l1.7-3.9l1.1-4.1l0.6-4.2l0.2-4.3l-0.4-4.3l-0.8-4.3l-1.4-4.2l-1.8-4.1 M508.2,719.7
	l-1.3,2.4l-1,2.7l-0.4,2.9v3l0.5,3l1,2.9l1.5,2.6l1.9,2.5l2.2,2.1l2.6,1.7l2.7,1.3l2.9,0.8l3,0.3l3-0.2l2.8-0.7l2.7-1.1l0.7-0.5
	 M661.9,921.6l277.6,539.9 M939.5,1461.5l-2.3,2.3 M661.9,921.6l-2.3,2.3 M661.9,921.6l5.3-5.8l5-6.2l4.5-6.5l4.1-6.7l3.7-7.1
	l3.2-7.3l2.7-7.4l2.3-7.7l1.9-7.9l1.3-7.9l0.9-8.1l0.3-8.1l-0.1-8.2l-0.6-8.2l-1.1-8.1l-1.6-8.2l-2.1-8l-2.6-7.9l-3-7.8l-3.4-7.7
	l-3.9-7.4l-4.3-7.3l-4.8-6.9l-5.1-6.8L659,736l-5.9-6.1l-6.1-5.7l-6.5-5.4l-6.8-5.1l-7.1-4.6l-7.2-4.2l-7.5-3.8l-7.7-3.3l-7.8-2.9
	l-8-2.4l-8-1.9l-8.1-1.5l-8.2-0.9l-8.2-0.5h-8.1l-3.7,0.2 M769.2,1295.1l83.4,162.1 M931,1506.7l2.4-2.5l2.4-3.4l2.1-3.6l1.6-3.9
	l1.2-4.1l0.6-4.2l0.2-4.3l-0.4-4.4l-0.9-4.3l-1.3-4.2l-1.8-4 M659.5,923.9l277.6,539.9 M659.5,923.9l5.3-5.8l4.9-6.2l4.6-6.5
	l4.1-6.8l3.6-7l3.2-7.3l2.8-7.5l2.3-7.7l1.8-7.8l1.4-8l0.8-8l0.4-8.2l-0.1-8.1l-0.7-8.2l-1.1-8.2l-1.6-8.1l-2-8.1l-2.6-7.9l-3-7.8
	l-3.5-7.6l-3.9-7.5l-4.3-7.2l-4.7-7l-5.1-6.7l-5.5-6.4l-5.9-6.1l-6.2-5.8L638,721l-6.7-5l-7.1-4.6l-7.3-4.2l-7.5-3.8l-7.6-3.3
	l-7.9-2.9l-7.9-2.4l-8.1-2l-8.1-1.4l-8.1-1l-8.2-0.5l-8.1,0.1h-0.7 M570.2,766.3l2.8,0.7l5.3,1.9l5.2,2.3l4.9,2.7l4.7,3.2l4.5,3.6
	l4.1,3.9l3.8,4.2l3.4,4.6l3,4.8l2.6,5.1l2.2,5.2l1.7,5.3l1.2,5.5l0.7,5.5l0.2,5.5l-0.3,5.5l-0.7,5.4l-1.3,5.3l-1.7,5.1l-2.2,4.9
	l-2.7,4.7l-3,4.3l-3.5,4.1l-0.7,0.7 M506.9,720.7l-0.9,1.1l-1.4,2.5l-1,2.8l-0.5,2.9v3l0.6,2.9l1,2.9l1.5,2.7l1.8,2.4l2.3,2.1
	l2.5,1.8l2.8,1.2l2.9,0.9l3,0.3l2.9-0.2l2.9-0.7l2.6-1.2l2.1-1.4 M890.7,1467.1l-0.9,1.1l-1.4,2.6l-1,2.7l-0.5,2.9v3l0.6,3l1,2.8
	l1.4,2.7l1.9,2.4l2.3,2.2l2.5,1.7l2.8,1.3l2.9,0.8l3,0.3l2.9-0.2l2.9-0.7l2.6-1.2l2.1-1.4 M379.2,1489.2l-0.9,2.6l-0.5,3l0.1,2.9
	l0.5,3l1.1,2.9l1.5,2.6l1.9,2.5l2.3,2l2.5,1.7l2.8,1.3l2.9,0.8l3,0.3l2.9-0.3l2.9-0.7l0.6-0.2 M422.2,1524.8l2.7-3l2.5-3.4l2-3.7
	l1.5-3.9l1-4.1l0.6-4.3l0.1-4.3l-0.5-4.3 M287.2,842l-4,1l-3.9,1.4l-3.7,1.9l-2.4,1.7 M338,905.8l94.1,588 M432.1,1493.8l-2.3,2.2
	 M287.2,842l5.3-1.2l5.1-1.7l4.9-2.2l4.7-2.6l4.3-3l3.6-3 M287.2,842l-2.3,2.2 M250.8,671.6l-0.4,0.7l-1.5,2.5l-0.9,2.8l-0.5,2.9
	l0.1,3l0.6,2.9l1,2.9l1.5,2.7l1.9,2.4l2.3,2.1l2.5,1.7l2.8,1.2l2.9,0.8l3,0.3l3-0.2l2.8-0.8l2.6-1.2l1.3-0.8 M330.2,663l-4.2-2.2
	l-7.6-3.5l-2.9-1.2 M369.8,882.5l0.3-0.2l1-1.1 M304.5,1178.4l45.5,284.3 M417.7,1529l2.1-1.9l2.8-3l2.4-3.4l2-3.7l1.6-4l1-4.1
	l0.6-4.2v-4.4l-0.4-4.3 M335.5,907l94.3,589 M331.4,667.2l-0.2-0.1l-7.4-4l-7.6-3.5l-2.3-1 M335.5,907l7-3.6l6.8-4.1l6.5-4.6
	l6.1-4.9l5.9-5.3l3.3-3.4 M287.5,726.3l5,2.1l5,2.6l4.8,3l4.6,3.4l4.2,3.8l3.9,4.2l3.6,4.4l3.1,4.8l2.8,4.9l2.3,5.2l1.8,5.3l1.4,5.5
	l0.8,5.5l0.4,5.5L331,792l-0.6,5.4l-1.1,5.3l-1.5,5.2l-2.1,5l-2.5,4.7l-2.9,4.5l-3.3,4.1l-3.7,3.9l-4.1,3.4l-4.4,3l-4.6,2.7
	l-4.9,2.1l-5.1,1.7l-5.2,1.2 M272.2,849.3l1.2-0.7l3.7-1.9l3.8-1.5l4.1-1 M249.6,672.6l-1.6,1.9l-1.4,2.6l-0.9,2.7l-0.5,2.9l0.1,3
	l0.5,3l1.1,2.8l1.5,2.7l1.9,2.4l2.2,2.1l2.6,1.7l2.8,1.3l2.9,0.8l3,0.2l2.9-0.2l2.9-0.7l2.6-1.2l2.4-1.7l0.2-0.2 M377.7,1489.9
	l-0.7,1.4l-0.9,2.8l-0.5,2.9l0.1,3l0.5,3l1,2.8l1.5,2.7l2,2.4l2.2,2.1l2.6,1.7l2.8,1.2l2.9,0.8l3,0.3l2.9-0.2l2.8-0.7l2.2-1
	 M399.4,334.7l-0.2-3l-0.8-2.9l-1.2-2.8l-1.7-2.6l-2-2.3l-2.4-1.9l-2.7-1.6l-2.8-1l-3-0.6l-3-0.1l-2.9,0.4l-2.7,0.9l-2.6,1.4
	l-2.2,1.8l-1.9,2.2l-1.4,2.5l-1,2.8l-0.5,2.9v2.9l0.5,3l1,2.9l1.4,2.7l1.9,2.4l2.2,2.2l2.6,1.7l2.7,1.3l2.9,0.8l3,0.4l3-0.2l2.8-0.7
	l2.7-1.1l2.4-1.6l2-2l1.7-2.4l1.2-2.6l0.8-2.9L399.4,334.7 M602.9,372.2l1.9-1.8 M592.5,301.9l-1.4,1.4 M68.6,1529.4l-2.4,2.3
	 M185,1560.1l1.1-1.1 M162.9,1532.6l-2.3,2.3 M640.5,1623.4l-2.3,2.3 M742,1621.2l1.1-1.1 M719.9,1593.7l-2.3,2.3 M100.2,815.2
	l2.3-2.3 M244.6,242.2l-2.2,2.2 M328.2,420.3l-0.1,0.1 M457.9,510.3l2.4-2.2 M563.4,277.4l-2.3,2.2 M722.2,1591.4l-2.3,2.2
	 M739.5,1584.7l-2.3,2.3 M958.9,1585l2.3-2.2 M928.8,1508.8l2.3-2.2 M165.2,1530.3l-2.3,2.2 M189.6,1529.1l-2.5,2.5 M267.2,1467.2
	l-2.3,2.2 M410.4,1612.9l2.4-2.3 M413.5,1533.1l2.3-2.2 M408.6,361l2.3-2.2 M340.9,57.1l-2.4,2.3 M435.9,334.7l0.1-0.1 M433.2,39.5
	l-2.4,2.3 M839,1542.4l2.3-2.2 M383.9,853.7l-2.4,2.3 M343.2,54.9l-2.3,2.2 M616.5,332.3l2.3-2.3 M597.7,386.2l2.3-2.2 M430.8,41.8
	l-2.3,2.2 M931,1506.6l2.4-2.3 M419.8,1527l2.4-2.3 M367.5,884.7l2.3-2.3"/>
</svg>
