<?xml version="1.0" encoding="utf-8"?>
<!-- Generator: Adobe Illustrator 27.2.0, SVG Export Plug-In . SVG Version: 6.00 Build 0)  -->
<svg version="1.1" id="Layer_1" xmlns="http://www.w3.org/2000/svg" xmlns:xlink="http://www.w3.org/1999/xlink" x="0px" y="0px"
	 viewBox="0 0 91.2 142.6" style="enable-background:new 0 0 91.2 142.6;" xml:space="preserve">
<style type="text/css">
	.st0{fill:#FFFFFF;stroke:#000000;stroke-miterlimit:10;}
	.st1{fill:none;stroke:#000000;stroke-width:0.324;stroke-linecap:round;stroke-linejoin:round;stroke-miterlimit:10;}
</style>
<rect class="st0" width="91.2" height="142.6"/>
<g>
	<line class="st1" x1="59.1" y1="59.7" x2="58.4" y2="60.1"/>
	<polyline class="st1" points="60.5,59.4 60.1,59.4 59.5,59.5 59.3,59.6 	"/>
	<polyline class="st1" points="62.9,60.1 62.5,59.8 62,59.6 61.4,59.4 61.3,59.4 	"/>
	<polyline class="st1" points="58.4,60.1 58.3,60.3 58.2,60.6 	"/>
	<polyline class="st1" points="63.1,60.6 63.1,60.3 62.9,60.1 	"/>
	<line class="st1" x1="63.1" y1="61" x2="63.1" y2="60.6"/>
	<path class="st1" d="M58.2,60.6v0.5v0.1c0.1,0.6,1.5,0.9,2,0.8l0.5,0.1l0.5-0.1c0.5,0.1,1.8-0.2,1.9-0.7v-0.1"/>
	<polyline class="st1" points="54.1,64.6 53.9,64.6 53.3,65 	"/>
	<polyline class="st1" points="55.5,64.2 55.1,64.2 54.4,64.4 54.2,64.5 	"/>
	<polyline class="st1" points="57.8,64.9 57.5,64.7 56.9,64.5 56.3,64.3 56.2,64.3 	"/>
	<polyline class="st1" points="53.4,65 53.2,65.2 53.2,65.4 	"/>
	<polyline class="st1" points="58.1,65.4 58,65.2 57.8,65 	"/>
	<line class="st1" x1="58.1" y1="65.9" x2="58.1" y2="65.4"/>
	<path class="st1" d="M53.2,65.4v0.5V66c0.2,0.7,1.4,0.7,2,0.8h0.5h0.5c0.7-0.2,1.5,0,1.9-0.8v-0.1"/>
	<polyline class="st1" points="16.5,61.9 16.2,62.1 15.8,62.4 	"/>
	<polyline class="st1" points="17.9,61.6 17.5,61.6 16.8,61.8 16.6,61.9 	"/>
	<polyline class="st1" points="20.3,62.4 19.9,62.1 19.4,61.8 18.8,61.6 18.6,61.6 	"/>
	<polyline class="st1" points="15.8,62.4 15.6,62.6 15.5,62.8 	"/>
	<polyline class="st1" points="20.5,62.8 20.4,62.6 20.3,62.4 	"/>
	<line class="st1" x1="20.5" y1="63.3" x2="20.5" y2="62.8"/>
	<line class="st1" x1="15.5" y1="62.8" x2="15.5" y2="63.3"/>
	<path class="st1" d="M15.6,63.3L15.6,63.3l0.1,0.3l0.1,0.1l0.2,0.1l0.3,0.1l0.4,0.1l0.3,0.1l0.3,0.1h0.8h0.5c0.7-0.1,1.6-0.1,2-0.7
		v-0.2"/>
	<polyline class="st1" points="21.5,57.1 21.3,57.2 20.8,57.6 	"/>
	<polyline class="st1" points="22.4,56.8 21.9,56.9 21.6,57 	"/>
	<polyline class="st1" points="20.8,57.5 20.6,57.7 20.6,58 20.6,58.4 	"/>
	<polyline class="st1" points="20.6,58.4 20.6,58.5 20.7,58.7 20.8,58.9 21,59 21.3,59.1 21.7,59.2 22,59.2 22.3,59.3 22.4,59.3 	
		"/>
	<line class="st1" x1="54.6" y1="111.1" x2="55.4" y2="110.3"/>
	<line class="st1" x1="51.5" y1="106.3" x2="50.7" y2="107.1"/>
	<line class="st1" x1="60.8" y1="107.1" x2="61.8" y2="106.1"/>
	<line class="st1" x1="52.8" y1="99.3" x2="51.6" y2="100.4"/>
	<line class="st1" x1="61" y1="111.9" x2="62.1" y2="110.8"/>
	<line class="st1" x1="48.3" y1="101.5" x2="47.3" y2="102.6"/>
	<line class="st1" x1="60.5" y1="113.3" x2="60.8" y2="113"/>
	<line class="st1" x1="49.1" y1="100.9" x2="48.7" y2="101.2"/>
	<line class="st1" x1="57.7" y1="115.5" x2="58.8" y2="114.5"/>
	<line class="st1" x1="46.7" y1="106.1" x2="45.6" y2="107.2"/>
	<line class="st1" x1="53" y1="115.9" x2="54" y2="114.8"/>
	<path class="st1" d="M56.3,18.7v-0.4c-0.5-1.8-1.4-2.1-2.9-2.9l-0.3-0.1"/>
	<line class="st1" x1="56.3" y1="62.6" x2="56.3" y2="18.7"/>
	<line class="st1" x1="50.9" y1="16.2" x2="48.3" y2="13.8"/>
	<line class="st1" x1="31.8" y1="13.8" x2="29.1" y2="16.2"/>
	<polyline class="st1" points="48.2,13.7 47.8,13.3 46.7,12.9 46.2,12.7 45.5,12.5 45.3,12.4 	"/>
	<polyline class="st1" points="34.7,12.4 34.2,12.6 33.6,12.7 33.1,13 32.6,13.2 32.2,13.4 31.8,13.7 	"/>
	<polyline class="st1" points="34.7,12.6 34.7,12.8 34.6,13 34.5,13.1 34.5,13.2 	"/>
	<polyline class="st1" points="45.5,13.2 45.5,13.1 45.5,13 45.4,12.9 45.3,12.6 45.3,12.6 	"/>
	<path class="st1" d="M40,6l-0.7,0.1c-1.5,0-4.3,0.3-4.6,2.2v0.2"/>
	<path class="st1" d="M45.3,8.5V8.3c-0.4-2-3.2-2-4.8-2.2H40"/>
	<line class="st1" x1="34.7" y1="8.5" x2="34.7" y2="12.6"/>
	<line class="st1" x1="45.3" y1="12.6" x2="45.3" y2="8.5"/>
	<path class="st1" d="M31.5,13.8L31,13.9c-2.3,0.4-8.5,1.4-8.6,4.6v0.2v43.8"/>
	<line class="st1" x1="58.8" y1="67.6" x2="58.8" y2="66.3"/>
	<line class="st1" x1="57" y1="63.9" x2="57" y2="62.6"/>
	<line class="st1" x1="14.9" y1="63.6" x2="14.9" y2="65"/>
	<polyline class="st1" points="53.1,15.4 52.7,15.2 52.2,15.1 51.9,15.1 51.6,15 51.5,15 49.5,14.9 	"/>
	<line class="st1" x1="21.6" y1="62.4" x2="21.6" y2="63"/>
	<line class="st1" x1="31.7" y1="13.8" x2="31.5" y2="13.8"/>
	<line class="st1" x1="63.8" y1="62.7" x2="63.8" y2="61.3"/>
	<line class="st1" x1="19.9" y1="58.8" x2="19.9" y2="60.1"/>
	<line class="st1" x1="63" y1="115.4" x2="63.2" y2="115.2"/>
	<line class="st1" x1="47" y1="98.4" x2="46.8" y2="98.5"/>
	<line class="st1" x1="58.8" y1="74.4" x2="58.8" y2="67.6"/>
	<line class="st1" x1="71.6" y1="123.8" x2="73.8" y2="121.7"/>
	<line class="st1" x1="60.4" y1="84" x2="62.6" y2="81.9"/>
	<line class="st1" x1="54.8" y1="77.9" x2="54.7" y2="78.1"/>
	<line class="st1" x1="57" y1="64.5" x2="57" y2="63.9"/>
	<line class="st1" x1="38.7" y1="89.5" x2="38.6" y2="89.7"/>
	<line class="st1" x1="76" y1="124.1" x2="77.6" y2="122.4"/>
	<line class="st1" x1="14.9" y1="65" x2="14.9" y2="73.2"/>
	<line class="st1" x1="7.4" y1="50.7" x2="7.4" y2="63.6"/>
	<line class="st1" x1="63.8" y1="70.9" x2="63.8" y2="62.7"/>
	<line class="st1" x1="55.5" y1="135.5" x2="60.1" y2="131"/>
	<line class="st1" x1="49.9" y1="129.3" x2="49.7" y2="129.5"/>
	<line class="st1" x1="25.3" y1="104.3" x2="25.4" y2="104.1"/>
	<line class="st1" x1="19.7" y1="98.2" x2="19.5" y2="98.4"/>
	<line class="st1" x1="17.9" y1="61.3" x2="17.9" y2="48.7"/>
	<line class="st1" x1="19.9" y1="60.1" x2="19.9" y2="61.5"/>
	<path class="st1" d="M62.9,60.2L62.9,60.2l0.1,0.2l-0.2,0.1c-0.8,0.6-3.4,0.5-4.3,0.1l-0.2-0.1v-0.2l0.1-0.1"/>
	<polyline class="st1" points="63.1,60.6 63.1,60.6 63,60.8 62.8,60.9 62.4,61.1 62,61.1 61.4,61.2 60.9,61.2 60.3,61.2 59.8,61.2 
		59.2,61.1 58.8,61 58.5,60.9 58.3,60.8 58.2,60.6 	"/>
	<polyline class="st1" points="63.1,61.1 63.1,61.1 62.9,61.3 62.7,61.4 62.3,61.5 61.9,61.6 61.3,61.6 60.2,61.6 59.1,61.5 
		58.7,61.4 58.4,61.3 58.2,61.2 58.2,61.1 	"/>
	<polyline class="st1" points="57.9,65 58,65.1 58,65.3 57.8,65.4 57.5,65.6 57.2,65.6 56.8,65.7 56.2,65.8 55.1,65.8 54.6,65.7 
		54.2,65.7 53.8,65.6 53.5,65.4 53.3,65.3 53.3,65.1 53.3,65 	"/>
	<polyline class="st1" points="58.1,65.4 58.1,65.5 58,65.6 57.7,65.8 57.4,65.9 56.9,66 55.9,66.1 55.3,66.1 54.2,66 53.8,65.9 
		53.5,65.7 53.2,65.6 53.2,65.4 	"/>
	<polyline class="st1" points="58.1,65.9 58.1,66 57.9,66.1 57.7,66.3 57.2,66.4 56.8,66.5 56.3,66.5 55.1,66.5 54.5,66.4 
		54.1,66.4 53.7,66.3 53.4,66.1 53.2,66 53.2,65.9 	"/>
	<polyline class="st1" points="20.3,62.4 20.4,62.5 20.4,62.7 20.2,62.8 20,62.9 19.6,63 18.7,63.1 17,63.1 16.6,63 16.2,63 
		15.9,62.8 15.7,62.7 15.7,62.5 15.8,62.4 	"/>
	<path class="st1" d="M20.5,62.8L20.5,62.8c-0.5,0.8-4.4,0.8-4.9,0.2l-0.1-0.1"/>
	<path class="st1" d="M20.5,63.3L20.5,63.3l-0.2,0.2c-0.9,0.6-3.9,0.6-4.7-0.1l-0.1-0.2"/>
	<polyline class="st1" points="22.4,58.3 22.1,58.2 21.6,58.2 21.2,58 20.9,57.9 20.7,57.8 20.7,57.7 20.8,57.6 	"/>
	<polyline class="st1" points="22.4,58.6 22.2,58.5 21.7,58.5 21.2,58.4 20.9,58.3 20.6,58 	"/>
	<polyline class="st1" points="22.4,59 22,59 21.5,58.9 21.1,58.8 20.8,58.7 20.6,58.5 20.6,58.4 	"/>
	<path class="st1" d="M56.3,18.8l-0.1,0.3c-0.6,2-5.7,2.9-7.4,3.2l-1.3,0.2"/>
	<polyline class="st1" points="53.2,15.4 53,15.3 52.9,15.3 52.6,15.3 	"/>
	<path class="st1" d="M29.2,16.2l-0.3,0.3C27.2,21,53.6,20.9,51,16.3l-0.1-0.1"/>
	<polyline class="st1" points="50.3,15.6 50.8,15.9 51.6,16.3 52.1,16.8 52.3,17.2 52.3,17.7 51.9,18.2 51.3,18.6 50.5,19 
		49.3,19.5 48,19.8 46.4,20.1 44.7,20.3 43,20.5 41.2,20.5 	"/>
	<polyline class="st1" points="28.2,16.5 28.8,16.1 29.6,15.7 29.8,15.6 	"/>
	<line class="st1" x1="51.4" y1="15.1" x2="49.6" y2="15"/>
	<path class="st1" d="M48.3,13.8l0.1,0.1c2,3.6-19.1,3.5-16.7-0.1l0.1-0.1"/>
	<polyline class="st1" points="32.8,13.5 33.2,13.1 34,12.8 34.4,12.6 34.7,12.6 	"/>
	<path class="st1" d="M45.4,12.6l0.3,0.1c8.4,3.2-13.3,4.8-13.1,1.1l0.2-0.3"/>
	<polyline class="st1" points="33.5,13.5 34,13.2 34.6,12.9 34.7,12.9 	"/>
	<path class="st1" d="M45.4,12.9l0.5,0.2l0.5,0.3c1.7,1.6-3.8,2.2-4.3,2.2h-0.6l-0.7,0.1h-1.3l-1.3-0.1l-1.1-0.1L36,15.3l-1-0.2
		l-0.8-0.2l-0.5-0.4l-0.2-0.2l-0.1-0.2v-0.3l0.2-0.3"/>
	<path class="st1" d="M31.7,13.9l-1.2,0.2c-1.9,0.1-10.1,2.3-5.1,4.9l0.7,0.4"/>
	<polyline class="st1" points="45.2,12.9 45.4,12.7 45.4,12.6 	"/>
	<path class="st1" d="M34.7,12.6L34.7,12.6c0.8,1.8,8.7,1.6,10.1,0.6l0.3-0.2"/>
	<path class="st1" d="M45.4,8.5L45.4,8.5c-0.9,1.8-9.9,1.8-10.6,0l0,0"/>
	<polyline class="st1" points="24.9,20.9 24.2,20.5 23.5,20.2 23,19.8 22.7,19.5 22.4,19.1 22.4,18.7 22.4,18.6 	"/>
	<line class="st1" x1="31.6" y1="13.8" x2="31.7" y2="13.8"/>
	<polyline class="st1" points="51.5,15 51.4,15 51.4,15.1 	"/>
	<line class="st1" x1="15.8" y1="50.9" x2="15.8" y2="62.4"/>
	<line class="st1" x1="8.5" y1="50.8" x2="8.5" y2="50.4"/>
	<line class="st1" x1="10.4" y1="48.5" x2="10.4" y2="51.4"/>
	<line class="st1" x1="22.3" y1="61.3" x2="22.3" y2="60.9"/>
	<line class="st1" x1="62.9" y1="60.1" x2="62.9" y2="60.1"/>
	<polyline class="st1" points="61.3,59.4 61.2,59.4 61.3,59.4 	"/>
	<line class="st1" x1="60.8" y1="59.4" x2="61.2" y2="59.4"/>
	<polyline class="st1" points="60.8,59.4 60.5,59.3 60.3,59.4 59.9,59.4 59.2,59.7 	"/>
	<polyline class="st1" points="59,59.8 59,59.8 59,59.8 59,59.7 59.1,59.7 59.1,59.7 59.2,59.7 	"/>
	<polyline class="st1" points="59,59.8 59.7,59.6 60.1,59.6 60.1,59.8 59.9,60.2 	"/>
	<path class="st1" d="M60.5,60.3L60.5,60.3c-0.2,0-0.4,0-0.5,0l-0.1-0.1"/>
	<polyline class="st1" points="60.5,60.3 60.8,59.8 61,59.7 61.4,59.7 62.2,60 	"/>
	<polyline class="st1" points="62.3,59.8 62.3,59.9 62.3,60 62.2,60 62.2,60 62.2,60 	"/>
	<line class="st1" x1="61.6" y1="59.5" x2="62.3" y2="59.8"/>
	<line class="st1" x1="61.6" y1="59.5" x2="61.3" y2="59.4"/>
	<line class="st1" x1="60.1" y1="60.3" x2="60.1" y2="59.8"/>
	<line class="st1" x1="61.6" y1="59.5" x2="61.6" y2="59.8"/>
	<line class="st1" x1="61.3" y1="59.4" x2="61.3" y2="59.7"/>
	<line class="st1" x1="59.2" y1="59.7" x2="59.2" y2="59.8"/>
	<line class="st1" x1="61.2" y1="59.4" x2="61.2" y2="59.7"/>
	<line class="st1" x1="59.9" y1="59.4" x2="59.9" y2="59.6"/>
	<line class="st1" x1="60.3" y1="59.4" x2="60.4" y2="60.3"/>
	<line class="st1" x1="60.5" y1="59.3" x2="60.6" y2="60.1"/>
	<line class="st1" x1="60.8" y1="59.8" x2="60.8" y2="59.4"/>
	<line class="st1" x1="57.8" y1="65" x2="57.9" y2="65"/>
	<polyline class="st1" points="56.2,64.3 56.2,64.2 56.2,64.3 	"/>
	<line class="st1" x1="55.7" y1="64.3" x2="56.2" y2="64.3"/>
	<polyline class="st1" points="55.7,64.3 55.5,64.2 55.3,64.2 54.8,64.3 54.1,64.5 	"/>
	<polyline class="st1" points="53.9,64.7 53.9,64.6 54,64.6 54,64.6 54.1,64.6 54.1,64.5 	"/>
	<polyline class="st1" points="53.9,64.7 54.7,64.5 55,64.5 55.1,64.6 54.9,65.1 	"/>
	<path class="st1" d="M55.5,65.1L55.5,65.1c-0.2,0-0.4,0-0.5,0h-0.1"/>
	<polyline class="st1" points="55.5,65.1 55.7,64.7 56,64.5 56.4,64.6 57.1,64.9 	"/>
	<polyline class="st1" points="57.3,64.8 57.2,64.8 57.2,64.8 57.2,64.8 57.2,64.9 57.1,64.9 	"/>
	<line class="st1" x1="56.6" y1="64.4" x2="57.3" y2="64.8"/>
	<line class="st1" x1="56.6" y1="64.4" x2="56.2" y2="64.3"/>
	<line class="st1" x1="55.1" y1="65.1" x2="55.1" y2="64.6"/>
	<line class="st1" x1="56.6" y1="64.4" x2="56.6" y2="64.6"/>
	<line class="st1" x1="56.2" y1="64.3" x2="56.2" y2="64.6"/>
	<line class="st1" x1="54.1" y1="64.5" x2="54.1" y2="64.6"/>
	<line class="st1" x1="56.2" y1="64.2" x2="56.2" y2="64.6"/>
	<line class="st1" x1="54.8" y1="64.3" x2="54.8" y2="64.5"/>
	<line class="st1" x1="55.3" y1="64.2" x2="55.3" y2="65.1"/>
	<line class="st1" x1="55.5" y1="64.2" x2="55.6" y2="65"/>
	<line class="st1" x1="55.7" y1="64.7" x2="55.7" y2="64.3"/>
	<line class="st1" x1="20.3" y1="62.4" x2="20.3" y2="62.4"/>
	<polyline class="st1" points="18.7,61.7 18.6,61.6 18.7,61.6 	"/>
	<line class="st1" x1="18.2" y1="61.7" x2="18.6" y2="61.7"/>
	<polyline class="st1" points="18.2,61.7 17.9,61.6 17.7,61.6 17.3,61.7 16.6,61.9 	"/>
	<polyline class="st1" points="16.4,62.1 16.5,61.9 16.6,61.9 	"/>
	<polyline class="st1" points="16.4,62.1 17.1,61.9 17.4,61.9 17.5,62.1 17.3,62.5 	"/>
	<polyline class="st1" points="17.9,62.5 17.5,62.5 17.5,62.5 17.3,62.5 	"/>
	<polyline class="st1" points="17.9,62.5 18.1,62.1 18.4,61.9 18.8,62 19.6,62.3 	"/>
	<polyline class="st1" points="19.7,62.1 19.7,62.2 19.6,62.2 19.6,62.3 	"/>
	<line class="st1" x1="19" y1="61.8" x2="19.7" y2="62.1"/>
	<line class="st1" x1="19" y1="61.8" x2="18.7" y2="61.7"/>
	<line class="st1" x1="17.5" y1="62.5" x2="17.5" y2="62.1"/>
	<line class="st1" x1="19" y1="61.8" x2="19" y2="62.1"/>
	<line class="st1" x1="18.7" y1="61.7" x2="18.7" y2="61.9"/>
	<line class="st1" x1="16.6" y1="61.9" x2="16.6" y2="62"/>
	<line class="st1" x1="18.6" y1="61.6" x2="18.6" y2="61.9"/>
	<line class="st1" x1="17.3" y1="61.7" x2="17.3" y2="61.9"/>
	<line class="st1" x1="17.7" y1="61.6" x2="17.8" y2="62.5"/>
	<line class="st1" x1="17.9" y1="61.6" x2="18" y2="62.4"/>
	<line class="st1" x1="18.2" y1="62.1" x2="18.2" y2="61.7"/>
	<polyline class="st1" points="22.4,56.8 22.3,56.8 21.6,57 	"/>
	<polyline class="st1" points="21.4,57.2 21.4,57.1 21.5,57.1 21.5,57.1 21.5,57.1 21.6,57 	"/>
	<polyline class="st1" points="21.4,57.2 22.1,57 22.4,57 	"/>
	<line class="st1" x1="21.6" y1="57" x2="21.6" y2="57.1"/>
	<line class="st1" x1="22.3" y1="56.9" x2="22.3" y2="57"/>
	<path class="st1" d="M50.1,109l0.1-0.5l0.2-0.5c1.2-2.2,4.2-1.4,4.7,0.8l0.1,0.6l-0.1,0.5c-0.6,2.4-3.8,2.3-4.7,0.2l-0.2-0.6
		L50.1,109"/>
	<path class="st1" d="M55.4,109.3l-0.1,0.6l-0.2,0.5c-1.1,2.3-4.4,1.6-5-0.6l-0.1-0.6v-0.6c0.4-2.8,4-3,5.2-0.5l0.2,0.5L55.4,109.3"
		/>
	<polyline class="st1" points="56.2,108.5 56.2,109 56,109.6 55.7,110.1 55.4,110.3 	"/>
	<path class="st1" d="M51.5,106.3l0.4-0.4c1.6-1,3.9,0.2,4.2,2l0.1,0.6"/>
	<path class="st1" d="M53.7,101.8l0.1,0.5c0.3,0.8,0.7,1.1,1.4,0.5l0.4-0.5l0.5-0.4c1.4-0.9,2.1-0.3,1.9,1.3l-0.2,0.5l-0.2,0.4
		c-0.3,0.8,0,1.3,0.8,1.3l0.6-0.1h0.7c1.4,0.2,2.1,1.1,0.8,2.2l-0.5,0.4l-0.4,0.2c-0.8,0.4-0.9,0.9-0.1,1.4l0.4,0.2l0.5,0.4
		c1.1,1.1,1,2.1-0.8,2l-0.7-0.1l-0.5-0.2c-0.8-0.2-1.3,0.2-1,1l0.2,0.6l0.1,0.6c0.3,1.6-0.7,2.2-1.9,1l-0.5-0.5l-0.2-0.4
		c-0.4-0.6-1.2-0.9-1.4,0l-0.2,0.6l-0.3,0.5c-1,1.4-1.8,1.1-2.2-0.5l-0.1-0.7l0.1-0.5c-0.1-0.9-0.2-1.2-1.2-0.9l-0.5,0.3l-0.6,0.2
		c-1.5,0.4-2.2-0.3-1.4-1.7l0.4-0.5l0.6-0.7l0.1-0.2v-0.2l-0.1-0.1l-0.1-0.2l-0.2-0.1l-0.4-0.2l-0.6-0.1l-0.7-0.2
		c-1.3-0.8-1.7-1.6,0-2.2l0.7-0.2h0.5c1-0.1,1-0.5,0.6-1.3l-0.4-0.5l-0.4-0.5c-0.9-1.4-0.2-2.3,1.4-1.6l0.6,0.3l0.4,0.3
		c0.9,0.5,1.2,0.4,1.3-0.5l-0.1-0.6l0.1-0.7c0.4-1.6,1.4-1.6,2.2-0.2L53.7,101.8"/>
	<line class="st1" x1="56.6" y1="101.3" x2="55.6" y2="102.3"/>
	<polyline class="st1" points="56.6,101.3 57.1,100.8 57.7,100.5 58.1,100.4 58.4,100.4 58.6,100.5 58.8,100.6 59,100.8 59.1,101.3 
		59,102 58.9,102.7 57.8,103.7 	"/>
	<line class="st1" x1="60.1" y1="104.3" x2="59" y2="105.3"/>
	<path class="st1" d="M60.1,104.3h0.7c0.9,0,2,0.6,1.3,1.6l-0.2,0.2"/>
	<path class="st1" d="M58.9,102.7l-0.2,0.4c-0.3,0.7,0,1.3,0.8,1.2l0.6-0.1"/>
	<line class="st1" x1="54.8" y1="100.8" x2="53.7" y2="101.8"/>
	<polyline class="st1" points="54.8,100.8 54.9,101.3 55.1,101.7 55.3,101.8 55.4,102 55.6,102 55.7,102 55.9,102 	"/>
	<path class="st1" d="M52.8,99.3L52.8,99.3c1-0.4,1.1,0.3,1.7,0.9l0.3,0.6"/>
	<polyline class="st1" points="60,107.7 60,107.9 60.1,108 60.5,108.3 61,108.6 59.9,109.7 	"/>
	<polyline class="st1" points="61,108.6 61.6,109 62,109.6 62.2,110 62.3,110.3 62.3,110.5 62.2,110.7 62.1,110.8 	"/>
	<polyline class="st1" points="49.4,102.9 50.6,101.8 50.9,102.1 51.1,102.3 	"/>
	<polyline class="st1" points="58.7,112 58.9,112.4 57.8,113.5 	"/>
	<polyline class="st1" points="48.4,101.6 48.5,101.5 48.7,101.4 49.1,101.4 49.9,101.6 50.6,101.8 	"/>
	<path class="st1" d="M62.8,107.8l-0.1,1c-0.3,2.5-1.5,4.2-3.6,5.5l-0.4,0.2"/>
	<polyline class="st1" points="56.3,115.4 55.3,115.4 54.4,115.4 53.6,115.3 	"/>
	<polyline class="st1" points="51.1,114.4 50.5,114 49.7,113.4 49.4,113.2 	"/>
	<polyline class="st1" points="47.7,111.1 47.6,111 47.2,110.1 46.8,109.2 46.8,109.1 	"/>
	<polyline class="st1" points="46.4,106.4 46.4,106.2 46.6,105.2 46.8,104.3 47.1,103.5 	"/>
	<path class="st1" d="M48.4,101.6l0.5-0.6c5.2-4.5,13-0.6,13.8,5.8l0.1,1"/>
	<polyline class="st1" points="46.7,106.1 46.9,106 47.6,105.7 48.2,105.5 	"/>
	<polyline class="st1" points="54.8,113.8 54.5,114.3 54.1,114.8 54.1,114.8 	"/>
	<polyline class="st1" points="58.9,112.4 59,113.1 59.1,113.7 59,114.2 58.9,114.4 58.8,114.5 	"/>
	<path class="st1" d="M63.1,107.5l-0.1-1c-0.8-6.5-8.7-10.2-13.7-5.8l-0.2,0.2"/>
	<path class="st1" d="M60.8,113l0.2-0.2c1.2-1.3,1.8-2.6,2-4.3l0.1-1"/>
	<line class="st1" x1="48.2" y1="105.5" x2="47.2" y2="106.5"/>
	<line class="st1" x1="54.8" y1="113.8" x2="53.7" y2="114.8"/>
	<line class="st1" x1="48.1" y1="110.7" x2="47.8" y2="111"/>
	<polyline class="st1" points="45.1,22.5 45.1,66.4 54.8,67.1 54.8,68.4 	"/>
	<line class="st1" x1="17.2" y1="65.8" x2="54.8" y2="68.4"/>
	<line class="st1" x1="17.2" y1="64.4" x2="17.2" y2="65.8"/>
	<line class="st1" x1="27" y1="65.1" x2="17.2" y2="64.4"/>
	<line class="st1" x1="27" y1="21.3" x2="27" y2="65.1"/>
	<line class="st1" x1="32.6" y1="21.7" x2="27" y2="21.3"/>
	<polyline class="st1" points="40.9,22.3 39.4,22.1 37.4,21.9 35.9,21.8 34.1,21.8 32.6,21.7 	"/>
	<line class="st1" x1="45.1" y1="22.5" x2="40.9" y2="22.3"/>
	<path class="st1" d="M46.9,20.8l0.1,0.1c0.5,0.7,0.3,0.5,0.5,1.4v0.2"/>
	<path class="st1" d="M52.6,15.3l0.7,0.3c5,2.8-3.2,4.7-5.1,5l-1.3,0.2"/>
	<polyline class="st1" points="47.6,22.5 47.6,66.3 48.9,66.1 50.1,65.9 51.2,65.6 52.3,65.3 53.2,65 53.5,65 	"/>
	<polyline class="st1" points="54.8,64.3 55.3,64 55.8,63.6 56.1,63.3 56.3,62.9 56.3,62.6 	"/>
	<path class="st1" d="M47.6,22.5l-0.3,0.1c-0.7,0.1-1.2,0.1-1.9,0.1l-0.3-0.1"/>
	<path class="st1" d="M45.4,20.9L45.3,21c-0.2,0.4-0.2,0.9-0.2,1.4v0.2"/>
	<polyline class="st1" points="46.9,20.8 46.2,20.9 45.4,20.9 	"/>
	<line class="st1" x1="50.9" y1="16.2" x2="50.9" y2="16.2"/>
	<line class="st1" x1="29.2" y1="16.2" x2="29.2" y2="16.2"/>
	<polyline class="st1" points="32.9,20 35.6,20.2 38.4,20.4 41.2,20.6 	"/>
	<polyline class="st1" points="32.9,20 31.6,19.7 30.3,19.3 29.3,18.9 28.5,18.5 28,18 27.8,17.5 27.8,17 28.2,16.5 	"/>
	<polyline class="st1" points="51.4,15.1 52.1,15.2 52.6,15.3 	"/>
	<line class="st1" x1="41.2" y1="20.6" x2="45.4" y2="20.9"/>
	<path class="st1" d="M47.6,66.3l-0.3,0.1c-0.7,0.1-1.2,0.1-1.9,0.1h-0.3"/>
	<polyline class="st1" points="41.2,20.6 41,20.8 40.9,21.2 40.9,21.7 40.9,22.3 	"/>
	<line class="st1" x1="48.3" y1="13.7" x2="48.3" y2="13.8"/>
	<line class="st1" x1="31.8" y1="13.8" x2="31.9" y2="13.7"/>
	<polyline class="st1" points="32.6,21.7 32.6,21.2 32.7,20.6 32.8,20.2 32.9,20 27.4,19.6 27.3,19.7 27.2,19.8 27.1,20 27.1,20.3 
		27.1,20.5 27,20.7 27,21.3 	"/>
	<polyline class="st1" points="26.1,19.4 26.6,19.5 27.4,19.6 	"/>
	<path class="st1" d="M27,21.3l-0.4-0.1c-0.4,0-1.1-0.2-1.6-0.3h-0.1"/>
	<path class="st1" d="M26.1,19.4h-0.2c-0.6,0.3-0.8,0.7-1,1.2v0.3v43.8"/>
	<path class="st1" d="M27,65.1L26.6,65c-0.4,0-1.1-0.2-1.6-0.3h-0.1"/>
	<path class="st1" d="M43.8,7.4l-0.2,0.2l-0.4,0.1l-0.5,0.1L42,8l-0.7,0.1l-0.8,0.1h-0.8l-1.3-0.1c-0.7-0.2-1.7-0.2-2.2-0.8V7.1
		l0.1-0.2l0.2-0.2l0.4-0.2l0.5-0.2l0.7-0.1l0.7-0.1L39.6,6h0.8l0.7,0.1c1,0.1,1.8,0.1,2.7,0.7L43.9,7v0.2L43.8,7.4"/>
	<polyline class="st1" points="24.9,64.7 24.2,64.4 23.5,64.1 23,63.7 22.7,63.3 22.4,62.9 22.4,62.5 22.4,62.4 	"/>
	<polyline class="st1" points="54.8,68.4 56.1,68.4 56.7,68.4 57.4,68.3 57.9,68.2 58.3,68.1 58.6,67.9 58.7,67.7 58.8,67.6 	"/>
	<polyline class="st1" points="54.8,67.1 56.1,67.1 56.7,67 57.4,66.9 57.9,66.8 58.3,66.7 58.6,66.5 58.7,66.4 58.8,66.2 58.7,66 
		58.4,65.9 58.1,65.7 	"/>
	<polyline class="st1" points="59.8,62.2 61.1,62.2 61.8,62.1 62.4,62.1 62.9,62 63.4,61.8 63.7,61.7 63.8,61.5 63.8,61.4 
		63.7,61.2 63.5,61 63.1,60.9 	"/>
	<line class="st1" x1="56.9" y1="62" x2="59.8" y2="62.2"/>
	<path class="st1" d="M55.7,64.3L55.7,64.3c0.7-0.4,1.4-1.1,1.3-1.9L56.9,62"/>
	<line class="st1" x1="58.2" y1="60.3" x2="56.3" y2="60.2"/>
	<polyline class="st1" points="56.9,64.5 57,64.1 57,63.9 	"/>
	<polyline class="st1" points="15.5,63.1 15.3,63.2 15,63.3 14.9,63.5 14.9,63.7 14.9,63.9 15.5,64.2 16,64.3 16.6,64.3 17.2,64.4 	
		"/>
	<line class="st1" x1="21.8" y1="63" x2="20.5" y2="63"/>
	<polyline class="st1" points="22.4,61.2 21.8,61.9 21.6,62.2 21.6,62.7 21.8,63 	"/>
	<line class="st1" x1="22.2" y1="59.6" x2="22.4" y2="59.6"/>
	<polyline class="st1" points="20.6,58.2 20.4,58.3 20.1,58.5 19.9,58.6 19.9,58.8 20,59 20.6,59.3 21,59.4 21.6,59.5 22.2,59.5 	
		"/>
	<path class="st1" d="M14.9,65L14.9,65c0.2,0.5,1.3,0.7,1.7,0.7l0.6,0.1"/>
	<polyline class="st1" points="59.8,62.2 59.8,63.5 60.5,63.6 61.1,63.6 61.8,63.5 62.4,63.5 62.9,63.3 63.3,63.2 63.6,63 
		63.8,62.8 63.8,62.7 	"/>
	<line class="st1" x1="57" y1="63.3" x2="59.8" y2="63.5"/>
	<line class="st1" x1="22.2" y1="60.9" x2="22.2" y2="59.5"/>
	<line class="st1" x1="22.2" y1="60.9" x2="22.4" y2="60.9"/>
	<polyline class="st1" points="19.9,60.1 20,60.3 20.2,60.5 20.6,60.6 21,60.7 21.6,60.9 22.2,60.9 	"/>
	<path class="st1" d="M66.2,107.7l-0.1-1.2l-0.2-1.2c-2.6-12.1-20.3-13.5-22.3-0.4l-0.1,1.2l0.1,1.2c1.4,12.2,18.8,15.5,22.3,2.7
		l0.2-1.2L66.2,107.7"/>
	<path class="st1" d="M77,108.3l-0.1-1.6l-0.2-1.7l-0.3-1.6c-2.2-9.5-10-16.9-19.7-18.3L55,84.9l-1.6-0.1c-10.1,0-18.5,7.2-20,17.2
		l-0.2,1.6l-0.1,1.7l0.1,1.6c2.1,24.8,38.2,31.1,43.5,4.6l0.2-1.6L77,108.3"/>
	<line class="st1" x1="58.7" y1="74.7" x2="58.7" y2="76"/>
	<polyline class="st1" points="54.8,76.8 55.9,76.7 56.9,76.6 57.8,76.4 58.4,76.2 58.7,76.1 	"/>
	<line class="st1" x1="54.8" y1="68.4" x2="54.8" y2="76.8"/>
	<polyline class="st1" points="58.8,67.6 58.7,67.7 58.6,67.9 58.3,68.1 57.9,68.2 57.4,68.3 56.7,68.4 56.1,68.4 54.8,68.4 	"/>
	<polyline class="st1" points="58.7,74.7 58.8,74.5 58.8,74.4 	"/>
	<line class="st1" x1="22.3" y1="60.9" x2="22.4" y2="60.9"/>
	<polyline class="st1" points="19.9,60.1 20,60.3 20.2,60.5 20.6,60.6 21.1,60.7 21.7,60.9 22.3,60.9 	"/>
	<polyline class="st1" points="63.8,62.7 63.8,62.9 63.7,63 63.4,63.2 62.9,63.3 62.4,63.5 61.8,63.5 61.1,63.6 60.5,63.6 
		59.8,63.5 	"/>
	<line class="st1" x1="57.1" y1="63.3" x2="59.8" y2="63.5"/>
	<polyline class="st1" points="56.9,64.5 57,64.1 57.1,63.9 	"/>
	<line class="st1" x1="17.2" y1="65.8" x2="54.8" y2="68.4"/>
	<path class="st1" d="M14.9,65L14.9,65c0.2,0.5,1.3,0.7,1.7,0.7l0.6,0.1"/>
	<line class="st1" x1="17.2" y1="74" x2="17.2" y2="65.8"/>
	<path class="st1" d="M41.5,81.2l1.5-0.9c2.8-1.7,6.7-3,10-3.3l1.8-0.2"/>
	<polyline class="st1" points="41.5,81.2 17.5,79.4 17.6,74.1 17.2,74 	"/>
	<path class="st1" d="M59.6,84.6l0.5-0.4l0.5-0.5c1.8-2.2,0.6-5.6-2.1-6.5L57.8,77l-0.7-0.1c-3,0.2-4.4,3-3.2,5.6l0.4,0.6l0.5,0.5"
		/>
	<path class="st1" d="M55.3,129.7l1.7,0.1c26.7-1.5,27.7-36.4,4.3-44.6l-1.6-0.5"/>
	<path class="st1" d="M50.6,128.9l-0.6,0.4l-0.5,0.5c-1.8,2.2-0.5,5.6,2,6.4l0.7,0.2l0.7,0.1c2.8,0,4.5-3.1,3.2-5.6l-0.4-0.6
		l-0.5-0.6"/>
	<path class="st1" d="M54.9,83.8h-1.7c-26.7,1.5-27.7,36.4-4.3,44.6l1.6,0.5"/>
	<polyline class="st1" points="54.2,132.6 54.1,133.1 53.9,133.4 53.6,133.7 53.3,134 52.9,134 52.4,134 52,133.8 51.6,133.6 
		51.4,133.2 51.2,132.8 51.1,132.4 51.2,132 51.4,131.6 51.6,131.3 52,131.1 52.4,131 52.9,131 53.3,131.1 53.6,131.4 53.9,131.7 
		54.1,132.2 54.2,132.6 	"/>
	<path class="st1" d="M59.1,81.2L59,81.6L58.9,82c-0.8,1.1-2.4,0.6-2.8-0.6L56,80.9l0.1-0.4c0.5-1.3,2.1-1.3,2.8-0.2l0.2,0.4V81.2"
		/>
	<path class="st1" d="M33.2,105.3l0.1-1.7l0.2-1.6l0.3-1.6c2.1-9.2,10.3-15.6,19.7-15.6l1.6,0.1l1.7,0.2c10.2,1.4,18.4,9.7,20,19.9
		l0.1,1.7l0.1,1.6l-0.1,1.6l-0.2,1.6c-1.5,9.5-8.8,16.3-18.4,17.2l-1.6,0.1l-1.7-0.1c-10.3-0.8-19.1-8.5-21.4-18.5l-0.3-1.6
		l-0.2-1.6L33.2,105.3"/>
	<path class="st1" d="M73.8,121.7l0.2-0.2C86.2,109,79.3,88.4,63.4,83L62,82.5"/>
	<line class="st1" x1="62.7" y1="72.2" x2="59.1" y2="75.7"/>
	<line class="st1" x1="63.7" y1="69.8" x2="58.7" y2="74.7"/>
	<line class="st1" x1="63.7" y1="71.2" x2="63.7" y2="69.8"/>
	<line class="st1" x1="62.7" y1="72.2" x2="63.7" y2="71.2"/>
	<line class="st1" x1="58.7" y1="76.1" x2="59.1" y2="75.7"/>
	<line class="st1" x1="59.8" y1="70.4" x2="58.8" y2="70.3"/>
	<polyline class="st1" points="59.8,70.4 61.1,70.4 61.7,70.4 62.3,70.3 62.8,70.2 63.2,70.1 63.5,69.9 63.7,69.8 	"/>
	<path class="st1" d="M61.1,79l-0.4-0.6c-1.3-1.7-4.3-2.1-5.8-0.5h-0.1"/>
	<line class="st1" x1="64.7" y1="75.5" x2="61.1" y2="79"/>
	<line class="st1" x1="63.7" y1="79.9" x2="65.3" y2="78.3"/>
	<polyline class="st1" points="62.6,81.9 62.8,81.8 63.1,81.4 63.2,81.1 63.4,80.7 63.6,80.3 63.7,79.9 	"/>
	<path class="st1" d="M66.1,76.9L66,76.2c-0.3-1.4-1.1-2.6-2.5-3.2l-0.4-0.2"/>
	<polyline class="st1" points="65.8,78.5 65.9,78.3 66.1,77.6 66.1,76.9 	"/>
	<line class="st1" x1="19" y1="103.2" x2="22.4" y2="118.3"/>
	<path class="st1" d="M19.7,98.2l0.4-0.3c3.6-2.5,8.3,2.1,5.8,5.8l-0.4,0.5"/>
	<line class="st1" x1="18.7" y1="79.5" x2="18.6" y2="99.9"/>
	<line class="st1" x1="61.1" y1="79" x2="59.1" y2="75.7"/>
	<path class="st1" d="M54.7,83.7l-1.3-0.1c-5.2,0.1-9.7,1.7-13.6,5l-1,0.9"/>
	<polyline class="st1" points="50.5,128.9 50.2,129.2 49.9,129.3 	"/>
	<line class="st1" x1="50.1" y1="135.4" x2="28.8" y2="126.1"/>
	<path class="st1" d="M22.4,118.3l0.3,1.1c0.8,2.6,2.7,4.9,5.1,6.2l1,0.5"/>
	<line class="st1" x1="64.7" y1="75.5" x2="62.7" y2="72.2"/>
	<path class="st1" d="M77.6,122.4l0.2-0.2c13.5-13.9,6.4-36.5-10.9-43.3l-1.7-0.6"/>
	<path class="st1" d="M58.8,130.7h1.8c28.9-3,29.8-40.1,4.8-50.2l-1.7-0.6"/>
	<polyline class="st1" points="58.8,130.7 58.8,130.3 58.7,129.9 58.7,129.7 	"/>
	<polyline class="st1" points="17.2,74 16.6,74 16.1,73.9 15.7,73.8 15.3,73.7 15,73.5 14.9,73.4 14.9,73.2 	"/>
	<path class="st1" d="M7.4,63.6L7.4,63.6c0.8,1.3,6.1,1.3,7.3,0.8h0.2"/>
	<path class="st1" d="M15.8,50.9l-0.3,0.2l-0.4,0.2c-0.7,0.4-2.8,0.4-3.8,0.5l-0.7-0.1l-0.7-0.1c-0.6,0-2.1-0.3-2.4-0.9v-0.2
		l0.1-0.2"/>
	<line class="st1" x1="17.8" y1="49.1" x2="15.8" y2="50.9"/>
	<line class="st1" x1="7.6" y1="50.4" x2="9.5" y2="48.5"/>
	<path class="st1" d="M17.8,49.1l0.2-0.2v-0.2l-0.2-0.2l-0.2-0.2l-0.4-0.1L16.7,48l-0.5-0.1l-0.7-0.2h-0.7H14c-1.3,0-2.6,0-3.8,0.5
		l-0.4,0.1l-0.3,0.2"/>
	<line class="st1" x1="16.9" y1="49" x2="14.9" y2="50.9"/>
	<path class="st1" d="M10.4,48.5l0.6-0.3c1-0.2,1.9-0.3,2.9-0.3h0.6l0.6,0.1l0.6,0.1l0.5,0.1l0.4,0.1l0.3,0.1l0.1,0.2v0.2L16.9,49"
		/>
	<line class="st1" x1="8.5" y1="50.4" x2="10.4" y2="48.5"/>
	<path class="st1" d="M14.9,50.9l-0.2,0.2c-1.3,0.6-5,0.8-6.1-0.1l-0.2-0.1v-0.2l0.1-0.2"/>
	<line class="st1" x1="17.8" y1="61.4" x2="17.8" y2="49.1"/>
	<line class="st1" x1="17.8" y1="61.4" x2="17.5" y2="61.7"/>
	<line class="st1" x1="59.8" y1="63.5" x2="59.8" y2="70.4"/>
	<line class="st1" x1="63.7" y1="71.2" x2="63.8" y2="71"/>
	<line class="st1" x1="22" y1="61.7" x2="17.8" y2="61.4"/>
	<line class="st1" x1="6.2" y1="62.6" x2="7.4" y2="63.3"/>
	<line class="st1" x1="9.6" y1="64.6" x2="14.9" y2="67.8"/>
	<line class="st1" x1="7.4" y1="62.7" x2="6.2" y2="62.6"/>
	<line class="st1" x1="60.1" y1="131" x2="60.3" y2="130.7"/>
	<path class="st1" d="M26.4,101.6l-0.1,0.7l-0.2,0.7c-1.7,3.7-6.9,2.8-7.7-1.2l-0.1-0.7l0.1-0.7c0.9-4.2,6.3-3.8,7.7-0.1l0.2,0.7
		L26.4,101.6"/>
	<path class="st1" d="M23.9,101.4v0.5l-0.2,0.4l-0.3,0.3l-0.4,0.2l-0.4,0.1h-0.4l-0.4-0.2l-0.4-0.2l-0.2-0.4l-0.3-0.4v-0.4l0.1-0.4
		c0.3-1.4,2.1-1.3,2.8-0.2l0.2,0.4L23.9,101.4"/>
	<line class="st1" x1="7.4" y1="61.4" x2="6.2" y2="62.6"/>
</g>
</svg>
