<?xml version="1.0" encoding="utf-8"?>
<!-- Generator: Adobe Illustrator 27.2.0, SVG Export Plug-In . SVG Version: 6.00 Build 0)  -->
<svg version="1.1" id="Layer_1" xmlns="http://www.w3.org/2000/svg" xmlns:xlink="http://www.w3.org/1999/xlink" x="0px" y="0px"
	 viewBox="0 0 285.7 202.9" style="enable-background:new 0 0 285.7 202.9;" xml:space="preserve">
<style type="text/css">
	.st0{fill:#FFFFFF;stroke:#000000;stroke-miterlimit:10;}
	.st1{fill:none;stroke:#010101;stroke-width:0.709;stroke-linecap:round;stroke-linejoin:round;stroke-miterlimit:10;}
</style>
<rect class="st0" width="285.7" height="202.9"/>
<g>
	<path class="st1" d="M167.7,85.6l-0.8,0.8 M178,83.8l2.3-2.2 M205.6,100.6l-3.7,3.6 M190.3,69.5l-3.2,3.1 M189.2,71.6l0.9-1
		 M211.3,93.2l3.6-3.5 M213.4,89.6l-1.5,1.4 M201.6,71.8l4-3.9 M58.6,161.7l-1.3,1.3 M39.1,140.2l-1.5,1.5 M58.2,161.9l-0.4,0.5
		 M38.3,141.3l0.6-0.6 M74.7,170.1l-2,1.9 M32,123.6l-2.1,2 M74.1,170.2l-1.1,1 M30.7,125.4l1.2-1.2 M92.1,174.8l-2.5,2.3
		 M28.7,105.9l-2.5,2.5 M91.4,174.7l-1.7,1.6 M26.9,108.4l1.8-1.8 M110.2,175.1l-3.2,3 M109.1,175.2l-2.2,2.1 M30,87.7L26.6,91
		 M27.4,91.2l2.3-2.3 M128.1,170.8l-4.2,4.2 M127,170.8l-3.4,3.4 M35.5,70.3l-4.4,4.3 M31.9,74.9l3.7-3.6 M143.8,163.3l-4.6,4.5
		 M143.1,162.9l-4.3,4.2 M44.1,55.5l-4.5,4.4 M40.2,60.4l4.4-4.3 M156.1,152l-4.6,4.5 M156.8,152.5l-4.7,4.5 M151.3,153.7l2.5-2.5
		 M51.9,48.6l4.6-4.5 M153.2,151.6l-0.3,0.3 M56.1,43.4L51.4,48 M57.4,46.4l-2.7,2.7 M56.6,47.7l0.5-0.5 M166.3,138l-5.1,4.9
		 M160.3,140.2l3.3-3.2 M167.2,138.2l-5.3,5.1 M66.3,40.1l5.2-5.1 M162.3,137.1l-0.9,0.9 M72.2,37.9l-3.3,3.3 M71.1,40.4l1.1-1.1
		 M88.8,33.2l-4,3.9 M87.2,36.8l1.7-1.6 M103.9,37.4l2.2-2.2 M169.1,91l-2.1,2 M164.6,91.5l2.3-2.2 M167.2,85.9l-3.3,3.2
		 M120.3,41.9l4.4-4.3 M169.5,91.2l-1.7,1.7 M177.7,76.5l-3.7,3.6 M172.1,75.6l2.1-2.1 M174.8,74.4l-1.9,1.8 M174.1,79.2l3.1-3
		 M206.1,111.1L206.1,111.1L206.1,111.1l0.1-0.2 M174.8,79.6l0.7-0.5l1.9-0.6l1.5-0.1 M178.9,78.4l1.8,0.3 M173.9,83.2l5-4.8
		 M201.3,115.7l4.9-4.8 M206.2,110.9l1.2-2.2l0.6-2.1l0.3-2.1l-0.2-1.1 M203.2,108.2l4.9-4.8 M208.1,103.4l-0.7-2.1 M179.3,61h-0.1
		h-0.1H179l-0.1,0.1h-0.1l-0.1,0.1h-0.1v0.1 M223.4,102.6L223.4,102.6 M186.9,63.9l2.6,3.3 M189.5,67.2l0.1,0.2 M184.5,72l5-4.8
		 M224.8,100.8l-0.1,0.3l-0.2,0.2l-0.2,0.2l-0.2,0.2l-0.1,0.2l-0.2,0.2l-0.2,0.2l-0.2,0.2 M218.5,107.3l4.9-4.8 M179.3,61l2.3,0.3
		l2.2,0.7l1.8,0.9l1.3,1 M179.3,61l-4.9,4.8 M181.9,68.7l5-4.8 M224.8,100.8l-4.9,4.8 M224.8,100.8L224.8,100.8l0.2-0.2v-0.2v-0.1
		v-0.1v-0.1V100 M216.3,89.9l0.1,0.3l0.2,0.3l0.3,0.2l0.3,0.2 M220,104.8l5-4.8 M225,100l-0.7-2.2l-1.1-2.1l-1.1-1.6l-1.2-1.1
		 M215.9,97.8l5-4.8 M220.9,93l-3.7-2.1 M217.2,90.9l-4.9,4.9 M202.7,64v0.4l0.1,0.3l0.1,0.4l0.2,0.3l0.2,0.3l0.3,0.2l0.3,0.2
		l0.4,0.1 M204.3,66.2l0.3,0.1l0.2,0.1l0.3,0.1l0.3,0.1l0.3,0.1l0.3,0.1l0.2,0.1l0.3,0.1 M204.3,66.2l-5,4.8 M214.5,73.9l0.2,0.2
		l0.2,0.3l0.1,0.2l0.2,0.3l0.1,0.3l0.1,0.2l0.2,0.3l0.1,0.3 M215.7,76l0.2,0.3l0.2,0.3l0.3,0.2l0.3,0.2l0.4,0.2h0.3h0.4h0.3
		 M210.7,80.8l5-4.8 M203.1,60l-0.4,4 M197.7,68.8l5-4.8 M196.4,52.5L196.4,52.5h-0.2h-0.1l-0.1,0.1l-0.1,0.1 M214.2,72.6v0.2
		l0.1,0.4l0.1,0.3l0.1,0.4 M214.5,73.9l-4.9,4.8 M196.4,52.5l0.3-0.1h0.3h0.3h0.2h0.3h0.3l0.3-0.1h0.3 M196.4,52.5l-4.9,4.8
		 M222,76.1l-3.9,1.1 M218.1,77.2l-4.9,4.8 M199.5,52.7L199.5,52.7l-0.2-0.2h-0.1l-0.1-0.1H199h-0.1l-0.1-0.1h-0.1 M193.7,57.2
		l5-4.9 M199.5,52.7l1.4,1.8l1.2,2l0.7,1.9l0.3,1.6 M199.5,52.7l-5,4.8 M198.1,64.8l5-4.8 M230.1,82.2L230.1,82.2L230.1,82.2
		l0.2-0.2v-0.1l0.1-0.1v-0.1v-0.1v-0.1 M230.1,79.2l0.1,0.3v0.3l0.1,0.3v0.3v0.2l0.1,0.3v0.3v0.3 M225.4,86.3l5-4.8 M230.1,79.2
		l-4.9,4.8 M230.1,79.2L230.1,79.2V79l-0.1-0.1v-0.1l-0.1-0.1l-0.1-0.1h-0.1v-0.1 M224.7,83.3l5-4.8 M229.7,78.5l-2.1-1.1l-2.1-0.9
		l-2-0.4H222 M217,80.9l5-4.8 M192.3,102.5l2.3,0.5h2.9l2.8-0.5l2.6-1l2.4-1.5l2-1.9l1.7-2.2l1.1-2.6l0.7-2.8l0.1-2.8l-0.4-2.9
		l-0.9-2.8l-1.4-2.6l-1.9-2.3l-2.2-2l-2.5-1.6l-2.7-1.1l-2.9-0.6h-2.9l-2.8,0.5l-2.6,1 M187.7,73.3l-2.4,1.5l-2,1.9l-1.6,2.2
		l-1.2,2.6l-0.7,2.8l-0.1,2.8l0.4,2.9 M217.5,59l-2.1,0.6l-2,0.8l-1.6,1.1l-0.3,0.4 M220.5,61.5l-0.2,2.3l-0.5,2.1l-0.8,1.8
		l-0.9,1.2 M218.4,59.2L218.4,59.2l-0.2-0.1l-0.1-0.1H218h-0.1h-0.1h-0.2h-0.1 M212.6,63.8l4.9-4.8 M220.5,61.5l-5,4.8 M220.5,61.5
		L220.5,61.5v-0.2l-0.1-0.1v-0.1V61l-0.1-0.1l-0.1-0.1l-0.1-0.1 M218.4,59.2l0.2,0.2l0.2,0.2l0.3,0.1l0.2,0.2l0.2,0.2l0.2,0.2
		l0.2,0.2l0.2,0.2 M218.4,59.2l-5,4.8 M215.2,65.5l4.9-4.8 M205.2,97.6l0.1-0.1l1.7-2.1l1.2-2.4l0.7-2.7l0.2-2.7l-0.5-2.8l-0.9-2.7
		l-1.5-2.5l-1.9-2.1l-2.3-1.7l-2.6-1.3l-2.7-0.7l-2.8-0.2l-2.7,0.4l-2.6,0.9 M188.6,74.9l-2.3,1.5l-0.9,0.8 M196.3,101.9l1.1-0.1
		l2.7-0.7l2.4-1.2l2.1-1.7l1.7-2.1l1.2-2.4l0.7-2.7l0.2-2.8l-0.5-2.7l-0.9-2.7l-1.5-2.5l-1.9-2.1l-2.3-1.7l-2.6-1.3l-2.7-0.7
		l-2.8-0.2l-2.8,0.4l-2.5,0.9 M187.9,75.6l-2.3,1.5l-1.9,1.9l-1.5,2.3l-0.9,2.5l-0.4,2.1 M207.3,98.3l0.8-0.8l1.6-2.3l1.1-2.6
		l0.7-2.7l0.1-2.9l-0.4-2.9l-0.9-2.8l-1.4-2.6l-1.8-2.3l-2.3-2l-2.5-1.6l-2.7-1.1l-2.9-0.5l-2.9-0.1l-2.8,0.5l-2.6,1 M188.4,72.6
		l-2.4,1.5l-1.2,1 M173.6,66.1l-0.2,0.2l-0.2,0.2l-0.2,0.2l-0.1,0.2l-0.2,0.2l-0.2,0.3l-0.1,0.2l-0.2,0.2 M172.2,67.8L172.2,67.8
		l-0.1,0.2l-0.1,0.1v0.1v0.1v0.1v0.1v0.1 M176.1,75.6l-1.1-0.9l-0.7-0.9l-1-1.8l-1.3-3.4 M179.8,77.7l-3.7-2.1 M179.8,77.7l0.3,0.2
		l0.3,0.2l0.2,0.3l0.1,0.4l0.2,0.3v0.4v0.3l-0.1,0.4 M180.8,80.2l-0.1,0.3l-0.1,0.2l-0.1,0.3l-0.1,0.3l-0.1,0.3v0.2l-0.1,0.3
		l-0.1,0.3 M180.1,82.4l-0.1,0.3l-0.1,0.4l-0.3,0.2l-0.2,0.3l-0.3,0.1l-0.4,0.1l-0.3,0.1l-0.4-0.1 M178,83.8l-4.1-0.6 M173.9,83.2
		l-1.4,0.1l-1,0.3l-1.8,0.8l-2.8,2 M166.9,86.4L166.9,86.4l-0.1,0.1l-0.1,0.1v0.1l-0.1,0.1v0.1V87v0.1 M166.6,87.1v0.3l0.1,0.3V88
		v0.3l0.1,0.2v0.3v0.3l0.1,0.3 M166.9,89.4L166.9,89.4v0.2l0.1,0.1v0.1l0.1,0.1l0.1,0.1l0.1,0.1h0.1 M175,92.5h-1.4l-1.1-0.1
		l-1.9-0.6l-3.2-1.7 M178.9,91.4l-3.9,1.1 M178.9,91.4h0.3h0.4h0.4l0.2,0.1 M185.5,106.8l-0.2,0.2l-0.2,0.2 M193.5,102.8l0.2,0.1
		l0.2,0.3l0.2,0.4l0.2,0.3v0.4v0.3 M194.3,104.6l-0.4,4.1 M193.9,108.7l0.2,1.4l0.4,1l0.9,1.9l2.1,2.9 M197.5,115.9l0.1,0.1l0.1,0.1
		h0.1l0.1,0.1h0.1l0.1,0.1h0.1h0.1 M198.3,116.3h0.3h0.3h0.3l0.3-0.1h0.2h0.3h0.3h0.3 M200.6,116.2L200.6,116.2l0.2-0.1h0.1l0.1-0.1
		h0.1l0.1-0.1v-0.1l0.1-0.1 M203.2,108.2l0.1,1.4l-0.1,1.1l-0.5,1.9l-1.4,3.1 M201.9,104.2l1.3,4 M201.9,104.2l-0.1-0.3v-0.4v-0.3
		l0.1-0.4l0.2-0.3l0.2-0.3l0.3-0.2l0.3-0.1 M202.9,101.9l0.3-0.2l0.2-0.1l0.3-0.1l0.2-0.1l0.3-0.1l0.2-0.2l0.3-0.1l0.2-0.2
		 M204.9,100.8l0.4-0.1l0.3-0.1h0.4h0.3l0.4,0.1l0.3,0.2l0.3,0.2l0.3,0.3 M207.6,101.4l2.6,3.3 M210.2,104.7l1.1,0.9l1,0.6l1.9,0.7
		l3.5,0.7 M217.7,107.6h0.1h0.1h0.1h0.1l0.1-0.1h0.1l0.1-0.1l0.1-0.1 M218.5,107.3l0.1-0.2l0.2-0.2l0.2-0.2l0.2-0.2l0.2-0.2l0.1-0.2
		l0.2-0.2l0.2-0.3 M219.9,105.6L219.9,105.6L219.9,105.6l0.1-0.2v-0.1v-0.2V105v-0.1v-0.1 M215.9,97.8l1.1,1l0.7,0.9l1.1,1.7
		l1.2,3.4 M212.3,95.8l3.6,2 M212.3,95.8l-0.3-0.3l-0.3-0.2l-0.2-0.3l-0.2-0.3l-0.1-0.4v-0.4v-0.3l0.1-0.4 M211.3,93.2l0.1-0.2
		l0.1-0.3l0.1-0.3v-0.3l0.1-0.2l0.1-0.3l0.1-0.3V91 M211.9,91l0.1-0.3l0.2-0.3l0.2-0.3l0.3-0.2l0.3-0.2l0.3-0.1h0.4h0.3 M214,89.6
		l4.1,0.6 M218.1,90.2l1.4-0.1l1.1-0.3l1.7-0.7l2.8-2 M225.1,87.1L225.1,87.1l0.2-0.2v-0.1l0.1-0.1v-0.1v-0.1v-0.1v-0.1 M225.4,86.3
		V86v-0.3v-0.2l-0.1-0.3v-0.3v-0.3l-0.1-0.3V84 M225.2,84L225.2,84l-0.1-0.2v-0.1l-0.1-0.1l-0.1-0.1l-0.1-0.1l-0.1-0.1 M217,80.9
		h1.4l1.1,0.2l2,0.5l3.2,1.7 M213.2,82l3.8-1.1 M213.2,82l-0.4,0.1l-0.4-0.1h-0.3l-0.4-0.2l-0.3-0.1l-0.3-0.3l-0.2-0.3l-0.2-0.3
		 M210.7,80.8l-0.1-0.3l-0.1-0.2l-0.2-0.3l-0.1-0.3l-0.2-0.2l-0.1-0.3l-0.2-0.3l-0.1-0.2 M209.6,78.7l-0.2-0.4l-0.1-0.3v-0.4v-0.3
		l0.1-0.4l0.1-0.3l0.2-0.3l0.3-0.2 M210,76.1l3.1-2.4 M213.1,73.7l0.9-1.1l0.5-1l0.6-1.8l0.4-3.5 M215.5,66.3L215.5,66.3v-0.2V66
		l-0.1-0.1v-0.1l-0.1-0.1v-0.1l-0.1-0.1 M215.2,65.5l-0.2-0.2l-0.2-0.2l-0.3-0.2l-0.2-0.2l-0.2-0.1l-0.2-0.2l-0.3-0.2l-0.2-0.2
		 M213.4,64l-0.1-0.1h-0.1l-0.1-0.1H213h-0.1h-0.1h-0.1h-0.1 M205.8,67.4l0.9-1l0.9-0.6l1.7-1l3.3-1 M204,71l1.8-3.6 M204,71
		l-0.2,0.3l-0.2,0.2l-0.3,0.2l-0.3,0.2l-0.4,0.1h-0.3l-0.4-0.1l-0.3-0.1 M201.6,71.8l-0.3-0.1l-0.3-0.1l-0.3-0.1l-0.3-0.1l-0.2-0.1
		l-0.3-0.1l-0.3-0.1l-0.3-0.1 M199.3,71l-0.3-0.1l-0.4-0.2l-0.2-0.2l-0.3-0.3l-0.2-0.3l-0.1-0.4l-0.1-0.3v-0.4 M197.7,68.8l0.4-4
		 M198.1,64.8l-0.2-1.4l-0.3-1.1l-0.9-1.8l-2.2-3 M194.5,57.5l-0.1-0.1h-0.1l-0.1-0.1l-0.1-0.1H194h-0.1h-0.1h-0.1 M193.7,57.2h-0.3
		h-0.3h-0.2h-0.3h-0.3H192h-0.3l-0.2,0.1 M191.5,57.3L191.5,57.3h-0.2l-0.1,0.1h-0.1l-0.1,0.1h-0.1l-0.1,0.1v0.1 M188.9,65.3
		l-0.1-1.5l0.1-1.1l0.4-1.9l1.5-3.1 M190.2,69.2l-1.3-3.9 M190.2,69.2l0.1,0.4v0.3v0.4l-0.2,0.3l-0.1,0.3l-0.3,0.3l-0.2,0.2
		l-0.3,0.2 M189.2,71.6l-0.3,0.1l-0.3,0.1l-0.2,0.1l-0.3,0.1l-0.2,0.2l-0.3,0.1l-0.2,0.1l-0.3,0.2 M187.1,72.6l-0.3,0.1l-0.4,0.1
		h-0.3h-0.4l-0.3-0.1l-0.4-0.2l-0.3-0.2l-0.2-0.3 M184.5,72l-2.6-3.3 M181.9,68.7l-1.1-0.9l-1-0.6l-1.9-0.7l-3.5-0.7 M174.4,65.8
		L174.4,65.8h-0.3H174l-0.1,0.1h-0.1V66h-0.1l-0.1,0.1 M203,96.7l0.3-0.2l1.4-2l1-2.2l0.5-2.5v-2.5l-0.6-2.5l-1.1-2.3l-1.6-2.1
		l-2-1.7l-2.2-1.3l-2.5-0.8l-2.5-0.2l-2.5,0.3l-2.3,0.8 M188.9,77.5l-2,1.4l-0.7,0.5 M180.3,92.1l-0.2-1.8l0.2-2.5l0.8-2.3l1.2-2.1
		l1.7-1.8l2.1-1.3 M186.1,80.3l2.3-0.8l2.5-0.4l2.5,0.3l2.5,0.8l2.2,1.2l2,1.8l1.5,2l1.1,2.4l0.6,2.5l0.1,2.5l-0.5,2.4l-1,2.3
		l-1.5,1.9l-1.9,1.6l-2.2,1.1l-2.4,0.5l-2.5,0.1l-1.2-0.2 M192,100.5l0.2-0.1l2.2-0.4l2-1l1.6-1.4l1.2-1.8l0.6-2.1l0.2-2.2l-0.5-2.2
		l-0.9-2.1l-1.5-1.8l-1.8-1.4l-2.1-1l-2.2-0.4l-2.2,0.2l-2.1,0.7 M186.7,83.5l-1.8,1.2l-1.4,1.6l-0.9,2l-0.4,2 M185.8,113.3l0.1,0.2
		l0.7,1.9l1.1,1.6l1.6,1.3l1.8,0.8l2,0.2l1.9-0.2l1.7-0.9l1.4-1.3l0.4-0.6 M194.2,105.9H194l-1.9-0.3l-1.9,0.3l-1.7,0.8l-1.4,1.3
		l-0.9,1.7l-0.1,0.2 M268.4,48.9l0.6-0.7l0.9-1.6l0.4-1.9 M270.3,44.7l-0.1-2l-0.7-1.8l-1.2-1.7l-1.6-1.2l-1.8-0.8l-2-0.3l-1.9,0.3
		l-1.7,0.8l-0.8,0.7 M62.5,147.9l-0.2-1.9l-0.7-1.9l-1.1-1.6l-1.6-1.3l-1.8-0.8l-2-0.3l-1.9,0.3l-1.7,0.9l-1.4,1.3l-0.9,1.6
		l-0.4,1.9l0.1,2l0.7,1.8l1.2,1.7l1.6,1.2l1.8,0.8l1.9,0.3l1.9-0.3l1.7-0.8l1.4-1.3l1-1.7L62.5,147.9 M186.1,86.4l0.8-0.6l1.7-0.8
		l1.9-0.4l2,0.3l1.8,0.8l1.6,1.2l1.2,1.7 M197.1,88.6l0.7,1.8l0.1,2l-0.4,1.9l-0.9,1.6l-0.6,0.7 M126.2,157.3l0.7,1.8l0.1,2
		l-0.3,1.9l-1,1.6l-1.3,1.3l-1.7,0.9l-1.9,0.3l-2-0.2l-1.8-0.8l-1.6-1.3l-1.2-1.6l-0.7-1.9l-0.1-1.9l0.3-1.9l1-1.7l1.3-1.3l1.7-0.8
		l1.9-0.4l2,0.3l1.8,0.8l1.6,1.2L126.2,157.3 M194.3,105.1l-0.5-0.1h-2l-1.8,0.6l-1.6,1v0.1 M198.2,116.9l0.6-0.6 M181.4,117.8
		l1.3,2l2,2.1l2.3,1.7l2.6,1.2l2.7,0.6 M192.3,125.4l2.8,0.1l2.7-0.5l2.5-1l2.3-1.5l0.2-0.2 M47.7,35.8l1.6-1.4l4.9-4.1l5.3-3.8
		l5.6-3.2l5.8-2.8l6.1-2.3l6.3-1.7l6.5-1.3l6.5-0.7l6.7-0.2l6.6,0.4l6.7,0.9l6.5,1.4l6.5,2l6.4,2.4 M93.7,100.3L93.7,100.3l1.6-1.2
		l1.8-0.5l2-0.1l1.9,0.6l1.7,1l1.4,1.5l0.9,1.8l0.4,1.9l-0.1,1.9l-0.7,1.8l-1.1,1.4 M216.1,56.2l-80.4-34.8 M135.7,21.4l-3.6,3.5
		 M216.1,56.2l5.2,2.6l5,3.1l4.7,3.5l4.4,4l4,4.3l3.5,4.7l3.1,5l2.6,5.2l2.1,5.5l1.6,5.6l1,5.6l0.4,5.7l-0.1,5.7l-0.6,5.7l-1.3,5.4
		l-1.8,5.4l-2.3,5l-2.8,4.8l-3.3,4.5l-3.7,4l-0.2,0.3 M216.1,56.2l-3.6,3.5 M206.1,110.7l0.2,1.5l-0.1,2.8l-0.6,2.7l-1.1,2.4
		l-1.7,2.2l-2,1.7l-2.4,1.3l-2.6,0.7l-2.8,0.2l-2.7-0.4l-2.7-0.9l-2.5-1.4l-2.2-1.9l-1.7-2.2l-0.5-0.9 M196.1,52.6l-64-27.7
		 M212.5,59.7l-11.5-5 M43.8,39.7l1.9-1.9l4.9-4.1l5.3-3.7l5.6-3.3l5.9-2.8l6.1-2.2l6.3-1.8l6.4-1.2l6.6-0.8l6.6-0.1l6.7,0.3
		l6.6,0.9l6.6,1.5l6.5,1.9l6.3,2.5 M34.1,51.3l2.9-4l1.6-2 M25.5,68.6l1.7-4.5l0.8-1.7 M21.3,87.6l0.6-4.7l0.3-1.7 M21.9,107.4
		l-0.6-4.6l-0.2-2.4 M27,126.7l-1.5-4.1l-1.1-3.4 M35.7,143.3l-1.4-2.3l-2.7-4.5 M47.5,157.6l-0.4-0.4l-4.7-5.1l-0.2-0.2 M62,169.2
		l-4.5-3.1l-1.9-1.4 M78.7,177.7l-3.5-1.4l-3.9-1.8 M97.1,182.5l-2.4-0.4l-4.7-0.9 M116.2,183l-1.6,0.1l-4.9,0.2 M140.9,179.4
		l64-9.8 M128.6,181.2l8.5-1.2 M220.3,63.8l2.5,1.5l4.7,3.5l4.3,4l4,4.3l3.6,4.7l3.1,5l2.6,5.3l2.1,5.4l1.5,5.6l1,5.7l0.5,5.7
		l-0.1,5.7l-0.7,5.6l-1.2,5.5l-1.8,5.3l-2.3,5.1l-2.8,4.7l-3.3,4.5l-3.7,4.1l-4.2,3.6l-4.5,3.2l-4.8,2.8l-5.1,2.2l-5.3,1.6l-5.5,1.2
		 M212.5,59.7l1.2,0.5 M90.4,180.7L90.4,180.7 M75.5,170.4l-0.6,0.7h-0.1 M22.2,107.1L22.2,107.1l0.1-0.1 M31.7,122.4l-1,0.8
		l-1.2,1.2 M94.1,175l-1,2l-2.7,3.7 M84.8,186.2l5.6-5.5 M28.5,103.7l-2.2,1l-4,2.3 M22.3,107l-5.7,5.5 M110.2,182.8L110.2,182.8
		l-0.1,0.2l-0.1,0.1 M21.5,87.4L21.5,87.4l0.3-0.2h0.1 M112.5,175.4l-0.1,0.6l-0.6,2.5l-1.6,4.3 M104.5,188.3l5.7-5.5 M29.5,85.5
		h-0.6l-2.6,0.4l-4.4,1.3 M21.9,87.2l-5.7,5.5 M129.6,180.1L129.6,180.1l-0.1,0.2l-0.1,0.1v0.1l-0.1,0.1 M25.6,68.4L25.6,68.4
		l0.2-0.1l0.1-0.1H26h0.2 M130.1,172.4v0.4v2.6l-0.5,4.7 M123.9,185.6l5.7-5.5 M33.1,68.2L30.9,68l-4.7,0.2 M26.2,68.2l-5.7,5.4
		 M147.5,172.7v0.2l-0.1,0.1v0.1v0.2l-0.1,0.1l-0.1,0.1 M34.2,51.2L34.2,51.2L34.2,51.2l0.3-0.1l0.1-0.1h0.1h0.2H35 M146.3,165.8
		l0.6,2.2l0.6,4.7 M141.8,178.2l5.7-5.5 M42,52.8L39.6,52L35,51 M35,51l-5.7,5.5 M162.8,161.2L162.8,161.2v0.3v0.1v0.1v0.2l-0.1,0.1
		l-0.1,0.1v0.1 M162.6,162.2l-5.7,5.5 M44.6,38.9l0.2-0.3l0.3-0.2l0.3-0.3l0.3-0.2l0.2-0.3l0.3-0.2l0.3-0.3l0.3-0.2 M44.6,38.9
		l-5.7,5.5 M46.8,36.9L46.8,36.9l0.2-0.2h0.1h0.1l0.2-0.1l0.1,0.1h0.1h0.2 M41.1,42.4l5.7-5.5 M159.5,153.8l0.3,0.5l1.3,2.4l1.7,4.5
		 M157.1,166.7l5.7-5.5 M55.2,40.8l-0.8-0.6l-2.3-1.4l-4.3-2.1 M47.8,36.7l-5.7,5.5 M173.1,149.7L173.1,149.7l-0.2,0.1 M174.7,147.2
		l-0.2,0.3l-0.2,0.3l-0.2,0.3l-0.2,0.3l-0.2,0.4l-0.2,0.3l-0.2,0.3l-0.2,0.3 M167.4,155.2l5.7-5.5 M174.7,146.2L174.7,146.2l0.1,0.2
		v0.1v0.2v0.1v0.1l-0.1,0.2v0.1 M174.7,147.2l-5.7,5.5 M59.9,27.6L59.9,27.6l0.2-0.1 M60.1,27.5l0.4-0.2l0.3-0.2l0.3-0.2l0.4-0.1
		l0.3-0.2l0.3-0.2l0.4-0.2l0.3-0.1 M60.1,27.5L54.5,33 M62.8,26.1L62.8,26.1L63,26h0.2h0.1h0.1h0.2l0.1,0.1l0.1,0.1 M57.1,31.6
		l5.7-5.5 M168.3,138.4l0.7,0.5l1.2,1.2l1.8,2l2.7,4.1 M169,151.7l5.7-5.5 M71.6,33.9l-1-1.5l-1.1-1.3l-1.9-1.9l-3.8-3 M63.8,26.2
		l-5.7,5.5 M71.6,33.9l-5.7,5.5 M181.7,132.3v0.2l-0.1,0.1l-0.1,0.1 M172.9,121.7l0.8,0.2 M182.7,129.5l-0.1,0.3l-0.1,0.4l-0.2,0.3
		l-0.1,0.4l-0.1,0.4l-0.1,0.3l-0.1,0.4l-0.2,0.3 M176.1,137.8l5.6-5.5 M172,121.1l0.2,0.2l0.3,0.2l0.4,0.2 M172.9,121.7l-5.7,5.5
		 M182.4,128.4l0.1,0.2l0.1,0.1v0.1l0.1,0.1v0.2v0.1v0.1v0.2 M182.7,129.5L177,135 M77.8,20.5L77.8,20.5l0.2-0.1l0.1-0.1h0.1
		 M88.2,30L88,29.2 M88.2,30l0.1,0.3l0.2,0.4l0.2,0.3l0.2,0.2 M82.5,35.4l5.7-5.4 M78.2,20.3l0.4-0.1l0.3-0.1l0.4-0.1l0.4-0.1
		l0.4-0.1l0.3-0.1h0.4l0.4-0.1 M78.2,20.3l-5.7,5.5 M81.2,19.6L81.2,19.6h0.2h0.2h0.1l0.1,0.1h0.1l0.2,0.1l0.1,0.1 M75.5,25.1
		l5.7-5.5 M173.7,121.9l1.5,0.7l1.5,0.9l2.2,1.6l3.5,3.3 M176.8,133.9l5.6-5.5 M173.7,121.9l-5.7,5.5 M88,29.2l-0.6-1.6L86.6,26
		l-1.4-2.3l-3-3.8 M82.2,19.9l-5.7,5.5 M88,29.2l-5.7,5.5 M185.9,113.1L185.9,113.1l-0.1,0.3l-0.1,0.1v0.1l-0.1,0.1 M105.3,29.4
		v-0.8 M105.3,29.4v0.4l0.1,0.3l0.2,0.4l0.2,0.3l0.3,0.3l0.3,0.2l0.4,0.2h0.3 M99.6,34.9l5.7-5.5 M107.1,31.5l-5.6,5.5 M186.1,110.1
		v0.3l-0.1,0.4v0.4v0.4v0.4l-0.1,0.4v0.3v0.4 M180.2,118.6l5.7-5.5 M185.6,109.1L185.6,109.1l0.2,0.2l0.1,0.1l0.1,0.1v0.2l0.1,0.1
		v0.1v0.2 M186.1,110.1l-5.7,5.4 M97.1,18L97.1,18l0.2-0.1l0.1-0.1h0.1h0.1h0.2 M179.9,114.6l5.7-5.5 M184,108.2l1.6,0.9 M97.8,17.8
		h0.4h0.3h0.4h0.4h0.4h0.4h0.4h0.3 M97.8,17.8l-5.7,5.5 M100.8,17.8h0.2l0.1,0.1h0.1l0.2,0.1h0.1l0.1,0.1l0.1,0.1v0.2 M95.2,23.3
		l5.6-5.5 M105.3,28.6l-0.2-1.7l-0.4-1.6l-0.9-2.6l-2.1-4.3 M101.7,18.4l-5.6,5.5 M105.3,28.6l-5.7,5.5 M122.3,33l0.2-0.8
		 M123.6,35.5l0.3,0.1l0.3,0.1l0.3,0.1l0.3,0.1l0.3,0.1l0.3,0.1l0.3,0.2l0.2,0.1 M122.3,33l-0.1,0.3v0.4l0.1,0.4l0.1,0.4l0.3,0.3
		l0.2,0.3l0.4,0.2l0.3,0.2 M116.6,38.5l5.7-5.5 M123.6,35.5l-5.7,5.5 M162.6,68l0.1,0.2l0.2,0.3l0.2,0.3l0.1,0.3l0.2,0.2l0.1,0.3
		l0.2,0.3l0.1,0.3 M163.8,70.2l0.3,0.3l0.2,0.3l0.4,0.2l0.3,0.2l0.4,0.1h0.4l0.3-0.1l0.4-0.1 M158.2,75.7l5.6-5.5 M116.8,20.3
		L116.8,20.3L116.8,20.3l0.2-0.2h0.1l0.2-0.1h0.1h0.1l0.2,0.1 M166.5,71.1l0.7-0.3 M166.5,71.1l-5.7,5.5 M138.9,43.2l0.3,0.2
		l0.2,0.1l0.3,0.2l0.3,0.2l0.2,0.2l0.3,0.1l0.2,0.2l0.3,0.2 M138.2,40.5l-0.2,0.3v0.4l-0.1,0.4l0.1,0.3l0.1,0.4l0.2,0.3l0.3,0.3
		l0.3,0.3 M138.9,43.2l-5.7,5.5 M162.3,66.6v0.3v0.3l0.1,0.4l0.2,0.4 M162.6,68l-5.7,5.5 M132.5,46l5.7-5.5 M138.2,40.5l0.4-0.7
		 M141,44.6l0.3,0.2l0.4,0.1l0.4,0.1h0.4l0.2-0.1 M135.3,50.1l5.7-5.5 M117.7,20.1l0.3,0.1h0.4l0.4,0.1l0.4,0.1l0.4,0.1l0.3,0.1
		l0.4,0.1l0.4,0.1 M117.7,20.1l-5.7,5.5 M120.7,20.8l0.1,0.1h0.1l0.2,0.1l0.1,0.1v0.1l0.1,0.1l0.1,0.2v0.1 M115,26.3l5.7-5.5
		 M152.2,54.2l0.2,0.3l0.2,0.2l0.2,0.2l0.2,0.3l0.2,0.2l0.3,0.2l0.2,0.3l0.2,0.2 M153.9,56.1l0.3,0.3l0.3,0.2l0.4,0.1l0.3,0.1h0.4
		l0.4-0.1l0.3-0.1l0.3-0.2 M148.2,61.6l5.7-5.5 M122.5,32.2l0.2-1.6v-1.7l-0.3-2.6l-1-4.7 M121.4,21.6l-5.6,5.5 M122.5,32.2
		l-5.7,5.5 M152.1,51.5l-0.2,0.2l-0.2,0.4l-0.1,0.3v0.4v0.4l0.1,0.4l0.2,0.3l0.3,0.3 M152.2,54.2l-5.7,5.5 M156.6,56.4l0.6-0.5
		 M156.6,56.4l-5.6,5.5 M146.4,57l5.7-5.5 M152.1,51.5l0.5-0.6 M132.3,29.9l3.4-2.8 M167.2,70.8l1.6-0.5l1.6-0.3l2.1-0.1
		 M167.2,70.8l-5.7,5.5 M135.7,27.1l0.1-0.1h0.1l0.2-0.1h0.1h0.1h0.2l0.1,0.1h0.1 M130,32.6l5.7-5.5 M138.6,39.8l0.6-1.5l0.4-1.6
		l0.4-2.6l0.1-4.7 M138.6,39.8l-5.7,5.5 M139.5,28.5L139.5,28.5l0.3,0.2v0.1l0.1,0.1L140,29v0.1l0.1,0.2v0.1 M140.1,29.4l-5.7,5.5
		 M136.7,27l0.4,0.2l0.3,0.2l0.4,0.2l0.3,0.2l0.4,0.1l0.3,0.2l0.4,0.2l0.3,0.2 M136.7,27l-5.6,5.5 M133.9,34l5.6-5.5 M165.2,63.8
		l1-1.1l1.6-2l2.3-4 M144.9,42.9l0.4-0.5l1.3-1l2.1-1.3l4.2-2 M157.2,55.9l1.4-0.8l1.5-0.7l2.5-0.8l4.5-0.9 M157.2,55.9l-5.6,5.5
		 M170,55.7L170,55.7l0.1,0.2v0.2l0.1,0.1v0.1v0.2l-0.1,0.1v0.1 M170.1,56.7l-5.7,5.5 M152.6,50.9l1-1.3l0.8-1.4l1-2.4l1.2-4.5
		 M152.6,50.9l-5.6,5.5 M167.1,52.7h0.2h0.1h0.1l0.2,0.1l0.1,0.1h0.1L168,53l0.1,0.1 M161.5,58.2l5.6-5.5 M152.9,38.1L152.9,38.1
		l0.2-0.1h0.1h0.2l0.1,0.1h0.1l0.2,0.1l0.1,0.1 M147.2,43.6l5.7-5.5 M156.3,40.4L156.3,40.4l0.2,0.2v0.1l0.1,0.1v0.1v0.2v0.1v0.1
		 M156.6,41.3l-5.6,5.5 M168.1,53.1l0.2,0.3l0.3,0.4l0.2,0.3l0.2,0.3l0.3,0.3l0.2,0.4l0.2,0.3l0.3,0.3 M168.1,53.1l-5.7,5.5
		 M164.3,61.2l5.7-5.5 M153.9,38.3l0.3,0.2l0.3,0.3l0.3,0.2l0.3,0.3l0.3,0.3l0.3,0.2l0.3,0.3l0.3,0.3 M153.9,38.3l-5.7,5.5
		 M150.6,45.8l5.7-5.4 M72.7,140.4l2.7,1.9l4.3,2.5l4.5,2.1l4.7,1.5l4.8,1.1l4.8,0.5h4.8l4.8-0.6l4.6-1.1l4.5-1.6l4.2-2l3.9-2.6
		l3.6-3l3.3-3.4l2.8-3.7l2.3-4.1l1.9-4.3l1.4-4.6l0.9-4.7l0.3-4.8l-0.2-4.8l-0.7-4.9l-1.3-4.7l-1.7-4.7l-2.3-4.4l-2.7-4.2l-3.1-3.9
		l-3.5-3.5l-3.9-3.2l-4.1-2.7l-4.4-2.3l-4.6-1.8l-4.8-1.3l-4.8-0.8L94.9,62l-4.8,0.3l-4.7,0.8l-4.6,1.4l-4.3,1.8l-4.1,2.3l-3.8,2.8
		l-3.4,3.2l-3,3.6l-2.6,3.9l-2.2,4.2l-1.6,4.5l-1.1,4.6l-0.6,4.8 M54.1,100.2L54,105l0.5,4.9l1,4.7l1.5,4.7l2,4.6l2.5,4.3l1.3,2
		 M113.5,177.4l0.6,1.6l0.7,1.6l1.5,2.3l3,3.8 M119.3,186.7L119.3,186.7l0.2,0.1l0.1,0.1l0.2,0.1h0.1h0.1h0.2h0.1 M123.3,186.3
		l-0.4,0.1l-0.4,0.1l-0.4,0.1l-0.3,0.1l-0.4,0.1H121l-0.3,0.1l-0.4,0.1 M123.3,186.3L123.3,186.3l0.2-0.1l0.1-0.1l0.1-0.1l0.1-0.1
		v-0.1l0.1-0.1v-0.1 M123.9,175l0.3,1.6l0.2,1.7v2.6l-0.5,4.7 M123.6,174.2l0.3,0.8 M123.6,174.2l-0.1-0.4l-0.1-0.4l0.1-0.3l0.1-0.4
		l0.2-0.3l0.2-0.3l0.3-0.2l0.4-0.2 M126.9,170.9l-0.3,0.1l-0.2,0.1l-0.3,0.1l-0.3,0.1l-0.3,0.1l-0.3,0.1l-0.3,0.1l-0.2,0.1
		 M126.9,170.9l0.4-0.1h0.4h0.3l0.4,0.1l0.4,0.2l0.3,0.2l0.2,0.3l0.2,0.4 M129.5,172l0.4,0.7 M129.9,172.7l0.9,1.4l1.1,1.4l2,1.9
		l3.8,3 M137.7,180.4l0.1,0.1l0.1,0.1h0.1h0.2h0.1h0.1h0.2l0.1-0.1 M141.3,179.1l-0.3,0.2l-0.3,0.2l-0.4,0.2l-0.3,0.1l-0.3,0.2
		l-0.4,0.2l-0.3,0.1l-0.3,0.2 M141.3,179.1L141.3,179.1l0.2-0.1l0.1-0.1l0.1-0.1v-0.2l0.1-0.1v-0.1v-0.2 M139.2,167.8l0.8,1.5
		l0.5,1.6l0.7,2.6l0.6,4.7 M138.8,167.1l0.4,0.7 M138.8,167.1l-0.2-0.3l-0.2-0.4V166v-0.4l0.1-0.3l0.2-0.4l0.2-0.3l0.3-0.2
		 M141.1,163l-0.2,0.2l-0.2,0.2l-0.3,0.2l-0.2,0.1l-0.3,0.2l-0.2,0.2l-0.3,0.1l-0.2,0.2 M141.1,163l0.4-0.2l0.3-0.1h0.4h0.4l0.3,0.1
		l0.4,0.2l0.3,0.2l0.3,0.3 M143.9,163.5l0.5,0.6 M144.4,164.1l1.3,1.2l1.3,1.1l2.3,1.4l4.4,2.1 M153.7,169.9h0.1h0.2h0.1h0.1h0.1
		l0.2-0.1h0.1l0.1-0.1 M156.9,167.7l-0.3,0.2l-0.3,0.3l-0.2,0.3l-0.3,0.2l-0.3,0.3l-0.3,0.2l-0.2,0.3l-0.3,0.2 M156.9,167.7
		L156.9,167.7l0.1-0.2l0.1-0.1v-0.2l0.1-0.1V167v-0.2l-0.1-0.1 M152.1,157l1.1,1.4l1,1.4l1.2,2.4l1.7,4.5 M151.5,156.5l0.6,0.5
		 M151.5,156.5l-0.2-0.3l-0.2-0.4l-0.2-0.3v-0.4v-0.4l0.1-0.4l0.1-0.3l0.2-0.3 M152.9,151.9l-0.2,0.2l-0.2,0.2l-0.2,0.3l-0.2,0.2
		l-0.2,0.2l-0.2,0.2l-0.2,0.3l-0.2,0.2 M152.9,151.9l0.2-0.3l0.3-0.2l0.4-0.1l0.3-0.1h0.4l0.4,0.1l0.4,0.1l0.3,0.2 M155.6,151.6
		l0.6,0.6 M156.2,152.2l1.5,0.8l1.6,0.7l2.5,0.9l4.7,1 M166.5,155.6L166.5,155.6h0.2h0.2l0.1-0.1h0.1l0.1-0.1l0.1-0.1l0.1-0.1
		 M169,152.7l-0.2,0.3l-0.2,0.3l-0.2,0.3l-0.2,0.3l-0.2,0.4l-0.2,0.3l-0.2,0.3l-0.2,0.3 M169,152.7L169,152.7l0.1-0.3v-0.1l0.1-0.1
		l-0.1-0.2v-0.1v-0.1l-0.1-0.1 M161.9,143.3l1.4,1l1.2,1.3l1.8,2l2.7,4.1 M161.2,142.9l0.7,0.4 M161.2,142.9l-0.3-0.3l-0.3-0.2
		l-0.2-0.4l-0.1-0.3l-0.1-0.4v-0.4v-0.4l0.1-0.3 M161.4,138l-0.1,0.3l-0.2,0.3l-0.1,0.3l-0.1,0.2l-0.2,0.3l-0.1,0.3l-0.1,0.2
		l-0.2,0.3 M161.4,138l0.2-0.3l0.2-0.3l0.3-0.2l0.3-0.1l0.4-0.1h0.4h0.4l0.3,0.2 M163.9,137.2l0.8,0.3 M164.7,137.5l1.6,0.5l1.7,0.3
		l2.6,0.3l4.7-0.2 M175.3,138.4L175.3,138.4h0.2l0.2-0.1l0.1-0.1h0.1v-0.1l0.1-0.2l0.1-0.1 M177,135l-0.1,0.3l-0.1,0.4l-0.1,0.3
		l-0.1,0.4l-0.2,0.4l-0.1,0.3l-0.1,0.4l-0.1,0.3 M177,135v-0.2l0.1-0.1l-0.1-0.1v-0.2v-0.1l-0.1-0.1l-0.1-0.1v-0.2 M168,127.4
		l1.5,0.7l1.5,0.9l2.2,1.6l3.6,3.3 M167.2,127.2l0.8,0.2 M167.2,127.2l-0.3-0.2l-0.4-0.2l-0.3-0.3l-0.2-0.3l-0.2-0.3 M170.7,121.1
		h0.2h1.7l2.5-0.4l4.5-1.3 M179.6,119.4L179.6,119.4l0.2-0.1l0.1-0.1l0.1-0.1l0.1-0.1v-0.1l0.1-0.2v-0.1 M180.4,115.5v0.4v0.4
		l-0.1,0.4v0.4v0.4v0.3l-0.1,0.4v0.4 M180.4,115.5L180.4,115.5v-0.2l-0.1-0.2V115l-0.1-0.1l-0.1-0.1l-0.1-0.1l-0.1-0.1 M178.4,113.7
		l1.5,0.9 M167.3,104.7L167.3,104.7l0.2-0.4l0.3-0.2l0.3-0.2 M167.8,92.9l1.6-0.1l1.7,0.1l2.6,0.5l4,1.2 M167,93l0.8-0.1 M167,93
		l-0.4,0.1l-0.3-0.1l-0.4-0.1l-0.4-0.2l-0.3-0.2l-0.2-0.3l-0.2-0.3l-0.2-0.4 M163.9,89.1l0.1,0.3l0.1,0.3l0.1,0.3l0.1,0.3l0.1,0.3
		v0.3l0.1,0.3l0.1,0.3 M163.9,89.1l-0.1-0.4v-0.4l0.1-0.3l0.1-0.4l0.2-0.3l0.3-0.3l0.3-0.2l0.3-0.1 M165.1,86.7l0.8-0.2 M165.9,86.5
		l1.5-0.7l1.3-0.9l2.1-1.5l3.2-3.3 M174,80.1L174,80.1l0.1-0.2l0.1-0.1v-0.1v-0.2v-0.1v-0.1l-0.1-0.1 M172.9,76.2l0.2,0.4l0.1,0.4
		l0.2,0.3l0.1,0.4l0.2,0.4l0.1,0.3l0.2,0.4l0.1,0.4 M172.9,76.2L172.9,76.2l-0.1-0.2l-0.1-0.1l-0.1-0.1l-0.2-0.1h-0.1l-0.1-0.1h-0.1
		 M161.5,76.3l1.6-0.5l1.6-0.3l2.6-0.1l4.8,0.2 M160.8,76.6l0.7-0.3 M160.8,76.6l-0.3,0.1l-0.4,0.1h-0.4l-0.4-0.1l-0.3-0.2l-0.3-0.2
		l-0.3-0.3l-0.2-0.3 M156.9,73.5l0.2,0.2l0.1,0.3l0.2,0.3l0.1,0.3l0.2,0.2l0.2,0.3l0.1,0.3l0.2,0.3 M156.9,73.5l-0.2-0.4l-0.1-0.4
		v-0.3l0.1-0.4l0.1-0.4l0.2-0.3l0.2-0.3l0.3-0.2 M157.5,70.8l0.7-0.4 M158.2,70.4l1.2-1l1.1-1.2l1.6-2l2.3-4 M164.4,62.2L164.4,62.2
		l0.1-0.2v-0.2v-0.1v-0.1l-0.1-0.2v-0.1l-0.1-0.1 M162.4,58.6l0.3,0.3l0.2,0.4l0.2,0.3l0.3,0.3l0.2,0.3l0.2,0.3l0.3,0.4l0.2,0.3
		 M162.4,58.6L162.4,58.6l-0.2-0.2h-0.1l-0.1-0.1l-0.1-0.1h-0.2h-0.1h-0.1 M151.6,61.4l1.4-0.9l1.5-0.6l2.4-0.8l4.6-0.9 M151,61.9
		l0.6-0.5 M151,61.9l-0.3,0.2l-0.4,0.1l-0.4,0.1h-0.3l-0.4-0.1l-0.4-0.1l-0.3-0.2l-0.3-0.3 M146.5,59.7l0.2,0.3l0.2,0.2l0.2,0.2
		l0.3,0.2l0.2,0.3l0.2,0.2l0.2,0.3l0.2,0.2 M146.5,59.7l-0.3-0.3l-0.1-0.3l-0.2-0.4v-0.4v-0.4l0.1-0.3l0.2-0.4l0.2-0.2 M146.4,57
		l0.6-0.6 M147,56.4l0.9-1.3l0.8-1.4l1-2.4l1.3-4.5 M151,46.8L151,46.8v-0.2v-0.2l-0.1-0.1v-0.1l-0.1-0.1l-0.1-0.2l-0.1-0.1
		 M148.2,43.8l0.3,0.2l0.3,0.3l0.3,0.2l0.3,0.3l0.3,0.3l0.3,0.2l0.3,0.3l0.3,0.2 M148.2,43.8L148.2,43.8l-0.2-0.2h-0.2l-0.1-0.1
		h-0.1h-0.2h-0.1l-0.1,0.1 M138.5,49.1l1.1-1.2l1.3-1l2.1-1.4l4.2-1.9 M138,49.7l0.5-0.6 M138,49.7l-0.2,0.3l-0.3,0.2l-0.3,0.2
		l-0.4,0.1h-0.4l-0.4-0.1l-0.3-0.1l-0.4-0.2 M133.2,48.7l0.3,0.1l0.3,0.2l0.2,0.2l0.3,0.2l0.3,0.2l0.2,0.1l0.3,0.2l0.2,0.2
		 M133.2,48.7l-0.3-0.3l-0.2-0.3l-0.2-0.3l-0.2-0.4v-0.3v-0.4l0.1-0.4l0.1-0.3 M132.5,46l0.4-0.7 M132.9,45.3l0.6-1.5l0.4-1.6
		l0.4-2.6l0.1-4.7 M134.4,34.9L134.4,34.9v-0.3l-0.1-0.1v-0.1l-0.1-0.1l-0.1-0.1l-0.1-0.1l-0.1-0.1 M131.1,32.5l0.3,0.2l0.4,0.2
		l0.3,0.2l0.4,0.1l0.3,0.2l0.4,0.2l0.3,0.2l0.4,0.2 M131.1,32.5h-0.2l-0.1-0.1h-0.1h-0.2h-0.1l-0.1,0.1h-0.1l-0.2,0.1 M123,40.1
		l0.9-1.4l0.9-1.3l1.7-1.9l3.5-2.9 M122.8,40.8l0.2-0.7 M122.8,40.8l-0.2,0.4l-0.2,0.3l-0.3,0.2l-0.3,0.2l-0.4,0.1H121h-0.4
		l-0.3-0.1 M117.9,41l0.3,0.1l0.3,0.1l0.3,0.1l0.3,0.1l0.3,0.1l0.3,0.1l0.3,0.1l0.3,0.2 M117.9,41l-0.3-0.2l-0.3-0.2l-0.3-0.3
		l-0.2-0.3l-0.2-0.4l-0.1-0.4v-0.4l0.1-0.3 M116.6,38.5l0.2-0.8 M116.8,37.7l0.2-1.6v-1.7l-0.2-2.7l-1-4.6 M115.8,27.1l-0.1-0.2
		v-0.1l-0.1-0.1l-0.1-0.1l-0.1-0.1l-0.1-0.1h-0.2l-0.1-0.1 M112,25.6h0.4l0.3,0.1l0.4,0.1l0.4,0.1l0.4,0.1l0.4,0.1l0.3,0.1l0.4,0.1
		 M112,25.6L112,25.6l-0.3-0.1h-0.1l-0.1,0.1h-0.2l-0.1,0.1l-0.1,0.1l-0.1,0.1 M106.2,35l0.4-1.6l0.6-1.5l1.2-2.3l2.6-3.7
		 M106.1,35.8l0.1-0.8 M106.1,35.8l-0.1,0.3l-0.2,0.4l-0.2,0.3l-0.3,0.2l-0.3,0.2l-0.3,0.1l-0.4,0.1h-0.4 M101.5,37l0.3,0.1h0.3h0.3
		l0.3,0.1h0.3l0.3,0.1h0.3l0.3,0.1 M101.5,37h-0.4l-0.4-0.2l-0.3-0.2l-0.3-0.3L99.9,36l-0.2-0.4l-0.1-0.3v-0.4 M99.6,34.9v-0.8
		 M99.6,34.1l-0.2-1.7L99,30.8l-0.9-2.6l-2-4.3 M96.1,23.9L96,23.7l-0.1-0.1l-0.1-0.1h-0.1l-0.1-0.1l-0.2-0.1h-0.1h-0.1 M92.1,23.3
		h0.4h0.4h0.4h0.3H94h0.4h0.4h0.4 M92.1,23.3L92.1,23.3h-0.3h-0.1l-0.1,0.1l-0.1,0.1l-0.1,0.1l-0.1,0.1v0.1 M88.8,34v-1.7l0.2-1.7
		l0.6-2.5l1.7-4.3 M88.9,34.7L88.8,34 M88.9,34.7v0.4l-0.1,0.4l-0.1,0.4l-0.2,0.3l-0.3,0.2l-0.3,0.2l-0.3,0.2h-0.4 M84.8,37.1h0.3
		l0.3-0.1h0.3H86l0.3-0.1h0.3h0.3l0.3-0.1 M84.8,37.1h-0.4H84l-0.3-0.2l-0.4-0.2L83,36.5l-0.2-0.3l-0.2-0.4l-0.1-0.4 M82.5,35.4
		l-0.2-0.7 M82.3,34.7l-0.6-1.6l-0.8-1.6l-1.4-2.3l-3-3.8 M76.5,25.4L76.5,25.4l-0.2-0.2h-0.1L76,25.1h-0.1h-0.1h-0.2h-0.1
		 M72.5,25.8l0.4-0.1l0.4-0.1l0.3-0.1l0.4-0.1l0.4-0.1l0.4-0.1h0.3l0.4-0.1 M72.5,25.8L72.5,25.8l-0.2,0.1L72.2,26h-0.1L72,26.1v0.2
		l-0.1,0.1v0.1 M71.9,37.1l-0.3-1.6l-0.2-1.7v-2.6l0.5-4.7 M72.2,37.9l-0.3-0.8 M72.2,37.9l0.1,0.4v0.3V39l-0.1,0.4L72,39.7L71.8,40
		l-0.3,0.2l-0.4,0.2 M68.9,41.2l0.3-0.1l0.2-0.1l0.3-0.1l0.3-0.1l0.3-0.1l0.3-0.1l0.2-0.1l0.3-0.1 M68.9,41.2l-0.4,0.1h-0.4h-0.3
		l-0.4-0.1L67,41l-0.3-0.3l-0.2-0.3l-0.2-0.3 M66.3,40.1l-0.4-0.7 M65.9,39.4L65,37.9l-1.1-1.3l-2-1.9l-3.8-3 M58.1,31.7L58.1,31.7
		l-0.2-0.2h-0.1h-0.2h-0.1h-0.1h-0.2l-0.1,0.1 M54.5,33l0.3-0.2l0.3-0.2l0.4-0.2l0.3-0.1l0.3-0.2l0.3-0.2l0.4-0.2l0.3-0.1 M54.5,33
		L54.5,33l-0.2,0.1l-0.1,0.1l-0.1,0.1v0.1L54,33.6v0.1v0.1 M56.6,44.3l-0.8-1.5l-0.5-1.7l-0.7-2.5L54,33.8 M57,45l-0.4-0.7 M57,45
		l0.2,0.3l0.2,0.4v0.4v0.4l-0.1,0.3l-0.2,0.4l-0.2,0.2l-0.3,0.3 M54.7,49.1l0.2-0.2l0.2-0.2l0.3-0.2l0.2-0.1l0.3-0.2l0.2-0.2
		l0.3-0.2l0.2-0.1 M54.7,49.1l-0.4,0.1L54,49.4h-0.4h-0.4l-0.4-0.1l-0.3-0.2l-0.3-0.2l-0.3-0.3 M51.9,48.6L51.4,48 M51.4,48
		l-1.3-1.2l-1.3-1.1l-2.3-1.4l-4.4-2.1 M42.1,42.2L42.1,42.2h-0.3l-0.1-0.1l-0.1,0.1h-0.2h-0.1l-0.1,0.1l-0.1,0.1 M38.9,44.4
		l0.3-0.3l0.3-0.2l0.2-0.3l0.3-0.2l0.3-0.3l0.3-0.2l0.2-0.3l0.3-0.2 M38.9,44.4L38.9,44.4l-0.2,0.2v0.1v0.1L38.6,45v0.1v0.1l0.1,0.2
		 M43.7,55.1l-1.1-1.4l-1-1.4l-1.2-2.4l-1.7-4.5 M44.3,55.6l-0.6-0.5 M44.3,55.6l0.2,0.3l0.2,0.4l0.2,0.3V57v0.4l-0.1,0.4l-0.1,0.3
		l-0.2,0.3 M42.9,60.2l0.2-0.2l0.2-0.2l0.2-0.3l0.2-0.2l0.2-0.2l0.2-0.3l0.2-0.2l0.2-0.2 M42.9,60.2l-0.2,0.3l-0.3,0.2L42,60.8
		l-0.3,0.1h-0.4l-0.4-0.1l-0.4-0.1l-0.3-0.3 M40.2,60.4l-0.6-0.5 M39.6,59.9l-1.5-0.8l-1.6-0.7L34,57.5l-4.7-1 M29.3,56.5h-0.1H29
		h-0.1l-0.1,0.1h-0.1l-0.1,0.1l-0.1,0.1l-0.1,0.1 M26.8,59.4l0.2-0.3l0.2-0.3l0.2-0.3l0.2-0.4l0.2-0.3l0.2-0.3l0.2-0.3l0.2-0.3
		 M26.8,59.4l-0.1,0.1v0.1v0.2l-0.1,0.1l0.1,0.1v0.2v0.1l0.1,0.1 M33.9,68.8l-1.4-1.1l-1.2-1.2l-1.8-2l-2.7-4.1 M34.6,69.2l-0.7-0.4
		 M34.6,69.2l0.3,0.2l0.3,0.3l0.2,0.3l0.1,0.4l0.1,0.4v0.4v0.3l-0.2,0.4 M34.4,74l0.1-0.2l0.2-0.3l0.1-0.3l0.1-0.2l0.2-0.3l0.1-0.3
		l0.1-0.3l0.1-0.2 M34.4,74l-0.2,0.4L34,74.6l-0.3,0.3L33.4,75L33,75.1h-0.4h-0.4l-0.3-0.2 M31.9,74.9l-0.8-0.3 M31.1,74.6l-1.6-0.5
		l-1.7-0.3l-2.6-0.3l-4.7,0.1 M20.5,73.6L20.5,73.6l-0.2,0.1l-0.2,0.1H20l-0.1,0.1V74l-0.1,0.1l-0.1,0.2 M18.8,77.1l0.1-0.3l0.1-0.4
		l0.1-0.4l0.1-0.3l0.2-0.4l0.1-0.3l0.1-0.4l0.1-0.3 M18.8,77.1v0.2l-0.1,0.1l0.1,0.1v0.2v0.1l0.1,0.1V78l0.1,0.1 M27.8,84.7L26.2,84
		l-1.4-0.9l-2.2-1.6L19,78.1 M28.6,84.9l-0.8-0.2 M28.6,84.9l0.3,0.2l0.4,0.2l0.3,0.3l0.2,0.3l0.2,0.3l0.1,0.4V87v0.4 M29.6,89.7
		v-0.3l0.1-0.3l0.1-0.3v-0.3l0.1-0.3v-0.3l0.1-0.3l0.1-0.2 M29.6,89.7l-0.1,0.4l-0.2,0.3l-0.2,0.3L28.8,91l-0.3,0.1l-0.4,0.1
		l-0.4,0.1l-0.3-0.1 M27.4,91.2L26.6,91 M26.6,91l-1.7-0.1L23.2,91l-2.5,0.4l-4.5,1.3 M16.2,92.7L16.2,92.7L16,92.8l-0.1,0.1
		L15.8,93l-0.1,0.1v0.1l-0.1,0.1v0.2 M15.4,96.5v-0.3v-0.4l0.1-0.4V95v-0.4v-0.4l0.1-0.3v-0.4 M15.4,96.5v0.2v0.1l0.1,0.1v0.2
		l0.1,0.1l0.1,0.1l0.1,0.1l0.1,0.1 M25.8,101.8l-1.6-0.3l-1.7-0.5l-2.4-1.1l-4.2-2.4 M26.6,101.9l-0.8-0.1 M26.6,101.9H27l0.4,0.2
		l0.3,0.2l0.3,0.2l0.2,0.3l0.2,0.4l0.2,0.3v0.4 M28.7,106.4v-0.3v-0.3v-0.4v-0.3l-0.1-0.3v-0.3v-0.3v-0.3 M28.7,106.4v0.4l-0.1,0.3
		l-0.1,0.4l-0.2,0.3L28,108l-0.3,0.2l-0.4,0.1l-0.4,0.1 M26.9,108.4h-0.7 M26.2,108.4l-1.7,0.3l-1.5,0.5l-2.4,1l-4,2.3 M16.6,112.5
		L16.6,112.5l-0.1,0.2l-0.1,0.1l-0.1,0.1v0.1v0.1l-0.1,0.2l0.1,0.1 M16.8,116.5l-0.1-0.4l-0.1-0.4v-0.4l-0.1-0.3l-0.1-0.4v-0.4
		l-0.1-0.4v-0.4 M16.8,116.5L16.8,116.5l0.1,0.2v0.2L17,117l0.1,0.1l0.1,0.1h0.1l0.2,0.1 M28,119.2l-1.7,0.1l-1.6-0.2l-2.6-0.4
		l-4.6-1.4 M28.8,119.1l-0.8,0.1 M28.8,119.1l0.4-0.1l0.3,0.1l0.4,0.1l0.4,0.2l0.3,0.2l0.2,0.3l0.2,0.3l0.2,0.4 M31.9,123l-0.1-0.3
		l-0.1-0.3l-0.1-0.3l-0.1-0.3l-0.1-0.3l-0.1-0.3v-0.3l-0.1-0.3 M31.9,123l0.1,0.4v0.3l-0.1,0.4l-0.1,0.4l-0.2,0.3l-0.3,0.2l-0.3,0.2
		l-0.3,0.2 M30.7,125.4l-0.8,0.2 M29.9,125.6l-1.5,0.7l-1.4,0.8l-2,1.6l-3.2,3.2 M21.8,131.9L21.8,131.9l-0.1,0.3l-0.1,0.1v0.1v0.1
		v0.2v0.1l0.1,0.1 M22.9,135.8l-0.2-0.3l-0.1-0.4l-0.2-0.3l-0.1-0.4l-0.2-0.4l-0.1-0.3l-0.2-0.4l-0.1-0.4 M22.9,135.8L23,136v0.1
		l0.1,0.1l0.1,0.1h0.2l0.1,0.1h0.1l0.1,0.1 M34.3,135.8l-1.6,0.5l-1.6,0.2l-2.6,0.2l-4.8-0.2 M35,135.5l-0.7,0.3 M35,135.5l0.3-0.1
		l0.4-0.1h0.4l0.4,0.1l0.3,0.2l0.3,0.2l0.3,0.3l0.2,0.3 M38.9,138.6l-0.2-0.3l-0.1-0.2l-0.2-0.3l-0.2-0.3l-0.1-0.2l-0.2-0.3
		l-0.1-0.3l-0.2-0.3 M38.9,138.6l0.2,0.4l0.1,0.3v0.4l-0.1,0.4l-0.1,0.4l-0.2,0.3l-0.2,0.3l-0.3,0.2 M38.3,141.3l-0.7,0.4
		 M37.6,141.7l-1.2,1l-1.1,1.2l-1.6,2l-2.3,4 M31.4,149.9l-0.1,0.1v0.1v0.1v0.2v0.1l0.1,0.1v0.2l0.1,0.1 M33.4,153.5l-0.3-0.4
		l-0.2-0.3l-0.2-0.3l-0.3-0.3l-0.2-0.3l-0.2-0.4l-0.3-0.3l-0.2-0.3 M33.4,153.5L33.4,153.5l0.2,0.2h0.1l0.1,0.1h0.1l0.2,0.1h0.1h0.1
		 M44.2,150.7l-1.4,0.8l-1.5,0.7l-2.4,0.8l-4.6,0.9 M44.8,150.2l-0.6,0.5 M44.8,150.2l0.3-0.2l0.4-0.1l0.3-0.1h0.4l0.4,0.1L47,150
		l0.3,0.2l0.3,0.3 M49.3,152.4l-0.2-0.3l-0.2-0.2l-0.2-0.2l-0.3-0.3l-0.2-0.2L48,151l-0.2-0.3l-0.2-0.2 M49.3,152.4l0.3,0.3l0.1,0.3
		l0.2,0.4v0.4v0.3l-0.1,0.4l-0.2,0.3l-0.2,0.3 M49.4,155.1l-0.6,0.6 M48.8,155.7l-0.9,1.3l-0.8,1.4l-1,2.4l-1.3,4.5 M44.8,165.3
		L44.8,165.3v0.2v0.1l0.1,0.2v0.1L45,166l0.1,0.1l0.1,0.1 M47.6,168.3l-0.3-0.2l-0.3-0.3l-0.3-0.3l-0.3-0.2l-0.3-0.3l-0.3-0.2
		l-0.3-0.3l-0.3-0.3 M47.6,168.3L47.6,168.3l0.2,0.2H48h0.1l0.1,0.1h0.1l0.2-0.1h0.1 M57.3,163l-1.1,1.1l-1.3,1.1l-2.1,1.3l-4.2,2
		 M57.8,162.4l-0.5,0.6 M57.8,162.4l0.2-0.3l0.3-0.2l0.3-0.2l0.4-0.1h0.4l0.4,0.1l0.3,0.1l0.4,0.2 M62.6,163.4l-0.3-0.2l-0.3-0.1
		l-0.2-0.2l-0.3-0.2l-0.3-0.2l-0.2-0.2l-0.3-0.1l-0.2-0.2 M62.6,163.4l0.3,0.3l0.2,0.2l0.2,0.4l0.2,0.4v0.3v0.4l-0.1,0.4l-0.1,0.3
		 M63.3,166.1l-0.4,0.7 M62.9,166.8l-0.6,1.5l-0.4,1.6l-0.4,2.6l-0.1,4.7 M61.4,177.2L61.4,177.2v0.3l0.1,0.1v0.1l0.1,0.1l0.1,0.1
		l0.1,0.1l0.1,0.1 M64.7,179.6l-0.3-0.2l-0.4-0.2l-0.3-0.2l-0.4-0.2l-0.3-0.2l-0.4-0.1l-0.3-0.2l-0.4-0.2 M64.7,179.6h0.2H65
		l0.1,0.1h0.2l0.1-0.1h0.1h0.1l0.1-0.1 M72.7,172l-0.8,1.4l-0.9,1.3l-1.8,1.9l-3.5,2.9 M73,171.2l-0.3,0.8 M73,171.2l0.2-0.3
		l0.2-0.3l0.3-0.2l0.3-0.2l0.4-0.1h0.4h0.3l0.4,0.1 M77.9,171.1l-0.3-0.1l-0.3-0.1l-0.3-0.1l-0.3-0.1l-0.3-0.1l-0.3-0.2l-0.3-0.1
		l-0.3-0.1 M77.9,171.1l0.3,0.2l0.3,0.2l0.3,0.3l0.2,0.3l0.2,0.4l0.1,0.4v0.3l-0.1,0.4 M79.2,173.6l-0.2,0.8 M79,174.4l-0.2,1.6v1.7
		l0.2,2.6l1,4.7 M80,185L80,185l0.1,0.3l0.1,0.1l0.1,0.1l0.1,0.1h0.1l0.1,0.1h0.2 M83.8,186.5l-0.4-0.1l-0.4-0.1l-0.3-0.1h-0.4
		l-0.4-0.1l-0.4-0.1l-0.3-0.1l-0.4-0.2 M83.8,186.5L83.8,186.5l0.3,0.1l0.1-0.1h0.1h0.2l0.1-0.1l0.1-0.1l0.1-0.1 M89.6,177.1
		l-0.4,1.6l-0.6,1.5l-1.2,2.3l-2.6,3.7 M89.7,176.3l-0.1,0.8 M89.7,176.3l0.1-0.3l0.2-0.4l0.2-0.3l0.3-0.2l0.3-0.2l0.3-0.1l0.4-0.1
		h0.4 M94.3,175H94h-0.3l-0.3-0.1h-0.3h-0.3l-0.3-0.1h-0.3l-0.3-0.1 M94.3,175l0.4,0.1l0.4,0.2l0.3,0.2l0.3,0.3l0.2,0.3l0.2,0.3
		l0.1,0.4v0.4 M96.2,177.2v0.8 M96.2,178l0.2,1.7l0.4,1.6l0.8,2.6l2.1,4.3 M99.7,188.2l0.1,0.1l0.1,0.1l0.1,0.1l0.1,0.1l0.1,0.1h0.1
		l0.2,0.1h0.1 M103.7,188.8h-0.4h-0.4h-0.4h-0.3h-0.4h-0.4H101h-0.4 M103.7,188.8L103.7,188.8h0.3l0.1-0.1h0.1l0.1-0.1l0.1-0.1
		l0.1-0.1v-0.1 M107,178.1v1.7l-0.2,1.6l-0.6,2.6l-1.7,4.3 M106.9,177.3l0.1,0.8 M106.9,177.3V177l0.1-0.4l0.1-0.4l0.2-0.3l0.3-0.2
		l0.3-0.3l0.3-0.1l0.4-0.1 M111,175h-0.3h-0.3l-0.3,0.1h-0.3h-0.3l-0.3,0.1h-0.3h-0.3 M111,175h0.4h0.4l0.3,0.2l0.4,0.2l0.3,0.2
		l0.2,0.3l0.2,0.4l0.1,0.3 M113.3,176.6l0.2,0.8 M90.5,103.3l0.3-1.1l1-1.9l0.5-0.7 M104.2,111.8l-0.2,0.1l-1.8,1.1l-1.8,0.5
		 M62.8,130.2l-2-3.1l-2.4-4.3l-1.8-4.6l-1.4-4.7l-0.9-4.9l-0.3-4.8l0.2-4.8l0.7-4.8l1.3-4.6l1.7-4.3l2.3-4.2l2.7-3.8l3.1-3.5
		l3.5-3.1l3.9-2.7l4.1-2.2l4.4-1.7l4.6-1.2l4.8-0.7l4.8-0.1l4.8,0.3 M100.9,62.4l4.8,0.9l4.7,1.5l4.6,1.9l4.3,2.4l4.1,2.9l3.8,3.2
		l3.4,3.7l3,3.9l2.6,4.3l2.2,4.5l1.6,4.6l1.1,4.8l0.6,4.9l0.1,4.8l-0.5,4.8l-1,4.7l-1.5,4.5l-2,4.2l-2.5,4l-2.9,3.7l-3.3,3.3
		l-3.7,2.9l-4,2.4l-4.3,2l-4.5,1.5l-4.7,0.9l-4.8,0.4l-4.8-0.1l-4.8-0.6l-4.8-1.2l-4.6-1.7l-4.5-2.2l-4.2-2.6l-1.7-1.2 M89.8,104
		l0.3-1.1l1-1.9l1.4-1.5l1.8-1.1l2-0.5h2.2 M98.5,97.9l2.1,0.5l1.9,1.1l1.6,1.5l1.2,1.9l0.7,2.1l0.1,2.1l-0.4,2.1l-1,1.9l-1.4,1.5
		l-1.8,1.1l-1.8,0.5 M167.7,85.6l-0.8,0.8 M185.6,106.8l4.6-4.5 M201.1,115.9l5-4.8 M178.6,61.3l-5,4.8 M218.4,107.4l5-4.8
		 M195.9,52.7l-5,4.8 M225.2,87l4.9-4.8 M206.5,99l0.8-0.7 M184.8,75.1l-0.7,0.7 M211.4,61.8l-4.9,4.8 M213.2,73.6l5-4.8
		 M204.5,98.3l0.7-0.7 M185.4,77.2l-0.7,0.7 M200.2,99.5l2.8-2.8 M186.2,79.4l-2.8,2.8 M240.8,75.6l27.6-26.7 M197.5,117.6l0.7-0.7
		 M188.4,106.7l-0.7,0.7 M258.5,38.7L231,65.4 M60.6,152.1l42.9-41.7 M93.7,100.3l-43,41.6 M186.1,86.4l-70.8,68.7 M125.1,165.3
		L196,96.6 M47.7,35.8l-3.5,3.5 M234,155.2l3.6-3.4 M56.6,163.7l2.2-2 M39.2,140l-2.9,2.8 M84.7,186.3l5.7-5.5 M69.2,176.7l5.6-5.5
		 M22.2,107.1l-5.7,5.5 M29.5,124.3l-5.7,5.5 M104.3,188.6l5.7-5.5 M21.5,87.4l-5.6,5.5 M123.7,186.1l5.6-5.5 M25.6,68.4L20,73.9
		 M141.5,179l5.7-5.5 M34.2,51.2l-5.7,5.5 M167.3,155.3l5.6-5.5 M59.9,27.6l-5.6,5.5 M175.8,138.2l5.7-5.5 M77.8,20.5L72.1,26
		 M179.9,119.2l5.7-5.5 M97.1,18l-5.6,5.5 M116.8,20.3l-5.7,5.5 M172,82.3l5.7-5.5 M132.3,29.9l-5.7,5.5 M159.5,69.3l5.7-5.5
		 M144.8,42.9l-5.6,5.4"/>
</g>
</svg>
